<svg width="328" height="60" viewBox="0 0 328 60" fill="none" xmlns="http://www.w3.org/2000/svg">
<path d="M6.54616 0.90909V30H0.395597V0.90909H6.54616ZM35.9389 0.90909V30H30.6264L17.9702 11.6903H17.7571V30H11.6065V0.90909H17.0043L29.5611 19.2045H29.8168V0.90909H35.9389ZM47.1712 0.90909V30H41.0206V0.90909H47.1712ZM52.2315 30V0.90909H71.4929V5.98011H58.3821V12.9119H70.2145V17.983H58.3821V30H52.2315ZM81.7805 0.90909V30H75.63V0.90909H81.7805ZM111.173 0.90909V30H105.861L93.2045 11.6903H92.9915V30H86.8409V0.90909H92.2386L104.795 19.2045H105.051V0.90909H111.173ZM122.406 0.90909V30H116.255V0.90909H122.406ZM126.358 5.98011V0.90909H150.25V5.98011H141.344V30H135.264V5.98011H126.358ZM152.48 0.90909H159.369L166.003 13.4375H166.287L172.92 0.90909H179.81L169.199 19.7159V30H163.091V19.7159L152.48 0.90909ZM192.427 30V0.90909H203.904C206.111 0.90909 207.99 1.33049 209.543 2.1733C211.096 3.00663 212.28 4.16667 213.094 5.65341C213.918 7.13068 214.33 8.83523 214.33 10.767C214.33 12.6989 213.914 14.4034 213.08 15.8807C212.247 17.358 211.04 18.5085 209.458 19.3324C207.886 20.1562 205.983 20.5682 203.748 20.5682H196.433V15.6392H202.754C203.937 15.6392 204.913 15.4356 205.68 15.0284C206.456 14.6117 207.034 14.0388 207.413 13.3097C207.801 12.571 207.995 11.7235 207.995 10.767C207.995 9.80114 207.801 8.95833 207.413 8.23864C207.034 7.50947 206.456 6.94602 205.68 6.5483C204.903 6.1411 203.918 5.9375 202.725 5.9375H198.577V30H192.427ZM224.476 0.90909V30H218.325V0.90909H224.476ZM235.303 0.90909L241.17 10.8239H241.397L247.292 0.90909H254.238L245.36 15.4545L254.437 30H247.363L241.397 20.071H241.17L235.204 30H228.158L237.263 15.4545L228.329 0.90909H235.303ZM258.13 30V0.90909H277.732V5.98011H264.281V12.9119H276.724V17.983H264.281V24.929H277.789V30H258.13ZM282.622 30V0.90909H288.773V24.929H301.244V30H282.622ZM321.099 9.27557C320.985 8.12973 320.497 7.23958 319.636 6.60511C318.774 5.97064 317.604 5.65341 316.127 5.65341C315.123 5.65341 314.276 5.79545 313.585 6.07955C312.893 6.35417 312.363 6.73769 311.994 7.23011C311.634 7.72254 311.454 8.28125 311.454 8.90625C311.435 9.42708 311.544 9.88163 311.781 10.2699C312.027 10.6581 312.363 10.9943 312.789 11.2784C313.215 11.553 313.708 11.7945 314.266 12.0028C314.825 12.2017 315.422 12.3722 316.056 12.5142L318.67 13.1392C319.939 13.4233 321.103 13.8021 322.164 14.2756C323.225 14.7491 324.143 15.3314 324.92 16.0227C325.696 16.714 326.298 17.5284 326.724 18.4659C327.159 19.4034 327.382 20.4782 327.391 21.6903C327.382 23.4706 326.927 25.0142 326.028 26.321C325.138 27.6184 323.85 28.6269 322.164 29.3466C320.488 30.0568 318.466 30.4119 316.099 30.4119C313.75 30.4119 311.705 30.0521 309.962 29.3324C308.229 28.6127 306.875 27.5473 305.9 26.1364C304.934 24.7159 304.427 22.9593 304.38 20.8665H310.332C310.398 21.8419 310.677 22.6562 311.17 23.3097C311.672 23.9536 312.339 24.4413 313.173 24.7727C314.015 25.0947 314.967 25.2557 316.028 25.2557C317.069 25.2557 317.974 25.1042 318.741 24.8011C319.517 24.4981 320.119 24.0767 320.545 23.5369C320.971 22.9972 321.184 22.3769 321.184 21.6761C321.184 21.0227 320.99 20.4735 320.602 20.0284C320.223 19.5833 319.664 19.2045 318.925 18.892C318.196 18.5795 317.301 18.2955 316.241 18.0398L313.073 17.2443C310.621 16.6477 308.684 15.715 307.263 14.446C305.843 13.1771 305.138 11.4678 305.147 9.31818C305.138 7.55682 305.606 6.01799 306.553 4.7017C307.51 3.38542 308.821 2.35795 310.488 1.61932C312.155 0.880681 314.049 0.511363 316.17 0.511363C318.329 0.511363 320.213 0.880681 321.823 1.61932C323.442 2.35795 324.702 3.38542 325.602 4.7017C326.501 6.01799 326.965 7.54261 326.994 9.27557H321.099ZM269.989 48.8409L268.182 49.3523C268.068 49.0511 267.901 48.7585 267.679 48.4744C267.463 48.1847 267.168 47.946 266.793 47.7585C266.418 47.571 265.938 47.4773 265.352 47.4773C264.551 47.4773 263.884 47.6619 263.349 48.0312C262.821 48.3949 262.557 48.858 262.557 49.4205C262.557 49.9205 262.739 50.3153 263.102 50.6051C263.466 50.8949 264.034 51.1364 264.807 51.3295L266.75 51.8068C267.92 52.0909 268.793 52.5256 269.366 53.1108C269.94 53.6903 270.227 54.4375 270.227 55.3523C270.227 56.1023 270.011 56.7727 269.58 57.3636C269.153 57.9545 268.557 58.4205 267.79 58.7614C267.023 59.1023 266.131 59.2727 265.114 59.2727C263.778 59.2727 262.673 58.983 261.798 58.4034C260.923 57.8239 260.369 56.9773 260.136 55.8636L262.045 55.3864C262.227 56.0909 262.571 56.6193 263.077 56.9716C263.588 57.3239 264.256 57.5 265.08 57.5C266.017 57.5 266.761 57.3011 267.312 56.9034C267.869 56.5 268.148 56.017 268.148 55.4545C268.148 55 267.989 54.6193 267.67 54.3125C267.352 54 266.864 53.767 266.205 53.6136L264.023 53.1023C262.824 52.8182 261.943 52.3778 261.381 51.7812C260.824 51.179 260.545 50.4261 260.545 49.5227C260.545 48.7841 260.753 48.1307 261.168 47.5625C261.588 46.9943 262.159 46.5483 262.881 46.2244C263.608 45.9006 264.432 45.7386 265.352 45.7386C266.648 45.7386 267.665 46.0227 268.403 46.5909C269.148 47.1591 269.676 47.9091 269.989 48.8409ZM278.948 45.9091V47.6136H272.164V45.9091H278.948ZM274.141 42.7727H276.153V55.25C276.153 55.8182 276.235 56.2443 276.4 56.5284C276.57 56.8068 276.786 56.9943 277.048 57.0909C277.315 57.1818 277.596 57.2273 277.891 57.2273C278.113 57.2273 278.295 57.2159 278.437 57.1932C278.579 57.1648 278.692 57.142 278.778 57.125L279.187 58.9318C279.05 58.983 278.86 59.0341 278.616 59.0852C278.371 59.142 278.062 59.1705 277.687 59.1705C277.119 59.1705 276.562 59.0483 276.016 58.804C275.477 58.5597 275.028 58.1875 274.67 57.6875C274.317 57.1875 274.141 56.5568 274.141 55.7955V42.7727ZM290.224 53.6477V45.9091H292.235V59H290.224V56.7841H290.087C289.781 57.4489 289.303 58.0142 288.656 58.4801C288.008 58.9403 287.19 59.1705 286.201 59.1705C285.383 59.1705 284.656 58.9915 284.019 58.6335C283.383 58.2699 282.883 57.7244 282.519 56.9972C282.156 56.2642 281.974 55.3409 281.974 54.2273V45.9091H283.985V54.0909C283.985 55.0455 284.252 55.8068 284.786 56.375C285.326 56.9432 286.013 57.2273 286.849 57.2273C287.349 57.2273 287.857 57.0994 288.374 56.8438C288.897 56.5881 289.335 56.196 289.687 55.6676C290.045 55.1392 290.224 54.4659 290.224 53.6477ZM300.862 59.2727C299.771 59.2727 298.808 58.9972 297.973 58.446C297.138 57.8892 296.484 57.1051 296.013 56.0938C295.541 55.0767 295.305 53.875 295.305 52.4886C295.305 51.1136 295.541 49.9205 296.013 48.9091C296.484 47.8977 297.141 47.1165 297.982 46.5653C298.822 46.0142 299.794 45.7386 300.896 45.7386C301.749 45.7386 302.422 45.8807 302.916 46.1648C303.416 46.4432 303.797 46.7614 304.058 47.1193C304.325 47.4716 304.533 47.7614 304.68 47.9886H304.851V41.5455H306.862V59H304.919V56.9886H304.68C304.533 57.2273 304.322 57.5284 304.05 57.892C303.777 58.25 303.388 58.571 302.882 58.8551C302.376 59.1335 301.703 59.2727 300.862 59.2727ZM301.135 57.4659C301.942 57.4659 302.624 57.2557 303.18 56.8352C303.737 56.4091 304.161 55.821 304.45 55.071C304.74 54.3153 304.885 53.4432 304.885 52.4545C304.885 51.4773 304.743 50.6222 304.459 49.8892C304.175 49.1506 303.754 48.5767 303.197 48.1676C302.641 47.7528 301.953 47.5455 301.135 47.5455C300.283 47.5455 299.572 47.7642 299.004 48.2017C298.442 48.6335 298.018 49.2216 297.734 49.9659C297.456 50.7045 297.317 51.5341 297.317 52.4545C297.317 53.3864 297.459 54.233 297.743 54.9943C298.033 55.75 298.459 56.3523 299.021 56.8011C299.589 57.2443 300.294 57.4659 301.135 57.4659ZM310.825 59V45.9091H312.837V59H310.825ZM311.848 43.7273C311.456 43.7273 311.118 43.5938 310.834 43.3267C310.555 43.0597 310.416 42.7386 310.416 42.3636C310.416 41.9886 310.555 41.6676 310.834 41.4006C311.118 41.1335 311.456 41 311.848 41C312.24 41 312.575 41.1335 312.854 41.4006C313.138 41.6676 313.28 41.9886 313.28 42.3636C313.28 42.7386 313.138 43.0597 312.854 43.3267C312.575 43.5938 312.24 43.7273 311.848 43.7273ZM321.839 59.2727C320.657 59.2727 319.62 58.9915 318.728 58.429C317.842 57.8665 317.148 57.0795 316.648 56.0682C316.154 55.0568 315.907 53.875 315.907 52.5227C315.907 51.1591 316.154 49.9687 316.648 48.9517C317.148 47.9347 317.842 47.1449 318.728 46.5824C319.62 46.0199 320.657 45.7386 321.839 45.7386C323.021 45.7386 324.055 46.0199 324.941 46.5824C325.833 47.1449 326.526 47.9347 327.021 48.9517C327.521 49.9687 327.771 51.1591 327.771 52.5227C327.771 53.875 327.521 55.0568 327.021 56.0682C326.526 57.0795 325.833 57.8665 324.941 58.429C324.055 58.9915 323.021 59.2727 321.839 59.2727ZM321.839 57.4659C322.737 57.4659 323.475 57.2358 324.055 56.7756C324.634 56.3153 325.063 55.7102 325.342 54.9602C325.62 54.2102 325.759 53.3977 325.759 52.5227C325.759 51.6477 325.62 50.8324 325.342 50.0767C325.063 49.321 324.634 48.7102 324.055 48.2443C323.475 47.7784 322.737 47.5455 321.839 47.5455C320.941 47.5455 320.202 47.7784 319.623 48.2443C319.043 48.7102 318.614 49.321 318.336 50.0767C318.058 50.8324 317.918 51.6477 317.918 52.5227C317.918 53.3977 318.058 54.2102 318.336 54.9602C318.614 55.7102 319.043 56.3153 319.623 56.7756C320.202 57.2358 320.941 57.4659 321.839 57.4659Z" fill="#747474"/>
</svg>
