<svg width="239" height="64" viewBox="0 0 239 64" fill="none" xmlns="http://www.w3.org/2000/svg">
<path d="M0.0227273 24V0.727272H4.94318V10.9886H5.25L13.625 0.727272H19.5227L10.8864 11.1477L19.625 24H13.7386L7.36364 14.4318L4.94318 17.3864V24H0.0227273ZM26.0966 24H20.8239L28.858 0.727272H35.1989L43.2216 24H37.9489L32.1193 6.04545H31.9375L26.0966 24ZM25.767 14.8523H38.2216V18.6932H25.767V14.8523ZM65.4886 0.727272V24H61.2386L51.1136 9.35227H50.9432V24H46.0227V0.727272H50.3409L60.3864 15.3636H60.5909V0.727272H65.4886ZM68.1903 0.727272H73.7017L79.0085 10.75H79.2358L84.5426 0.727272H90.054L81.5653 15.7727V24H76.679V15.7727L68.1903 0.727272ZM94.3778 24H89.1051L97.1392 0.727272H103.48L111.503 24H106.23L100.401 6.04545H100.219L94.3778 24ZM94.0483 14.8523H106.503V18.6932H94.0483V14.8523ZM114.304 24V0.727272H119.224V10.9886H119.531L127.906 0.727272H133.804L125.168 11.1477L133.906 24H128.02L121.645 14.4318L119.224 17.3864V24H114.304ZM150.741 0.727272H155.662V15.8409C155.662 17.5379 155.257 19.0227 154.446 20.2955C153.643 21.5682 152.518 22.5606 151.071 23.2727C149.624 23.9773 147.938 24.3295 146.014 24.3295C144.082 24.3295 142.393 23.9773 140.946 23.2727C139.499 22.5606 138.374 21.5682 137.571 20.2955C136.768 19.0227 136.366 17.5379 136.366 15.8409V0.727272H141.287V15.4205C141.287 16.3068 141.48 17.0947 141.866 17.7841C142.26 18.4735 142.813 19.0152 143.526 19.4091C144.238 19.803 145.067 20 146.014 20C146.969 20 147.798 19.803 148.503 19.4091C149.215 19.0152 149.764 18.4735 150.151 17.7841C150.545 17.0947 150.741 16.3068 150.741 15.4205V0.727272ZM159.71 0.727272H165.778L172.188 16.3636H172.46L178.869 0.727272H184.938V24H180.165V8.85227H179.972L173.949 23.8864H170.699L164.676 8.79545H164.483V24H159.71V0.727272ZM193.003 24H187.73L195.764 0.727272H202.105L210.128 24H204.855L199.026 6.04545H198.844L193.003 24ZM192.673 14.8523H205.128V18.6932H192.673V14.8523ZM212.929 24V0.727272H222.111C223.868 0.727272 225.368 1.04167 226.611 1.67045C227.861 2.29167 228.812 3.17424 229.463 4.31818C230.122 5.45454 230.452 6.79167 230.452 8.32955C230.452 9.875 230.118 11.2045 229.452 12.3182C228.785 13.4242 227.819 14.2727 226.554 14.8636C225.296 15.4545 223.774 15.75 221.986 15.75H215.838V11.7955H221.19C222.13 11.7955 222.91 11.6667 223.531 11.4091C224.152 11.1515 224.615 10.7652 224.918 10.25C225.228 9.73485 225.384 9.0947 225.384 8.32955C225.384 7.55682 225.228 6.9053 224.918 6.375C224.615 5.8447 224.149 5.44318 223.52 5.17045C222.899 4.89015 222.115 4.75 221.168 4.75H217.849V24H212.929ZM225.497 13.4091L231.281 24H225.849L220.19 13.4091H225.497ZM238.849 0.727272V24H233.929V0.727272H238.849ZM0.0227273 63V39.7273H9.20455C10.9697 39.7273 12.4735 40.0644 13.7159 40.7386C14.9583 41.4053 15.9053 42.3333 16.5568 43.5227C17.2159 44.7045 17.5455 46.0682 17.5455 47.6136C17.5455 49.1591 17.2121 50.5227 16.5455 51.7045C15.8788 52.8864 14.9129 53.8068 13.6477 54.4659C12.3902 55.125 10.8674 55.4545 9.07955 55.4545H3.22727V51.5114H8.28409C9.23106 51.5114 10.0114 51.3485 10.625 51.0227C11.2462 50.6894 11.7083 50.2311 12.0114 49.6477C12.322 49.0568 12.4773 48.3788 12.4773 47.6136C12.4773 46.8409 12.322 46.1667 12.0114 45.5909C11.7083 45.0076 11.2462 44.5568 10.625 44.2386C10.0038 43.9129 9.21591 43.75 8.26136 43.75H4.94318V63H0.0227273ZM42.1278 51.3636C42.1278 53.9015 41.6468 56.0606 40.6847 57.8409C39.7301 59.6212 38.4271 60.9811 36.7756 61.9205C35.1316 62.8523 33.2831 63.3182 31.2301 63.3182C29.1619 63.3182 27.3059 62.8485 25.6619 61.9091C24.018 60.9697 22.7188 59.6098 21.7642 57.8295C20.8097 56.0492 20.3324 53.8939 20.3324 51.3636C20.3324 48.8258 20.8097 46.6667 21.7642 44.8864C22.7188 43.1061 24.018 41.75 25.6619 40.8182C27.3059 39.8788 29.1619 39.4091 31.2301 39.4091C33.2831 39.4091 35.1316 39.8788 36.7756 40.8182C38.4271 41.75 39.7301 43.1061 40.6847 44.8864C41.6468 46.6667 42.1278 48.8258 42.1278 51.3636ZM37.1392 51.3636C37.1392 49.7197 36.893 48.3333 36.4006 47.2045C35.9157 46.0758 35.2301 45.2197 34.3438 44.6364C33.4574 44.053 32.4195 43.7614 31.2301 43.7614C30.0407 43.7614 29.0028 44.053 28.1165 44.6364C27.2301 45.2197 26.5407 46.0758 26.0483 47.2045C25.5634 48.3333 25.321 49.7197 25.321 51.3636C25.321 53.0076 25.5634 54.3939 26.0483 55.5227C26.5407 56.6515 27.2301 57.5076 28.1165 58.0909C29.0028 58.6742 30.0407 58.9659 31.2301 58.9659C32.4195 58.9659 33.4574 58.6742 34.3438 58.0909C35.2301 57.5076 35.9157 56.6515 36.4006 55.5227C36.893 54.3939 37.1392 53.0076 37.1392 51.3636ZM45.7727 63V39.7273H50.6932V58.9432H60.6705V63H45.7727ZM59.5966 39.7273H65.108L70.4148 49.75H70.642L75.9489 39.7273H81.4602L72.9716 54.7727V63H68.0852V54.7727L59.5966 39.7273ZM84.1477 39.7273H90.2159L96.625 55.3636H96.8977L103.307 39.7273H109.375V63H104.602V47.8523H104.409L98.3864 62.8864H95.1364L89.1136 47.7955H88.9205V63H84.1477V39.7273ZM113.429 63V39.7273H129.111V43.7841H118.349V49.3295H128.304V53.3864H118.349V58.9432H129.156V63H113.429ZM133.023 63V39.7273H142.205C143.962 39.7273 145.462 40.0417 146.705 40.6705C147.955 41.2917 148.905 42.1742 149.557 43.3182C150.216 44.4545 150.545 45.7917 150.545 47.3295C150.545 48.875 150.212 50.2045 149.545 51.3182C148.879 52.4242 147.913 53.2727 146.648 53.8636C145.39 54.4545 143.867 54.75 142.08 54.75H135.932V50.7955H141.284C142.223 50.7955 143.004 50.6667 143.625 50.4091C144.246 50.1515 144.708 49.7652 145.011 49.25C145.322 48.7348 145.477 48.0947 145.477 47.3295C145.477 46.5568 145.322 45.9053 145.011 45.375C144.708 44.8447 144.242 44.4432 143.614 44.1705C142.992 43.8902 142.208 43.75 141.261 43.75H137.943V63H133.023ZM145.591 52.4091L151.375 63H145.943L140.284 52.4091H145.591ZM166.648 46.4205C166.557 45.5038 166.167 44.7917 165.477 44.2841C164.788 43.7765 163.852 43.5227 162.67 43.5227C161.867 43.5227 161.189 43.6364 160.636 43.8636C160.083 44.0833 159.659 44.3902 159.364 44.7841C159.076 45.178 158.932 45.625 158.932 46.125C158.917 46.5417 159.004 46.9053 159.193 47.2159C159.39 47.5265 159.659 47.7955 160 48.0227C160.341 48.2424 160.735 48.4356 161.182 48.6023C161.629 48.7614 162.106 48.8977 162.614 49.0114L164.705 49.5114C165.72 49.7386 166.652 50.0417 167.5 50.4205C168.348 50.7992 169.083 51.2652 169.705 51.8182C170.326 52.3712 170.807 53.0227 171.148 53.7727C171.496 54.5227 171.674 55.3826 171.682 56.3523C171.674 57.7765 171.311 59.0114 170.591 60.0568C169.879 61.0947 168.848 61.9015 167.5 62.4773C166.159 63.0455 164.542 63.3295 162.648 63.3295C160.769 63.3295 159.133 63.0417 157.739 62.4659C156.352 61.8902 155.269 61.0379 154.489 59.9091C153.716 58.7727 153.311 57.3674 153.273 55.6932H158.034C158.087 56.4735 158.311 57.125 158.705 57.6477C159.106 58.1629 159.64 58.553 160.307 58.8182C160.981 59.0758 161.742 59.2045 162.591 59.2045C163.424 59.2045 164.148 59.0833 164.761 58.8409C165.383 58.5985 165.864 58.2614 166.205 57.8295C166.545 57.3977 166.716 56.9015 166.716 56.3409C166.716 55.8182 166.561 55.3788 166.25 55.0227C165.947 54.6667 165.5 54.3636 164.909 54.1136C164.326 53.8636 163.61 53.6364 162.761 53.4318L160.227 52.7955C158.265 52.3182 156.716 51.572 155.58 50.5568C154.443 49.5417 153.879 48.1742 153.886 46.4545C153.879 45.0455 154.254 43.8144 155.011 42.7614C155.777 41.7083 156.826 40.8864 158.159 40.2955C159.492 39.7045 161.008 39.4091 162.705 39.4091C164.432 39.4091 165.939 39.7045 167.227 40.2955C168.523 40.8864 169.53 41.7083 170.25 42.7614C170.97 43.8144 171.341 45.0341 171.364 46.4205H166.648Z" fill="#747474"/>
</svg>
