<svg width="234" height="70" viewBox="0 0 234 70" fill="none" xmlns="http://www.w3.org/2000/svg">
<path d="M0.863772 35V0.0909081H8.24445V28.9148H23.2104V35H0.863772ZM88.0606 0.0909081H95.4413V22.7614C95.4413 25.3068 94.8334 27.5341 93.6175 29.4432C92.4129 31.3523 90.7254 32.8409 88.555 33.9091C86.3845 34.9659 83.8561 35.4943 80.9697 35.4943C78.072 35.4943 75.5379 34.9659 73.3675 33.9091C71.197 32.8409 69.5095 31.3523 68.305 29.4432C67.1004 27.5341 66.4981 25.3068 66.4981 22.7614V0.0909081H73.8788V22.1307C73.8788 23.4602 74.1686 24.642 74.7481 25.6761C75.3391 26.7102 76.1686 27.5227 77.2368 28.1136C78.305 28.7045 79.5493 29 80.9697 29C82.4016 29 83.6459 28.7045 84.7027 28.1136C85.7709 27.5227 86.5947 26.7102 87.1743 25.6761C87.7652 24.642 88.0606 23.4602 88.0606 22.1307V0.0909081ZM139.914 35V0.0909081H153.687C156.323 0.0909081 158.573 0.562499 160.437 1.50568C162.312 2.4375 163.738 3.76136 164.715 5.47727C165.704 7.18182 166.198 9.1875 166.198 11.4943C166.198 13.8125 165.698 15.8068 164.698 17.4773C163.698 19.1364 162.249 20.4091 160.351 21.2955C158.465 22.1818 156.181 22.625 153.499 22.625H144.277V16.6932H152.306C153.715 16.6932 154.885 16.5 155.817 16.1136C156.749 15.7273 157.442 15.1477 157.897 14.375C158.363 13.6023 158.596 12.642 158.596 11.4943C158.596 10.3352 158.363 9.35795 157.897 8.5625C157.442 7.76704 156.743 7.16477 155.8 6.75568C154.868 6.33523 153.692 6.125 152.272 6.125H147.294V35H139.914ZM158.766 19.1136L167.442 35H159.294L150.806 19.1136H158.766ZM209.814 35V0.0909081H233.337V6.17614H217.194V14.4943H232.126V20.5795H217.194V28.9148H233.405V35H209.814ZM6.25994 64L2.27131 50.9091H4.38494L7.21449 60.9318H7.35085L10.1463 50.9091H12.294L15.0554 60.8977H15.1918L18.0213 50.9091H20.1349L16.1463 64H14.169L11.3054 53.9432H11.1009L8.23722 64H6.25994ZM27.8374 64.2727C26.576 64.2727 25.4879 63.9943 24.5732 63.4375C23.6641 62.875 22.9624 62.0909 22.468 61.0852C21.9794 60.0739 21.7351 58.8977 21.7351 57.5568C21.7351 56.2159 21.9794 55.0341 22.468 54.0114C22.9624 52.983 23.6499 52.1818 24.5305 51.608C25.4169 51.0284 26.451 50.7386 27.6328 50.7386C28.3146 50.7386 28.9879 50.8523 29.6527 51.0795C30.3175 51.3068 30.9226 51.6761 31.468 52.1875C32.0135 52.6932 32.4482 53.3636 32.772 54.1989C33.0959 55.0341 33.2578 56.0625 33.2578 57.2841V58.1364H23.1669V56.3977H31.2124C31.2124 55.6591 31.0646 55 30.7692 54.4205C30.4794 53.8409 30.0646 53.3835 29.5249 53.0483C28.9908 52.7131 28.3601 52.5455 27.6328 52.5455C26.8317 52.5455 26.1385 52.7443 25.5533 53.142C24.9737 53.5341 24.5277 54.0455 24.2152 54.6761C23.9027 55.3068 23.7464 55.983 23.7464 56.7045V57.8636C23.7464 58.8523 23.9169 59.6903 24.2578 60.3778C24.6044 61.0597 25.0845 61.5795 25.6982 61.9375C26.3118 62.2898 27.0249 62.4659 27.8374 62.4659C28.3658 62.4659 28.843 62.392 29.2692 62.2443C29.701 62.0909 30.0732 61.8636 30.3857 61.5625C30.6982 61.2557 30.9396 60.875 31.1101 60.4205L33.0533 60.9659C32.8487 61.625 32.505 62.2045 32.022 62.7045C31.5391 63.1989 30.9425 63.5852 30.2322 63.8636C29.522 64.1364 28.7237 64.2727 27.8374 64.2727ZM43.0675 64V50.9091H45.0788V64H43.0675ZM44.0902 48.7273C43.6982 48.7273 43.3601 48.5938 43.076 48.3267C42.7976 48.0597 42.6584 47.7386 42.6584 47.3636C42.6584 46.9886 42.7976 46.6676 43.076 46.4006C43.3601 46.1335 43.6982 46 44.0902 46C44.4822 46 44.8175 46.1335 45.0959 46.4006C45.38 46.6676 45.522 46.9886 45.522 47.3636C45.522 47.7386 45.38 48.0597 45.0959 48.3267C44.8175 48.5938 44.4822 48.7273 44.0902 48.7273ZM50.7741 56.125V64H48.7628V50.9091H50.706V52.9545H50.8764C51.1832 52.2898 51.6491 51.7557 52.2741 51.3523C52.8991 50.9432 53.706 50.7386 54.6946 50.7386C55.581 50.7386 56.3565 50.9205 57.0213 51.2841C57.6861 51.642 58.2031 52.1875 58.5724 52.9205C58.9418 53.6477 59.1264 54.5682 59.1264 55.6818V64H57.1151V55.8182C57.1151 54.7898 56.848 53.9886 56.3139 53.4148C55.7798 52.8352 55.0469 52.5455 54.1151 52.5455C53.473 52.5455 52.8991 52.6847 52.3935 52.9631C51.8935 53.2415 51.4986 53.6477 51.2088 54.1818C50.919 54.7159 50.7741 55.3636 50.7741 56.125ZM64.8132 56.125V64H62.8018V50.9091H64.745V52.9545H64.9155C65.2223 52.2898 65.6882 51.7557 66.3132 51.3523C66.9382 50.9432 67.745 50.7386 68.7337 50.7386C69.62 50.7386 70.3956 50.9205 71.0604 51.2841C71.7251 51.642 72.2422 52.1875 72.6115 52.9205C72.9808 53.6477 73.1655 54.5682 73.1655 55.6818V64H71.1541V55.8182C71.1541 54.7898 70.8871 53.9886 70.353 53.4148C69.8189 52.8352 69.0859 52.5455 68.1541 52.5455C67.5121 52.5455 66.9382 52.6847 66.4325 52.9631C65.9325 53.2415 65.5376 53.6477 65.2479 54.1818C64.9581 54.7159 64.8132 55.3636 64.8132 56.125ZM82.1591 64.2727C80.9773 64.2727 79.9403 63.9915 79.0483 63.429C78.1619 62.8665 77.4688 62.0795 76.9688 61.0682C76.4744 60.0568 76.2273 58.875 76.2273 57.5227C76.2273 56.1591 76.4744 54.9687 76.9688 53.9517C77.4688 52.9347 78.1619 52.1449 79.0483 51.5824C79.9403 51.0199 80.9773 50.7386 82.1591 50.7386C83.3409 50.7386 84.375 51.0199 85.2614 51.5824C86.1534 52.1449 86.8466 52.9347 87.3409 53.9517C87.8409 54.9687 88.0909 56.1591 88.0909 57.5227C88.0909 58.875 87.8409 60.0568 87.3409 61.0682C86.8466 62.0795 86.1534 62.8665 85.2614 63.429C84.375 63.9915 83.3409 64.2727 82.1591 64.2727ZM82.1591 62.4659C83.0568 62.4659 83.7955 62.2358 84.375 61.7756C84.9545 61.3153 85.3835 60.7102 85.6619 59.9602C85.9403 59.2102 86.0795 58.3977 86.0795 57.5227C86.0795 56.6477 85.9403 55.8324 85.6619 55.0767C85.3835 54.321 84.9545 53.7102 84.375 53.2443C83.7955 52.7784 83.0568 52.5455 82.1591 52.5455C81.2614 52.5455 80.5227 52.7784 79.9432 53.2443C79.3636 53.7102 78.9347 54.321 78.6562 55.0767C78.3778 55.8324 78.2386 56.6477 78.2386 57.5227C78.2386 58.3977 78.3778 59.2102 78.6562 59.9602C78.9347 60.7102 79.3636 61.3153 79.9432 61.7756C80.5227 62.2358 81.2614 62.4659 82.1591 62.4659ZM101.397 50.9091L96.5561 64H94.5107L89.6697 50.9091H91.8516L95.4652 61.3409H95.6016L99.2152 50.9091H101.397ZM107.506 64.3068C106.676 64.3068 105.923 64.1506 105.247 63.8381C104.571 63.5199 104.034 63.0625 103.636 62.4659C103.239 61.8636 103.04 61.1364 103.04 60.2841C103.04 59.5341 103.188 58.9261 103.483 58.4602C103.778 57.9886 104.173 57.6193 104.668 57.3523C105.162 57.0852 105.707 56.8864 106.304 56.7557C106.906 56.6193 107.511 56.5114 108.119 56.4318C108.915 56.3295 109.56 56.2528 110.054 56.2017C110.554 56.1449 110.918 56.0511 111.145 55.9205C111.378 55.7898 111.494 55.5625 111.494 55.2386V55.1705C111.494 54.3295 111.264 53.6761 110.804 53.2102C110.349 52.7443 109.659 52.5114 108.733 52.5114C107.773 52.5114 107.02 52.7216 106.474 53.142C105.929 53.5625 105.545 54.0114 105.324 54.4886L103.415 53.8068C103.756 53.0114 104.21 52.392 104.778 51.9489C105.352 51.5 105.977 51.1875 106.653 51.0114C107.335 50.8295 108.006 50.7386 108.665 50.7386C109.085 50.7386 109.568 50.7898 110.114 50.892C110.665 50.9886 111.196 51.1903 111.707 51.4972C112.224 51.804 112.653 52.267 112.994 52.8864C113.335 53.5057 113.506 54.3352 113.506 55.375V64H111.494V62.2273H111.392C111.256 62.5114 111.028 62.8153 110.71 63.1392C110.392 63.4631 109.969 63.7386 109.44 63.9659C108.912 64.1932 108.267 64.3068 107.506 64.3068ZM107.812 62.5C108.608 62.5 109.278 62.3438 109.824 62.0312C110.375 61.7188 110.79 61.3153 111.068 60.821C111.352 60.3267 111.494 59.8068 111.494 59.2614V57.4205C111.409 57.5227 111.222 57.6165 110.932 57.7017C110.648 57.7812 110.318 57.8523 109.943 57.9148C109.574 57.9716 109.213 58.0227 108.861 58.0682C108.514 58.108 108.233 58.142 108.017 58.1705C107.494 58.2386 107.006 58.3494 106.551 58.5028C106.102 58.6506 105.739 58.875 105.46 59.1761C105.188 59.4716 105.051 59.875 105.051 60.3864C105.051 61.0852 105.31 61.6136 105.827 61.9716C106.349 62.3239 107.011 62.5 107.812 62.5ZM122.87 50.9091V52.6136H116.086V50.9091H122.87ZM118.063 47.7727H120.075V60.25C120.075 60.8182 120.157 61.2443 120.322 61.5284C120.492 61.8068 120.708 61.9943 120.969 62.0909C121.237 62.1818 121.518 62.2273 121.813 62.2273C122.035 62.2273 122.217 62.2159 122.359 62.1932C122.501 62.1648 122.614 62.142 122.7 62.125L123.109 63.9318C122.972 63.983 122.782 64.0341 122.538 64.0852C122.293 64.142 121.984 64.1705 121.609 64.1705C121.04 64.1705 120.484 64.0483 119.938 63.804C119.398 63.5597 118.95 63.1875 118.592 62.6875C118.239 62.1875 118.063 61.5568 118.063 60.7955V47.7727ZM131.244 64.2727C129.982 64.2727 128.894 63.9943 127.979 63.4375C127.07 62.875 126.369 62.0909 125.874 61.0852C125.386 60.0739 125.141 58.8977 125.141 57.5568C125.141 56.2159 125.386 55.0341 125.874 54.0114C126.369 52.983 127.056 52.1818 127.937 51.608C128.823 51.0284 129.857 50.7386 131.039 50.7386C131.721 50.7386 132.394 50.8523 133.059 51.0795C133.724 51.3068 134.329 51.6761 134.874 52.1875C135.42 52.6932 135.854 53.3636 136.178 54.1989C136.502 55.0341 136.664 56.0625 136.664 57.2841V58.1364H126.573V56.3977H134.619C134.619 55.6591 134.471 55 134.175 54.4205C133.886 53.8409 133.471 53.3835 132.931 53.0483C132.397 52.7131 131.766 52.5455 131.039 52.5455C130.238 52.5455 129.545 52.7443 128.96 53.142C128.38 53.5341 127.934 54.0455 127.621 54.6761C127.309 55.3068 127.153 55.983 127.153 56.7045V57.8636C127.153 58.8523 127.323 59.6903 127.664 60.3778C128.011 61.0597 128.491 61.5795 129.104 61.9375C129.718 62.2898 130.431 62.4659 131.244 62.4659C131.772 62.4659 132.249 62.392 132.675 62.2443C133.107 62.0909 133.479 61.8636 133.792 61.5625C134.104 61.2557 134.346 60.875 134.516 60.4205L136.46 60.9659C136.255 61.625 135.911 62.2045 135.428 62.7045C134.945 63.1989 134.349 63.5852 133.638 63.8636C132.928 64.1364 132.13 64.2727 131.244 64.2727ZM151.417 64.2727C150.326 64.2727 149.363 63.9972 148.528 63.446C147.692 62.8892 147.039 62.1051 146.567 61.0938C146.096 60.0767 145.86 58.875 145.86 57.4886C145.86 56.1136 146.096 54.9205 146.567 53.9091C147.039 52.8977 147.695 52.1165 148.536 51.5653C149.377 51.0142 150.349 50.7386 151.451 50.7386C152.303 50.7386 152.977 50.8807 153.471 51.1648C153.971 51.4432 154.352 51.7614 154.613 52.1193C154.88 52.4716 155.087 52.7614 155.235 52.9886H155.406V46.5455H157.417V64H155.474V61.9886H155.235C155.087 62.2273 154.877 62.5284 154.604 62.892C154.332 63.25 153.942 63.571 153.437 63.8551C152.931 64.1335 152.258 64.2727 151.417 64.2727ZM151.69 62.4659C152.496 62.4659 153.178 62.2557 153.735 61.8352C154.292 61.4091 154.715 60.821 155.005 60.071C155.295 59.3153 155.44 58.4432 155.44 57.4545C155.44 56.4773 155.298 55.6222 155.013 54.8892C154.729 54.1506 154.309 53.5767 153.752 53.1676C153.195 52.7528 152.508 52.5455 151.69 52.5455C150.837 52.5455 150.127 52.7642 149.559 53.2017C148.996 53.6335 148.573 54.2216 148.289 54.9659C148.011 55.7045 147.871 56.5341 147.871 57.4545C147.871 58.3864 148.013 59.233 148.298 59.9943C148.587 60.75 149.013 61.3523 149.576 61.8011C150.144 62.2443 150.849 62.4659 151.69 62.4659ZM161.38 64V50.9091H163.391V64H161.38ZM162.403 48.7273C162.011 48.7273 161.673 48.5938 161.388 48.3267C161.11 48.0597 160.971 47.7386 160.971 47.3636C160.971 46.9886 161.11 46.6676 161.388 46.4006C161.673 46.1335 162.011 46 162.403 46C162.795 46 163.13 46.1335 163.408 46.4006C163.692 46.6676 163.835 46.9886 163.835 47.3636C163.835 47.7386 163.692 48.0597 163.408 48.3267C163.13 48.5938 162.795 48.7273 162.403 48.7273ZM172.359 69.1818C171.388 69.1818 170.553 69.0568 169.854 68.8068C169.155 68.5625 168.572 68.2386 168.107 67.8352C167.646 67.4375 167.28 67.0114 167.007 66.5568L168.609 65.4318C168.791 65.6705 169.021 65.9432 169.3 66.25C169.578 66.5625 169.959 66.8324 170.442 67.0597C170.93 67.2926 171.57 67.4091 172.359 67.4091C173.416 67.4091 174.288 67.1534 174.976 66.642C175.663 66.1307 176.007 65.3295 176.007 64.2386V61.5795H175.837C175.689 61.8182 175.479 62.1136 175.206 62.4659C174.939 62.8125 174.553 63.1222 174.047 63.3949C173.547 63.6619 172.871 63.7955 172.018 63.7955C170.962 63.7955 170.013 63.5455 169.172 63.0455C168.337 62.5455 167.675 61.8182 167.186 60.8636C166.703 59.9091 166.462 58.75 166.462 57.3864C166.462 56.0455 166.697 54.8778 167.169 53.8835C167.641 52.8835 168.297 52.1108 169.138 51.5653C169.979 51.0142 170.95 50.7386 172.053 50.7386C172.905 50.7386 173.581 50.8807 174.081 51.1648C174.587 51.4432 174.973 51.7614 175.24 52.1193C175.513 52.4716 175.723 52.7614 175.871 52.9886H176.075V50.9091H178.018V64.375C178.018 65.5 177.763 66.4148 177.251 67.1193C176.746 67.8295 176.064 68.3494 175.206 68.679C174.354 69.0142 173.405 69.1818 172.359 69.1818ZM172.291 61.9886C173.098 61.9886 173.78 61.804 174.337 61.4347C174.893 61.0653 175.317 60.5341 175.607 59.8409C175.896 59.1477 176.041 58.3182 176.041 57.3523C176.041 56.4091 175.899 55.5767 175.615 54.8551C175.331 54.1335 174.911 53.5682 174.354 53.1591C173.797 52.75 173.109 52.5455 172.291 52.5455C171.439 52.5455 170.729 52.7614 170.161 53.1932C169.598 53.625 169.175 54.2045 168.891 54.9318C168.612 55.6591 168.473 56.4659 168.473 57.3523C168.473 58.2614 168.615 59.0653 168.899 59.7642C169.189 60.4574 169.615 61.0028 170.178 61.4006C170.746 61.7926 171.45 61.9886 172.291 61.9886ZM181.7 64V50.9091H183.712V64H181.7ZM182.723 48.7273C182.331 48.7273 181.993 48.5938 181.709 48.3267C181.43 48.0597 181.291 47.7386 181.291 47.3636C181.291 46.9886 181.43 46.6676 181.709 46.4006C181.993 46.1335 182.331 46 182.723 46C183.115 46 183.45 46.1335 183.729 46.4006C184.013 46.6676 184.155 46.9886 184.155 47.3636C184.155 47.7386 184.013 48.0597 183.729 48.3267C183.45 48.5938 183.115 48.7273 182.723 48.7273ZM193.089 50.9091V52.6136H186.305V50.9091H193.089ZM188.282 47.7727H190.293V60.25C190.293 60.8182 190.376 61.2443 190.54 61.5284C190.711 61.8068 190.927 61.9943 191.188 62.0909C191.455 62.1818 191.737 62.2273 192.032 62.2273C192.254 62.2273 192.435 62.2159 192.577 62.1932C192.719 62.1648 192.833 62.142 192.918 62.125L193.327 63.9318C193.191 63.983 193.001 64.0341 192.756 64.0852C192.512 64.142 192.202 64.1705 191.827 64.1705C191.259 64.1705 190.702 64.0483 190.157 63.804C189.617 63.5597 189.168 63.1875 188.81 62.6875C188.458 62.1875 188.282 61.5568 188.282 60.7955V47.7727ZM199.967 64.3068C199.137 64.3068 198.384 64.1506 197.708 63.8381C197.032 63.5199 196.495 63.0625 196.097 62.4659C195.7 61.8636 195.501 61.1364 195.501 60.2841C195.501 59.5341 195.648 58.9261 195.944 58.4602C196.239 57.9886 196.634 57.6193 197.129 57.3523C197.623 57.0852 198.168 56.8864 198.765 56.7557C199.367 56.6193 199.972 56.5114 200.58 56.4318C201.376 56.3295 202.021 56.2528 202.515 56.2017C203.015 56.1449 203.379 56.0511 203.606 55.9205C203.839 55.7898 203.955 55.5625 203.955 55.2386V55.1705C203.955 54.3295 203.725 53.6761 203.265 53.2102C202.81 52.7443 202.12 52.5114 201.194 52.5114C200.234 52.5114 199.481 52.7216 198.935 53.142C198.39 53.5625 198.006 54.0114 197.785 54.4886L195.876 53.8068C196.217 53.0114 196.671 52.392 197.239 51.9489C197.813 51.5 198.438 51.1875 199.114 51.0114C199.796 50.8295 200.467 50.7386 201.126 50.7386C201.546 50.7386 202.029 50.7898 202.575 50.892C203.126 50.9886 203.657 51.1903 204.168 51.4972C204.685 51.804 205.114 52.267 205.455 52.8864C205.796 53.5057 205.967 54.3352 205.967 55.375V64H203.955V62.2273H203.853C203.717 62.5114 203.489 62.8153 203.171 63.1392C202.853 63.4631 202.43 63.7386 201.901 63.9659C201.373 64.1932 200.728 64.3068 199.967 64.3068ZM200.273 62.5C201.069 62.5 201.739 62.3438 202.285 62.0312C202.836 61.7188 203.251 61.3153 203.529 60.821C203.813 60.3267 203.955 59.8068 203.955 59.2614V57.4205C203.87 57.5227 203.683 57.6165 203.393 57.7017C203.109 57.7812 202.779 57.8523 202.404 57.9148C202.035 57.9716 201.674 58.0227 201.322 58.0682C200.975 58.108 200.694 58.142 200.478 58.1705C199.955 58.2386 199.467 58.3494 199.012 58.5028C198.563 58.6506 198.2 58.875 197.921 59.1761C197.648 59.4716 197.512 59.875 197.512 60.3864C197.512 61.0852 197.771 61.6136 198.288 61.9716C198.81 62.3239 199.472 62.5 200.273 62.5ZM211.649 46.5455V64H209.638V46.5455H211.649ZM217.344 46.5455V64H215.333V46.5455H217.344ZM222.324 68.9091C221.983 68.9091 221.679 68.8807 221.412 68.8239C221.145 68.7727 220.96 68.7216 220.858 68.6705L221.369 66.8977C221.858 67.0227 222.29 67.0682 222.665 67.0341C223.04 67 223.372 66.8324 223.662 66.5312C223.957 66.2358 224.227 65.7557 224.472 65.0909L224.847 64.0682L220.006 50.9091H222.188L225.801 61.3409H225.938L229.551 50.9091H231.733L226.176 65.9091C225.926 66.5852 225.616 67.1449 225.247 67.5881C224.878 68.0369 224.449 68.3693 223.96 68.5852C223.477 68.8011 222.932 68.9091 222.324 68.9091Z" fill="#747474"/>
</svg>
