<?xml version="1.0" encoding="UTF-8"?>
<svg id="Layer_1" data-name="Layer 1" xmlns="http://www.w3.org/2000/svg" viewBox="0 0 1048.79 273.03">
  <defs>
    <style>
      .cls-1 {
        fill: #666;
      }
    </style>
  </defs>
  <path class="cls-1" d="m0,43.32c4.26-1,3.19,3.1,4.66,4.8,10.77,12.44,18.51,27,27.59,40.57,9.26,13.83,18.11,28.02,27.33,41.89,9.56,14.39,18.18,29.43,29.18,43.3,6.68-5.34,9.58-13.7,14.66-20.41,4.69-6.2,8.59-13,12.76-19.59,6.06-9.58,12.31-19.05,18.57-28.47,4.05-6.11,7.95-12.41,12.23-18.42,6.46-9.06,12.22-18.62,18.3-27.96,3.06-4.71,6.15-9.41,9.25-14.11.62-.93,1.42-1.75,2.67-1.4,1.42.4,1.05,1.7,1.08,2.71.05,1.97.02,3.94.02,5.91,0,56.65-.08,113.31.14,169.96.02,5.63-1.14,7.98-7.12,7.3-7.08-.8-16.65,2.95-20.67-1.49-3.53-3.89-1.11-13.3-1.12-20.26-.05-25.14-.02-50.29-.02-75.48-2.82-.67-3.65,1.55-4.49,3.03-10.91,19.11-23.16,37.4-34.19,56.45-5.8,10.03-12.42,19.71-18.56,29.62-2.19,3.53-3.46,3.82-6.11-.05-9.83-14.37-18.22-29.63-27.72-44.21-8-12.26-14.97-25.23-23.35-37.3-1.88-2.7-1.67-6.81-5.84-8.41-1.58,2.05-.92,4.51-.92,6.69,0,28.21-.05,56.43.31,84.64.07,5.61-1.71,7.13-7.04,6.87-7.17-.34-14.37.11-21.56.23,0-62.13,0-124.27,0-186.4Z"/>
  <path class="cls-1" d="m1048.79,116.83c-4.07,5.84-4.47,13.2-9.09,19.11-12.89,16.5-28.59,26.84-50.07,26.87-10.27.01-20.54.24-30.8-.03-4.52-.12-5.94,1.21-5.87,5.85.26,17.49-.05,35,.16,52.49.05,4.19-.91,5.87-5.39,5.54-5.65-.41-11.38-.45-17.02-.04-5.16.38-6.61-1.37-6.57-6.55.23-33.68.12-67.37.12-101.05,0-22.75.15-45.5-.13-68.24-.06-4.97,1.34-6.22,6.2-6.14,18.34.3,36.71-.18,55.04.26,14.55.35,28.4,4.35,40.04,13.22,10.33,7.88,18.18,18.03,21.5,31.08.35,1.39.26,3.14,1.87,4.01v23.63Zm-95.71-12.28c0,8.73.15,17.47-.07,26.19-.08,3.39.87,4.62,4.37,4.53,8.06-.2,16.13.05,24.2-.01,10.73-.08,20.94-1.24,29.36-9.38,6.78-6.56,11.83-18.11,9.82-25.85-3.65-14.08-16.49-25.75-31.18-26.52-10.65-.56-21.36-.03-32.03-.28-4.01-.09-4.58,1.77-4.52,5.13.17,8.73.06,17.46.06,26.19Z"/>
  <path class="cls-1" d="m702.69,273.03c-13.52-12.81-19.53-29.62-25.27-46.7-2.62-7.79-6.91-14.99-8.11-23.31-.2-1.4-1.04-3.26-2.78-3.21-2,.05-2.89,2-3.27,3.65-1.57,6.74-5.54,12.2-9.1,17.9-3.24,5.19-9.55,8.58-12.78,6.31-4.94-3.46-5.39-8.15-3.46-13.89,6.39-19.06,13.51-37.76,23.56-55.27,4.23-7.38,11.68-9.07,18.14-3.62,3.13,2.64,5.03,6.22,5.8,9.96,3.19,15.46,7.76,30.47,12.62,45.5,5.07,15.7,11.95,30.58,18.36,45.66,3.22,7.57.3,12.24-4.51,17.03h-9.18Z"/>
  <path class="cls-1" d="m717.11,0c4.59,4.64,8.62,9.49,10.35,16.15,2.05,7.85,1.77,15.51.04,23.24-2.71,12.11-7.19,23.17-17.89,30.67-3.6,2.52-7.58,3.24-11.66,2.72-6.48-.82-11.32-8.71-10.16-16.92,1.94-13.77,7.33-25.69,19.4-33.77,1.46-.98,5.12-1.21,3.25-4.43-1.95-3.36-4.19-1.33-6.57.03-7.68,4.41-10.91,12.31-15.54,19.14-.73,1.08-1.42,2.2-2.02,3.37-1.49,2.91-4.08,1.93-6.36,1.76-3.21-.24-1.93-2.8-2.09-4.53-1-10.44,5.79-17.45,11.49-24.66,3.78-4.78,8.84-8.55,13.33-12.77,4.81,0,9.61,0,14.42,0Zm-5.46,37.76c-8.05,5.01-11.84,10.66-12.03,18.42-.03,1.42-.23,3.26,1.58,3.84,1.51.49,2.24-.99,3.09-1.9,5-5.4,6.45-11.99,7.36-20.37Z"/>
  <path class="cls-1" d="m269.95,42.62c4.93,10.52,9.61,19.95,13.8,29.6,6.27,14.4,13.34,28.41,19.52,42.86,3.53,8.25,7.59,16.39,11.36,24.59,6.28,13.66,13.19,27.02,18.77,41.02,3.66,9.19,8.32,18,12.79,26.84,3,5.92,4.8,12.4,8.64,17.95,1.6,2.31.99,3.96-2.42,3.9-7.86-.15-15.72-.21-23.58.02-2.74.08-3.63-1.28-4.82-3.29-3.98-6.71-6.64-14.01-9.61-21.16-1.26-3.03-3-4.21-6.37-4.19-25.76.14-51.53.11-77.29.04-3.18,0-4.36.77-5.73,4.23-2.84,7.19-6.86,13.94-9.49,21.29-.91,2.54-2.66,3.09-5.08,3.06-7.86-.07-15.72-.06-23.58,0-2.52.02-3.79-.31-2.36-3.29,5.52-11.44,11.01-22.89,16.27-34.45,5.81-12.79,11.25-25.75,17.05-38.55,4.28-9.44,9.16-18.61,13.3-28.1,5.94-13.66,13.08-26.76,18.34-40.73,2.12-5.63,5.28-10.86,7.91-16.25,4.02-8.23,6.32-17.44,12.55-25.39Z"/>
  <path class="cls-1" d="m915.06,110.11c0,17.06-.35,34.13.1,51.18.42,15.81-5.48,28.88-14.29,41.59-16.2,23.38-50.39,32.08-73.23,24.38-18.34-6.18-32.93-16.64-41.3-34.11-5.31-11.09-8.96-22.96-8.9-35.69.15-35.43.14-70.87-.09-106.31-.03-5.05,1.06-7.02,6.42-6.55,5.85.51,11.81.46,17.68.03,5.03-.37,6.18,1.43,6.15,6.27-.22,35-.06,69.99-.19,104.99-.03,9.24.96,17.73,6.14,26.08,16.03,25.8,50.67,24.9,66.11.61,4.94-7.77,6.65-16.37,6.67-25.33.09-35.22.13-70.43-.1-105.65-.03-5.22,1.02-7.51,6.71-6.99,5.41.5,10.93.4,16.37,0,4.59-.34,5.91,1.11,5.85,5.76-.26,19.9-.11,39.81-.11,59.71Z"/>
  <path class="cls-1" d="m495.65,138.38c0-28.2.16-56.4-.14-84.6-.06-5.41,1.65-6.48,6.64-6.45,32.09.2,64.19.17,96.28-.02,4.42-.03,6.41.84,5.94,5.67-.72,7.31,3.11,16.9-1.47,21.37-4.23,4.13-13.71,1.03-20.87,1.06-17.47.07-34.93.12-52.4-.07-3.86-.04-5.41.86-5.33,5.05.25,12.24.27,24.49-.01,36.72-.1,4.23,1.43,5.08,5.29,5.04,19.43-.19,38.87.07,58.29-.26,4.99-.09,6.46,1.28,6.06,6.18-.45,5.43-.4,10.95.02,16.38.37,4.83-1.51,5.65-5.95,5.58-18.99-.32-37.99,0-56.98-.42-5.68-.13-6.9,1.78-6.74,7.05.36,12.45.39,24.93-.01,37.38-.17,5.32,1.11,7.05,6.7,6.97,22.48-.33,44.98.03,67.46-.27,5.05-.07,6.37,1.39,5.97,6.22-.45,5.43-.41,10.95.04,16.38.41,4.98-1.26,6.18-6.17,6.15-32.31-.23-64.63-.22-96.94,0-4.72.03-5.82-1.33-5.79-5.85.19-28.42.1-56.84.12-85.26Z"/>
  <path class="cls-1" d="m390.12,133.51c4.68-6.29,8.62-11.28,12.23-16.5,9.05-13.07,18.19-26.07,27.82-38.73,6.62-8.71,12.36-18.08,18.67-27.03,1.46-2.06,3.32-3.91,6.4-3.87,9.75.12,19.51.04,30.16.04-9.59,13.18-18.69,25.57-27.66,38.06-8.6,11.99-16.98,24.14-25.64,36.09-2.78,3.83-6.02,7.29-8.61,11.34-1.92,2.99-1.74,4.64.41,7.35,10.03,12.65,19.85,25.47,29.61,38.34,8.79,11.59,17.1,23.55,26.22,34.87,3.91,4.85,7.74,9.71,12.28,15.82-12.18,0-23.43.68-34.5-.45-3-.3-5.56-5.95-8.13-9.3-10.4-13.54-20.76-27.11-31.06-40.73-8.14-10.76-16.16-21.62-24.26-32.41-.89-1.18-1.96-2.23-3.14-3.56-2.34,2.22-1.39,4.73-1.39,6.89-.07,24.49-.17,48.98.08,73.46.05,4.88-1.21,6.66-6.2,6.24-5.2-.44-10.51-.51-15.7-.02-5.23.49-6.01-1.67-5.99-6.33.17-38.92.08-77.84.08-116.76,0-17.71.15-35.42-.11-53.13-.07-4.56,1.16-6.19,5.82-5.86,5.43.39,10.94.39,16.36-.02,4.72-.36,5.85,1.41,5.8,5.9-.23,22.74-.17,45.48-.15,68.22,0,3.57.35,7.15.6,12.08Z"/>
  <path class="cls-1" d="m713.56,107.73c-5.95,3.85-8.4,10.34-12.31,15.46-5.4,7.05-10.57,14.26-16.95,20.47-6.51,6.34-10.8,5.66-16.44-1.34-6.91-8.57-5.26-18.99-6.98-28.66-.88-4.92-1.09-9.95-1.68-15.67-6.01,4.05-5.32,10.58-7.44,15.55-7.9,18.53-13.31,37.95-18.94,57.26-1.15,3.95-1.75,7.72.98,11.77,2.9,4.29-1.49,6.89-4.19,8.8-3.38,2.38-7.39,2.66-10.47-1.26-3.59-4.57-3.28-9.87-2.5-15.06.91-6,1.84-12.09,3.73-17.83,3.78-11.52,6.31-23.38,9.91-34.97,5.06-16.28,10.99-32.26,16.75-48.24,3.75-10.4,8.15-21.03,15.15-30.02,2.96-3.8,7.35-2,10.88-1.57,3.71.46,4.67,4.11,4.65,7.65-.12,16.61-.19,33.22-.38,49.84-.09,7.6-.19,15.19,1.04,23.7,6.77-4.66,9.21-11.82,13.59-17.32,6.57-8.25,12.18-17.27,18.64-25.62,6.88-8.91,14.35-17.36,21.41-26.13,4.96-6.16,9.58-12.59,14.5-18.79,2.29-2.88,11.06-3.67,14.66-1.21,4.62,3.15,4.28,7.59,2.6,12.25-4.11,11.4-11.22,21.41-15.4,32.72-6.82,18.43-14.23,36.7-16.9,56.4-.88,6.45-2.46,12.8-3.47,19.24-.71,4.51-1.31,9.13,1.39,13.34,2.31,3.61,4.45,7.16-.52,10.49-5.39,3.61-10.42,3.48-13.94-1.09-4.49-5.85-6.48-12.7-6.87-20.06-.81-15.38.49-30.48,5.49-45.15.35-1.02.49-2.12.61-3.19.04-.38-.25-.8-.58-1.76Z"/>
</svg>