<svg width="124" height="60" viewBox="0 0 124 60" fill="none" xmlns="http://www.w3.org/2000/svg">
<path d="M1.63388 30V0.90909H13.1112C15.3176 0.90909 17.1973 1.33049 18.7504 2.1733C20.3034 3.00663 21.4871 4.16667 22.3015 5.65341C23.1254 7.13068 23.5373 8.83523 23.5373 10.767C23.5373 12.6989 23.1206 14.4034 22.2873 15.8807C21.454 17.358 20.2466 18.5085 18.6651 19.3324C17.0932 20.1562 15.1897 20.5682 12.9549 20.5682H5.63956V15.6392H11.9606C13.1443 15.6392 14.1197 15.4356 14.8867 15.0284C15.6632 14.6117 16.2409 14.0388 16.6197 13.3097C17.0079 12.571 17.2021 11.7235 17.2021 10.767C17.2021 9.80114 17.0079 8.95833 16.6197 8.23864C16.2409 7.50947 15.6632 6.94602 14.8867 6.5483C14.1102 6.1411 13.1254 5.9375 11.9322 5.9375H7.78445V30H1.63388ZM33.6829 0.90909V30H27.5323V0.90909H33.6829ZM65.4762 15.4545C65.4762 18.6269 64.8749 21.3258 63.6722 23.5511C62.479 25.7765 60.8503 27.4763 58.7859 28.6506C56.7309 29.8153 54.4203 30.3977 51.854 30.3977C49.2688 30.3977 46.9487 29.8106 44.8938 28.6364C42.8389 27.4621 41.2148 25.7623 40.0217 23.5369C38.8285 21.3116 38.2319 18.6174 38.2319 15.4545C38.2319 12.2822 38.8285 9.58333 40.0217 7.35795C41.2148 5.13258 42.8389 3.4375 44.8938 2.27273C46.9487 1.09848 49.2688 0.511363 51.854 0.511363C54.4203 0.511363 56.7309 1.09848 58.7859 2.27273C60.8503 3.4375 62.479 5.13258 63.6722 7.35795C64.8749 9.58333 65.4762 12.2822 65.4762 15.4545ZM59.2404 15.4545C59.2404 13.3996 58.9326 11.6667 58.3171 10.2557C57.7111 8.8447 56.854 7.77462 55.7461 7.04545C54.6381 6.31629 53.3408 5.9517 51.854 5.9517C50.3673 5.9517 49.07 6.31629 47.962 7.04545C46.854 7.77462 45.9923 8.8447 45.3768 10.2557C44.7707 11.6667 44.4677 13.3996 44.4677 15.4545C44.4677 17.5095 44.7707 19.2424 45.3768 20.6534C45.9923 22.0644 46.854 23.1345 47.962 23.8636C49.07 24.5928 50.3673 24.9574 51.854 24.9574C53.3408 24.9574 54.6381 24.5928 55.7461 23.8636C56.854 23.1345 57.7111 22.0644 58.3171 20.6534C58.9326 19.2424 59.2404 17.5095 59.2404 15.4545ZM88.0011 0.90909H94.1516V19.8011C94.1516 21.9223 93.645 23.7784 92.6317 25.3693C91.628 26.9602 90.2217 28.2008 88.413 29.0909C86.6043 29.9716 84.4973 30.4119 82.092 30.4119C79.6772 30.4119 77.5655 29.9716 75.7567 29.0909C73.948 28.2008 72.5418 26.9602 71.538 25.3693C70.5342 23.7784 70.0323 21.9223 70.0323 19.8011V0.90909H76.1829V19.2756C76.1829 20.3835 76.4244 21.3684 76.9073 22.2301C77.3997 23.0919 78.091 23.7689 78.9812 24.2614C79.8713 24.7538 80.9083 25 82.092 25C83.2852 25 84.3221 24.7538 85.2028 24.2614C86.0929 23.7689 86.7795 23.0919 87.2624 22.2301C87.7549 21.3684 88.0011 20.3835 88.0011 19.2756V0.90909ZM114.993 9.27557C114.88 8.12973 114.392 7.23958 113.53 6.60511C112.668 5.97064 111.499 5.65341 110.022 5.65341C109.018 5.65341 108.17 5.79545 107.479 6.07955C106.788 6.35417 106.257 6.73769 105.888 7.23011C105.528 7.72254 105.348 8.28125 105.348 8.90625C105.329 9.42708 105.438 9.88163 105.675 10.2699C105.921 10.6581 106.257 10.9943 106.684 11.2784C107.11 11.553 107.602 11.7945 108.161 12.0028C108.72 12.2017 109.316 12.3722 109.951 12.5142L112.564 13.1392C113.833 13.4233 114.998 13.8021 116.059 14.2756C117.119 14.7491 118.038 15.3314 118.814 16.0227C119.591 16.714 120.192 17.5284 120.618 18.4659C121.054 19.4034 121.276 20.4782 121.286 21.6903C121.276 23.4706 120.822 25.0142 119.922 26.321C119.032 27.6184 117.744 28.6269 116.059 29.3466C114.382 30.0568 112.361 30.4119 109.993 30.4119C107.645 30.4119 105.599 30.0521 103.857 29.3324C102.124 28.6127 100.77 27.5473 99.7944 26.1364C98.8285 24.7159 98.3219 22.9593 98.2745 20.8665H104.226C104.292 21.8419 104.572 22.6562 105.064 23.3097C105.566 23.9536 106.234 24.4413 107.067 24.7727C107.91 25.0947 108.862 25.2557 109.922 25.2557C110.964 25.2557 111.868 25.1042 112.635 24.8011C113.412 24.4981 114.013 24.0767 114.439 23.5369C114.865 22.9972 115.078 22.3769 115.078 21.6761C115.078 21.0227 114.884 20.4735 114.496 20.0284C114.117 19.5833 113.559 19.2045 112.82 18.892C112.091 18.5795 111.196 18.2955 110.135 18.0398L106.968 17.2443C104.515 16.6477 102.578 15.715 101.158 14.446C99.7376 13.1771 99.0321 11.4678 99.0415 9.31818C99.0321 7.55682 99.5008 6.01799 100.448 4.7017C101.404 3.38542 102.716 2.35795 104.382 1.61932C106.049 0.880681 107.943 0.511363 110.064 0.511363C112.223 0.511363 114.108 0.880681 115.718 1.61932C117.337 2.35795 118.596 3.38542 119.496 4.7017C120.396 6.01799 120.86 7.54261 120.888 9.27557H114.993ZM0.617543 41.5455H3.14027L9.07209 56.0341H9.27663L15.2085 41.5455H17.7312V59H15.7539V45.7386H15.5835L10.1289 59H8.21982L2.76527 45.7386H2.59482V59H0.617543V41.5455ZM27.0146 59.2727C25.8327 59.2727 24.7958 58.9915 23.9038 58.429C23.0174 57.8665 22.3242 57.0795 21.8242 56.0682C21.3299 55.0568 21.0827 53.875 21.0827 52.5227C21.0827 51.1591 21.3299 49.9687 21.8242 48.9517C22.3242 47.9347 23.0174 47.1449 23.9038 46.5824C24.7958 46.0199 25.8327 45.7386 27.0146 45.7386C28.1964 45.7386 29.2305 46.0199 30.1168 46.5824C31.0089 47.1449 31.7021 47.9347 32.1964 48.9517C32.6964 49.9687 32.9464 51.1591 32.9464 52.5227C32.9464 53.875 32.6964 55.0568 32.1964 56.0682C31.7021 57.0795 31.0089 57.8665 30.1168 58.429C29.2305 58.9915 28.1964 59.2727 27.0146 59.2727ZM27.0146 57.4659C27.9123 57.4659 28.6509 57.2358 29.2305 56.7756C29.81 56.3153 30.239 55.7102 30.5174 54.9602C30.7958 54.2102 30.935 53.3977 30.935 52.5227C30.935 51.6477 30.7958 50.8324 30.5174 50.0767C30.239 49.321 29.81 48.7102 29.2305 48.2443C28.6509 47.7784 27.9123 47.5455 27.0146 47.5455C26.1168 47.5455 25.3782 47.7784 24.7987 48.2443C24.2191 48.7102 23.7901 49.321 23.5117 50.0767C23.2333 50.8324 23.0941 51.6477 23.0941 52.5227C23.0941 53.3977 23.2333 54.2102 23.5117 54.9602C23.7901 55.7102 24.2191 56.3153 24.7987 56.7756C25.3782 57.2358 26.1168 57.4659 27.0146 57.4659ZM41.7099 45.9091V47.6136H34.9258V45.9091H41.7099ZM36.9031 42.7727H38.9144V55.25C38.9144 55.8182 38.9968 56.2443 39.1616 56.5284C39.332 56.8068 39.5479 56.9943 39.8093 57.0909C40.0763 57.1818 40.3576 57.2273 40.6531 57.2273C40.8746 57.2273 41.0565 57.2159 41.1985 57.1932C41.3406 57.1648 41.4542 57.142 41.5394 57.125L41.9485 58.9318C41.8121 58.983 41.6218 59.0341 41.3775 59.0852C41.1332 59.142 40.8235 59.1705 40.4485 59.1705C39.8803 59.1705 39.3235 59.0483 38.7781 58.804C38.2383 58.5597 37.7894 58.1875 37.4315 57.6875C37.0792 57.1875 36.9031 56.5568 36.9031 55.7955V42.7727ZM49.913 59.2727C48.7312 59.2727 47.6942 58.9915 46.8022 58.429C45.9158 57.8665 45.2227 57.0795 44.7227 56.0682C44.2283 55.0568 43.9812 53.875 43.9812 52.5227C43.9812 51.1591 44.2283 49.9687 44.7227 48.9517C45.2227 47.9347 45.9158 47.1449 46.8022 46.5824C47.6942 46.0199 48.7312 45.7386 49.913 45.7386C51.0948 45.7386 52.1289 46.0199 53.0153 46.5824C53.9073 47.1449 54.6005 47.9347 55.0948 48.9517C55.5948 49.9687 55.8448 51.1591 55.8448 52.5227C55.8448 53.875 55.5948 55.0568 55.0948 56.0682C54.6005 57.0795 53.9073 57.8665 53.0153 58.429C52.1289 58.9915 51.0948 59.2727 49.913 59.2727ZM49.913 57.4659C50.8107 57.4659 51.5494 57.2358 52.1289 56.7756C52.7085 56.3153 53.1374 55.7102 53.4158 54.9602C53.6942 54.2102 53.8335 53.3977 53.8335 52.5227C53.8335 51.6477 53.6942 50.8324 53.4158 50.0767C53.1374 49.321 52.7085 48.7102 52.1289 48.2443C51.5494 47.7784 50.8107 47.5455 49.913 47.5455C49.0153 47.5455 48.2766 47.7784 47.6971 48.2443C47.1175 48.7102 46.6886 49.321 46.4102 50.0767C46.1317 50.8324 45.9925 51.6477 45.9925 52.5227C45.9925 53.3977 46.1317 54.2102 46.4102 54.9602C46.6886 55.7102 47.1175 56.3153 47.6971 56.7756C48.2766 57.2358 49.0153 57.4659 49.913 57.4659ZM58.9151 59V45.9091H60.8583V47.8864H60.9947C61.2333 47.2386 61.6651 46.7131 62.2901 46.3097C62.9151 45.9062 63.6197 45.7045 64.4038 45.7045C64.5515 45.7045 64.7362 45.7074 64.9577 45.7131C65.1793 45.7187 65.3469 45.7273 65.4606 45.7386V47.7841C65.3924 47.767 65.2362 47.7415 64.9918 47.7074C64.7532 47.6676 64.5004 47.6477 64.2333 47.6477C63.5969 47.6477 63.0288 47.7812 62.5288 48.0483C62.0344 48.3097 61.6424 48.6733 61.3526 49.1392C61.0685 49.5994 60.9265 50.125 60.9265 50.7159V59H58.9151ZM74.8675 59V41.5455H80.7653C82.1346 41.5455 83.2539 41.7926 84.1232 42.2869C84.9982 42.7756 85.646 43.4375 86.0664 44.2727C86.4869 45.108 86.6971 46.0398 86.6971 47.0682C86.6971 48.0966 86.4869 49.0312 86.0664 49.8722C85.6516 50.7131 85.0096 51.3835 84.1403 51.8835C83.271 52.3778 82.1573 52.625 80.7994 52.625H76.5721V50.75H80.7312C81.6687 50.75 82.4215 50.5881 82.9897 50.2642C83.5579 49.9403 83.9698 49.5028 84.2255 48.9517C84.4869 48.3949 84.6175 47.767 84.6175 47.0682C84.6175 46.3693 84.4869 45.7443 84.2255 45.1932C83.9698 44.642 83.555 44.2102 82.9812 43.8977C82.4073 43.5795 81.646 43.4205 80.6971 43.4205H76.9812V59H74.8675ZM93.6815 59.3068C92.8519 59.3068 92.0991 59.1506 91.4229 58.8381C90.7468 58.5199 90.2099 58.0625 89.8121 57.4659C89.4144 56.8636 89.2156 56.1364 89.2156 55.2841C89.2156 54.5341 89.3633 53.9261 89.6587 53.4602C89.9542 52.9886 90.3491 52.6193 90.8434 52.3523C91.3377 52.0852 91.8832 51.8864 92.4798 51.7557C93.082 51.6193 93.6871 51.5114 94.2951 51.4318C95.0906 51.3295 95.7354 51.2528 96.2298 51.2017C96.7298 51.1449 97.0934 51.0511 97.3207 50.9205C97.5536 50.7898 97.6701 50.5625 97.6701 50.2386V50.1705C97.6701 49.3295 97.44 48.6761 96.9798 48.2102C96.5252 47.7443 95.8349 47.5114 94.9087 47.5114C93.9485 47.5114 93.1957 47.7216 92.6502 48.142C92.1048 48.5625 91.7212 49.0114 91.4996 49.4886L89.5906 48.8068C89.9315 48.0114 90.386 47.392 90.9542 46.9489C91.5281 46.5 92.1531 46.1875 92.8292 46.0114C93.511 45.8295 94.1815 45.7386 94.8406 45.7386C95.261 45.7386 95.744 45.7898 96.2894 45.892C96.8406 45.9886 97.3718 46.1903 97.8832 46.4972C98.4002 46.804 98.8292 47.267 99.1701 47.8864C99.511 48.5057 99.6815 49.3352 99.6815 50.375V59H97.6701V57.2273H97.5678C97.4315 57.5114 97.2042 57.8153 96.886 58.1392C96.5678 58.4631 96.1445 58.7386 95.6161 58.9659C95.0877 59.1932 94.4428 59.3068 93.6815 59.3068ZM93.9883 57.5C94.7837 57.5 95.4542 57.3438 95.9996 57.0312C96.5508 56.7188 96.9656 56.3153 97.244 55.821C97.5281 55.3267 97.6701 54.8068 97.6701 54.2614V52.4205C97.5849 52.5227 97.3974 52.6165 97.1076 52.7017C96.8235 52.7812 96.494 52.8523 96.119 52.9148C95.7496 52.9716 95.3888 53.0227 95.0366 53.0682C94.69 53.108 94.4087 53.142 94.1928 53.1705C93.6701 53.2386 93.1815 53.3494 92.7269 53.5028C92.2781 53.6506 91.9144 53.875 91.636 54.1761C91.3633 54.4716 91.2269 54.875 91.2269 55.3864C91.2269 56.0852 91.4854 56.6136 92.0025 56.9716C92.5252 57.3239 93.1871 57.5 93.9883 57.5ZM103.353 59V45.9091H105.296V47.8864H105.432C105.671 47.2386 106.103 46.7131 106.728 46.3097C107.353 45.9062 108.057 45.7045 108.841 45.7045C108.989 45.7045 109.174 45.7074 109.395 45.7131C109.617 45.7187 109.784 45.7273 109.898 45.7386V47.7841C109.83 47.767 109.674 47.7415 109.429 47.7074C109.191 47.6676 108.938 47.6477 108.671 47.6477C108.034 47.6477 107.466 47.7812 106.966 48.0483C106.472 48.3097 106.08 48.6733 105.79 49.1392C105.506 49.5994 105.364 50.125 105.364 50.7159V59H103.353ZM114.157 54.2273L114.123 51.7386H114.532L120.26 45.9091H122.748L116.646 52.0795H116.475L114.157 54.2273ZM112.282 59V41.5455H114.294V59H112.282ZM120.6 59L115.487 52.5227L116.919 51.125L123.157 59H120.6Z" fill="#747474"/>
</svg>
