<?xml version="1.0" encoding="utf-8"?>
<!-- Generator: Adobe Illustrator 27.6.1, SVG Export Plug-In . SVG Version: 6.00 Build 0)  -->
<svg version="1.1" id="Layer_1" xmlns="http://www.w3.org/2000/svg" xmlns:xlink="http://www.w3.org/1999/xlink" x="0px" y="0px"
	 viewBox="0 0 1080 1080" style="enable-background:new 0 0 1080 1080;" xml:space="preserve">
<style type="text/css">
	.st0{fill:#747474;}
</style>
<g>
	<path class="st0" d="M728.71,457.05c6.08,6.39,12.98,11.93,17.52,18.99c3.23,5.04-0.68,11.72-1.71,17.57
		c-7.66,43.48-17.36,86.59-23.22,130.38c-0.89,6.65-0.85,13.7,0.41,20.25c0.71,3.67,6.05,3.58,9.67,3.69
		c28.67,0.87,46.43-15.03,52.59-47.68c8.61-45.68,16.88-91.42,25.2-137.14c0.5-2.72,1.69-3.58,4.34-3.56
		c15.14,0.08,30.28,0.02,45.43,0.04c2.36,0,4.67,0.01,5.96-2.57c6.06,6.61,12.97,12.4,17.49,19.67c3.01,4.84-0.82,11.41-1.74,17.15
		c-7.31,45.54-14.95,91.21-25.34,135.96c-11.42,49.21-43.06,88.21-101.79,95.68c-57.83,7.35-95.89-22.87-110.79-75.74
		c-6.2-22-0.69-44.81,3.58-67.1c7.66-40.04,14.73-80.19,21.96-120.3c0.45-2.51,1.85-2.77,3.85-2.77
		c16.92,0.02,33.83-0.01,50.75,0.02C725.15,459.59,727.41,459.75,728.71,457.05z"/>
	<path class="st0" d="M140.83,459.62c18.34,0.54,42.34-1.73,65.07,7.41c33.42,13.44,56.84,43.63,54.03,73.64
		c-4.55,48.58-29.25,80.63-84.45,91.19c-9.44,1.81-18.93,2.77-28.53,2.49c-2.52-0.07-3.38,1.08-3.83,3.49
		c-4.87,26.1-9.87,52.18-14.83,78.27c-0.28,1.47-0.85,2.54-2.61,2.53c-18.22-0.08-36.44,0.09-54.64-0.3
		C60.81,718.1,49.19,699,51.46,686.57c13.56-74.29,27.22-148.56,40.75-222.85c0.57-3.11,1.8-4.2,4.96-4.16
		C109.95,459.7,122.72,459.62,140.83,459.62z M156.85,561.82c10.66-1.4,18.64-6.56,23.52-15.42c4.08-7.41,6.21-15.58,3.07-22.08
		C158.46,525.61,159.94,544.91,156.85,561.82z"/>
	<path class="st0" d="M932.25,725.87c-20.79,0.62-40.42-5.14-59.85-11.12c-11.85-3.64-20.04-23.06-18.06-38.74
		c2.09-16.59,3.98-33.21,5.99-49.82c0.11-0.88,0.63-1.7,0.96-2.56c0.69,0.38,1.43,0.69,2.08,1.14c19.6,13.8,39.54,26.5,65.15,24.69
		c11.62-0.82,23.62-7.94,24.04-16.15c0.36-7.15-5.44-11.87-10.66-15.53c-15.2-10.69-28.33-23.57-42.11-35.91
		c-31.39-28.1-31-75.99,2.44-105.16c32.01-27.92,67.96-29.78,107.03-18.04c14.51,4.36,25,12.41,33.05,24.04
		c3.64,5.27-0.46,11.99-1.38,17.96c-2.2,14.25-5.07,28.4-7.59,42.61c-0.61,3.43-1.72,4.38-4.88,2.06
		c-14.42-10.62-29.5-19.77-47.82-22.13c-11.72-1.51-20.57,2.81-27.02,12.35c-1.65,2.44-0.46,4.52,1.96,6.06
		c18.75,12.02,37.5,23.98,53.67,39.54c34.15,32.88,28.98,73.48,4.05,106.69C993.29,714.51,965.06,725.56,932.25,725.87z"/>
	<path class="st0" d="M342.91,458.86c-0.27-0.24-0.15-0.1-0.01-0.01c24.51,14.78,14.83,36.28,11.09,56.55
		c-11.08,59.99-22.22,119.96-33.33,179.94c-0.89,4.8-1.98,9.59-2.54,14.43c-0.77,6.62-3.47,9.37-10.82,9.07
		c-16.29-0.67-32.64-0.19-48.96-0.22c-4.74-0.01-5.96-4.73-9.08-6.91c-17.18-11.96-8.9-27.85-6.25-42.53
		c12.41-68.92,25.15-137.78,37.7-206.67c0.46-2.54,1.79-2.92,3.9-2.92c17.5,0.02,35,0.02,52.5-0.04
		C338.86,459.55,340.62,459.15,342.91,458.86z"/>
	<path class="st0" d="M627.08,615.52c-3.98,24.84-13.3,47.54-28.4,67.78c-21.67,29.05-49.8,49.08-85.89,54.5
		c-54.54,8.2-102.47-17.22-129.61-66.41c-41.94-76-12.1-177.01,63.03-213.35c63.89-30.9,136.15-3.69,168.32,63.26
		c5.62,11.7,9.78,23.8,11.96,36.61c-4.63-17.01-11.24-33.12-21.95-47.29C570.77,465.9,509.63,459,462.09,494.5
		c-50.5,37.72-66.86,117.63-35.22,171.97c36.94,63.43,118.1,70.38,167.79,14.52C611.53,662.04,621.77,640.07,627.08,615.52z"/>
	<path class="st0" d="M450.14,523.04c10.01-13.09,23.38-21.75,38.44-27.65c56.72-22.19,110.79,19.17,116.91,78.15
		c4.88,47.02-11.53,85.49-52.02,111.2c-49.11,31.18-109.91,5.27-127.45-53.28c-1.3-4.33-2.19-8.79-2.83-13.31
		c2.74,12.57,7.51,24.34,14.59,35c28.7,43.25,85.84,45.03,120.96,3.9c35.99-42.13,33.38-109.74-5.54-143.61
		c-29.1-25.33-72.96-21.59-101.86,8.66c-0.35,0.36-0.82,0.61-1.23,0.92C450.11,523.02,450.14,523.04,450.14,523.04z"/>
	<path class="st0" d="M550.74,607.51c-9.37,21.27-24.51,36.49-48.08,40.25c-21.3,3.4-38.01-6.1-49.98-23.31
		c-27.91-40.11-3.19-98.67,44.87-106.96c19.99-3.45,45.32,12.66,54.09,34.48c1.43,3.56,2.49,7.28,3.47,11.02
		c-5.49-13.16-12.57-24.95-27.48-28.83c-25.01-6.51-50.93,13.75-54.1,41.37c-2.31,20.12,1.1,38.26,18.03,51.06
		c18.49,13.97,45,6.05,57.57-16.35C549.65,609.32,550.2,608.42,550.74,607.51z"/>
	<path class="st0" d="M541.4,590.23c0.18,18.65-12.95,34.37-28.82,34.49c-13.78,0.11-25.45-13.63-25.58-30.11
		c-0.15-18.38,13.37-34.82,28.69-34.9C529.86,559.65,541.23,573.14,541.4,590.23z"/>
	<path class="st0" d="M422.01,612.99c0.07-0.91,0.15-1.82,0.22-2.72c0.2,0.02,0.4,0.03,0.6,0.05c-0.05,0.95-0.1,1.9-0.16,2.86
		C422.45,613.11,422.23,613.05,422.01,612.99z"/>
	<path class="st0" d="M449.75,523.38c-0.35,0.35-0.7,0.7-1.05,1.06c0,0,0.02,0.02,0.02,0.02c0.35-0.35,0.7-0.7,1.05-1.06
		C449.77,523.4,449.75,523.38,449.75,523.38z"/>
	<path class="st0" d="M448.01,525.16c0.24-0.23,0.48-0.47,0.72-0.7c0,0-0.02-0.02-0.02-0.02c-0.24,0.23-0.48,0.47-0.72,0.7
		L448.01,525.16z"/>
	<path class="st0" d="M449.77,523.4c0.12-0.12,0.24-0.24,0.36-0.36c0,0-0.02-0.02-0.02-0.02c-0.12,0.12-0.24,0.24-0.36,0.36
		C449.75,523.38,449.77,523.4,449.77,523.4z"/>
	<path class="st0" d="M447.98,525.14c-0.11,0.13-0.22,0.25-0.33,0.38c0,0,0.02,0.02,0.02,0.02c0.11-0.13,0.22-0.25,0.34-0.38
		C448.01,525.16,447.98,525.14,447.98,525.14z"/>
	<path class="st0" d="M447.65,525.52c0,0,0.02,0.02,0.02,0.02C447.67,525.54,447.65,525.52,447.65,525.52z"/>
</g>
</svg>
