<?xml version="1.0" encoding="utf-8"?>
<!-- Generator: Adobe Illustrator 27.6.1, SVG Export Plug-In . SVG Version: 6.00 Build 0)  -->
<svg version="1.1" id="Layer_1" xmlns="http://www.w3.org/2000/svg" xmlns:xlink="http://www.w3.org/1999/xlink" x="0px" y="0px"
	 viewBox="0 0 1080 1080" style="enable-background:new 0 0 1080 1080;" xml:space="preserve">
<style type="text/css">
	.st0{fill:#747474;}
</style>
<g>
	<path class="st0" d="M4.16,520.16c14.76,0,29.37,0,43.92,0c1.04,5.55-0.73,8.88-5.67,10.12c-6.8,1.71-13.86,2.31-21.61,4.99
		c8.14,1.89,15.28,3.67,22.48,5.16c2.43,0.5,3.66,1.59,4.32,3.96c1.96,7.05,2.13,14.5,4.94,21.76c2.67-5.32,2.34-11.1,4.08-16.34
		c0.29-0.88,0.5-1.81,0.62-2.73c0.55-4.09,2.33-6.58,6.88-7.3c6.54-1.04,12.96-2.82,19.46-4.62c-5.81-1.72-11.53-3.47-17.57-4.11
		c-6.86-0.72-9.21-3.71-8.7-10.71c46.8,0,93.62,0,140.96,0C152.93,565.7,108.1,610.56,62.8,655.89
		c22.2,21.84,44.01,43.31,66.22,65.16c31.94-31.9,63.93-63.86,95.93-95.81c0.37,0.21,0.74,0.42,1.11,0.63c0,38.43,0,76.86,0,115.68
		c-58.42,0-116.64,0-175.05,0c0.02-3.51,3.15-4.39,4.76-6.24c4.68-5.42,9.89-10.39,14.77-15.65c2.59-2.78,5.38-3.34,8.99-2.2
		c10.65,3.38,21.38,6.51,32.08,9.76c0.89,0.27,1.83,0.51,2.6,0.99c5.2,3.28,5.19,3.3,8.91-1.66
		c-21.58-21.82-43.09-43.56-64.64-65.36c-2.56,1.02-3.21,4.02-5.98,4.72c6.76,7.23,7.05,16.55,10.09,24.76
		c1.89,5.11,3.07,10.47,4.87,15.62c0.95,2.73,0.2,4.64-1.72,6.41c-9.9,9.09-19.82,18.18-29.71,27.29c-1,0.92-1.93,1.88-3.4,1.88
		c-9.33,0-18.66,0-28.45,0C4.16,667.88,4.16,594.28,4.16,520.16z M102.1,589.21c0.32,0,0.63,0.01,0.95,0.01
		c0.58-3.53,1.32-7.04,1.69-10.59c0.41-3.93,2.09-6.15,6.32-6.06c3.33,0.07,6.35-1.27,10.53-2.5c-4.77-1.22-8.42-2.45-12.16-3.02
		c-3.16-0.48-4.17-2.24-4.6-5c-0.6-3.82-0.78-7.76-2.89-12.66c-0.19,5.49-1.21,9.46-2.13,13.46c-0.53,2.3-1.66,3.65-4.16,4.15
		c-3.75,0.74-7.41,1.88-11.82,3.04c3.93,1.61,7.36,2.48,10.9,2.59c2.93,0.09,4.37,1.46,4.89,4.21
		C100.41,580.96,101.28,585.08,102.1,589.21z M195.06,728.08c-0.78-9.37,3.92-13.85,13.19-15c-10.24-0.07-13.48-5.75-12.75-15.84
		c-3.34,4.99-1.69,9.61-4.06,13.08c-3.43,0.63-6.78,1.26-10.03,2.93c3.6,1.31,7.62,1.76,10.09,3.96
		C194.2,719.61,192.32,724.43,195.06,728.08z M38.61,595.99c-0.17,9.91-5.33,13.84-14.47,13.82c3.79,1.98,8.24,0.35,10.92,3.13
		c2.63,2.71,1.98,7.1,3.66,11.1c1.18-4.05,1.47-7.96,3.37-10.77c2.14-3.16,6.92-1.48,10.67-3.68
		C42.76,610.49,39.63,604.63,38.61,595.99z"/>
	<path class="st0" d="M643.34,664.61c-5.68,0.24-11.16,0.62-17.04-0.23c0-12.49,0-24.65,0-36.8c-0.3-0.06-0.6-0.13-0.9-0.19
		c-2.63,6.6-5.29,13.18-7.88,19.79c-1.98,5.06-3.87,10.16-5.77,15.25c-0.56,1.51-1.42,2.55-3.16,2.54
		c-3.47-0.01-6.94,0.02-10.41-0.02c-1.5-0.02-2.37-0.82-2.89-2.28c-4.38-12.28-9.42-24.31-14.91-36.28
		c0.09,12.51-0.99,25,0.52,38.03c-5.6,0.68-11.15,0.65-16.93-0.04c0-18.86,0-37.32,0-56.35c7.65,0,15.07-0.01,22.49,0.01
		c1.48,0,1.94,1.13,2.37,2.31c4.47,12.09,8.96,24.18,13.46,36.26c0.17,0.45,0.51,0.84,0.83,1.35c2.11-1.26,2.26-3.44,2.97-5.19
		c4.29-10.59,8.52-21.2,12.6-31.87c0.88-2.3,2.12-2.97,4.46-2.93c6.62,0.14,13.25,0.05,20.19,0.05
		C643.34,626.98,643.34,645.46,643.34,664.61z"/>
	<path class="st0" d="M813.38,589.03c-6.04,0.79-11.5,0.4-16.62,0.37c0.33-19.23,0.43-37.69-0.03-56.52
		c7.06,0.33,14.46,0.53,21.86,0.07c1.85-0.11,2.29,1.56,2.78,2.95c4.04,11.42,8.3,22.76,13.09,33.89c0.41,0.94,0.33,2.15,1.69,2.78
		c6.22-12.78,10.63-26.28,16.08-39.59c7.69,0.09,15.39,0.79,23.54-0.52c0.28,18.92-0.48,37.63,0.4,56.76
		c-5.98,0.41-11.96,0.55-17.94-0.18c1.23-12.7,0.15-24.94-0.13-37.36c-3.25,8.05-6.54,16.09-9.73,24.16
		c-1.62,4.09-3.08,8.24-4.56,12.38c-0.47,1.32-1.33,1.94-2.68,1.95c-3.34,0.03-6.68,0.03-10.01,0.06c-3.02,0.03-3.73-2.28-4.31-4.46
		c-2.88-10.7-8.26-20.45-11.72-30.93c-0.2-0.61-0.64-1.13-1.71-2.97C813.38,565.02,813.38,576.83,813.38,589.03z"/>
	<path class="st0" d="M470.72,532.53c5.65,0.51,10.9,1.17,17.21-0.45c-0.94,19.43-0.6,37.96-0.03,57.07
		c-7.65,0.52-14.89,1.18-21.86-0.18c-3.94-0.77-4.98-5.91-7.36-9.05c-7.53-9.95-14.84-20.07-22.28-30.1
		c-0.35-0.47-1.01-0.71-1.6-1.1c-1.23,1.62-0.65,3.26-0.65,4.77c0.03,10.67-0.34,21.35,0.67,32c0.25,2.57-0.53,4.13-3.49,3.98
		c-4.48-0.23-9.01,0.41-14.11-0.48c1.28-18.76,0.95-37.31,0.07-56.15c7.91,0.33,15.07,0.7,22.21-0.05c1.61-0.17,2.17,1.18,2.9,2.34
		c8.48,13.39,18.38,25.77,27.56,38.67c0.19,0.27,0.63,0.36,1.4,0.77C472.39,560.51,470.72,546.77,470.72,532.53z"/>
	<path class="st0" d="M770.48,641.6c12.93,3.57,21.36,10.31,26.04,22.51c-7.85,0-14.84,0-22.22,0c-0.68-6.63-2.14-12.92-8.56-16.6
		c-6.2-3.55-12.83-4.04-20.12-3.21c-0.81,6.55-0.32,13.02-0.1,19.86c-5.73,0-11.26,0-17.16,0c0-18.49,0-37.07,0-55.89
		c0.74-0.12,1.5-0.35,2.26-0.35c14.02,0.01,28.04-0.12,42.06,0.16c6.16,0.12,12.21,1.54,17.14,5.63c7.44,6.17,6.29,18.25-2.2,23.05
		c-2.4,1.36-4.73,2.99-7.66,3.31C777.22,640.36,774.51,640.94,770.48,641.6z M745.21,618.48c-0.16,5.5-1.07,10.29-0.22,15.7
		c9.47,0.03,18.75,1.24,27.72-2.03c2.8-1.02,4.5-3.27,4.3-6.5c-0.23-3.63-2.75-5.57-5.79-6.23
		C762.84,617.59,754.33,618.7,745.21,618.48z"/>
	<path class="st0" d="M718.17,622.92c-15.22-4.61-30.27-3.4-45.54-4.28c-0.72,4.55-0.53,8.56-0.07,13.03
		c13.41,0.44,26.51,0.42,39.84-1.26c0,4.09,0,7.63,0,11.87c-13.28-0.66-26.49-1.15-39.8-1.01c-0.56,4.13-0.36,7.81-0.09,12.25
		c15.34,0.1,30.4-0.25,45.62-2.94c0,4.94,0,9.25,0,13.93c-20.98,0-41.7,0-62.77,0c0-18.67,0-37.13,0-55.8
		c20.86-0.68,41.69,0.48,62.81-0.54C718.17,613.06,718.17,617.38,718.17,622.92z"/>
	<path class="st0" d="M869.31,611.46c0,4.62,0,9.24,0,14.43c-4.96-1.62-9.65-3.19-14.37-4.68c-9.85-3.1-19.89-3.38-30-1.76
		c-2.37,0.38-4.21,2.12-4.27,4.64c-0.06,2.32,1.52,3.95,3.73,4.68c5.34,1.77,10.79,3.06,16.45,3.04c7.81-0.03,15.47,0.97,22.76,3.73
		c4.48,1.7,8.24,4.62,8.96,9.84c0.86,6.31-0.93,11.65-6.6,15.14c-4.53,2.79-9.6,4.05-14.84,4.31c-14.44,0.73-28.78,0.3-42.7-4.34
		c-3.09-1.03-4.59-2.51-4.15-6.06c0.42-3.35,0.09-6.8,0.09-10.95c12.37,9.69,26.34,9.99,40.36,9.93c2.37-0.01,4.79-0.41,7.1-1
		c2.33-0.59,3.48-2.47,3.43-4.84c-0.05-2.45-1.4-3.79-3.9-4.28c-7.45-1.47-14.88-2.92-22.52-3.23c-7.5-0.31-14.89-1.68-21.05-6.33
		c-7.31-5.52-5.09-18.96,3.3-22.66c11.33-4.99,23.15-4.19,34.98-3.62C853.81,607.84,861.44,608.91,869.31,611.46z"/>
	<path class="st0" d="M962.88,532.33c10.78,0,20.76,0.15,30.73-0.05c7.77-0.16,15.42,0.68,23.04,1.99
		c5.91,1.01,12.27,7.62,12.82,13.25c0.65,6.58-3.76,13.2-10.51,15.79c-3.72,1.42-7.62,2.11-11.68,3.12
		c5.5,1.59,10.08,4.56,14.32,8.14c4.32,3.64,7.31,8.13,9.75,13.96c-7.83,0-14.79,0-22.17,0c-0.59-7.18-2.84-13.63-9.91-16.9
		c-5.99-2.77-12.44-3.31-19.29-3.31c0,6.96,0,13.45,0,20.29c-5.67,0-11.03,0-16.99,0C963.53,569.94,963.99,551.49,962.88,532.33z
		 M979.66,542.6c0,4.99,0.01,9.23,0,13.46c0,2.01,1.08,2.91,2.99,2.88c6.91-0.13,13.83-0.1,20.72-0.53
		c3.96-0.25,8.22-4.37,8.35-7.29c0.18-4.13-1.82-5.86-7.78-7.37C996.06,541.76,988.15,542.78,979.66,542.6z"/>
	<path class="st0" d="M376.27,664.87c-9.63,0.53-18.69-0.85-27.06-6.38c-10.08-6.67-12.57-16.22-11.02-27.14
		c1.91-13.43,10.57-21.01,24.28-23.64c12.8-2.46,25.34-2.38,37.28,2.87c12.75,5.6,17.43,17.16,15.53,30.58
		c-1.96,13.9-15.65,22.58-29.81,23.67C382.43,665.07,379.34,664.87,376.27,664.87z M354.79,636.56c-0.72,6.82,1.83,12.54,8.73,15.42
		c8.58,3.57,17.45,3.64,26.04,0c4.87-2.07,8.41-5.92,9.19-11.31c1.95-13.56-3.88-21.64-17.39-23.58
		C367.53,615.09,353.24,621.01,354.79,636.56z"/>
	<path class="st0" d="M638.1,589.58c-6.33,0-12.17,0.4-17.91-0.16c-3.09-0.3-3.19-4.17-3.7-6.51c-0.81-3.69-2.54-4.69-6.06-4.55
		c-5.99,0.24-12.07,0.63-17.98-0.09c-5.96-0.73-8.79,1.99-9.95,7.01c-0.87,3.77-3.02,4.51-6.35,4.27c-4.19-0.3-8.44,0.36-12.96-0.55
		c0.71-5.4,3.95-9.31,5.8-13.76c4.94-11.89,10.37-23.58,15.18-35.52c1.79-4.45,3.59-7.12,9.08-6.47c5.26,0.63,10.7,0.54,15.97-0.06
		c5.76-0.66,6.41,4.01,7.48,7.07c5.68,16.22,13.55,31.44,20.8,46.94C637.66,587.54,637.7,587.94,638.1,589.58z M599.98,541.91
		c-3.89,9.55-7.26,17.81-10.88,26.7c7.58,0,14.53,0,22.05,0C607.42,559.67,603.96,551.41,599.98,541.91z"/>
	<path class="st0" d="M412.41,589.35c-6.72,0-12.66,0.1-18.59-0.06c-1.83-0.05-1.91-1.88-2.24-3.33c-1.59-7.09-2.21-7.57-9.23-7.56
		c-6.27,0.01-12.56,0.2-18.82-0.06c-3.62-0.15-5.66,1.21-6.17,4.66c-0.74,4.96-3.24,7.13-8.44,6.54c-3.79-0.43-7.66-0.08-12.3-0.08
		c2.58-5.93,4.66-11.19,7.12-16.26c5.98-12.33,11.22-24.97,16.27-37.69c0.74-1.88,1.81-2.28,3.63-2.26
		c7.07,0.09,14.15,0.07,21.22,0.03c1.75-0.01,3,0.34,3.75,2.21C395.83,553.33,403.48,570.99,412.41,589.35z M373.59,542.58
		c-3.63,9.03-6.84,17.03-10.48,26.06c7.76-0.21,14.36,0.97,22.18-0.53C380.48,559.91,379.07,551.17,373.59,542.58z"/>
	<path class="st0" d="M957.83,589.33c-6.81,0-12.62,0.1-18.41-0.06c-1.72-0.05-2.07-1.91-2.57-3.26c-0.87-2.36-1.65-4.75-2.6-7.53
		c-9.36,0-18.69-0.2-27.99,0.09c-3.92,0.12-3.64,4.45-4.36,6.82c-1.08,3.55-2.82,4.27-6.01,4.14c-4.46-0.17-8.92-0.04-13.6-0.04
		c0.25-4.48,2.79-7.13,4.14-10.22c5.93-13.52,12.54-26.74,17.53-40.66c1.36-3.78,3.44-5.77,7.98-5.35
		c5.69,0.52,11.47,0.23,17.21,0.06c2.48-0.07,3.86,0.63,4.87,3.02c5.15,12.24,10.4,24.43,15.78,36.57
		C952.11,578.11,954.8,583.15,957.83,589.33z M930.46,568.81c-3.72-9.07-7.14-17.4-10.86-26.46c-4.85,9-7.66,17.62-11.14,26.46
		C915.94,568.81,922.79,568.81,930.46,568.81z"/>
	<path class="st0" d="M284.56,647.8c-0.27,5.55-0.34,10.59,0.38,16.16c-5.71,0-11.18,0-16.93,0c0-18.46,0-36.92,0-55.12
		c0.95-1.07,1.93-0.95,2.84-0.95c13.48,0.02,26.97-0.11,40.45,0.17c6.02,0.13,11.89,1.52,16.52,5.87
		c9.11,8.55,5.38,25.78-6.17,30.39c-10.45,4.17-21.19,3.34-31.95,3.24C288.11,647.54,286.53,647.7,284.56,647.8z M284.53,637.14
		c9.16,0.21,17.84,0.47,26.22-2.06c3.26-0.98,4.86-4.09,4.9-7.59c0.04-3.71-1.7-6.94-5.16-7.8c-8.46-2.1-17.11-1.08-25.95-1.18
		C284.53,625.03,284.53,630.72,284.53,637.14z"/>
	<path class="st0" d="M690.36,588.96c-5.25-15.75-16.65-24.53-28.83-22c-0.88,7.13-0.09,14.4,0.01,21.96
		c-5.98,0.96-11.59,0.68-17.32,0.23c0.46-18.96,0.79-37.52-0.16-56.6c5.67,0.32,11.19,1.53,17.24-0.42
		c0.51,7.92-0.95,15.44,0.27,23.09c8.48,1,14.28-3.38,19.28-9.14c2.86-3.31,5.32-6.97,7.27-10.92c0.68-1.38,1.49-2.64,3.28-2.41
		c6.12,0.79,12.23,0.53,18.33-0.14c0.31-0.03,0.67,0.33,1.6,0.84c-9.18,11.92-19.83,21.56-34.49,27.77
		c15.39,4.45,27.77,11.75,33.89,27.75C703.53,588.96,696.92,588.96,690.36,588.96z"/>
	<path class="st0" d="M267.92,532.48c5.52,0.92,10.78,1.14,16.5-0.33c0,7.9,0,15.41,0,23.07c6.68,1.31,11.56-1.53,16.06-5.15
		c5.07-4.08,8.46-9.51,11.39-15.23c0.57-1.11,1.03-2.32,2.52-2.14c6.71,0.8,13.43,0.64,21.43-0.42
		c-9.98,12.82-20.67,22.68-35.31,28.86c14.99,4.86,27.75,11.62,33.61,27.89c-7.4,0-13.91,0-20.34,0
		c-4.95-15.76-17.81-25.41-29.16-21.8c0,7.06,0,14.22,0,21.85c-5.82,0.6-11.36,0.61-16.71,0.06
		C268.49,570.12,268.47,551.63,267.92,532.48z"/>
	<path class="st0" d="M770.6,533.3c5.34,1.18,10.59,0.96,16.45-0.28c-1.5,12.4,0.33,24.3-1.57,36c-1.93,11.89-9.93,18.8-21.18,21.11
		c-10.19,2.09-20.67,2.26-30.72-1.62c-8.85-3.42-14.29-10.18-15.52-19.22c-1.6-11.71,0.27-23.64-1.33-36.03
		c5.89,0.9,11.37,1.38,18.01-0.64c-1.8,6.04-1.49,11.17-1.44,16.28c0.05,5.33-0.32,10.65,0.49,15.98
		c2.33,15.28,11.44,16.9,22.98,15.44c7.63-0.96,12.82-7.18,12.95-14.94c0.16-8.94,0.04-17.88,0.06-26.81
		C769.78,536.99,769.45,535.37,770.6,533.3z"/>
	<path class="st0" d="M485.75,650.81c0.26,1.09,0.41,1.46,0.43,1.85c0.45,12.18,0.45,12.17-11.67,12.18
		c-15.07,0.01-30.13,0.03-45.2,0.02c-1.7,0-3.47,0.31-5.67-1.06c0.4-18.14,1.19-36.58-0.16-55.33c6.15-0.83,11.67,0.98,17.85-0.85
		c0,15.65,0,30.47,0,45.48c7.97,1.33,15.23-0.48,22.49-0.2C471.15,653.17,478.33,651.61,485.75,650.81z"/>
	<path class="st0" d="M487.14,607.87c6.64,0.91,12.48,0.14,18.23,0.44c3.71,0.19,4.3,4.92,6.33,7.57
		c4.3,5.64,7.46,12.13,12.74,17.63c5.37-6.91,10.18-13.75,14.4-20.95c1.91-3.27,4.13-5.21,7.98-4.36c4.3,0.95,8.69-0.88,13.57,0.37
		c-2.03,4.36-5.61,7.02-8.15,10.42c-5.41,7.26-10.99,14.41-16.87,21.28c-2.56,2.99-3.54,6.08-3.47,9.82
		c0.09,4.64,0.02,9.28,0.02,14.31c-4.76,0.9-9.41,0.37-14.01,0.33c-1.64-0.01-2.18-1.37-2.05-2.87c0.12-1.46,0.55-2.91,0.53-4.36
		c-0.07-6.47-0.01-12.56-4.73-18.32c-7.83-9.56-15.22-19.49-23.34-28.83C488.01,609.98,487.88,609.44,487.14,607.87z"/>
	<path class="st0" d="M565.32,533.53c-4.61,5.44-8.95,10.41-13.12,15.52c-4.45,5.46-8.61,11.15-13.15,16.53
		c-2.23,2.64-3.12,5.37-2.99,8.76c0.19,4.89,0.05,9.8,0.05,14.88c-5.16,0-10.14,0-15.15,0c-1.14-3.34-0.15-6.38,0.15-9.33
		c0.87-8.69-3.98-14.62-8.85-20.92c-6.63-8.58-13.67-16.83-21.17-25.83c6.83,0.05,12.75,0.62,18.66-0.03
		c1.82-0.2,2.34,1.57,3.14,2.71c4.71,6.74,9.36,13.52,14.04,20.27c0.43,0.63,1.01,1.16,1.89,2.15c3.47-4.89,6.76-9.51,10.03-14.14
		c0.53-0.75,1.19-1.48,1.51-2.32c3.25-8.64,10.09-9.56,17.92-8.46C560.35,533.61,562.45,532.48,565.32,533.53z"/>
	<path class="st0" d="M650.31,707.59c-2.54-1.02-4.13-1.37-5.39-2.22c-5.48-3.72-5.54-10-0.1-13.94c7.06-5.12,15.03-3.26,22.8-2.72
		c0.65,0.04,1.27,0.4,1.91,0.56c8.17,2.05,8.59,2.73,6.85,11.73c-2.34-0.98-4.61-1.93-6.89-2.88c-4.55-1.9-9.28-2.34-14.12-1.55
		c-1.48,0.24-2.9,0.72-3.17,2.54c-0.27,1.88,0.21,3.37,2,4.37c2.01,1.13,4.11,1.98,6.41,2.03c7.72,0.18,15.47,0.68,22.91-2.15
		c0.44-0.17,0.99-0.02,1.71-0.02c0.37,2.85-0.8,5.66,1.25,8.84c-5.56-0.18-10.09-2.49-14.79-2.13c1.82,0.86,3.72,1.8,5.66,2.65
		c2.43,1.08,3.17,2.99,3.05,5.5c-0.13,2.64-1.13,4.58-3.68,5.64c-10.98,4.56-21.94,4.97-32.95,0.1c-3.76-1.66-4.81-4.79-4.61-8.49
		c0.19-3.61,2.04-5.94,5.76-6.59C646.36,708.6,647.76,708.19,650.31,707.59z M659.77,719.55c1.71-0.17,3.5-0.08,5.11-0.57
		c2.01-0.61,4.14-1.46,3.96-4.25c-0.17-2.66-1.67-4.01-4.25-4.44c-3.32-0.56-6.59-0.47-9.9,0.13c-2.13,0.39-3.28,1.68-3.73,3.63
		c-0.52,2.23,1.03,3.39,2.61,4.46C655.49,719.82,657.64,719.49,659.77,719.55z"/>
	<path class="st0" d="M307.11,691.19c0.31,2.69-0.38,5.34,0.49,7.91c-2.31,1-4.11,0.11-5.95-0.63c-7.19-2.92-14.63-3.78-22.29-2.43
		c-1.72,0.3-3.66,0.69-3.53,3.03c0.13,2.26,1.82,3.04,3.85,3.34c6.98,1.03,14.01,1.62,20.93,3.1c5.11,1.09,7.99,3.61,8.43,8.09
		c0.52,5.38-1.47,8.55-6.46,10.57c-8.81,3.55-17.73,2.64-26.68,0.72c-0.39-0.08-0.77-0.22-1.16-0.29
		c-9.09-1.71-9.09-1.71-9.21-12.06c3.96,2.75,7.93,4.54,12.36,5.23c4.74,0.74,9.45,1.81,14.28,1.33c2.38-0.23,5.37-0.56,5.77-3.35
		c0.43-3.05-2.63-3.51-4.85-4.32c-2.44-0.88-4.98-0.84-7.51-0.82c-5.53,0.04-10.87-0.74-15.92-3.22c-5.13-2.52-6.68-10.66-2.5-14.62
		c2.23-2.12,5.02-4.14,8-4.29c10.09-0.49,20.27-1.48,30.16,1.78C305.93,690.46,306.47,690.85,307.11,691.19z"/>
	<path class="st0" d="M1057.01,531.94c0,19.55,0,38.16,0,57.17c-5.28,0-10.78,0-16.74,0c0-18.72,0-37.39,0-56.54
		C1045.66,532.86,1051.05,533.76,1057.01,531.94z"/>
	<path class="st0" d="M324.3,698.64c1.05,2.66-1.64,4.65-0.07,7.32c2.2-4.34,4.75-7.56,10.13-7.71c5.51-0.16,7.84,2.96,9.8,7.86
		c2.66-5.49,6.57-8.26,12.44-7.71c4.3,0.4,7.53,3.22,7.88,7.55c0.54,6.6-0.47,13.27,1.32,19.9c-3.69,1.1-6.9,0.62-10.36,0.28
		c0.26-3.23,0.52-6.1,0.7-8.98c0.08-1.19,0.22-2.47-0.09-3.58c-0.84-3-1.17-6.76-5.3-7c-4.45-0.26-5.35,3.47-5.91,6.71
		c-0.72,4.17-0.36,8.42,0.56,12.93c-3.67,0.29-7.02,0.46-10.53-0.21c0-3.84,0.05-7.41-0.01-10.98c-0.09-5.4-2.13-8.87-5.04-8.75
		c-3.18,0.13-5.18,3.33-5.28,8.64c-0.07,3.58-0.01,7.16-0.01,11.05c-3.29,0.83-6.63,0.54-10.56,0.17c0-8.42-0.02-16.49,0.01-24.56
		c0.01-1.42,0.89-2.16,2.28-2.28C318.9,699.09,321.53,698.87,324.3,698.64z"/>
	<path class="st0" d="M749.44,701.73c-3.08-1.32-5.62-2.68-8.31-3.51c-7.77-2.39-15.58-3.84-23.11,0.92
		c-5.82,3.68-5.73,13.97,0.16,17.68c7.41,4.67,21.35,3.36,27.68-2.62c0.68-0.64,1.25-1.4,2.3-1.4c3.28,4.23,2.16,9.23-2.43,11.31
		c-10.88,4.94-21.77,5.69-32.77,0.4c-6.67-3.21-10-8.69-10.18-15.88c-0.18-7.39,2.2-13.63,9.44-17.06
		c11.58-5.48,23.19-4.59,34.85-0.29c1.77,0.65,2.47,1.78,2.38,3.64C749.36,697,749.44,699.09,749.44,701.73z"/>
	<path class="st0" d="M462.64,725.71c-3.37,1.32-6.57,0.71-9.71,0.52c-1.7-0.1-1.9-1.63-1.9-3.03c0-10.27,0.05-20.55,0-30.82
		c-0.01-3.09,1.65-3.2,4.17-3.17c11.31,0.14,22.63,0.63,34.26-0.36c0.25,3.13,0.3,6.34-0.35,9.96c-8.78-2.29-17.46-2.17-26.22-1.73
		c-0.93,2.92-0.49,5.38-0.34,8.4c7.88,0.17,15.5,0.53,23.3-0.46c0.69,2.65,0.53,5.22-0.01,8.21c-7.74-1.21-15.34-0.85-23.07-0.52
		C461.82,717.23,462.59,721.46,462.64,725.71z"/>
	<path class="st0" d="M225.9,525.97c0.76,5.11,1.74,9.16-1.73,12.48c-15.5,14.83-30.35,30.32-45.67,45.33
		c-15.38,15.08-30.58,30.34-45.92,45.45c-7.74,7.62-15.3,15.42-22.92,23.16c-1.27,1.29-2.59,2.59-5.66,3.07
		C144.87,612.05,185.02,569.4,225.9,525.97z"/>
	<path class="st0" d="M599.4,726.03c-3.59,0.77-6.82,0.63-10.63-0.26c0.96-12.32,1.36-24.6-0.03-37.26c4-0.07,7.46-0.5,11.27-2.26
		c-1.13,6.97-0.73,13.11-0.51,19.62c3.13-5.89,7.8-8.26,14.19-7.53c3.48,0.4,5.61,1.96,6.59,5.35c0.99,3.4,0.77,6.86,0.84,10.32
		c0.07,3.83-0.46,7.7,1.01,11.57c-3.56,1.5-6.78,0.64-9.99,0.63c-1.43-3.38-0.5-6.62-0.78-9.75c-0.13-1.46,0.03-2.98-0.34-4.37
		c-0.74-2.74-1.7-5.53-5.27-5.58c-3.67-0.05-5.05,2.58-5.76,5.55C598.9,716.61,599.71,721.31,599.4,726.03z"/>
	<path class="st0" d="M837.64,725.74c-3.81,1.02-6.82,0.7-9.95,0.55c-0.53-1.37-1-2.56-1.74-4.47c-4.33,4.71-9.25,6.68-15.26,4.94
		c-3.73-1.09-6.17-3.22-6.33-7.23c-0.16-3.92,2.19-5.95,5.71-7.13c5.02-1.68,10.28-0.98,15.36-1.42c0.26-6.55-5.1-6.96-19.31-1.85
		c-2.69-5.77-1.28-8.81,4.76-10.02c5.55-1.1,11.14-1.09,16.71-0.18c4.28,0.7,7.23,3.4,7.7,7.57
		C836,712.81,835.96,719.2,837.64,725.74z"/>
	<path class="st0" d="M401.78,714.56c-7.77,0-15.03,0-22.46,0c1.87,5.36,1.87,5.36,21.75,2.01c2.34,4.87,1.4,7.17-3.58,8.85
		c-7.47,2.53-14.83,2.93-22.13-0.71c-4.9-2.44-8.36-8.69-7.6-14.19c0.74-5.41,5.46-10.82,10.69-11.56
		c6.74-0.96,13.66-1.96,19.34,3.33C401.08,705.36,402.37,709.21,401.78,714.56z M391.52,710.69c-1.68-3.89-4.3-5.62-7.76-5.21
		c-2.63,0.31-5.07,1.61-5.04,5.47C382.96,711.18,386.98,711.49,391.52,710.69z"/>
	<path class="st0" d="M801.67,714.01c-7.78,1.24-15.39-0.09-22.97,0.83c2.44,5.11,2.44,5.11,22.28,1.77
		c2.19,5.19,1.37,6.85-3.78,8.72c-7.2,2.61-14.31,3.01-21.38-0.28c-6.12-2.85-8.88-8.52-7.9-14.99c1.06-7,7.17-11.72,13.15-11.68
		c5.67,0.03,11.62-0.97,16.25,3.72C800.41,705.26,802.5,708.79,801.67,714.01z M790.96,710.85c-0.73-4.56-3.91-5.43-7.33-5.16
		c-2.64,0.21-5.67,0.85-5.23,5.16C782.62,710.85,786.65,710.85,790.96,710.85z"/>
	<path class="st0" d="M549.81,716.2c1.34,4.94,0.99,7.94-4.13,9.47c-7.18,2.16-14.06,2.54-21.01-0.56
		c-4.98-2.22-7.82-5.89-8.03-11.37c-0.22-5.85,1.58-10.69,6.99-13.78c7.36-4.2,20.38-1.35,25.23,5.46c1.9,2.66,1.44,5.46,1.86,8.98
		c-8.11,0-15.72,0-23.85,0c2.49,5.59,6.78,4.84,10.81,5.08C541.98,719.75,545.54,717.35,549.81,716.2z M539.05,710.93
		c0.04-4.33-2.87-5.21-6.03-5.23c-3.18-0.02-5.82,1.14-6.41,5.23C531,710.93,534.93,710.93,539.05,710.93z"/>
	<path class="st0" d="M564.2,706.4c0.52,2.98,2.41,3.01,4.34,3.01c3.59,0,7.21-0.16,10.75,0.66c3.49,0.81,5.56,3.11,6.08,6.57
		c0.54,3.67-0.82,6.42-4.35,8.12c-8.48,4.07-16.95,3.16-25.18-0.34c-3.82-1.63-0.68-5.08-1.28-8.46c6.26,2.72,12.1,4.38,18.3,3.15
		c0.55-0.11,0.99-0.73,1.43-1.07c-0.24-2.72-2.18-2.62-3.86-2.67c-3.87-0.12-7.73-0.36-11.5-1.29c-3.52-0.88-5.49-3.2-5.63-6.81
		c-0.15-3.84,1.43-7.15,5.27-7.97c8.13-1.73,16.34-1.41,24.77,0.36c0,2.77,0,5.21,0,7.92C577.01,707.89,570.83,700.79,564.2,706.4z"
		/>
	<path class="st0" d="M874.76,725.75c-3.46,1.21-6.56,0.66-9.54,0.45c-1.39-2.14-0.69-4.18-0.79-6.12
		c-0.11-2.26,0.19-4.57-0.18-6.78c-0.53-3.18-1.34-6.49-5.53-6.7c-4.24-0.21-5.6,3-5.96,6.19c-0.48,4.18-0.12,8.46-0.12,12.87
		c-4.16,1.21-7.63,0.8-11.63,0.56c2.13-8.9,1.9-17.45,0.17-26.12c4.08-1.24,7.76-0.64,10.98-2.21c1.68,2.8-1.15,5.15,0.26,7.92
		c2.45-3.36,4.42-6.81,8.98-7.35c8.4-0.99,12.37,2.16,12.72,10.59C874.35,714.48,873.68,719.94,874.76,725.75z"/>
	<path class="st0" d="M416.22,725.89c-3.61,0.75-6.73,0.83-9.76,0.26c-1.49-1.42-1.04-3.11-1.05-4.66
		c-0.07-9.87-0.06-19.74-0.17-29.6c-0.02-1.8,0.13-3.26,2.22-3.55c2.85-0.39,5.7-0.69,8.85-1.07
		C415.53,700.09,415.67,712.79,416.22,725.89z"/>
	<path class="st0" d="M141.3,669.87c28.02-27.61,56.03-55.21,84.48-83.24c1.31,3.65,1.65,6.1-1.03,8.55
		c-23.06,21.07-46.06,42.21-69.02,63.4c-4.46,4.12-8.62,8.56-13.45,12.25C141.95,670.5,141.62,670.19,141.3,669.87z"/>
	<path class="st0" d="M431,687.5c0,12.92,0,25.53,0,38.55c-3.43,0.62-6.77,0.69-10.39-0.01c0-7.49,0-14.79,0-22.08
		c0-2-0.01-4-0.01-6.01C420.63,686.44,419.42,689.02,431,687.5z"/>
	<path class="st0" d="M504.01,726.06c-3.58,0.85-7.22,0.28-11.24,0.29c0-4.29,0-8.23,0-12.16c0-3.32,0.22-6.67-0.08-9.97
		c-0.28-3.07,0.84-4.46,3.82-4.75c2.37-0.23,4.71-0.67,7.31-1.05c0.62,3.23-2.3,5.99-1.04,9.66c1.68-3,2.8-6.04,5.3-8
		c1.65-1.3,3.55-2.83,5.78-1.83c2.07,0.94,0.93,3.05,0.97,4.68c0.04,1.7,0.01,3.4,0.01,5.08
		C504.7,709.25,504.7,709.25,504.01,726.06z"/>
	<path class="st0" d="M764.81,725.87c-3.41,1.05-6.63,0.7-10.27,0.26c0.22-12.45,0.49-24.73-0.11-37.37
		c3.28-1.09,6.85-0.26,10.61-1.98C764.24,700.11,764.41,712.89,764.81,725.87z"/>
</g>
</svg>
