<svg width="229" height="38" viewBox="0 0 229 38" fill="none" xmlns="http://www.w3.org/2000/svg">
<path d="M0.453125 31.8672C0.453125 31.0703 0.601562 30.2656 0.898438 29.4531C1.19531 28.6406 1.65625 27.875 2.28125 27.1562C4.5625 28.1562 6.54688 28.9219 8.23438 29.4531C9.9375 29.9844 11.6875 30.25 13.4844 30.25C13.8125 30.25 14.1484 30.2188 14.4922 30.1562C14.8516 30.0938 15.1328 30.0078 15.3359 29.8984C15.4141 29.7266 15.4766 29.5078 15.5234 29.2422C15.5703 28.9609 15.5938 28.7344 15.5938 28.5625C15.5938 27.7969 15.2266 27.1406 14.4922 26.5938C13.7578 26.0469 12.7891 25.5 11.5859 24.9531L10.7656 24.5547C8.42188 23.3516 6.53906 22.2734 5.11719 21.3203C3.71094 20.3516 2.51562 19.0859 1.53125 17.5234C0.5625 15.9453 0.078125 14.0156 0.078125 11.7344C0.078125 8.39062 1.00781 5.71094 2.86719 3.69531C4.74219 1.67969 7.71875 0.671875 11.7969 0.671875C15.2812 0.671875 18.0391 0.882812 20.0703 1.30469C20.9141 1.80469 21.6484 2.32813 22.2734 2.875C22.9141 3.40625 23.5234 4.05469 24.1016 4.82031C24.1016 5.91406 23.9922 7.10156 23.7734 8.38281C23.5703 9.64844 23.2812 10.8125 22.9062 11.875C22.5469 12.9375 22.1562 13.7031 21.7344 14.1719C21.375 14.3438 20.9766 14.4766 20.5391 14.5703C20.1016 14.6484 19.5625 14.6875 18.9219 14.6875C18.25 14.6875 17.7031 14.6406 17.2812 14.5469C16.8594 14.4531 16.4688 14.2969 16.1094 14.0781L15.3828 9.20312C14.4766 8.95312 13.5156 8.77344 12.5 8.66406C11.4844 8.53906 10.7969 8.48438 10.4375 8.5C9.85938 8.76562 9.46094 9.14062 9.24219 9.625C9.03906 10.0938 8.9375 10.6562 8.9375 11.3125C8.9375 12.0156 9.125 12.625 9.5 13.1406C9.89062 13.6406 10.3594 14.0547 10.9062 14.3828C11.4531 14.7109 12.1562 15.0781 13.0156 15.4844L14.0469 16C16.2812 17.1719 18.0391 18.1953 19.3203 19.0703C20.6016 19.9453 21.6719 21.0547 22.5312 22.3984C23.4062 23.7266 23.8438 25.3359 23.8438 27.2266C23.8438 29.4297 23.2656 31.3281 22.1094 32.9219C20.9531 34.5 19.4688 35.6406 17.6562 36.3438C16.6719 36.7344 15.5859 37.0156 14.3984 37.1875C13.2109 37.3594 11.8359 37.4453 10.2734 37.4453C9.21094 37.4453 8.07031 37.3125 6.85156 37.0469C5.63281 36.7812 4.44531 36.3125 3.28906 35.6406C2.14844 34.9688 1.23438 34.0703 0.546875 32.9453C0.484375 32.6484 0.453125 32.2891 0.453125 31.8672ZM25.8594 31.2578C25.8594 29.8672 26.1484 28.5156 26.7266 27.2031C26.9922 27.2031 27.4062 27.2578 27.9688 27.3672C28.5469 27.4609 29.1484 27.5859 29.7734 27.7422C29.6797 23.5234 29.6328 20.0625 29.6328 17.3594C29.6328 14 29.6953 11.1328 29.8203 8.75781L26.2109 8.26562C26.0078 7.6875 25.8516 7.05469 25.7422 6.36719C25.6328 5.66406 25.5781 4.98438 25.5781 4.32812C25.5781 3.82813 25.6172 3.28125 25.6953 2.6875C27.5547 1.98438 30 1.47656 33.0312 1.16406C36.0781 0.835938 39.1484 0.671875 42.2422 0.671875C45.1641 0.671875 47.2812 0.804688 48.5938 1.07031C49.4375 1.58594 50.1719 2.10937 50.7969 2.64062C51.4375 3.15625 52.0469 3.79687 52.625 4.5625C52.625 5.65625 52.5156 6.84375 52.2969 8.125C52.0938 9.39062 51.8047 10.5547 51.4297 11.6172C51.0703 12.6797 50.6797 13.4453 50.2578 13.9141C49.8984 14.0859 49.5 14.2188 49.0625 14.3125C48.625 14.3906 48.0859 14.4297 47.4453 14.4297C46.8828 14.4297 46.3984 14.3828 45.9922 14.2891C45.6016 14.1797 45.2266 14.0234 44.8672 13.8203L44.0703 8.71094C43.0859 8.55469 41.9141 8.47656 40.5547 8.47656C40.1797 8.47656 39.8047 8.5 39.4297 8.54688C39.3672 10.8125 39.0469 13.8984 38.4688 17.8047C41.9375 17.2266 44.8984 16.8047 47.3516 16.5391C47.9766 17.4922 48.2891 18.6562 48.2891 20.0312C48.2891 20.9375 48.1641 21.8125 47.9141 22.6562C47.6641 23.5 47.3906 24.0859 47.0938 24.4141C46.4375 24.5234 45.6562 24.5781 44.75 24.5781C43.5781 24.5781 42.3594 24.4766 41.0938 24.2734C39.8438 24.0703 38.6719 23.7734 37.5781 23.3828L37.2734 25.375C37.0859 26.4844 36.9219 27.5781 36.7812 28.6562L51.6172 27.7891C51.8516 28.0078 52.0469 28.4453 52.2031 29.1016C52.375 29.7578 52.4609 30.4766 52.4609 31.2578C52.4609 32.5078 52.2109 33.6016 51.7109 34.5391C51.2109 35.4766 50.5469 36.2031 49.7188 36.7188C48.9062 37.2188 48.0312 37.4688 47.0938 37.4688C46.1562 37.4688 44.875 37.2656 43.25 36.8594C41.6406 36.4375 40.0703 35.9141 38.5391 35.2891C37.0234 34.6641 35.9062 34.0625 35.1875 33.4844C34.4688 34.7344 33.6797 35.6875 32.8203 36.3438C31.9766 37 30.8828 37.375 29.5391 37.4688C28.8672 37.3594 28.25 37.0156 27.6875 36.4375C27.125 35.8594 26.6797 35.1172 26.3516 34.2109C26.0234 33.3047 25.8594 32.3203 25.8594 31.2578ZM54.7578 29.4766C55.7109 29.7891 56.5781 30.0391 57.3594 30.2266C58.875 24.1328 60.6016 16.9375 62.5391 8.64062L56.8906 8.03125C56.5312 7.04688 56.3516 5.92969 56.3516 4.67969C56.3516 3.72656 56.4609 2.79688 56.6797 1.89062C58.9453 1.45312 61.5547 1.14062 64.5078 0.953125C67.4766 0.75 70.0234 0.648438 72.1484 0.648438C73.6797 0.648438 74.8281 0.65625 75.5938 0.671875L77.0703 1.51562C79.6953 8.71875 82.3594 18.4609 85.0625 30.7422C85.0938 30.8672 85.1484 31.1172 85.2266 31.4922C85.3203 31.8672 85.3906 32.2266 85.4375 32.5703C85.4844 32.8984 85.5078 33.2109 85.5078 33.5078C85.5078 34.8203 85.0391 35.8828 84.1016 36.6953C82.7891 37.2109 81.2031 37.4688 79.3438 37.4688C78.4688 37.4688 77.5859 37.375 76.6953 37.1875C75.8047 37 75.2031 36.7109 74.8906 36.3203L75.1719 30.2734L74.5859 27.1328C73.5703 27.1953 72.375 27.2266 71 27.2266C69.5312 27.2266 68.1562 27.1797 66.875 27.0859L66.5938 28.3516C65.9844 31.0703 65.4844 33 65.0938 34.1406C64.7188 35.2812 64.1562 36.125 63.4062 36.6719C62.6719 37.2188 61.5703 37.4922 60.1016 37.4922C59.1484 37.4922 58.1875 37.3672 57.2188 37.1172C56.25 36.8828 55.375 36.5625 54.5938 36.1562C53.8125 35.75 53.2266 35.3125 52.8359 34.8438C52.8359 33.7188 53.0078 32.6484 53.3516 31.6328C53.6953 30.6172 54.1641 29.8984 54.7578 29.4766ZM71.1875 8.85156H70.1094L68.4219 20.4062H73.6719L71.1875 8.85156ZM86.7266 33.0391C86.7266 32.3203 86.8281 31.5859 87.0312 30.8359C87.2344 30.0703 87.5078 29.4375 87.8516 28.9375L90.1016 29.3594L92.6328 7.42188L89.0234 6.90625C88.7266 6.125 88.5781 5.32813 88.5781 4.51562C88.5781 3.6875 88.7422 2.84375 89.0703 1.98438C89.8984 1.59375 91.3125 1.28125 93.3125 1.04688C95.3281 0.796875 97.1172 0.671875 98.6797 0.671875C100.133 0.671875 101.922 0.703125 104.047 0.765625L104.867 1.14062C105.211 2.10937 105.68 3.77344 106.273 6.13281C106.883 8.47656 107.914 12.6172 109.367 18.5547C109.602 19.4766 109.859 20.5234 110.141 21.6953C110.891 18.9766 111.812 15.1328 112.906 10.1641L113.492 7.60938H113.609L109.719 6.95312C109.344 6.07812 109.156 5.14063 109.156 4.14062C109.156 3.48438 109.242 2.77344 109.414 2.00781C110.93 1.52344 112.508 1.17969 114.148 0.976562C115.805 0.773437 117.609 0.671875 119.562 0.671875H120.336C121.164 0.671875 122.344 0.703125 123.875 0.765625L124.695 1.14062C125.695 4.76563 126.648 9.16406 127.555 14.3359C128.477 19.4922 129.172 24.2266 129.641 28.5391L129.711 29.125C129.727 29.2344 129.766 29.6094 129.828 30.25C129.891 30.875 129.922 31.4766 129.922 32.0547C129.922 32.7578 129.852 33.4531 129.711 34.1406C129.477 35.1719 129.055 36.0234 128.445 36.6953C127.836 36.9453 127.195 37.1328 126.523 37.2578C125.867 37.3984 125.102 37.4688 124.227 37.4688C123.367 37.4688 122.508 37.3672 121.648 37.1641C120.805 36.9766 120.242 36.6953 119.961 36.3203L120.805 30.9531L119.398 16.2109L119.516 8.35938H118.789L117.641 16.3984C116.109 22.0703 114.711 26.4609 113.445 29.5703C113.883 30.4297 114.258 31.3828 114.57 32.4297C114.898 33.4766 115.102 34.5 115.18 35.5C114.523 36.125 113.625 36.6094 112.484 36.9531C111.359 37.2969 110.164 37.4688 108.898 37.4688C107.602 37.4688 106.414 37.2891 105.336 36.9297C104.273 36.5703 103.5 36.0703 103.016 35.4297C103.094 33.8516 103.484 32.3281 104.188 30.8594L100.016 15.7891L98.2812 8.6875L97.4844 8.80469L98.6328 16.75C98.5703 19.5156 98.4688 22.3281 98.3281 25.1875C98.1875 28.0469 98.0312 30.3125 97.8594 31.9844H97.8828C97.7578 32.9688 97.4219 33.8438 96.875 34.6094C96.3438 35.3594 95.6641 35.9453 94.8359 36.3672C94.0234 36.7891 93.1406 37 92.1875 37C89.6875 37 87.8828 35.9219 86.7734 33.7656C86.7422 33.4531 86.7266 33.2109 86.7266 33.0391ZM132.992 19.2812C132.992 6.875 137.867 0.671875 147.617 0.671875C151.477 0.671875 154.484 1.47656 156.641 3.08594C158.812 4.67969 160.305 6.83594 161.117 9.55469C161.945 12.2578 162.359 15.5 162.359 19.2812C162.359 24.8438 161.219 29.2656 158.938 32.5469C156.656 35.8281 152.883 37.4688 147.617 37.4688C142.32 37.4688 138.555 35.8438 136.32 32.5938C134.102 29.3438 132.992 24.9062 132.992 19.2812ZM148.789 29.9922C150.07 29.9922 150.805 29.9219 150.992 29.7812C151.383 29.0938 151.68 27.8984 151.883 26.1953C152.086 24.4766 152.188 22.5547 152.188 20.4297C152.188 18.1953 152.078 16.125 151.859 14.2188C151.656 12.2969 151.367 10.9531 150.992 10.1875C150.602 9.875 150.023 9.64062 149.258 9.48438C148.492 9.32812 147.648 9.24219 146.727 9.22656C146.195 9.22656 145.711 9.25781 145.273 9.32031C144.852 9.36719 144.547 9.44531 144.359 9.55469C143.906 10.3359 143.57 11.4688 143.352 12.9531C143.148 14.4219 143.047 16.1016 143.047 17.9922C143.047 20.1328 143.164 22.2656 143.398 24.3906C143.633 26.5156 143.922 28.1406 144.266 29.2656C144.484 29.5 145.039 29.6797 145.93 29.8047C146.82 29.9297 147.773 29.9922 148.789 29.9922ZM165.523 19.2812C165.523 6.875 170.398 0.671875 180.148 0.671875C184.008 0.671875 187.016 1.47656 189.172 3.08594C191.344 4.67969 192.836 6.83594 193.648 9.55469C194.477 12.2578 194.891 15.5 194.891 19.2812C194.891 24.8438 193.75 29.2656 191.469 32.5469C189.188 35.8281 185.414 37.4688 180.148 37.4688C174.852 37.4688 171.086 35.8438 168.852 32.5938C166.633 29.3438 165.523 24.9062 165.523 19.2812ZM181.32 29.9922C182.602 29.9922 183.336 29.9219 183.523 29.7812C183.914 29.0938 184.211 27.8984 184.414 26.1953C184.617 24.4766 184.719 22.5547 184.719 20.4297C184.719 18.1953 184.609 16.125 184.391 14.2188C184.188 12.2969 183.898 10.9531 183.523 10.1875C183.133 9.875 182.555 9.64062 181.789 9.48438C181.023 9.32812 180.18 9.24219 179.258 9.22656C178.727 9.22656 178.242 9.25781 177.805 9.32031C177.383 9.36719 177.078 9.44531 176.891 9.55469C176.438 10.3359 176.102 11.4688 175.883 12.9531C175.68 14.4219 175.578 16.1016 175.578 17.9922C175.578 20.1328 175.695 22.2656 175.93 24.3906C176.164 26.5156 176.453 28.1406 176.797 29.2656C177.016 29.5 177.57 29.6797 178.461 29.8047C179.352 29.9297 180.305 29.9922 181.32 29.9922ZM198.336 29.4766C198.477 29.5234 198.773 29.6328 199.227 29.8047C199.695 29.9609 200.211 30.0938 200.773 30.2031V8.125L197.094 6.88281C196.734 6.03906 196.555 5.07031 196.555 3.97656C196.555 3.08594 196.695 2.28906 196.977 1.58594C198.102 1.28906 199.453 1.0625 201.031 0.90625C202.625 0.734375 204.164 0.648438 205.648 0.648438C207.852 0.648438 209.797 0.8125 211.484 1.14062C212.266 2.65625 213.422 5.50781 214.953 9.69531C216.5 13.8828 218.359 19.375 220.531 26.1719L220.93 26.125C220.477 22.2656 220.023 17.7422 219.57 12.5547C219.133 7.35156 218.914 3.78906 218.914 1.86719C219.727 1.49219 220.633 1.20313 221.633 1C222.633 0.78125 223.555 0.671875 224.398 0.671875C225.773 0.671875 227.094 0.953125 228.359 1.51562L226.086 31.1406C226.898 32.3125 227.406 33.6875 227.609 35.2656C226.969 35.9688 225.992 36.5156 224.68 36.9062C223.383 37.2812 222 37.4688 220.531 37.4688C219.391 37.4688 218.352 37.3516 217.414 37.1172C216.492 36.8828 215.773 36.5234 215.258 36.0391C215.273 34.8672 215.375 33.7969 215.562 32.8281C214.391 30.4844 213.258 27.9062 212.164 25.0938C211.086 22.2656 209.711 18.5156 208.039 13.8438L207.008 10.9844L206.867 11.0078C207.195 13.4453 207.547 17.0391 207.922 21.7891C208.297 26.5234 208.484 29.9844 208.484 32.1719C208.484 33.9219 207.961 35.2422 206.914 36.1328C205.883 37.0234 204.266 37.4688 202.062 37.4688C201.375 37.4688 200.641 37.3359 199.859 37.0703C199.078 36.8047 198.367 36.4688 197.727 36.0625C197.102 35.6406 196.664 35.2344 196.414 34.8438C196.414 33.7188 196.586 32.6484 196.93 31.6328C197.273 30.6172 197.742 29.8984 198.336 29.4766Z" fill="#747474"/>
</svg>
