<?xml version="1.0" encoding="utf-8"?>
<!-- Generator: Adobe Illustrator 27.6.1, SVG Export Plug-In . SVG Version: 6.00 Build 0)  -->
<svg version="1.1" id="Layer_1" xmlns="http://www.w3.org/2000/svg" xmlns:xlink="http://www.w3.org/1999/xlink" x="0px" y="0px"
	 viewBox="0 0 1080 1080" style="enable-background:new 0 0 1080 1080;" xml:space="preserve">
<style type="text/css">
	.st0{fill:#54af33;}
</style>
<g>
	<path class="st0" d="M620.47,573.51c0.73-0.06,1.46-0.12,2.19-0.18c0.28,0.47,0.56,1.35,0.84,1.35c1.37,0.01,2.75-0.19,4.12-0.38
		c2-0.27,3.75-1.69,5.91-1.29c0.31,0.06,0.7-0.06,1-0.22c2.33-1.2,5.08-1.57,7.04-3.54c0.25-0.25,0.82-0.22,1.24-0.27
		c0.52-0.06,1.12,0.08,1.57-0.13c3.39-1.62,6.81-3.2,9.43-6.05c0.5-0.54,1.15-1.01,1.82-1.33c1.99-0.95,3.41-2.42,4.44-4.34
		c0.35-0.66,0.91-1.21,1.36-1.83c1.76-2.4,3.6-4.75,5.23-7.23c0.92-1.42,0.65-1.97-0.68-2.93c0.36-0.71,0.71-1.42,1.07-2.12
		c1.83,0.46,2.03,0.41,2.7-1.28c1.05-2.66,2.36-5.25,2.18-8.25c-0.03-0.56,0.35-1.15,0.56-1.72c0.68-1.82,0.58-1.97-1.59-2.48
		c0.13-1.77,0.26-3.54,0.4-5.31c1.26-0.13,2.16-0.73,2.04-2.07c-0.08-0.98-0.67-1.75-1.89-1.53c0.11-3.27,0.22-6.54,0.33-9.8
		c0.7-0.45,1.9-0.79,2.02-1.36c0.4-1.87,0.51-3.86-0.42-5.65c-0.2-0.39-0.98-0.5-1.49-0.73c0-6,0-11.99,0-17.99
		c1.74-0.51,2.07-1.1,2.11-3.73c0.04-2.76-0.06-2.92-2.23-3.61c-0.12-3.2-0.24-6.39-0.36-9.59c1.06,0.07,1.59-0.36,1.52-1.5
		c-0.07-1.12-0.81-1.15-1.62-1.14c-0.14-2.12-0.28-4.24-0.41-6.36l0.23,0l0.23,0c1.19-0.09,1.73-0.79,1.51-1.9
		c-0.25-1.26-1.15-1.84-2.44-1.8c-0.15-0.68-0.29-1.36-0.44-2.04c2-0.74,1.97-0.73,1.5-2.48c-1.11-4.21-3.11-8.07-5.01-11.95
		c-1.1-2.25-2.92-4.14-4.11-6.35c-1.09-2.01-2.66-2.89-4.79-3.09c0.05-1.45-0.17-2.78-1.52-3.66c-1.38-0.9-2.72-1.87-4.12-2.74
		c-1.45-0.9-2.96-1.72-4.65-2.7c-0.15,0.82-0.24,1.31-0.32,1.81c-0.87-0.39-1.75-0.78-2.62-1.17c-0.18-0.12-0.37-0.24-0.55-0.36
		c0,0,0.05-0.23,0.05-0.23c0.18-1.52-0.43-2.49-1.92-2.98c-2.38-0.79-4.71-1.73-7.11-2.48c-1.63-0.51-3.34-1.14-5-1.09
		c-1.12,0.04-2-0.05-2.93-0.58c-1.9-1.09-2.1-0.99-2.65,1.26c-1.3,0.24-2.55,0.14-3.7-0.58c0.01-1.39-0.62-2.33-2.03-2.44
		c-1.37-0.11-1.71,0.84-1.67,2c-0.7-0.04-1.41-0.08-2.11-0.13c0.05-1.23-0.56-2.28-1.68-2.33c-2.35-0.09-4.91-0.93-6.98,1.33
		c-0.8-1.77-2.31-1.46-3.7-1.46c-28.99,0-57.97,0-86.96,0c-0.44,0-0.88,0.02-1.32,0c-1.46-0.06-2.11,0.65-2.03,2.08
		c-0.53,0-1.06,0-1.59,0c0.05-1.22-0.34-2.04-1.74-2.08c-2.67-0.08-5.58,2.02-6.17,4.66c-0.56,2.52-1.26,4.96-0.67,7.7
		c0.49,2.26,0.08,4.72,0.12,7.08c0.04,1.9,0.29,2.15,2.38,2.78c0.06,5.53,0.16,11.07,0.17,16.6c0.03,22.24,0.03,44.49,0.04,66.73
		c0,0.79-0.09,1.57-0.14,2.36c-2.11,0.24-2.02,0.27-2.51,2.13c-0.37,1.42-0.79,2.9-1.57,4.11c-0.91,1.43-1.16,2.85-1,4.45
		c-0.82,0.87-1.64,1.75-2.46,2.62c-3.52-0.12-4.38,0.47-5.55,3.53c-0.22,0.58-0.74,1.31-1.26,1.44c-1.41,0.36-2.01,1.28-2.4,2.51
		c-0.13,0.4-0.31,0.95-0.62,1.1c-1.43,0.68-2.45,1.63-2.79,3.25c-0.06,0.28-0.43,0.59-0.73,0.7c-1.6,0.6-2.28,1.82-2.35,3.36
		c-2.83,1.33-4.17,1.73-2.99,5.33c-0.35,0.36-0.7,0.72-1.06,1.09c-0.2-2.7-0.55-5.4-0.56-8.11c-0.05-19.36-0.03-38.71-0.03-58.07
		c0-14.08,0.01-28.15-0.01-42.23c0-0.95-0.09-1.93-0.32-2.85c-0.1-0.39-0.69-0.65-1.06-0.97c-0.22,0.49-0.45,0.98-0.67,1.48
		c-0.11,0.16-0.22,0.31-0.34,0.47c-0.06-0.79-0.18-1.57-0.18-2.36c-0.03-17.19-0.06-34.37-0.07-51.56c0-0.7,0.09-1.4,0.15-2.1
		c0.95,0,1.99,0.13,2.44-0.98c0.44-1.09,0.74-2.24,1.09-3.36c0.01-0.12,0.03-0.24,0.06-0.35c0.88,0,1.76,0,2.64,0.01
		c29.28,0.05,58.56,0.1,87.84,0.15c1.05,0,2.11-0.09,3.16-0.14c1.03,0.09,2.06,0.23,3.1,0.25c3.03,0.07,6.05,0.1,9.08,0.15
		c-0.08,1.38,0.45,2.18,1.95,2.16c2.38-0.03,4.75-0.03,7.13,0c1.46,0.02,2.11-0.65,2.03-2.08c5.28-0.01,10.57-0.01,15.85-0.03
		c0.88,0,1.76-0.06,2.63-0.16c0.05-0.01,0.03-0.59,0.05-0.91c2.29,0,4.59,0,6.88,0c-0.61,0.4-0.66,0.87,0.08,1.05
		c1.01,0.25,2.06,0.32,3.1,0.47c-0.03,1.15,0.18,2.15,1.63,2.14c1.28-0.01,1.57-0.87,1.55-1.95c0.53,0.13,1.06,0.27,1.59,0.4
		c-0.01,0.34-0.1,0.94-0.02,0.97c0.87,0.26,1.77,0.43,2.66,0.62c0,0,0.26,0,0.26,0s0.26,0,0.26,0c0.4,0.33,0.75,0.85,1.21,0.97
		c1.78,0.45,3.59,0.74,5.38,1.16c4.86,1.14,9.64,2.55,14.23,4.56c1.26,0.55,2.64,0.84,3.95,1.28c0.39,0.13,0.87,0.27,1.11,0.56
		c1.86,2.29,4.6,3.17,7.06,4.49c0.52,0.28,1.07,0.55,1.52,0.93c2.21,1.86,4.36,3.79,6.59,5.62c1.26,1.03,1.89,0.69,2.37-1.12
		c0.37,0.2,0.73,0.39,1.1,0.59c0.86,1.93,2.32,3.27,4.19,4.18c3.68,4.37,7.45,8.69,10.14,13.77c1.92,3.64,3.53,7.44,5.28,11.17
		c0.13,0.2,0.27,0.4,0.4,0.6c0.05,0.33,0.1,0.66,0.14,0.99c0.13,0.19,0.26,0.38,0.4,0.57c0.58,2.1,1.16,4.21,1.74,6.31
		c0.12,0.21,0.24,0.41,0.36,0.62c0.57,3.32,1.14,6.63,1.71,9.95c0.13,0.54,0.26,1.07,0.39,1.61c2.02,16.29,1.63,32.63,1.24,48.98
		c-0.11,4.48-0.01,8.97-0.14,13.45c-0.12,4.21-0.41,8.42-0.63,12.63c-0.11,0.37-0.22,0.74-0.33,1.1c0.04,4.87-1.55,9.44-2.79,14.04
		c-3.77,14.01-11.13,25.92-21.73,35.82c-0.25,0.23-0.58,0.39-0.87,0.58c-1.98-1.1-3.35-0.9-4.47,0.67
		c-0.35,0.49-0.57,1.16-1.03,1.48c-1.64,1.12-3.35,2.14-5.06,3.15c-2.25,1.33-4.52,2.62-6.78,3.94c-1.54,0.9-1.75,1.51-1.21,3.41
		c-1.31,1.57-0.61,3.16,0.02,4.71c2.63,6.53,5.28,13.04,7.93,19.56c8.7,21.43,17.39,42.86,26.11,64.27
		c2.76,6.76,5.65,13.46,8.43,20.21c0.42,1.02,0.52,2.17,0.77,3.26c-0.15,0.21-0.31,0.42-0.46,0.63c-1.22,0.07-2.43,0.2-3.65,0.21
		c-6.82,0.02-13.65,0.02-20.47,0c-0.95,0-1.91-0.13-2.86-0.2c-0.01-1.35-1.07-1.92-1.92-2.67c-0.44-0.39-0.97-0.79-1.18-1.31
		c-2.43-5.92-4.78-11.87-7.21-17.79c-0.66-1.61-1.61-3.11-2.28-4.72c-1.31-3.14-2.47-6.33-3.78-9.46c-0.6-1.43-1.49-2.74-2.12-4.17
		c-0.84-1.9-1.49-3.89-2.31-5.8c-0.96-2.21-2.37-4.25-2.54-6.77c-0.03-0.4-0.35-0.78-0.52-1.18c-1.05-2.5-2.14-4.99-3.12-7.52
		c-1.4-3.59-2.68-7.23-4.07-10.82c-1.27-3.27-2.66-6.49-3.9-9.78c-1.23-3.25-3.48-6.05-4.13-9.55c-0.06-0.34-0.18-0.68-0.33-1
		c-1.56-3.33-3.15-6.65-4.69-9.99c-0.72-1.56-1.94-2.41-3.45-2.35c-0.97,0.04-1.16,0.61-1.15,1.4c-2.47,0.05-4.94,0.1-7.41,0.16
		c0.07-1.37-0.5-2.13-1.95-2.09c-0.78,0.02-1.55,0.03-2.33,0c-1.59-0.07-2.17,0.76-2.07,2.24c-2.72,0.12-5.43,0.34-8.15,0.34
		c-16.47,0.03-32.93,0.02-49.4,0.02c-0.43,0-0.87-0.09-1.3-0.14c-0.12-2.49-0.38-2.75-2.87-2.88c-0.01-2.19-0.03-4.39-0.04-6.58
		c-0.01-4.57-0.02-9.15-0.02-13.72c0-0.87,0.09-1.75,0.13-2.62c2.21-0.51,3.61-1.81,3.95-4.11c5.77-0.01,11.54-0.06,17.31-0.02
		c4.11,0.03,8.21,0.17,12.32,0.26c-0.01,1.17,0.53,1.83,1.74,1.83c3.79,0.01,7.57,0.01,11.36,0c1.21,0,1.75-0.66,1.74-1.83
		c4.06-0.08,8.11-0.16,12.17-0.24c0.31,0.64,0.48,1.67,0.95,1.84c0.68,0.24,1.69,0.05,2.37-0.32c0.47-0.26,0.62-1.12,0.91-1.71
		c1.41-0.1,2.82-0.21,4.24-0.31c0,0.9,0.09,1.93,1.2,1.89c0.61-0.02,1.24-0.72,1.76-1.21C620.51,574.31,620.43,573.84,620.47,573.51
		z"/>
	<path class="st0" d="M347.98,706.46c-3.32,0.45-6.28-1.17-9.44-1.67c-1.46-0.23-2.89-0.67-4.33-1.01
		c-0.19-0.14-0.37-0.28-0.56-0.42c0,0,0.02,0.01,0.02,0.01c0.1-0.87-0.13-1.71-1.04-1.83c-1.36-0.18-2.24-1.89-3.81-1.14
		c-0.23,0.11-0.3,0.58-0.44,0.89c-0.36-0.15-0.73-0.31-1.09-0.46c0.37-1.93-1.14-2.34-2.4-2.93c-4.34-2.06-8.79-3.92-12.32-7.34
		c-0.73-0.71-1.46-0.56-1.63,0.63c-0.38-0.3-0.76-0.6-1.14-0.89c0.14-0.32,0.48-0.74,0.38-0.94c-0.33-0.64-0.7-1.39-1.28-1.72
		c-0.67-0.39-1.09,0.2-1.15,0.92c-0.56-0.35-1.11-0.7-1.67-1.06c-0.69-0.67-1.38-1.34-2.07-2.01c-0.56-0.56-1.12-1.12-1.68-1.68
		c-0.49-0.53-0.98-1.05-1.47-1.58c-1.49-1.85-3.01-3.67-4.46-5.54c-4.73-6.09-8.53-12.72-11.4-19.88c-0.13-0.18-0.27-0.36-0.4-0.55
		c-0.05-0.33-0.1-0.66-0.15-0.99c-0.14-0.2-0.27-0.4-0.41-0.6c-0.44-1.64-0.89-3.27-1.33-4.91c0.2-0.73,0.11-1.29-0.76-1.45
		c-0.04-0.34-0.09-0.68-0.13-1.01c-0.12-0.18-0.24-0.37-0.36-0.55c-0.51-2.13-1.05-4.25-1.51-6.39c-0.31-1.44-0.58-2.89-0.73-4.35
		c-1.09-10.18-1.08-20.4-1.08-30.62c-0.02-68.05-0.05-136.09-0.07-204.14c0-1.05,0.07-2.11,0.1-3.16c0.27-0.14,0.53-0.28,0.8-0.42
		c-0.28-0.21-0.55-0.42-0.83-0.64c0.07-3.37,0.14-6.73,0.21-10.1c2.12-0.47,2.28-0.66,2.36-2.91c1.53-0.09,3.06-0.13,4.58-0.29
		c0.68-0.07,0.87-0.48,0.25-0.99c0.35,0,0.71,0,1.06,0c-0.83,1.05,0.09,1.11,0.71,1.12c3.76,0.04,7.51,0.03,11.27,0.01
		c0.32,0,0.69-0.12,0.95-0.32c0.08-0.06-0.14-0.53-0.22-0.81c0.35,0,0.71,0,1.06,0c-0.62,0.53-0.39,0.94,0.27,0.98
		c1.3,0.09,2.62-0.04,3.91,0.06c1.9,0.14,3.33,0.97,3.67,3.05c-0.42,0.29-0.84,0.58-1.26,0.86c0.36,0.28,0.72,0.58,1.1,0.84
		c0.12,0.08,0.32,0.03,0.49,0.05c0.08,2.72,0.23,5.44,0.23,8.16c0,11.18-0.07,22.37-0.07,33.55c-0.03,46.14-0.04,92.29-0.07,138.43
		c0,0.96-0.13,1.92-0.2,2.88c-1.33-0.08-2.2,0.34-2.3,1.86c-0.08,1.21-0.48,2.42-0.45,3.62c0.19,7.45-0.34,14.89,0.41,22.35
		c0.47,4.7,0.12,9.48,0.07,14.23c-0.02,1.47-0.22,2.95-0.41,4.42c-0.25,1.92,0.54,2.92,2.7,3.26c0.33,3.53,0.66,7.05,0.99,10.58
		c0.12,0.36,0.24,0.73,0.36,1.09c1.82,10.57,5.95,20.12,12.73,28.45c5.93,7.27,13.57,11.85,22.72,13.88
		c1.94,0.43,3.92,0.73,5.88,1.09c-0.01,0.14,0.01,0.28,0.05,0.42c0.05,0.87,0.39,1.62,1.36,1.47c0.31-0.05,0.5-0.89,0.74-1.38
		c0.71,0.13,1.41,0.25,2.12,0.38c0.18,0.06,0.35,0.12,0.53,0.18c0.3,0.3,0.6,0.6,0.91,0.89c0.23-0.29,0.45-0.59,0.68-0.88
		c0.36,0.13,0.71,0.27,1.07,0.4c0.05,0.87,0.39,1.61,1.35,1.47c0.31-0.05,0.51-0.88,0.76-1.36c0.91,0.06,1.81,0.13,2.72,0.19
		c-0.02,0.75-0.27,1.63,0.87,1.79c1.13,0.15,2.07-0.07,2.23-1.44c0.73,0.08,1.45,0.17,2.18,0.25c-0.05,0.87,0.2,1.6,1.16,1.68
		c0.96,0.08,1.34-0.58,1.42-1.45c1.23,0.07,2.47,0.15,3.7,0.22c-0.1,1.5,0.98,2.11,2.11,2.24c1.28,0.15,2.42-0.4,2.66-1.93
		c8.12,0,16.23,0,24.35,0c0.24,1.54,1.38,2.08,2.66,1.93c1.13-0.13,2.21-0.74,2.11-2.24c0.53-0.08,1.05-0.16,1.58-0.25
		c0.25,0.11,0.51,0.22,0.76,0.34c0.45,0.24,0.91,0.46,1.35,0.71c1.52,0.88,1.96,0.67,2.59-1.26c0.73-0.08,1.46-0.16,2.18-0.24
		c0.16,1.38,1.1,1.61,2.24,1.45c1.14-0.16,0.87-1.06,0.85-1.81c0.73-0.07,1.47-0.14,2.2-0.21c0.39,0.45,0.79,0.9,1.18,1.35
		c0.31-0.54,0.62-1.07,0.93-1.61c0.53-0.08,1.07-0.16,1.6-0.24c0.25,0.3,0.5,0.6,0.75,0.89c0.26-0.36,0.52-0.72,0.78-1.09
		c-0.01-0.12-0.01-0.23,0.01-0.35c0.23,0.07,0.46,0.13,0.69,0.2c0.55,0.25,1.11,0.48,1.66,0.74c1.44,0.69,1.8,0.49,2.37-1.34
		c0.17-0.02,0.34-0.05,0.52-0.07c1.04,1.27,1.35,1.22,2.26-0.42c0.11-0.13,0.24-0.16,0.4-0.08c0.25,0.8,0.65,1.5,1.63,1.32
		c0.99-0.17,1.12-0.95,1.02-1.8c0.7-0.16,1.4-0.33,2.1-0.49c0.5,0.27,1.09,0.87,1.48,0.76c2.39-0.71,4.82-1.4,7.07-2.46
		c1.74-0.81,3.12-2.39,4.87-3.17c1.7-0.75,2.22-1.78,2-3.44c0.16-0.14,0.31-0.29,0.47-0.43c2.4-0.13,2.4-0.13,2.72-2.71
		c0.14-0.16,0.29-0.31,0.43-0.47c1.07,0.1,2.16,0.17,2.85-0.87c1.09-1.66,2.14-3.36,3.17-5.06c0.42-0.69,0.79-1.44-0.2-2.02
		c0.28-0.51,0.56-1.01,0.83-1.52c2.04-0.22,3.09-0.79,3.29-2.95c0.22-2.36,1.78-4.08,2.31-6.26c0.39-1.58,1.09-2.99,1.11-4.75
		c0.03-1.62,1.12-3.19,1.57-4.83c0.69-2.51,1.18-5.08,1.85-7.59c0.47-1.74-0.06-2.44-2.26-2.71c-0.38-0.37-0.77-0.74-1.15-1.11
		c-0.09-0.85-0.46-1.57-1.39-1.39c-0.32,0.06-0.49,0.88-0.72,1.36c-0.88,0.19-1.77,0.37-2.65,0.56c-0.1-0.24-0.15-0.65-0.29-0.68
		c-1.26-0.26-2.17,0.34-2.88,1.8c-2.33,1.21-4.78,1.8-7.42,1.5c-0.14-1.43,0.2-2.73,0.95-3.96c0.4-0.66,0.74-1.38,1-2.1
		c0.33-0.92-0.25-1.24-1.05-1.34c0.2-0.35,0.39-0.7,0.59-1.04c1.41,0.25,1.94-0.64,2.59-1.7c1.93-3.11,3.92-6.18,6.06-9.14
		c3.07-4.25,6.3-8.37,9.43-12.58c0.8-1.08,1.35-2.34,2.18-3.38c0.79-1,1.86-1.77,2.69-2.74c0.67-0.78,0.55-1.46-0.63-1.63
		c0.3-0.38,0.61-0.75,0.91-1.13c1.28,0.83,2.13,0.33,2.69-0.92c0.21-0.46,0.24-1.32,0.51-1.4c2.03-0.53,2.15-2.88,3.81-3.82
		c0.91-0.51,0.76-1.54-0.59-1.76c0.3-0.38,0.61-0.75,0.91-1.13c0.31,0.14,0.61,0.33,0.93,0.39c1.07,0.2,1.59-0.54,1.77-1.37
		c0.06-0.27-0.64-0.71-0.99-1.08c0.27-0.34,0.54-0.68,0.81-1.02c0.79,0.07,1.7,0.92,2.3-0.28c0.57-1.15,1.02-2.25,2.35-2.93
		c0.85-0.44,0.5-1.38-0.63-1.56c0.46-0.56,0.92-1.12,1.38-1.68c0.31,0.14,0.61,0.33,0.93,0.39c1.07,0.21,1.56-0.53,1.82-1.35
		c0.25-0.77-0.35-1.02-1.01-1.09c0.31-0.37,0.62-0.75,0.93-1.12c0.32,0.14,0.75,0.48,0.95,0.38c0.64-0.33,1.41-0.7,1.74-1.27
		c0.39-0.69-0.22-1.09-0.95-1.15c0.37-0.53,0.74-1.06,1.1-1.59l0.24,0.02l0.24-0.04c0.32,0.04,0.63,0.07,0.95,0.11
		c0.03,17.7,0.05,35.41,0.07,53.11c0,0.61-0.1,1.22-0.16,1.84c-1.93-0.14-2.01,1.48-2.26,2.64c-0.3,1.41-0.52,2.99,0.9,4.07
		c0.24,0.18,0.67,0.12,1.01,0.17c-0.05,1.44-0.11,2.88-0.16,4.32c-1.18-0.11-1.88,0.4-1.86,1.61c0.02,1.23-0.49,2.78,1.51,3.06
		c-0.07,1.23-0.13,2.47-0.2,3.7c-1.13-0.02-1.82,0.44-1.86,1.66c-0.04,1.07,0.21,1.91,1.46,2.05c-0.16,0.53-0.33,1.06-0.49,1.59
		c-0.3,0.3-0.6,0.61-0.89,0.91c0.29,0.23,0.59,0.45,0.88,0.68c-0.38,2.15-0.77,4.3-1.15,6.45c-2.23,0.41-2.35,0.81-0.78,2.73
		c-0.12,0.49-0.24,0.98-0.35,1.47c-1.19-0.18-1.73,0.56-2.09,1.5c-0.37,0.95-0.63,1.88,0.83,2.14c-0.34,0.89-0.67,1.78-1.01,2.67
		c-1.86,0.55-2.02,0.91-1.14,2.62c-0.7,1.41-1.39,2.83-2.09,4.24c-1.06-0.14-1.86,0.26-2.45,1.15c-1.33,2.02-2.66,4.04-4.01,6.04
		c-1.03,1.54-2.08,3.06-3.32,4.87c-0.2,0.09-0.78,0.28-1.3,0.59c-1.44,0.85-2.04,2.39-1.66,4.12c0,0-0.16,0.16-0.16,0.15
		c-2.03-0.98-2.83,0.84-4.11,1.62c0.21,0.74,0.37,1.32,0.54,1.89c-5.78,5.4-12.4,9.54-19.48,12.98c-6.67,3.24-13.68,5.43-20.95,6.9
		c-5.53,1.12-11.1,1.58-16.72,1.57c-19.64-0.02-39.27-0.02-58.91-0.14c-4.03-0.03-8.06-0.54-12.08-0.84
		c0.05-0.84-0.16-1.59-1.12-1.67C347.88,704.95,348.04,705.82,347.98,706.46z"/>
	<path class="st0" d="M783,643.61c4.71,14.36,14.64,23.7,28.3,29.46c3.48,1.47,7.06,2.61,10.76,3.34c0.21,0.13,0.42,0.27,0.64,0.4
		c7.14,1.56,14.41,1.98,21.68,1.99c39.41,0.07,78.82,0.01,118.23,0c1.59,0,3.18-0.03,4.76,0.12c2.12,0.2,2.92,1.09,3.09,3.23
		c0.05,0.7,0.01,1.41,0.01,2.11c0.02,6.17,0.05,12.34,0.05,18.5c0,1.05-0.1,2.11-0.16,3.16c-0.34,0.38-0.67,0.75-1.01,1.13
		c-0.18,0.06-0.37,0.13-0.55,0.19c-0.34-0.02-0.68-0.05-1.02-0.07c-0.36,0.2-0.71,0.41-1.07,0.61c-30.42,0-60.84,0.04-91.26,0
		c-13.66-0.02-27.33-0.09-40.99-0.31c-5.01-0.08-10.05-0.39-15.02-1.02c-5.29-0.67-10.47-2.05-15.53-3.76
		c-21.65-7.31-36.53-22.06-46.24-42.37c-1.77-3.69-3.43-7.52-4.45-11.46c-1.36-5.23-2.54-10.61-2.9-15.99
		c-0.6-9.04-0.65-18.13-0.67-27.21c-0.09-27.68-0.04-55.35-0.08-83.03c-0.01-9.16-0.16-18.33-0.22-27.49
		c-0.01-1.13,0.17-2.27,0.26-3.4c1.13-0.04,1.16-0.81,1.16-1.66c0-1.58,0.02-3.16,0.1-4.74c0.11-2.18,0.33-4.35,0.4-6.53
		c0.03-1.07-0.18-2.14-1.52-2.42c0.29-6.13,0.57-12.26,0.87-18.39c0.29-5.86,2.2-11.39,3.41-17.07c0.14-0.18,0.28-0.36,0.43-0.54
		c10.14-29.26,31.29-46.01,60.7-53.36c1.44-0.36,2.94-0.44,4.41-0.65c0.2-0.14,0.41-0.27,0.61-0.41
		c16.78-1.82,33.61-0.92,50.43-1.02c26.9-0.16,53.8-0.06,80.7-0.07c1.14,0,2.31-0.03,3.43,0.13c2.34,0.35,3.37,1.52,3.54,3.88
		c0.05,0.61,0.01,1.23,0.01,1.85c-0.02,5.81-0.1,11.63-0.03,17.44c0.06,5.12-0.95,6.28-6.08,6.27c-25.4-0.07-50.8-0.21-76.2-0.24
		c-11.9-0.01-23.81,0.17-35.71,0.26c-4.74,0.04-9.38,0.84-14.06,1.48c-5.85,0.81-11.36,2.44-16.65,4.88
		c-12.67,5.84-21.84,15-26.41,28.39c-0.48,1.41-0.81,2.88-1.2,4.32c-0.12,0.21-0.24,0.41-0.36,0.62c-0.23,1.41-0.47,2.82-0.7,4.23
		c-0.13,0.36-0.27,0.72-0.4,1.08c-0.36,8.98-0.88,17.95-1.04,26.93c-0.16,9.43,0.02,18.86,0.07,28.29c0.02,3.2,0.83,3.96,4.16,3.96
		c46.47-0.01,92.95-0.01,139.42-0.01c1.32,0,2.65-0.02,3.96,0.11c2.13,0.21,3,1.07,3.13,3.2c0.13,2.28,0.07,4.58,0.09,6.87
		c0.04,4.32,0.08,8.64,0.11,12.95c0,0.53,0.03,1.06-0.01,1.59c-0.18,2.34-1.07,3.26-3.47,3.51c-1.05,0.11-2.11,0.09-3.17,0.09
		c-45.94-0.04-91.89-0.09-137.83-0.13c-0.97,0-1.95-0.05-2.91,0.04c-2.3,0.21-3.31,1.23-3.57,3.49c-0.05,0.44-0.03,0.88-0.03,1.32
		c0.02,19.39-0.05,38.78,0.09,58.17c0.06,7.75,0.57,15.49,0.93,23.24c0.06,1.21,0.39,2.4,0.59,3.6c0.14,0.36,0.27,0.72,0.41,1.07
		c0.41,1.76,0.82,3.53,1.23,5.29C782.75,643.24,782.88,643.43,783,643.61z"/>
	<path class="st0" d="M92.89,383.78c2.82-0.1,5.64-0.2,8.46-0.31c1.88,0.76,2.17,2.3,2.15,4.1c-0.07,6.08-0.08,12.16-0.08,18.25
		c-0.02,17.37-0.04,34.73-0.04,52.1c-0.01,33.41-0.01,66.82,0,100.24c0.01,19.92,0.04,39.85,0.13,59.77
		c0.02,3.96,0.38,7.92,0.58,11.87c0.11,0.37,0.23,0.73,0.34,1.1c1.62,13.18,7.37,24.15,17.56,32.72c4.49,3.78,9.54,6.58,15.01,8.71
		c5.27,2.06,10.73,3.01,16.32,3.49c18.11,1.56,36.26,1.41,54.42,1.17c10.22-0.14,20.45-0.1,30.67-0.14c0.09,0,0.18,0,0.26,0
		c4.96,0.08,5.79,1.04,5.71,5.96c-0.11,6.34-0.07,12.68-0.09,19.03c0,0.62,0.04,1.23,0.01,1.85c-0.11,2.52-1,3.46-3.52,3.69
		c-0.96,0.09-1.93,0.08-2.89,0.12c-0.52-0.01-1.04-0.01-1.56-0.02c-1.39-0.09-2.78-0.25-4.16-0.26c-6.66-0.02-13.33-0.01-19.99,0.01
		c-0.6,0-1.2,0.17-1.8,0.26c-1.41,0-2.82,0-4.24,0.01c-5.51-0.01-11.01-0.03-16.52-0.03c-4.2,0-8.39,0.02-12.59,0.03
		c-0.52,0-1.04-0.01-1.56-0.01c-0.86-0.1-1.73-0.23-2.59-0.29c-8.33-0.56-16.66-1.11-24.98-1.66c-1.05-0.07-2.1-0.12-3.16-0.18
		c-0.21-0.13-0.42-0.27-0.63-0.4c-4.9-1.1-9.81-2.21-14.71-3.31c-0.18-0.14-0.37-0.28-0.55-0.43c-23.93-8.25-40.21-24.43-49.5-47.82
		c-0.66-1.67-1.21-3.39-1.81-5.09c0.8-0.69,0.31-0.92-0.39-1.07c-0.4-1.78-0.76-3.57-1.19-5.34c-2.08-8.55-1.94-17.27-1.95-25.96
		c-0.07-63.12-0.05-126.24-0.08-189.36c-0.01-11.99-0.08-23.98-0.12-35.97c0-0.97,0-1.94,0.08-2.91c0.15-1.86,0.86-3.4,2.66-4.25
		c3.15,0.1,6.31,0.2,9.46,0.3c0.32,2.3,2.13,1.58,3.44,1.58C90.76,385.36,92.57,386.09,92.89,383.78z"/>
	<path class="st0" d="M508.27,762.63c-0.39,4.16-0.59,8.13-2.47,11.91c-2.25,4.52-5.69,7.24-10.47,8.43
		c-4.36,1.08-8.74,0.98-13.04-0.32c-4.45-1.34-7.73-4.12-9.66-8.38c-0.7-1.56-1.33-3.17-1.8-4.81c-0.66-2.33-0.44-4.79-0.28-7.13
		c0.13-1.96-0.36-3.85,0.16-5.89c2.27-9.01,8.03-13.96,17.34-14.36c5.33-0.23,10.35,0.74,14.45,4.49c3.06,2.8,4.47,6.46,5.18,10.42
		C508.03,758.89,508.1,760.84,508.27,762.63z M499.24,764.05c-0.34-2.64-0.54-4.9-0.96-7.11c-0.36-1.87-0.76-3.79-1.55-5.5
		c-2.4-5.2-11.03-5.2-14.04-1.28c-1.7,2.22-2.56,4.83-2.8,7.51c-0.28,3.14-0.08,6.33-0.08,9.5c0,2.7,0.93,5.19,2.27,7.42
		c0.72,1.2,1.99,2.3,3.27,2.9c5.18,2.45,10.6,0.18,12.31-5.24C498.51,769.51,498.76,766.58,499.24,764.05z"/>
	<path class="st0" d="M863.53,742.94c3.15,0,6.13,0.03,9.11-0.01c1.14-0.02,1.45,0.84,1.89,1.57c3.3,5.52,6.59,11.04,9.89,16.57
		c1.89,3.16,3.78,6.32,5.62,9.41c0.29-0.05,0.38-0.05,0.44-0.08c0.08-0.04,0.18-0.1,0.2-0.17c0.05-0.26,0.1-0.52,0.1-0.78
		c0.04-8.63,0.06-17.27,0.1-25.9c0-0.08,0.06-0.16,0.16-0.42c2.16,0,4.4,0,6.79,0c0,13.13,0,26.22,0,39.66
		c-2.44,0-4.88,0.12-7.3-0.08c-0.63-0.05-1.33-1.02-1.75-1.71c-4.22-6.92-8.4-13.87-12.58-20.81c-1.46-2.41-2.9-4.83-4.37-7.24
		c-0.25-0.41-0.58-0.78-1.23-1.66c0,10.77,0,20.95,0,31.32c-2.44,0-4.68,0-7.09,0C863.53,769.5,863.53,756.41,863.53,742.94z"/>
	<path class="st0" d="M787.85,762.83c-0.36-3.32,0.27-6.47,1.34-9.57c1.91-5.51,5.65-9.02,11.3-10.46c4-1.02,8.03-1.04,12.04-0.07
		c6.22,1.5,10.16,5.49,11.79,11.58c1.84,6.89,1.75,13.78-1.25,20.39c-2.12,4.67-6,7.3-10.89,8.4c-4.1,0.91-8.23,0.82-12.29-0.36
		c-5.19-1.51-8.69-4.84-10.55-9.89C788.12,769.6,787.51,766.27,787.85,762.83z M816.7,763.07c-0.39-3.79-0.75-7.45-2.27-10.91
		c-1.51-3.42-4.32-4.77-7.84-4.78c-3.52,0-6.49,1.27-7.78,4.78c-0.84,2.29-1.44,4.72-1.74,7.14c-0.58,4.59-0.22,9.15,1.37,13.54
		c1.04,2.86,2.97,4.67,6.06,5.27c5.01,0.98,8.85-0.93,10.37-5.78C815.8,769.35,816.11,766.17,816.7,763.07z"/>
	<path class="st0" d="M317.53,782.69c-2.87,0-5.58,0-8.61,0c0-5.93,0-11.78,0-17.75c-5.22,0-10.12,0-15.35,0c0,5.91,0,11.75,0,17.72
		c-3.01,0-5.69,0-8.52,0c0-13.2,0-26.28,0-39.73c1.4,0,2.77,0,4.15,0c1.31,0,2.63,0,4.2,0c0,5.47,0,10.8,0,16.05
		c2.11,0.63,10.84,0.78,15.4,0.31c0-5.29,0-10.62,0-16.08c3.01-0.58,5.78-0.14,8.72-0.29C317.53,756.21,317.53,769.29,317.53,782.69
		z"/>
	<path class="st0" d="M398.39,772.8c2.87-0.68,5.38-1.27,7.96-1.88c0.27,0.4,0.49,0.67,0.63,0.96c2.72,5.78,9.51,8.22,15.3,5.49
		c1.96-0.92,3.33-2.36,3.44-4.62c0.11-2.31-1.21-3.82-3.15-4.77c-1.08-0.53-2.34-0.7-3.45-1.18c-4.89-2.09-10.29-2.9-14.77-5.98
		c-3.01-2.06-4.13-7.85-2.36-11.59c1.64-3.45,4.64-5.13,8.04-6.18c4.75-1.46,9.57-1.43,14.32,0.06c4.27,1.34,7.3,4.07,8.83,8.67
		c-2.4,0.65-4.73,1.27-7.14,1.92c-0.35-0.59-0.64-1.02-0.86-1.47c-2.51-5.06-8.06-5.57-11.8-4.3c-1.03,0.35-2.05,1.09-2.78,1.91
		c-1.74,1.96-1.44,4.49,0.73,5.96c1.29,0.87,2.79,1.49,4.28,2.02c3.15,1.11,6.4,1.97,9.52,3.16c1.95,0.74,3.94,1.65,5.59,2.9
		c4.82,3.65,5.26,9.92,1.2,14.4c-2.61,2.87-5.95,4.41-9.71,4.89c-2.69,0.34-5.44,0.25-8.16,0.37c-1.97,0.09-3.84-0.11-5.69-0.94
		c-2.79-1.25-5.4-2.67-7.12-5.3C400.38,776.01,399.57,774.68,398.39,772.8z"/>
	<path class="st0" d="M968.76,751.81c-2.47,0.66-4.68,1.25-7.1,1.89c-0.45-0.73-0.88-1.47-1.33-2.18
		c-2.47-3.88-8.35-5.39-12.39-3.17c-1.65,0.91-2.78,2.25-2.81,4.18c-0.03,2,1.22,3.31,2.95,4.01c2.61,1.05,5.3,1.91,7.95,2.85
		c2.49,0.89,5.04,1.64,7.44,2.72c3.85,1.74,6.58,4.56,6.74,9.02c0.16,4.4-2.19,7.53-5.82,9.71c-4.58,2.74-9.66,3.12-14.84,2.69
		c-1.72-0.14-3.48-0.31-5.14-0.75c-2.76-0.73-4.98-2.46-6.81-4.58c-1.29-1.49-2.26-3.26-3.49-5.07c2.64-1.44,5.35-1.49,7.94-2.14
		c0.26,0.45,0.44,0.74,0.59,1.04c2.7,5.68,9.74,8.11,15.38,5.28c1.93-0.97,3.26-2.44,3.3-4.72c0.03-2.19-1.24-3.64-3.07-4.56
		c-1.08-0.54-2.32-0.75-3.45-1.21c-4.91-2.03-10.31-2.88-14.79-5.95c-3.27-2.24-4.32-8.25-2.2-12.03c1.69-3.01,4.41-4.71,7.56-5.71
		c4.93-1.56,9.93-1.51,14.83,0.09C964.35,744.58,967.3,747.3,968.76,751.81z"/>
	<path class="st0" d="M633.82,743.09c2.67,0,5.09,0,7.68,0c0.06,0.71,0.17,1.39,0.17,2.06c0.01,7.58,0.03,15.15-0.02,22.73
		c-0.01,1.84-0.26,3.68-0.42,5.52c-0.38,4.36-2.93,7.08-6.8,8.63c-4.18,1.67-8.56,1.93-13,1.45c-2.91-0.31-5.7-0.96-8.31-2.39
		c-2.25-1.23-3.46-3.13-4.14-5.45c-0.32-1.09-0.59-2.24-0.61-3.37c-0.13-9.33-0.19-18.67-0.26-28c0-0.34,0.12-0.68,0.21-1.17
		c2.63,0,5.24,0,8.15,0c0.06,1,0.17,2.02,0.18,3.03c0.02,6.87,0,13.74,0.02,20.61c0.01,1.85,0.07,3.7,0.19,5.54
		c0.19,2.89,1.79,4.72,4.52,5.52c2.59,0.76,5.23,0.8,7.83,0.05c2.18-0.63,3.77-1.96,4.14-4.32c0.25-1.56,0.43-3.14,0.44-4.72
		c0.05-7.66,0.03-15.33,0.03-22.99C633.82,744.96,633.82,744.1,633.82,743.09z"/>
	<path class="st0" d="M247.53,756.11c-2.78,0.14-5.13,0.26-7.67,0.39c-0.29-1.02-0.56-2.1-0.92-3.16c-1.3-3.79-3.76-5.8-7.54-5.95
		c-3.75-0.15-6.78,1.3-8.38,4.81c-0.86,1.89-1.5,3.98-1.76,6.03c-0.58,4.62-0.79,9.28,0.85,13.78c1.79,4.94,5.98,7.16,11.13,6.05
		c2.14-0.46,3.73-1.6,4.69-3.51c0.74-1.48,1.29-3.06,2.01-4.8c2.46-0.32,4.93,0.78,7.68,0.91c-1.06,5.61-3.77,9.73-9.17,11.7
		c-4.42,1.62-8.98,1.68-13.54,0.68c-5.49-1.2-9.24-4.53-11.38-9.68c-1.69-4.07-2.1-8.33-1.83-12.69c0.05-0.84-0.07-1.7-0.11-2.55
		c-0.01-0.26-0.1-0.55-0.01-0.77c1-2.41,1.85-4.91,3.09-7.2c1.78-3.29,4.57-5.57,8.14-6.77c5.99-2.01,12-2.13,17.66,0.91
		C244.96,746.74,247.22,750.78,247.53,756.11z"/>
	<path class="st0" d="M147.43,782.61c0-13.22,0-26.3,0-39.52c9.94,0,19.76,0,29.69,0c0.05,0.92,0.1,1.7,0.12,2.47
		c0.02,0.78,0,1.56,0,2.61c-7.14,0-14.07,0-21.15,0c0,3.83,0,7.39,0,11.24c5.43,0,10.85,0,16.45,0c0,1.89,0,3.5,0,5.39
		c-5.49,0-10.91,0-16.47,0c0,4.29,0,8.3,0,12.64c7.12,0,14.2,0,21.4,0c0,1.88,0,3.42,0,5.16
		C167.53,782.61,157.62,782.61,147.43,782.61z"/>
	<path class="st0" d="M101.92,749.37c-0.04,6.96-0.08,13.91-0.11,20.87c-0.02,4.04,0,8.08,0,12.4c-2.91,0.3-5.68,0.1-8.69,0.15
		c0-11.51,0-22.84,0-34.42c-3.9,0-7.56,0-11.45,0c0-1.86,0-3.47,0-5.26c10.49,0,20.94,0,31.57,0c0.26,1.7,0.67,3.46-0.23,5.2
		c-3.3-0.03-6.59-0.05-9.89-0.08C102.34,748.23,101.68,748.33,101.92,749.37z"/>
	<path class="st0" d="M695.35,782.69c-3.05,0-5.67,0-8.68,0c-0.1-11.38,0-22.76-0.06-34.4c-3.89,0-7.55,0-11.39,0
		c0-1.86,0-3.46,0-5.21c10.52,0,20.96,0,31.56,0c0,1.63,0,3.18,0,5.04c-3.71,0-7.45,0-11.42,0
		C695.35,759.75,695.35,771.07,695.35,782.69z"/>
	<path class="st0" d="M555.21,777.51c6.39,0,12.35,0,18.46,0c0,1.77,0,3.31,0,4.86c-1.83,0.52-22.8,0.71-26.98,0.22
		c0-13.06,0-26.14,0-39.51c2.73-0.28,5.5-0.08,8.51-0.13C555.21,754.45,555.21,765.77,555.21,777.51z"/>
	<path class="st0" d="M740.93,743.04c2.88,0,5.58,0,8.45,0c0,13.18,0,26.26,0,39.55c-2.77,0.42-5.53,0.13-8.45,0.2
		C740.93,769.5,740.93,756.42,740.93,743.04z"/>
	<path class="st0" d="M623.71,603.7c0-0.79,0.18-1.36,1.15-1.4c1.51-0.06,2.73,0.79,3.45,2.35c1.54,3.34,3.13,6.66,4.69,9.99
		c0.15,0.32,0.26,0.66,0.33,1c0.64,3.5,2.9,6.3,4.13,9.55c1.24,3.28,2.63,6.5,3.9,9.78c1.39,3.6,2.68,7.23,4.07,10.82
		c0.98,2.53,2.07,5.02,3.12,7.52c0.17,0.4,0.49,0.78,0.52,1.18c0.17,2.52,1.58,4.55,2.54,6.77c0.83,1.91,1.48,3.89,2.31,5.8
		c0.62,1.42,1.52,2.73,2.12,4.17c1.31,3.13,2.47,6.33,3.78,9.46c0.67,1.61,1.62,3.11,2.28,4.72c2.43,5.92,4.78,11.87,7.21,17.79
		c0.21,0.51,0.74,0.92,1.18,1.31c0.85,0.74,1.91,1.32,1.92,2.67c-2.86,0.14-3.75-0.33-4.87-2.95c-1.77-4.13-3.45-8.29-5.16-12.43
		c-9.92-24-19.82-48-29.76-71.98c-1.18-2.84-2.64-5.57-3.9-8.37c-0.65-1.44-1.32-2.9-1.71-4.42
		C626.55,605.16,625.6,604.02,623.71,603.7z"/>
	<path class="st0" d="M512.05,412.88c-0.08-1.43,0.56-2.15,2.03-2.08c0.44,0.02,0.88,0,1.32,0c28.99,0,57.97,0,86.96,0
		c1.39,0,2.9-0.31,3.7,1.46c2.08-2.26,4.63-1.42,6.98-1.33c1.12,0.04,1.74,1.1,1.68,2.33c-1.07-0.08-2.14-0.16-3.21-0.24
		c-0.33-0.37-0.66-0.74-1-1.11c-0.36,0.35-0.73,0.69-1.09,1.04c-3.18,0-6.35,0-9.53,0c-0.32-0.35-0.63-0.98-0.97-1
		c-1.84-0.1-3.69-0.09-5.52,0.01c-0.33,0.02-0.61,0.68-0.92,1.04c-3.51,0.1-7.01,0.28-10.52,0.28c-16.63,0.02-33.26-0.01-49.89-0.03
		c-0.51,0-1.03-0.15-1.54-0.23c-0.38-0.38-0.75-1.08-1.14-1.09c-2.72-0.1-5.45-0.1-8.17-0.01c-0.42,0.01-0.82,0.67-1.23,1.02
		C517.34,412.92,514.69,412.9,512.05,412.88z"/>
	<path class="st0" d="M474.18,444.07c0.11-0.16,0.22-0.31,0.34-0.47c1.71,0.48,0.98,1.89,0.98,2.88
		c0.04,34.02,0.02,68.04,0.06,102.05c0,2.18,0.33,4.36,0.5,6.54c-0.51,0.26-1.03,0.51-2.02,1.01c0-1.79,0-3.17,0-4.55
		c0-6.78,0-13.55,0-20.33c0-27.99,0-55.98,0.01-83.97C474.04,446.18,474.14,445.12,474.18,444.07z"/>
	<path class="st0" d="M476.06,555.07c-0.18-2.18-0.5-4.36-0.5-6.54c-0.03-34.02-0.02-68.04-0.06-102.05c0-0.99,0.73-2.4-0.98-2.88
		c0.22-0.49,0.45-0.98,0.67-1.48c0.37,0.32,0.96,0.58,1.06,0.97c0.24,0.92,0.32,1.89,0.32,2.85c0.02,14.08,0.01,28.15,0.01,42.23
		c0,19.36-0.02,38.71,0.03,58.07c0.01,2.7,0.37,5.4,0.56,8.11C476.8,554.58,476.43,554.83,476.06,555.07z"/>
	<path class="st0" d="M674.55,404.9c-0.48,1.81-1.11,2.15-2.37,1.12c-2.23-1.83-4.38-3.76-6.59-5.62c-0.45-0.38-1-0.64-1.52-0.93
		c-2.46-1.33-5.2-2.2-7.06-4.49c-0.24-0.3-0.72-0.43-1.11-0.56c-1.31-0.44-2.69-0.73-3.95-1.28c-4.59-2.01-9.37-3.42-14.23-4.56
		c-1.78-0.42-3.6-0.71-5.38-1.16c-0.46-0.12-0.81-0.63-1.21-0.97c-0.17,0-0.35,0-0.52,0c-0.89-0.19-1.79-0.36-2.66-0.62
		c-0.08-0.02,0.01-0.63,0.02-0.97c1.06,0.02,2.12,0.05,3.17,0.07c0.35,0.12,0.7,0.24,1.06,0.37c4.55,0.16,8.85,1.55,13.18,2.75
		c0.19,0.14,0.38,0.28,0.57,0.42c2.23,0.75,4.52,1.38,6.69,2.27c7.59,3.14,14.45,7.47,20.68,12.82
		C673.76,403.98,674.13,404.46,674.55,404.9z"/>
	<path class="st0" d="M665.97,545.14c1.33,0.96,1.6,1.52,0.68,2.93c-1.62,2.49-3.47,4.83-5.23,7.23c-0.45,0.61-1,1.17-1.36,1.83
		c-1.03,1.92-2.45,3.39-4.44,4.34c-0.67,0.32-1.32,0.78-1.82,1.33c-2.62,2.85-6.04,4.43-9.43,6.05c-0.44,0.21-1.04,0.07-1.57,0.13
		c-0.43,0.05-0.99,0.02-1.24,0.27c-1.96,1.97-4.71,2.34-7.04,3.54c-0.3,0.15-0.69,0.27-1,0.22c-2.16-0.41-3.91,1.02-5.91,1.29
		c-1.37,0.18-2.74,0.38-4.12,0.38c-0.28,0-0.56-0.88-0.84-1.35c6.56-1.19,13.05-2.6,19.15-5.41c9.65-4.44,17.05-11.37,22.6-20.36
		C664.92,546.75,665.45,545.95,665.97,545.14z"/>
	<path class="st0" d="M308.45,621.34c-2.16-0.34-2.96-1.34-2.7-3.26c0.19-1.47,0.39-2.94,0.41-4.42c0.05-4.74,0.4-9.53-0.07-14.23
		c-0.75-7.46-0.22-14.9-0.41-22.35c-0.03-1.2,0.37-2.41,0.45-3.62c0.1-1.51,0.97-1.94,2.3-1.86c-0.02,0.71-0.03,1.42-0.05,2.13
		c-0.37,0.4-0.96,0.74-1.07,1.2c-0.18,0.75-0.06,1.57-0.06,2.37c0,6.34-0.01,12.69,0.01,19.03c0,0.89-0.4,2.06,1.09,2.27
		c0,6.35-0.01,12.7-0.01,19.04c-0.34,0.27-0.68,0.54-1.02,0.81c0.35,0.26,0.71,0.52,1.06,0.78
		C308.39,619.93,308.42,620.64,308.45,621.34z"/>
	<path class="st0" d="M481.34,586.96c1.18,0.17,1.3,0.86,0.63,1.63c-0.83,0.97-1.9,1.74-2.69,2.74c-0.83,1.05-1.39,2.31-2.18,3.38
		c-3.12,4.21-6.36,8.33-9.43,12.58c-2.14,2.96-4.13,6.03-6.06,9.14c-0.66,1.06-1.18,1.95-2.59,1.7c1.82-2.99,3.46-6.11,5.51-8.94
		c5.31-7.32,10.8-14.5,16.22-21.74C480.9,587.26,481.14,587.12,481.34,586.96z"/>
	<path class="st0" d="M657.59,429.31c2.13,0.2,3.7,1.08,4.79,3.09c1.19,2.21,3.01,4.1,4.11,6.35c1.9,3.87,3.89,7.73,5.01,11.95
		c0.46,1.75,0.49,1.74-1.5,2.48c-0.39-1.32-0.75-2.64-1.16-3.95c-1.96-6.25-5.12-11.84-9.39-16.81c-0.45-0.53-0.86-1.09-1.29-1.63
		C657.96,430.3,657.77,429.81,657.59,429.31C657.59,429.31,657.59,429.31,657.59,429.31z"/>
	<path class="st0" d="M478.23,553.25c-1.18-3.6,0.16-4,2.99-5.33c0.07-1.54,0.75-2.77,2.35-3.36c0.3-0.11,0.67-0.42,0.73-0.7
		c0.34-1.62,1.36-2.56,2.79-3.25c0.31-0.15,0.49-0.7,0.62-1.1c0.4-1.24,1-2.16,2.4-2.51c0.52-0.13,1.04-0.87,1.26-1.44
		c1.16-3.06,2.02-3.65,5.55-3.53c-3.62,4.15-7.22,8.31-10.85,12.44C483.48,547.41,480.85,550.32,478.23,553.25z"/>
	<path class="st0" d="M656.59,594.51c-0.53-1.9-0.33-2.51,1.21-3.41c2.26-1.32,4.53-2.61,6.78-3.94c1.71-1.02,3.42-2.04,5.06-3.15
		c0.46-0.32,0.68-0.99,1.03-1.48c1.12-1.57,2.49-1.77,4.47-0.67C669.69,587.14,663.39,591.19,656.59,594.51z"/>
	<path class="st0" d="M474.04,624.52c2.2,0.27,2.73,0.97,2.26,2.71c-0.67,2.51-1.16,5.08-1.85,7.59c-0.45,1.64-1.54,3.22-1.57,4.83
		c-0.03,1.76-0.73,3.17-1.11,4.75c-0.54,2.19-2.09,3.9-2.31,6.26c-0.2,2.16-1.25,2.73-3.29,2.95c3.43-6.57,5.73-13.52,6.93-20.82
		C473.54,630.06,473.73,627.28,474.04,624.52z"/>
	<path class="st0" d="M504.39,433.02c-2.09-0.63-2.35-0.88-2.38-2.78c-0.05-2.37,0.37-4.82-0.12-7.08c-0.6-2.74,0.11-5.18,0.67-7.7
		c0.59-2.64,3.5-4.74,6.17-4.66c1.4,0.04,1.79,0.86,1.74,2.08c-0.17,0.04-0.34,0.09-0.51,0.11c-4.43,0.49-4.66,0.67-5.72,4.72
		c-0.91,0.01-1.18,0.55-1.18,1.37c0.01,3.32,0.01,6.65-0.01,9.97c-0.01,0.87,0.35,1.31,1.22,1.33
		C504.3,431.26,504.35,432.14,504.39,433.02z"/>
	<path class="st0" d="M624.25,414.4c0.55-2.25,0.75-2.36,2.65-1.26c0.93,0.53,1.81,0.62,2.93,0.58c1.66-0.05,3.37,0.58,5,1.09
		c2.39,0.75,4.73,1.68,7.11,2.48c1.49,0.49,2.1,1.46,1.92,2.98c-0.17,0.02-0.37,0.1-0.51,0.04
		C637.19,417.62,630.78,415.81,624.25,414.4z"/>
	<path class="st0" d="M481.9,682.58c-0.39-1.73,0.21-3.27,1.66-4.12c0.52-0.31,1.11-0.5,1.3-0.59c1.24-1.81,2.29-3.33,3.32-4.87
		c1.35-2.01,2.68-4.03,4.01-6.04c0.59-0.89,1.39-1.29,2.45-1.15c-2.8,5.94-6.85,10.98-11.31,15.71
		C482.93,681.94,482.38,682.23,481.9,682.58z"/>
	<path class="st0" d="M596.73,574.54c0.01,1.17-0.53,1.83-1.74,1.83c-3.79,0.01-7.57,0.01-11.36,0c-1.21,0-1.75-0.65-1.74-1.83
		C586.84,574.54,591.79,574.54,596.73,574.54z"/>
	<path class="st0" d="M310.93,691.19c0.17-1.19,0.91-1.33,1.63-0.63c3.53,3.43,7.98,5.29,12.32,7.34c1.25,0.59,2.77,1,2.4,2.93
		c-4.59-1.56-8.67-4.1-12.66-6.77C313.33,693.2,312.16,692.15,310.93,691.19z"/>
	<path class="st0" d="M670.89,529.3c2.17,0.51,2.27,0.66,1.59,2.48c-0.21,0.57-0.59,1.16-0.56,1.72c0.18,3-1.12,5.59-2.18,8.25
		c-0.67,1.69-0.88,1.74-2.7,1.28C668.77,538.57,670.18,534.03,670.89,529.3z"/>
	<path class="st0" d="M646.97,422.02c0.09-0.49,0.18-0.98,0.32-1.81c1.69,0.98,3.2,1.79,4.65,2.7c1.4,0.87,2.74,1.84,4.12,2.74
		c1.36,0.88,1.57,2.21,1.52,3.66c0,0,0,0,0,0c-0.31-0.01-0.63-0.02-0.94-0.04C653.42,426.86,650.19,424.44,646.97,422.02z"/>
	<path class="st0" d="M308.34,598.6c-1.49-0.21-1.09-1.38-1.09-2.27c-0.03-6.34-0.01-12.69-0.01-19.03c0-0.79-0.12-1.62,0.06-2.37
		c0.11-0.46,0.7-0.8,1.07-1.2c0.05,6.37,0.11,12.75,0.13,19.12C308.5,594.77,308.4,596.68,308.34,598.6z"/>
	<path class="st0" d="M455.9,666.7c0.22,1.66-0.3,2.69-2,3.44c-1.75,0.77-3.13,2.35-4.87,3.17c-2.25,1.05-4.68,1.75-7.07,2.46
		c-0.38,0.11-0.98-0.49-1.48-0.76c2.12-0.81,4.37-1.38,6.33-2.48C449.94,670.77,452.88,668.66,455.9,666.7z"/>
	<path class="st0" d="M499.38,529.39c-0.16-1.59,0.09-3.02,1-4.45c0.77-1.21,1.2-2.69,1.57-4.11c0.48-1.86,0.39-1.88,2.51-2.13
		C504.36,523.03,502.75,526.63,499.38,529.39z"/>
	<path class="st0" d="M749.72,476.4c1.34,0.29,1.55,1.36,1.52,2.42c-0.07,2.18-0.29,4.35-0.4,6.53c-0.08,1.58-0.09,3.16-0.1,4.74
		c0,0.85-0.03,1.62-1.16,1.66c-0.04-2.08-0.13-4.16-0.11-6.23C749.51,482.48,749.63,479.44,749.72,476.4z"/>
	<path class="st0" d="M504.26,430.39c-0.87-0.02-1.23-0.46-1.22-1.33c0.02-3.32,0.02-6.65,0.01-9.97c0-0.82,0.27-1.36,1.18-1.37
		C504.24,421.94,504.25,426.16,504.26,430.39z"/>
	<path class="st0" d="M488.68,577.94c1.34,0.22,1.49,1.24,0.59,1.76c-1.66,0.94-1.78,3.28-3.81,3.82c-0.27,0.07-0.3,0.93-0.51,1.4
		c-0.56,1.25-1.41,1.75-2.69,0.92C484.39,583.2,486.54,580.57,488.68,577.94z"/>
	<path class="st0" d="M671.89,502.85c0.51,0.24,1.28,0.34,1.49,0.73c0.93,1.79,0.82,3.78,0.42,5.65c-0.12,0.57-1.32,0.91-2.02,1.36
		c-0.12,0.06-0.24,0.12-0.36,0.16c0.01-0.68,0.03-1.37,0.04-2.05C671.59,506.75,671.74,504.8,671.89,502.85z"/>
	<path class="st0" d="M458.43,619.18c0.8,0.09,1.38,0.42,1.05,1.34c-0.26,0.73-0.6,1.44-1,2.1c-0.74,1.23-1.09,2.53-0.95,3.96
		c-0.88-0.12-1.76-0.24-3-0.41C455.99,623.55,457.21,621.37,458.43,619.18z"/>
	<path class="st0" d="M671.77,477.52c2.16,0.7,2.26,0.86,2.23,3.61c-0.03,2.63-0.37,3.22-2.11,3.73c-0.15-1.98-0.3-3.97-0.46-5.95
		c-0.01-0.47-0.01-0.95-0.02-1.42C671.53,477.49,671.65,477.5,671.77,477.52z"/>
	<path class="st0" d="M465.33,655.14c0.99,0.58,0.62,1.34,0.2,2.02c-1.03,1.7-2.08,3.4-3.17,5.06c-0.68,1.04-1.78,0.96-2.85,0.87
		C461.45,660.44,463.39,657.79,465.33,655.14z"/>
	<path class="st0" d="M504.04,622.4c-0.34-0.05-0.77,0.02-1.01-0.17c-1.41-1.09-1.2-2.67-0.9-4.07c0.25-1.16,0.33-2.78,2.26-2.64
		C504.27,617.82,504.16,620.11,504.04,622.4z"/>
	<path class="st0" d="M609.96,604.01c-0.1-1.48,0.48-2.31,2.07-2.24c0.77,0.03,1.55,0.03,2.33,0c1.45-0.04,2.03,0.71,1.95,2.09
		C614.19,603.91,612.07,603.96,609.96,604.01z"/>
	<path class="st0" d="M519.99,412.94c0.41-0.36,0.81-1.01,1.23-1.02c2.72-0.09,5.45-0.09,8.17,0.01c0.39,0.01,0.76,0.71,1.14,1.09
		C527.02,412.99,523.5,412.96,519.99,412.94z"/>
	<path class="st0" d="M477.61,383.72c-0.36,1.12-0.66,2.27-1.09,3.36c-0.44,1.1-1.49,0.98-2.44,0.98
		C474.22,384.91,474.82,384.18,477.61,383.72z"/>
	<path class="st0" d="M496.15,568.97c1.13,0.18,1.47,1.12,0.63,1.56c-1.33,0.69-1.77,1.78-2.35,2.93c-0.6,1.2-1.51,0.35-2.3,0.28
		C493.46,572.15,494.8,570.56,496.15,568.97z"/>
	<path class="st0" d="M552.27,574.31c-0.34,2.3-1.73,3.6-3.95,4.11C548.64,575.23,549.27,574.57,552.27,574.31z"/>
	<path class="st0" d="M379.74,679.58c-0.24,1.54-1.38,2.08-2.66,1.93c-1.13-0.13-2.21-0.73-2.11-2.24
		C376.56,679.37,378.15,679.47,379.74,679.58z"/>
	<path class="st0" d="M408.85,679.27c0.11,1.5-0.98,2.11-2.11,2.24c-1.28,0.15-2.42-0.39-2.66-1.93
		C405.67,679.47,407.26,679.37,408.85,679.27z"/>
	<path class="st0" d="M328.38,701.3c0.14-0.3,0.2-0.77,0.44-0.89c1.57-0.76,2.46,0.95,3.81,1.14c0.91,0.12,1.15,0.96,1.04,1.83
		C331.91,702.68,330.15,701.99,328.38,701.3z"/>
	<path class="st0" d="M478.17,686.24c-0.16-0.58-0.33-1.16-0.54-1.89c1.28-0.78,2.08-2.6,4.11-1.62
		C480.55,683.9,479.36,685.07,478.17,686.24z"/>
	<path class="st0" d="M616.84,413.38c-0.04-1.17,0.3-2.12,1.67-2c1.41,0.12,2.05,1.05,2.03,2.44
		C619.31,413.68,618.07,413.53,616.84,413.38z"/>
	<path class="st0" d="M613.13,574.13c-0.29,0.59-0.44,1.45-0.91,1.71c-0.67,0.37-1.68,0.56-2.37,0.32c-0.48-0.17-0.65-1.2-0.95-1.84
		C610.31,574.25,611.72,574.19,613.13,574.13z"/>
	<path class="st0" d="M592.49,413c0.31-0.36,0.59-1.03,0.92-1.04c1.84-0.11,3.69-0.11,5.52-0.01c0.34,0.02,0.65,0.65,0.97,1
		C597.43,412.96,594.96,412.98,592.49,413z"/>
	<path class="st0" d="M670.43,455.23c1.29-0.04,2.18,0.54,2.44,1.8c0.23,1.12-0.32,1.81-1.51,1.9c-0.01-0.72,0.06-1.5-0.98-1.59
		C670.39,456.64,670.41,455.94,670.43,455.23z"/>
	<path class="st0" d="M503.53,631.4c-2-0.28-1.49-1.83-1.51-3.06c-0.02-1.21,0.68-1.72,1.86-1.61
		C503.76,628.28,503.65,629.84,503.53,631.4z"/>
	<path class="st0" d="M671.44,520.4c1.22-0.23,1.81,0.54,1.89,1.53c0.12,1.33-0.79,1.94-2.04,2.07
		C671.34,522.79,671.39,521.59,671.44,520.4z"/>
	<path class="st0" d="M626.36,384.47c0.02,1.08-0.27,1.94-1.55,1.95c-1.45,0.01-1.66-0.99-1.63-2.14
		C624.25,384.35,625.3,384.41,626.36,384.47z"/>
	<path class="st0" d="M502.92,638.8c-1.24-0.15-1.49-0.98-1.46-2.05c0.04-1.22,0.73-1.67,1.86-1.66
		C503.2,636.33,503.06,637.57,502.92,638.8z"/>
	<path class="st0" d="M498.88,656.28c-1.46-0.25-1.2-1.19-0.83-2.14c0.36-0.94,0.91-1.68,2.09-1.5
		C499.72,653.85,499.3,655.07,498.88,656.28z"/>
	<path class="st0" d="M548.24,601.34c2.49,0.13,2.75,0.39,2.87,2.88C549.19,604.22,548.26,603.23,548.24,601.34z"/>
	<path class="st0" d="M620.47,573.51c-0.04,0.34,0.05,0.8-0.14,0.98c-0.53,0.49-1.15,1.19-1.76,1.21c-1.11,0.04-1.2-0.99-1.2-1.89
		C618.4,573.71,619.43,573.61,620.47,573.51z"/>
	<path class="st0" d="M307.75,688.56c0.06-0.72,0.48-1.31,1.15-0.92c0.57,0.33,0.95,1.08,1.28,1.72c0.1,0.19-0.24,0.62-0.38,0.94
		C309.12,689.72,308.43,689.14,307.75,688.56z"/>
	<path class="st0" d="M501.94,562.08c0.72,0.07,1.34,0.47,0.95,1.15c-0.33,0.58-1.1,0.95-1.74,1.27c-0.2,0.1-0.63-0.24-0.95-0.38
		C500.78,563.44,501.36,562.76,501.94,562.08z"/>
	<path class="st0" d="M491.31,574.76c0.35,0.36,1.05,0.81,0.99,1.08c-0.19,0.83-0.7,1.57-1.77,1.37c-0.32-0.06-0.62-0.26-0.93-0.39
		C490.17,576.13,490.74,575.45,491.31,574.76z"/>
	<path class="st0" d="M499.27,565.25c0.66,0.07,1.26,0.31,1.01,1.09c-0.26,0.81-0.75,1.56-1.82,1.35c-0.32-0.06-0.62-0.26-0.93-0.39
		C498.11,566.61,498.69,565.93,499.27,565.25z"/>
	<path class="st0" d="M280.71,384.04c-0.08,2.25-0.24,2.44-2.36,2.91C278.47,385.44,279.14,384.37,280.71,384.04z"/>
	<path class="st0" d="M420.41,678.21c0.02,0.75,0.29,1.64-0.85,1.81c-1.14,0.16-2.08-0.06-2.24-1.45
		C418.35,678.45,419.38,678.33,420.41,678.21z"/>
	<path class="st0" d="M366.51,678.57c-0.16,1.37-1.1,1.6-2.23,1.44c-1.14-0.16-0.88-1.04-0.87-1.79
		C364.44,678.34,365.47,678.46,366.51,678.57z"/>
	<path class="st0" d="M415.13,678.81c-0.62,1.94-1.06,2.14-2.59,1.26c-0.44-0.25-0.9-0.48-1.35-0.71c0.13-0.11,0.23-0.24,0.29-0.4
		C412.7,678.91,413.92,678.86,415.13,678.81z"/>
	<path class="st0" d="M671.31,465.3c0.81-0.01,1.55,0.02,1.62,1.14c0.07,1.14-0.46,1.56-1.52,1.5
		C671.38,467.05,671.35,466.18,671.31,465.3z"/>
	<path class="st0" d="M464.95,625.07c0.7-1.47,1.62-2.07,2.88-1.8c0.14,0.03,0.2,0.44,0.29,0.68
		C467.06,624.32,466.01,624.69,464.95,625.07z"/>
	<path class="st0" d="M432.56,676.55c-0.57,1.83-0.93,2.03-2.37,1.34c-0.55-0.26-1.11-0.49-1.66-0.74c0.15-0.1,0.28-0.21,0.4-0.33
		C430.14,676.73,431.35,676.64,432.56,676.55z"/>
	<path class="st0" d="M438.38,675.5c0.09,0.85-0.04,1.63-1.02,1.8c-0.97,0.17-1.37-0.53-1.63-1.32
		C436.62,675.82,437.5,675.66,438.38,675.5z"/>
	<path class="st0" d="M459.08,663.56c-0.32,2.58-0.32,2.58-2.72,2.71C457.27,665.37,458.18,664.46,459.08,663.56z"/>
	<path class="st0" d="M371.27,679.05c-0.08,0.87-0.47,1.54-1.42,1.45c-0.96-0.08-1.21-0.82-1.16-1.68
		C369.55,678.9,370.41,678.98,371.27,679.05z"/>
	<path class="st0" d="M500.49,651.17c-1.57-1.93-1.45-2.32,0.78-2.73C501.01,649.34,500.75,650.25,500.49,651.17z"/>
	<path class="st0" d="M496.73,661.56c-0.88-1.71-0.72-2.07,1.14-2.62C497.49,659.82,497.11,660.69,496.73,661.56z"/>
	<path class="st0" d="M360.69,678.04c-0.25,0.47-0.44,1.31-0.76,1.36c-0.96,0.15-1.3-0.6-1.35-1.47
		C359.28,677.96,359.98,678,360.69,678.04z"/>
	<path class="st0" d="M347.98,706.46c0.06-0.65-0.1-1.51,0.94-1.42c0.95,0.09,1.16,0.83,1.12,1.67
		C349.35,706.63,348.67,706.55,347.98,706.46z"/>
	<path class="st0" d="M470.77,623.38c0.24-0.48,0.4-1.3,0.72-1.36c0.93-0.18,1.3,0.53,1.39,1.39
		C472.18,623.4,471.47,623.39,470.77,623.38z"/>
	<path class="st0" d="M308.53,388.59c-0.17-0.01-0.37,0.03-0.49-0.05c-0.38-0.25-0.73-0.55-1.1-0.84c0.42-0.29,0.84-0.58,1.26-0.86
		C308.31,387.42,308.42,388.01,308.53,388.59z"/>
	<path class="st0" d="M353.28,676.96c-0.24,0.48-0.43,1.32-0.74,1.38c-0.97,0.16-1.31-0.6-1.36-1.47c0.35-0.02,0.7-0.04,1.05-0.06
		c0.18-0.02,0.37-0.03,0.55-0.05C352.94,676.82,353.11,676.89,353.28,676.96z"/>
	<path class="st0" d="M424.71,677.74c-0.31,0.54-0.62,1.07-0.93,1.61c-0.39-0.45-0.79-0.9-1.18-1.35
		C423.31,677.91,424.01,677.83,424.71,677.74z"/>
	<path class="st0" d="M304.01,685.5c0.69,0.67,1.38,1.34,2.07,2.01C304.69,687.56,303.99,686.9,304.01,685.5z"/>
	<path class="st0" d="M609.43,412.94c0.36-0.35,0.73-0.69,1.09-1.04c0.33,0.37,0.66,0.74,1,1.11
		C610.82,412.99,610.12,412.96,609.43,412.94z"/>
	<path class="st0" d="M656.64,429.28c0.31,0.01,0.63,0.02,0.94,0.04c0.19,0.49,0.37,0.99,0.56,1.48
		C657.21,430.72,656.7,430.23,656.64,429.28z"/>
	<path class="st0" d="M435.34,676.06c-0.91,1.64-1.22,1.69-2.26,0.42C433.83,676.34,434.59,676.2,435.34,676.06z"/>
	<path class="st0" d="M300.86,682.24c0.49,0.53,0.98,1.05,1.47,1.58C301.22,683.86,300.77,683.3,300.86,682.24z"/>
	<path class="st0" d="M357.51,677.52c-0.23,0.29-0.45,0.59-0.68,0.88c-0.3-0.3-0.6-0.6-0.91-0.89
		C356.45,677.51,356.98,677.52,357.51,677.52z"/>
	<path class="st0" d="M502.43,641.98c-0.29-0.23-0.59-0.45-0.88-0.68c0.3-0.3,0.6-0.61,0.89-0.91
		C502.43,640.92,502.43,641.45,502.43,641.98z"/>
	<path class="st0" d="M308.37,619.23c-0.35-0.26-0.71-0.52-1.06-0.78c0.34-0.27,0.68-0.54,1.02-0.81
		C308.34,618.17,308.35,618.7,308.37,619.23z"/>
	<path class="st0" d="M427.83,677.31c-0.26,0.36-0.52,0.72-0.78,1.09c-0.25-0.3-0.5-0.6-0.75-0.89
		C426.82,677.44,427.33,677.37,427.83,677.31z"/>
	<path class="st0" d="M504.47,560.57c-0.32-0.04-0.63-0.07-0.95-0.11c0.05-0.16,0.04-0.32-0.04-0.47c0.29-0.24,0.58-0.47,0.87-0.71
		C504.39,559.71,504.43,560.14,504.47,560.57z"/>
	<path class="st0" d="M670.38,457.35c1.04,0.09,0.97,0.87,0.98,1.59c0,0-0.23,0-0.23,0s-0.23,0-0.23,0
		C670.73,458.41,670.55,457.88,670.38,457.35z"/>
	<path class="st0" d="M77.15,647.26c0.7,0.15,1.19,0.37,0.39,1.07C77.41,647.97,77.28,647.62,77.15,647.26z"/>
	<path class="st0" d="M281.95,648.32c0.87,0.16,0.97,0.72,0.76,1.45C282.46,649.29,282.2,648.8,281.95,648.32z"/>
	<path class="st0" d="M278.13,397.04c0.28,0.21,0.55,0.42,0.83,0.64c-0.27,0.14-0.53,0.28-0.8,0.42
		C278.15,397.75,278.14,397.4,278.13,397.04z"/>
	<path class="st0" d="M969.34,707.06c0.34-0.38,0.67-0.75,1.01-1.13C970.01,706.3,969.67,706.68,969.34,707.06z"/>
	<path class="st0" d="M966.7,707.78c0.36-0.2,0.71-0.41,1.07-0.61c-0.01,0.31-0.02,0.63-0.04,0.94
		C967.39,708,967.05,707.89,966.7,707.78z"/>
	<path class="st0" d="M967.73,708.11c0.01-0.31,0.02-0.63,0.04-0.94c0.34,0.02,0.68,0.05,1.02,0.07
		C968.44,707.53,968.08,707.82,967.73,708.11z"/>
	<path class="st0" d="M411.49,678.96c-0.06,0.16-0.16,0.29-0.29,0.4c-0.26-0.11-0.51-0.23-0.77-0.34
		C410.78,679,411.14,678.98,411.49,678.96z"/>
	<path class="st0" d="M699.39,707.16c0.15-0.21,0.31-0.42,0.46-0.63C699.7,706.74,699.55,706.95,699.39,707.16z"/>
	<path class="st0" d="M144.11,704.97c0.21,0.13,0.42,0.27,0.63,0.4C144.53,705.24,144.32,705.11,144.11,704.97z"/>
	<path class="st0" d="M333.65,703.36c0.19,0.14,0.37,0.28,0.56,0.42C334.03,703.65,333.84,703.51,333.65,703.36z"/>
	<path class="st0" d="M128.85,701.24c0.18,0.14,0.37,0.28,0.55,0.43C129.21,701.52,129.03,701.38,128.85,701.24z"/>
	<path class="st0" d="M754.43,440.4c-0.14,0.18-0.28,0.36-0.43,0.54C754.15,440.76,754.29,440.58,754.43,440.4z"/>
	<path class="st0" d="M281.45,646.75c0.12,0.18,0.24,0.37,0.36,0.55C281.69,647.12,281.57,646.94,281.45,646.75z"/>
	<path class="st0" d="M643.8,420.5c0.18,0.12,0.37,0.24,0.55,0.36C644.17,420.73,643.98,420.61,643.8,420.5z"/>
	<path class="st0" d="M284.6,656.27c0.13,0.18,0.27,0.36,0.4,0.55C284.86,656.64,284.73,656.45,284.6,656.27z"/>
	<path class="st0" d="M284.04,654.68c0.14,0.2,0.27,0.4,0.41,0.6C284.31,655.08,284.18,654.88,284.04,654.68z"/>
	<path class="st0" d="M583.49,383.78c3.7,0.03,7.41,0.05,11.11,0.08c0.08,1.43-0.57,2.1-2.03,2.08c-2.38-0.04-4.75-0.03-7.13,0
		C583.94,385.96,583.42,385.16,583.49,383.78z"/>
	<path class="st0" d="M630.6,386.46c0.17,0,0.35,0,0.52,0c0,0-0.26,0-0.26,0L630.6,386.46z"/>
	<path class="st0" d="M92.89,383.78c-0.32,2.3-2.13,1.58-3.44,1.58c-1.31,0-3.12,0.72-3.44-1.58
		C88.3,383.78,90.6,383.78,92.89,383.78z"/>
</g>
</svg>
