<?xml version="1.0" encoding="utf-8"?>
<!-- Generator: Adobe Illustrator 27.6.1, SVG Export Plug-In . SVG Version: 6.00 Build 0)  -->
<svg version="1.1" id="Layer_1" xmlns="http://www.w3.org/2000/svg" xmlns:xlink="http://www.w3.org/1999/xlink" x="0px" y="0px"
	 viewBox="0 0 1080 1080" style="enable-background:new 0 0 1080 1080;" xml:space="preserve">
<style type="text/css">
	.st0{fill:#747474;}
</style>
<g>
	<path class="st0" d="M683.68,500.09c9.13,3.78,7.16,10.52,6.81,16.42c-0.1,1.67-2.23,3.81-3.96,4.65c-1.9,0.93-4.42,0.79-6.66,0.79
		c-77.21,0.03-154.43,0.04-231.64-0.02c-12.76-0.01-25.53-0.31-38.29-0.52c-7.88-0.13-9.59,1.38-9.61,9.12
		c-0.06,26.06-0.07,52.12-0.06,78.18c0,5.96,0.58,6.51,6.85,6.5c23.15-0.05,46.3-0.19,69.44-0.22c9.49-0.01,10.46,1.12,10.52,10.68
		c0.13,20.06,0.44,40.11,0.44,60.17c-0.01,18.45-0.66,36.9-0.36,55.34c0.11,7,1.29,14.22,3.35,20.92
		c6.62,21.53,27.91,33.92,50.57,32.4c23.14-1.55,44.72-23.76,44.5-50.2c-0.34-40.47-0.13-80.94-0.15-121.4
		c0-9.83,0.88-10.69,10.9-10.71c17.32-0.03,34.64-0.07,51.96-0.06c7.88,0,9.51,1.57,9.51,9.29c0,38.85,0.17,77.7-0.15,116.55
		c-0.17,20.32-6.27,39.13-16.54,56.64c-15.46,26.37-38.48,43.53-67,53.01c-19.41,6.45-39.53,7.14-59.9,3.34
		c-34.26-6.4-60.47-24.59-79.34-53.34c-11.36-17.31-17.86-36.6-18.3-57.52c-0.46-21.84-0.56-43.68-0.81-65.53
		c-0.01-1.13,0.03-2.27,0.15-3.39c0.78-7.68,7.4-11.35,14.18-7.56c1.55,0.87,2.89,3.13,3.23,4.96c0.71,3.79,0.89,7.71,0.91,11.58
		c0.09,17.97-0.29,35.94,0.18,53.9c0.39,14.78,2.32,29.67,8.84,42.99c10.93,22.31,28.12,39.29,50.64,49.69
		c42.01,19.4,91.22,9.21,120.56-25.73c16.34-19.46,26.14-41.96,25.58-68.41c-0.67-31.55-0.15-63.13-0.16-94.69
		c0-6.77-0.32-7.1-7.14-7.11c-7.45-0.01-14.89,0.02-22.34,0.07c-5.98,0.04-6.23,0.28-6.23,6.38c-0.01,35.77-1.08,71.59,0.33,107.31
		c1.09,27.55-20.12,54.65-42.87,62.81c-26.23,9.4-49.81,5.63-71.09-13.56c-14.17-12.78-20.65-27.99-20.71-46.64
		c-0.12-35.12-0.42-70.23-0.62-105.35c-0.04-7.86-0.12-8.01-7.7-8.09c-19.74-0.22-39.48-0.46-59.22-0.6
		c-4.68-0.04-9.39,0.57-14.05,0.32c-5.65-0.31-7.44-2.37-7.44-8.03c0-37.72,0.02-75.43,0.15-113.15c0.03-8.98,2-10.67,11.03-10.69
		c7.23-0.01,14.45,0,22.92,0c-1.99-1.58-3.24-2.79-4.69-3.69c-11.69-7.27-25.13-10.01-37.85-14.64c-22.6-8.22-46.02-9.69-69.7-9.6
		c-5.33,0.02-10.65,0.85-15.98,0.78c-2.45-0.03-4.88-1.32-7.83-2.2c4.67-5.05,39.79-9.9,59.95-9.42
		c20.26,0.48,39.82,4.79,59.07,11.09c0.37-0.5,0.74-1.01,1.1-1.51c-2.33-4.46-4.25-9.18-7.05-13.32
		c-12.41-18.36-25.57-36.01-41.92-51.32c-12.67-11.86-26.39-21.79-41.66-29.78c-0.43-0.22-0.94-0.43-1.21-0.8
		c-1.22-1.67-2.36-3.4-3.53-5.11c2.04-0.13,4.29-0.88,6.09-0.28c20.49,6.76,39.57,16.58,55.31,31.28
		c13.88,12.97,27.14,26.89,38.84,41.83c8.46,10.8,13.91,23.96,20.69,36.07c0.63,1.12,0.9,2.8,1.84,3.34
		c9.58,5.5,18.76,12.36,29.07,15.7c8.45,2.74,18.27,1.33,27.48,1.56c5.52,0.14,7.05-1.79,4.52-6.73c-1.65-3.22-4.72-5.96-7.68-8.22
		c-10.65-8.13-21.53-15.95-32.29-23.94c-0.75-0.56-1.58-1.39-1.78-2.24c-0.43-1.88-0.48-3.85-0.68-5.78
		c2.23,0.05,4.72-0.51,6.64,0.3c2.29,0.96,3.97,3.29,6.14,4.66c6.14,3.87,12.38,7.58,18.63,11.28c0.61,0.36,1.52,0.21,3.12,0.39
		c-0.41-1.74-0.52-3.11-1.05-4.3c-10.84-24.31-23.11-47.89-40.89-67.88c-16.48-18.53-34.57-35.43-56.92-47.09
		c-2.52-1.32-4.13-4.38-6.16-6.63c2.87,0.05,6.15-0.79,8.55,0.3c10.43,4.71,20.93,9.44,30.78,15.22c8.3,4.88,15.7,11.28,23.59,16.89
		c4.75,3.38,5.19,2.77,6.61-2.96c3.4-13.78,7.21-27.47,11.08-41.14c0.68-2.41,2.19-4.72,3.76-6.73
		c8.41-10.84,16.82-21.69,25.54-32.28c2.58-3.13,1.68-5.31-0.5-7.54c-6.48-6.66-7.59-13.52-2.87-21.55
		c1.78-3.03,4.09-5.82,6.49-8.42c4.24-4.58,7.92-3.9,9.1,2.32c1.27,6.73,1.1,13.73,1.5,20.62c0.05,0.95-0.66,2.05-0.38,2.85
		c2.57,7.12-2.14,10.92-6.37,15.3c-15.28,15.8-25.5,34.27-29.92,56.02c-2.48,12.18-7.03,24.02-5.05,36.72
		c0.5,3.22,1.95,6.49,3.7,9.27c10.39,16.54,21.83,32.49,31.27,49.56c6.98,12.63,11.81,26.51,16.92,40.09
		c4.31,11.45,3.87,11.65,15.9,11.65c16.83,0,33.67-0.03,50.5-0.12c8.81-0.05,9.37-0.68,12.78-8.88
		c6.76-16.26,12.77-32.94,20.87-48.52c6.66-12.81,15.32-24.72,24.16-36.21c6.56-8.53,8.58-17.07,8.17-27.78
		c-1.22-31.56-15.37-57.26-34.13-81.2c-2.09-2.66-4.75-4.88-6.75-7.6c-0.76-1.03-0.4-2.88-0.55-4.36c1.6,0.2,3.77-0.2,4.72,0.69
		c8.25,7.73,16.82,15.23,24.18,23.75c4.44,5.13,6.92,11.96,10.26,18.04c1.19,2.18,2.31,4.39,3.99,7.58
		c2.16-5.52,3.57-9.91,5.57-14.01c1.47-3,3.51-5.8,5.7-8.33c1.75-2.03,4.67-2.16,5.66,0.42c2.27,5.91,5.4,12.12,5.32,18.17
		c-0.13,10.24-7.69,15.16-17.51,13.53c2.01,9.85,3.95,19.8,6.12,29.7c0.85,3.9,2.32,4.05,5.81,1.71
		c12.87-8.64,25.31-18.12,38.92-25.39c11.69-6.25,24.77-9.93,37.24-14.72c0.2-0.08,0.56,0.24,2.14,1c-3.51,3.07-6.26,6.43-9.79,8.37
		c-9.49,5.2-19.8,9.04-28.85,14.87c-7.91,5.1-14.66,12.06-21.74,18.4c-22.91,20.52-38.79,46.15-52.66,73.18
		c-2.7,5.26-4.71,10.88-7.56,17.55c2.58-0.52,4.2-0.44,5.33-1.15c7.65-4.83,15.16-9.87,22.79-14.71c1.43-0.91,3.19-1.58,4.85-1.72
		c1.05-0.09,2.7,0.74,3.16,1.63c0.42,0.82,0.02,2.78-0.72,3.38c-11.1,9.06-22.09,18.3-33.64,26.77c-4.17,3.06-8.24,5.58-9.69,10.81
		c-0.89,3.21,0.01,5.16,3.62,5.02c10.18-0.39,20.88,1,30.41-1.71c14-3.98,28.3-9.53,32.28-26.6c0.4-1.7,1.2-3.39,2.17-4.84
		c6.36-9.51,12.18-19.46,19.4-28.28c9.4-11.48,19.61-22.35,30.04-32.91c14.07-14.23,31.71-23.18,49.62-31.48
		c4.22-1.96,8.83-3.21,13.37-4.27c1.75-0.41,3.82,0.6,5.75,0.96c-1.1,1.51-1.88,3.57-3.36,4.43c-7.39,4.31-15.65,7.41-22.31,12.6
		c-11.82,9.21-22.94,19.34-33.91,29.58c-15.19,14.18-25.97,31.72-36.07,49.66c-0.62,1.1-0.44,2.64-0.63,3.97
		c1.38,0.04,2.9,0.5,4.11,0.07c20.66-7.38,42.06-9.79,63.86-10.07c7.42-0.09,14.68-0.15,22.08,1.27c5.67,1.09,11.71,0.22,18.34-0.6
		c-7.03-3.2-4.25-8.98-4.07-13.3c0.11-2.55,3.35-5.86,6.01-7.22c6.98-3.59,14.53-4.2,22.13-1.47c5.05,1.82,6.24,5.01,2.12,8.57
		c-5.3,4.59-11.48,8.18-17.35,12.08c-1.17,0.78-2.67,1.04-4.01,1.54c-0.09,0.65-0.29,1.14-0.2,1.56c1.67,7.68-0.22,9.04-8.12,8.89
		c-13.89-0.26-27.86-0.22-41.69,0.89c-19.43,1.56-38.11,6.91-56.09,14.39C699.13,492.18,692.21,495.95,683.68,500.09z"/>
	<path class="st0" d="M554.14,537.44c41.6,0,83.2,0,124.8,0c1.78,0,3.56,0.05,5.34,0.02c4.37-0.07,6.69,1.91,6.59,6.42
		c-0.03,1.29,0.06,2.59,0.04,3.88c-0.08,5.82-1.23,7.16-6.86,7.92c-1.44,0.19-2.9,0.29-4.35,0.29
		c-77.05,0.02-154.09,0.03-231.14,0.04c-0.81,0-1.62-0.02-2.43-0.04c-11.96-0.32-12-0.32-11.96,11.93
		c0.05,16.38-1.83,14.17,14.2,14.09c20.22-0.11,40.45-0.55,60.67-0.91c9.38-0.17,11.66,1.69,11.72,11.09
		c0.34,49.84,0.58,99.69,0.79,149.53c0.02,5.85,0.54,11.34,5.76,15.15c4.41,3.22,9.08,5.22,14.43,2.48
		c5.47-2.8,9.75-6.89,9.82-13.39c0.15-12.94-0.24-25.89-0.27-38.83c-0.05-21.19-0.04-42.38,0.03-63.57
		c0.04-11.65,0.21-23.3,0.41-34.95c0.13-7.76,0.37-15.53,0.64-23.29c0.2-5.64,1.7-7.08,7.48-7.07c39.49,0.02,78.99,0.05,118.48,0.16
		c9.79,0.03,12.27,2.36,12.34,11.98c0.37,52.43,0.68,104.87,0.9,157.3c0.06,14.01-4.62,27.1-9.32,39.98
		c-7.76,21.27-20,39.79-36.38,55.53c-22.27,21.39-48.53,35.19-78.69,41.61c-2.66,0.57-5.46,0.66-8.2,0.68
		c-10.2,0.07-20.41-0.39-30.59,0.09c-22,1.04-42.28-4.99-61.56-14.74c-25.34-12.81-46.4-30.66-60.96-55.34
		c-10.41-17.64-18.84-36.24-22.04-56.68c-1.56-10.01-2.68-20.17-2.96-30.29c-0.48-16.98-0.14-33.99-0.13-50.98
		c0-2.1-0.01-4.22,0.21-6.3c0.81-7.64,10.08-12.18,16.19-7.39c2.14,1.68,3.13,5.91,3.17,9c0.23,20.88-0.35,41.77,0.16,62.63
		c0.47,19.21,3.89,38.03,12.5,55.44c15.12,30.6,37.23,54.34,69.28,67.51c42.22,17.34,83.99,15.99,123.62-6.93
		c37.46-21.66,59.64-54.87,65.92-97.83c2-13.68,2.02-27.72,2.14-41.61c0.31-35.12,0.16-70.25,0.2-105.37
		c0.01-9.73-0.2-9.89-9.67-9.88c-28.81,0.03-57.62,0.02-86.43,0.06c-7.71,0.01-7.82,0.19-7.81,7.93
		c0.02,42.57,0.08,85.14,0.01,127.71c-0.01,6.3-0.07,12.68-1.02,18.87c-2.17,14.04-13.38,26.3-29.33,26.97
		c-22.73,0.95-36.7-12.42-36.78-35.39c-0.14-44.35-0.06-88.7-0.04-133.05c0-9.72-0.07-9.88-9.61-9.9
		c-22.48-0.05-44.97-0.06-67.45-0.11c-7.81-0.02-9.38-1.17-9.57-8.74c-0.38-14.88-0.54-29.76-0.5-44.65
		c0.02-7.15,2.27-9.06,9.54-9.07C468.35,537.42,511.25,537.43,554.14,537.44z"/>
	<path class="st0" d="M242.5,981.41c8.08,4.17,11.79,9.89,11.62,18.02c-0.15,6.93,0.33,13.91-0.38,20.78
		c-0.61,5.88-3.93,10.77-9.74,12.89c-3.89,1.42-8.11,2.47-12.22,2.62c-10.33,0.37-20.69,0.05-31.03,0.19
		c-3.84,0.05-5.59-1.33-5.58-5.35c0.07-29.42,0.05-58.84,0-88.26c-0.01-3.29,0.88-5.09,4.67-5.02c11.8,0.2,23.6-0.05,35.4,0.23
		c11.06,0.25,16.27,4.98,17.46,15.95c0.55,5.11,0.29,10.34,0,15.49C252.37,974.94,249.56,979.39,242.5,981.41z M220.94,1004.77
		c0,2.89-0.2,5.8,0.08,8.66c0.15,1.49,1.16,2.89,1.78,4.33c1.59-1.17,4.47-2.25,4.56-3.53c0.46-6.53,0.4-13.12-0.01-19.65
		c-0.07-1.1-2.77-2.03-4.25-3.04c-0.72,1.36-1.92,2.66-2.07,4.08C220.72,998.65,220.94,1001.72,220.94,1004.77z M220.94,964.08
		c0,2.26-0.2,4.54,0.08,6.76c0.15,1.21,1.1,3.23,1.76,3.26c1.36,0.06,3.93-0.92,3.96-1.57c0.26-5.32,0.21-10.68-0.19-15.99
		c-0.05-0.7-2.58-1.59-3.97-1.62c-0.52-0.01-1.4,2.13-1.57,3.37C220.74,960.18,220.94,962.14,220.94,964.08z"/>
	<path class="st0" d="M101.72,977.19c0-11.49,0.11-22.99-0.06-34.48c-0.06-3.9,1.14-5.67,5.26-5.44c4.36,0.25,8.74,0.05,13.11,0.05
		c8.56,0,8.57,0,8.57,8.34c0,20.4,0.14,40.79-0.12,61.19c-0.07,5.26-0.52,10.82-2.31,15.69c-4.06,11.07-13.69,14.48-24.43,15.07
		c-4.79,0.26-9.76-0.1-14.45-1.1c-11.99-2.56-19.34-11.35-19.53-23.88c-0.36-23.79-0.21-47.59-0.34-71.38
		c-0.02-2.99,1.31-3.99,4.12-3.95c5.99,0.09,11.98,0.12,17.97-0.01c3.04-0.07,4.48,0.92,4.35,4.16c-0.12,2.74,0.29,5.49,0.3,8.24
		c0.03,19.75,0.02,39.5,0.02,59.25c0,0.97-0.05,1.95,0.02,2.91c0.22,2.88,0.04,6.75,3.87,6.65c3.74-0.1,3.64-3.87,3.64-6.83
		C101.72,1000.18,101.71,988.68,101.72,977.19z"/>
	<path class="st0" d="M948.67,986.43c0-8.41-0.08-16.82,0.02-25.23c0.15-12.61,6.61-21.14,18.8-24.41c8.96-2.4,17.98-2.1,26.72,1.13
		c10.45,3.86,14.88,12.22,15.15,22.67c0.42,15.84,0.16,31.7,0.19,47.55c0.05,22.98-13.43,29.78-32.15,29.57
		c-3.2-0.04-6.45-0.61-9.57-1.38c-11.89-2.93-18.81-11.46-19.09-23.7c-0.2-8.73-0.04-17.47-0.04-26.2
		C948.69,986.43,948.68,986.43,948.67,986.43z M975.28,985.78c0,8.73-0.06,17.47,0.03,26.2c0.03,2.96-0.62,7.27,3.49,7.34
		c4.47,0.08,3.9-4.34,3.91-7.48c0.06-16.98,0.04-33.97,0-50.95c0-1.75-0.01-3.68-0.72-5.2c-0.47-1.02-2.15-1.95-3.34-2
		c-0.92-0.04-2.36,1.13-2.76,2.1c-0.59,1.43-0.6,3.16-0.61,4.76C975.25,968.95,975.27,977.37,975.28,985.78z"/>
	<path class="st0" d="M356.14,978.3c0-11.97,0.1-23.94-0.06-35.9c-0.05-3.73,1.15-5.34,5.01-5.15c4.36,0.22,8.74,0.23,13.1,0.02
		c3.64-0.17,4.91,1.43,4.85,4.87c-0.1,5.66-0.01,11.33-0.01,16.99c0,23.3,0.01,46.6-0.01,69.9c-0.01,6.53-0.32,6.8-6.87,6.84
		c-2.59,0.02-5.18,0.01-7.77,0c-8.23-0.02-8.08-0.06-10.15-8.2c-3.33-13.1-6.89-26.14-10.9-39.15c0,13.82-0.16,27.64,0.09,41.45
		c0.08,4.44-1.29,6.23-5.75,5.94c-3.71-0.24-7.45-0.25-11.16,0.01c-4.52,0.32-5.99-1.74-5.92-5.99c0.14-8.9,0.02-17.8,0.02-26.7
		c0-19.74-0.02-39.48,0.02-59.22c0.01-6.7,0.08-6.7,6.83-6.7c1.46,0,2.91-0.03,4.37,0.01c13.51,0.34,10.27-2.45,14.76,11.24
		c3.21,9.81,5.91,19.79,8.84,29.7C355.67,978.28,355.9,978.29,356.14,978.3z"/>
	<path class="st0" d="M903.67,983.57c8,3.34,10.79,9.39,10.76,17.19c-0.04,9.86-0.13,19.73,0.07,29.59c0.08,3.88-1.12,5.71-5.2,5.55
		c-4.84-0.18-9.7-0.13-14.55-0.01c-3.83,0.1-5.53-1.33-5.45-5.41c0.2-10.34,0.15-20.7,0.02-31.04c-0.03-2.19-0.42-4.56-1.38-6.48
		c-0.57-1.13-2.57-1.55-3.93-2.28c-0.66,1.29-1.86,2.57-1.88,3.87c-0.16,10.99-0.1,21.99-0.11,32.99c-0.01,8.2-0.12,8.32-8.46,8.34
		c-3.23,0.01-6.47,0.01-9.7,0.01c-8.16-0.01-8.18-0.02-8.19-7.98c-0.01-25.23-0.01-50.45-0.01-75.68c0-3.56,0.07-7.12,0-10.67
		c-0.06-2.98,1-4.37,4.27-4.3c11.48,0.24,22.96,0.04,34.43,0.38c12.49,0.37,18.94,7.17,19.09,19.61c0.04,3.72,0.09,7.44-0.06,11.16
		C913.11,975.62,910.61,979.59,903.67,983.57z M882,964.16c0,1.94-0.23,3.92,0.08,5.81c0.23,1.39,1.17,2.66,1.8,3.99
		c1.61-0.92,4.5-1.7,4.62-2.78c0.48-4.57,0.42-9.25-0.13-13.81c-0.13-1.04-2.98-1.75-4.58-2.62c-0.59,1.36-1.46,2.66-1.71,4.08
		C881.78,960.56,882.01,962.38,882,964.16z"/>
	<path class="st0" d="M180.06,983.62c9.42,3.19,11.2,10.31,11.38,18.08c0.23,9.7-0.03,19.41,0.11,29.12
		c0.05,3.82-1.58,5.2-5.25,5.08c-4.69-0.15-9.39-0.21-14.07,0.03c-4.55,0.24-6.39-1.46-6.28-6.15c0.23-10.19,0.1-20.38,0.04-30.57
		c-0.01-1.76,0.17-3.88-0.71-5.17c-1.02-1.5-3.12-2.26-4.75-3.34c-0.62,1.48-1.74,2.95-1.76,4.43c-0.15,11.48-0.25,22.97,0,34.45
		c0.1,4.57-1.35,6.58-6.06,6.33c-4.68-0.24-9.39-0.21-14.07-0.01c-4.35,0.18-5.95-1.51-5.92-5.97c0.16-25.88,0.07-51.77,0.07-77.65
		c0-3.72,0.04-7.44,0.01-11.16c-0.02-2.62,1.18-3.82,3.83-3.79c12.29,0.14,24.61-0.18,36.87,0.48c10.05,0.54,15.49,6.59,16.36,16.93
		c0.39,4.64,0.31,9.33,0.21,14C189.92,975.34,187.37,980.6,180.06,983.62z M158.67,975.11c3.03-1.58,6.16-2.36,6.25-3.4
		c0.44-4.99,0.25-10.07-0.25-15.07c-0.08-0.76-2.92-1.46-4.55-1.66c-0.33-0.04-1.34,2.27-1.38,3.52
		C158.58,963.45,158.67,968.42,158.67,975.11z"/>
	<path class="st0" d="M713.45,991.27c0,13.06-0.15,26.13,0.09,39.19c0.07,3.96-0.99,5.67-5.09,5.46c-4.52-0.22-9.05-0.08-13.58-0.08
		c-2.56,0-3.74-1.06-3.74-3.82c0.06-30.24,0.06-60.48,0-90.73c-0.01-2.95,1.18-4.05,4.04-3.98c4.85,0.11,9.71,0.11,14.55-0.01
		c2.77-0.07,3.95,1.18,4.71,3.75c3.69,12.37,7.56,24.68,11.82,36.99c0-11.5,0.2-23-0.09-34.49c-0.12-4.91,1.51-6.76,6.41-6.29
		c3.69,0.35,7.45,0.3,11.15,0.02c4.27-0.32,5.61,1.33,5.59,5.56c-0.15,23.77-0.07,47.55-0.08,71.32c0,5.66-0.1,11.32,0.03,16.98
		c0.07,3.28-1.25,4.86-4.55,4.71c-0.32-0.01-0.65,0.02-0.97,0.01c-5.32-0.18-11.94,1.5-15.57-1.07c-3.48-2.45-4-9.26-5.54-14.24
		c-1.53-4.93-2.73-9.96-4.04-14.96c-1.26-4.81-2.49-9.63-3.74-14.45C714.4,991.19,713.92,991.23,713.45,991.27z"/>
	<path class="st0" d="M518.48,983.67c8.11,3.48,10.45,9.32,10.32,16.8c-0.18,9.86-0.22,19.74,0.06,29.6
		c0.13,4.57-1.66,6.06-5.96,5.85c-4.52-0.22-9.06-0.17-13.58-0.02c-3.9,0.12-5.52-1.44-5.45-5.44c0.16-10.35,0.08-20.7,0.02-31.06
		c-0.01-1.75,0.07-3.82-0.8-5.15c-0.99-1.53-2.98-2.4-4.54-3.55c-0.64,1.46-1.81,2.9-1.83,4.37c-0.16,11.32-0.08,22.64-0.09,33.97
		c-0.01,6.45-0.36,6.81-6.88,6.85c-4.69,0.03-9.38-0.07-14.07,0.02c-3.39,0.07-4.97-1.17-4.95-4.82c0.09-29.76,0.08-59.53,0-89.29
		c-0.01-3.43,1.4-4.54,4.65-4.49c11.32,0.18,22.65-0.04,33.96,0.37c12.32,0.46,18.52,7.24,18.53,19.46c0,3.07-0.16,6.16,0.03,9.22
		C528.31,973.73,526.14,979.73,518.48,983.67z M496.67,973.34c4.14,0.85,6.44-0.39,7.12-4.16c1.28-7.17-0.3-13.54-3.78-14.19
		c-0.95-0.18-3.14,1.27-3.19,2.06C496.53,962.46,496.67,967.89,496.67,973.34z"/>
	<path class="st0" d="M286.83,937.32c4.69,0,9.38,0.09,14.07-0.03c2.85-0.07,4.31,0.65,4.74,3.91c2.7,20.12,5.66,40.21,8.5,60.31
		c1.38,9.74,2.54,19.52,4.14,29.23c0.63,3.79-0.65,5.13-4.17,5.12c-5.82-0.01-11.65-0.09-17.47,0.04c-3.28,0.07-4.74-1.47-4.92-4.57
		c-0.18-3.06-0.1-6.18-0.71-9.16c-0.27-1.31-1.98-3.27-3.01-3.25c-1.49,0.03-3.91,1.31-4.25,2.53c-0.81,2.89-0.78,6.05-0.8,9.11
		c-0.02,3.59-1.45,5.39-5.21,5.33c-5.82-0.1-11.64-0.08-17.47,0c-3.34,0.04-4.66-1.32-4.21-4.73c1.51-11.53,2.85-23.07,4.31-34.6
		c2.09-16.5,4.24-32.99,6.37-49.49c0.23-1.76,0.59-3.52,0.66-5.29c0.13-3.57,1.99-4.64,5.36-4.49
		C277.44,937.48,282.14,937.32,286.83,937.32z M287.31,966.3c-0.14,0.01-0.28,0.01-0.43,0.02c-0.95,9.59-1.91,19.19-2.84,28.78
		c-0.21,2.13-0.51,4.33,2.76,4.44c2.54,0.09,3.53-0.99,3.29-3.47C289.14,986.15,288.23,976.22,287.31,966.3z"/>
	<path class="st0" d="M829.92,937.31c5.83,0,11.66,0.1,17.48-0.04c3.24-0.08,4.84,1.05,4.74,4.45c-0.11,4.04-0.1,8.09,0,12.14
		c0.08,3.19-1.06,4.97-4.52,4.64c-0.64-0.06-1.29,0-1.94,0c-12,0.07-11.93,0.06-10.92,12.19c0.23,2.71,1.37,3.74,3.94,3.69
		c2.59-0.05,5.18,0.12,7.77,0.01c3.37-0.15,4.68,1.48,4.62,4.68c-0.07,3.88-0.07,7.77-0.01,11.65c0.05,3.13-1.53,4.4-4.49,4.3
		c-0.32-0.01-0.65-0.02-0.97,0.02c-3.44,0.4-9.58,0.17-9.85,1.33c-1.2,5.05-0.83,10.51-0.67,15.82c0.02,0.68,2.12,1.76,3.31,1.85
		c3.71,0.26,7.44,0.17,11.16,0.13c2.65-0.02,3.78,1.18,3.73,3.85c-0.09,4.53-0.1,9.07,0.04,13.6c0.09,2.89-1.14,4.22-3.96,4.22
		c-12.3,0-24.6-0.02-36.91,0.02c-4.21,0.01-4.48-2.73-4.48-5.9c0.03-14.57,0.01-29.14,0-43.71c0-14.25,0.17-28.49-0.11-42.73
		c-0.1-4.98,1.64-6.6,6.48-6.26C819.54,937.6,824.74,937.32,829.92,937.31z"/>
	<path class="st0" d="M533.17,986.25c0-14.4,0.11-28.79-0.07-43.19c-0.05-4.38,1.41-5.97,5.9-5.86c10.99,0.27,22,0.22,32.99,0.05
		c3.81-0.06,5.28,1.34,5.1,5.09c-0.19,4.04-0.08,8.09-0.07,12.13c0,2.77-1.19,4.25-4.12,4.02c-0.96-0.08-1.94,0-2.91,0
		c-10.06,0.01-12.55,3.31-9.9,13.43c0.26,1,1.84,2.17,2.94,2.32c2.54,0.36,5.17,0.31,7.75,0.11c3.97-0.31,5.13,1.74,5,5.25
		c-0.13,3.39-0.5,6.82-0.14,10.16c0.5,4.67-1.83,5.36-5.7,5.32c-11.86-0.11-9.86-0.91-10,10.11c-0.13,10.02-0.57,8.86,8.83,8.92
		c10.92,0.07,9.64-0.74,9.56,9.68c-0.1,13.34,2.34,11.97-12.13,12.05c-9.06,0.05-18.12-0.14-27.17,0.06c-4.43,0.1-5.99-1.64-5.94-6
		C533.26,1015.37,533.16,1000.81,533.17,986.25z"/>
	<path class="st0" d="M580.55,986.5c0-14.56,0.13-29.12-0.08-43.67c-0.06-4.27,1.39-5.67,5.61-5.58c11.16,0.22,22.32,0.18,33.48,0
		c3.59-0.06,5.01,1.31,4.94,4.76c-0.07,4.04-0.06,8.09,0.01,12.13c0.05,3.31-1.47,4.74-4.75,4.37c-0.48-0.05-0.97,0-1.45,0
		c-11.73,0.14-11.66,0.13-10.95,12.1c0.16,2.64,1.05,3.94,3.74,3.76c0.32-0.02,0.65,0,0.97,0c11.03,0.28,11.1,0.28,11.01,11.48
		c-0.08,9.64,1.69,9.02-9.04,9.19c-6.63,0.1-6.63,0.1-6.64,6.74c-0.01,12.24-0.01,12.24,12.12,12.34c6.34,0.06,6.4,0.11,6.42,6.62
		c0.01,3.56-0.09,7.12,0,10.68c0.07,2.77-1.04,4.35-3.9,4.36c-12.45,0.02-24.91,0.02-37.36,0.03c-3.95,0-4.15-2.65-4.15-5.64
		C580.56,1015.62,580.54,1001.06,580.55,986.5z"/>
	<path class="st0" d="M765.95,996.76c0-11-0.14-22,0.07-32.99c0.08-3.93-1.02-5.4-5.16-5.36c-10.51,0.11-10.25,2.31-10.21-10.46
		c0.04-12.27-0.89-10.57,10.64-10.61c13.42-0.04,26.85,0.13,40.27-0.1c4.33-0.07,5.8,1.61,5.63,5.66
		c-0.16,3.88-0.06,7.76-0.08,11.64c-0.01,2.79-1.34,3.87-4.2,4c-10.86,0.52-10.86,0.62-10.86,11.7c0,19.89-0.1,39.79,0.1,59.68
		c0.05,4.42-1.31,6.2-5.78,6c-5.33-0.24-10.67-0.13-16.01-0.05c-3.29,0.05-4.52-1.3-4.47-4.66
		C766.05,1019.73,765.95,1008.24,765.95,996.76z"/>
	<path class="st0" d="M427.95,997.2c0-11.32-0.11-22.65,0.07-33.97c0.06-3.56-1.04-4.8-4.69-4.81
		c-10.56-0.03-10.57-0.17-10.55-10.95c0.02-12.06-0.47-10.05,10.13-10.14c13.59-0.11,27.18,0.09,40.76-0.07
		c3.76-0.04,5.32,1.08,5.06,4.98c-0.27,4.03-0.16,8.09-0.05,12.13c0.08,2.79-0.87,4-3.86,4.17c-10.79,0.59-10.78,0.69-10.78,11.73
		c0,19.9-0.11,39.79,0.09,59.69c0.05,4.43-1.33,6.16-5.78,5.95c-5.33-0.25-10.67-0.13-16.01-0.06c-3.29,0.04-4.49-1.33-4.44-4.69
		C428.06,1019.85,427.96,1008.53,427.95,997.2z"/>
	<path class="st0" d="M944.63,986.76c0,14.24,0.01,28.49,0,42.73c0,6.34-0.02,6.35-6.56,6.38c-4.53,0.02-9.07,0.04-13.6,0
		c-5.82-0.05-6.46-0.6-6.48-6.38c-0.06-15.38-0.01-30.76-0.01-46.13c0-13.43,0.11-26.87-0.04-40.3c-0.05-4.36,1.45-6.11,5.96-5.82
		c5.32,0.35,10.68,0.24,16.02,0.02c3.64-0.15,4.77,1.31,4.74,4.83c-0.13,14.89-0.05,29.78-0.05,44.68
		C944.61,986.76,944.62,986.76,944.63,986.76z"/>
	<path class="st0" d="M687.12,986.79c0,14.39-0.15,28.78,0.09,43.16c0.07,4.47-1.51,6.15-5.87,5.96c-4.52-0.2-9.05-0.01-13.58-0.04
		c-6.98-0.03-7.23-0.27-7.24-7.49c-0.02-13.74,0-27.48,0-41.22c0-14.71,0.1-29.42-0.05-44.13c-0.04-4.35,1.41-6.1,5.93-5.79
		c5.31,0.36,10.67,0.23,16,0.05c3.61-0.12,4.79,1.4,4.77,4.89C687.06,957.04,687.12,971.92,687.12,986.79z"/>
	<path class="st0" d="M685.87,154.19c0.46,7.97-2.4,14.54-8.25,19.88c-5.28,4.83-11.34,3.27-13.61-3.51
		c-2.19-6.54,0.31-12.31,3.91-17.28c3.77-5.2,7.05-11.42,14.64-12.51c0.7-0.1,1.56-2.49,1.52-3.78c-0.26-8.26,2.35-15.58,7.08-22.16
		c2.99-4.16,6.71-4.08,9.16,0.36c2.41,4.36,4.4,8.99,6.1,13.68c1.38,3.82-2.7,12.69-6.76,14.47c-3.41,1.5-7.27,1.97-10.84,3.14
		c-1.12,0.37-2.53,1.4-2.82,2.42C685.52,150.55,685.87,152.42,685.87,154.19z"/>
	<path class="st0" d="M673.4,318.1c1.07-8.79,3.93-16.02,9.66-22.35c1.69-1.87,2.66-5.18,2.54-7.76
		c-0.42-8.91,4.74-13.94,11.8-17.13c4.29-1.94,9.29-2.94,14.02-3.1c5.79-0.2,7.9,4.07,4.41,8.63c-4.75,6.2-7.74,13.96-15.16,17.9
		c-1.42,0.75-2.88,1.55-4.42,1.93c-6.28,1.54-7.66,0.75-4.77,9.35c3.53,10.5-1.56,18.18-7.01,25.89c-1.83,2.6-4.49,2.18-5.84-0.57
		C676.6,326.76,675.11,322.38,673.4,318.1z"/>
	<path class="st0" d="M491.5,103.93c-0.89,8.04-2.68,12.91-7.93,16.19c-1.6,1-3.3,3.32-3.35,5.07c-0.31,11.08-6.65,15.29-16.5,10.02
		c-6.08-3.25-10.68-8.38-13.01-15.1c-1.75-5.06,0.05-7.49,5.52-7.05c3.84,0.31,7.64,1.25,11.4,2.15c3.23,0.78,4.98,0.07,3.89-3.5
		c-2.68-8.7-0.24-16.66,3.51-24.33c0.86-1.77,3-3.74,4.77-3.98c1.44-0.19,3.97,1.73,4.7,3.31
		C487.37,92.96,489.71,99.43,491.5,103.93z"/>
	<path class="st0" d="M520.92,112.08c-1.09,4.5-2.04,8.13-2.82,11.79c-1.06,5-2.53,9.93-7.05,12.77c-2.52,1.58-7.15,3.65-8.4,2.61
		c-2.9-2.44-5.75-6.51-6.06-10.13c-0.59-6.93,3.39-12.7,8.54-17.17c3.95-3.43,7.84-7.17,13.77-7.4c1.36-0.05,2.8-2.38,3.89-3.89
		c3.69-5.09,7.15-10.33,10.87-15.4c1.7-2.32,3.85-2.93,5.97-0.27c3.88,4.88,4.87,19.34,1.69,24.69
		C536.42,117.93,529.38,119.2,520.92,112.08z"/>
	<path class="st0" d="M478.47,198.24c0,3.69-0.06,6.24,0.01,8.79c0.15,5.44,1.14,11.01,0.29,16.28c-0.55,3.42-3.59,6.52-5.82,9.54
		c-0.56,0.75-2.49,1.13-3.5,0.79c-8.77-2.92-12.77-11.75-8.78-20.28c3.19-6.82,6.49-13.75,14.82-16.3c1.35-0.41,2.35-3.72,2.56-5.78
		c0.38-3.82-0.34-7.75,0.12-11.55c0.49-4.06,3.21-5.47,7.06-4.05c7.38,2.74,12.61,7.65,14.83,15.43c1.38,4.81-0.07,8.97-2.94,12.69
		c-2.24,2.9-5.3,2.98-8.26,1.25C485.72,203.21,482.77,201.07,478.47,198.24z"/>
	<path class="st0" d="M675.35,250.53c1.13-2.31,1.84-3.69,2.5-5.09c4.06-8.64,11.29-13.58,19.94-16.61c4-1.4,6.35,0.47,6.54,4.53
		c0.44,9.42-8.42,23.56-17.61,25.53c-5.85,1.25-10.04,2.3-13.95,7.73c-3.95,5.49-10.63,3.38-14.21-2.79
		c-4.54-7.82-2.68-15.71-0.21-23.46c1.21-3.78,4.25-4.25,7.16-1.27C668.75,242.39,671.58,246.1,675.35,250.53z"/>
	<path class="st0" d="M501.92,152.36c-0.03-6.71,2.82-9.27,7.03-7.06c8.53,4.46,16.22,9.97,20.14,19.33
		c2.04,4.86,1.32,9.17-2.31,12.88c-3.14,3.21-7.6,3.96-10.81,0.81C508.35,170.85,502.92,162.03,501.92,152.36z"/>
	<path class="st0" d="M253.5,451.92c7.95,1.18,18.29,6.93,21.4,16.53c0.4,1.23-1.88,4.24-3.59,5.1c-7.03,3.55-14.28,2.2-21.12-0.69
		c-3.32-1.41-6.37-3.78-9.07-6.24c-3.28-3-3.2-6.54,0.49-9C245.23,455.2,249.51,453.77,253.5,451.92z"/>
	<path class="st0" d="M824.68,297.78c-8.64-0.17-13.61-9.47-8.57-15.76c4.53-5.65,10.47-10.4,16.48-14.55c4.4-3.03,8-0.76,9.25,4.49
		c1.76,7.4-6.63,22.77-13.89,25.28C826.6,297.71,825.11,297.71,824.68,297.78z"/>
	<path class="st0" d="M583.97,218.48c0.94,7.14-1.69,13-6.44,18.12c-2.77,2.99-6.02,4.26-10.04,3.05c-4.05-1.22-5.69-4.47-5.61-8.18
		c0.07-3.45,0.71-7.1,2.06-10.26c1.89-4.43,4.28-8.77,7.19-12.58c1.66-2.18,5-4.69,7.19-4.37c2.02,0.29,4.06,3.95,5.08,6.53
		C584.31,213.07,583.83,215.89,583.97,218.48z"/>
	<path class="st0" d="M356.55,258.88c-1.13,4.55-2.21,11.33-4.54,17.64c-2.42,6.53-10.13,9.74-15.8,7.8
		c-3.61-1.24-5.24-3.59-4.81-7.35c1.35-11.81,8.34-19.72,18.15-25.38C353.59,249.25,356.49,251.62,356.55,258.88z"/>
	<path class="st0" d="M718.63,132.88c-2.4-1.56-5.22-2.74-7.1-4.78c-2.54-2.75-0.62-5.63,0.9-8.4
		c5.54-10.14,14.38-14.36,25.53-14.39c4.53-0.01,6.1,2.15,5.23,6.53C741.57,120,727.43,131.86,718.63,132.88z"/>
	<path class="st0" d="M559.74,377.93c-1.09,9.47-6.78,15.73-15.65,15.38c-2.31-0.09-5.44-2.52-6.53-4.71
		c-1.32-2.66-1.98-6.61-0.97-9.26c2.38-6.25,5.54-12.29,9.12-17.95c2.44-3.87,5.82-3.57,7.84,0.56
		C556.05,367.06,557.72,372.58,559.74,377.93z"/>
	<path class="st0" d="M730.61,229.72c3.63,1.42,9.17,1.96,10.35,4.51c1.15,2.47-1.46,7.57-3.7,10.54
		c-4.64,6.15-9.6,12.68-18.66,11.99c-2.15-0.16-5.37-1.31-6.03-2.87c-1.32-3.11-4.04-6.49-1.01-10.37
		C716.48,237.23,721.04,230.6,730.61,229.72z"/>
	<path class="st0" d="M743.21,318.13c0.48-8.86,3.81-16.96,10.84-23.43c2.46-2.26,4.51-2.11,6.43,0.59
		c5.03,7.07,5.05,22.21-0.23,28.92c-2.59,3.29-5.55,6.58-10.52,5.14C745.42,328.1,743.28,324.46,743.21,318.13z"/>
	<path class="st0" d="M519.26,409.31c-1.22,6.09-1.61,11.22-3.38,15.82c-1.24,3.24-3.89,6.46-6.78,8.37
		c-2.27,1.5-6.49,2.23-8.74,1.1c-3.83-1.93-6.46-5.46-5.52-10.77c1.62-9.24,7.23-15.38,14.71-20.06c1.6-1,4.88-1.32,6.17-0.35
		C517.6,404.84,518.38,407.72,519.26,409.31z"/>
	<path class="st0" d="M365.49,205.71c-1.66,5.83-2.9,11.84-5.11,17.45c-1.84,4.65-8.58,7.98-11.76,6.8
		c-3.75-1.39-7.06-8.21-6.69-12.97c0.81-10.59,8.44-15.89,16.26-20.85c2.6-1.65,5.11-0.05,5.85,3.02c0.48,2.01,0.42,4.16,0.6,6.25
		C364.91,205.51,365.2,205.61,365.49,205.71z"/>
	<path class="st0" d="M440.41,154.7c0.37,5.98-4.4,8.87-7.51,12.47c-0.74,0.86-4.23,0.51-5.57-0.48
		c-9.56-7.07-10.37-18.1-6.29-27.77c0.67-1.58,3.06-2.55,4.82-3.49c0.92-0.49,2.25-0.14,3.32-0.46c6.27-1.87,6-1.85,7.23,4.84
		C437.34,144.87,439.05,149.75,440.41,154.7z"/>
	<path class="st0" d="M559.91,320.44c-1.72,5.59-3.02,11.36-5.31,16.72c-1.61,3.77-5.41,7.53-9.45,5.48
		c-3.5-1.78-6.9-6.04-7.87-9.84c-0.9-3.52,0.57-8.46,2.65-11.71c2.79-4.35,6.89-8.01,10.96-11.32c3.78-3.07,7.18-1.31,7.69,3.54
		c0.24,2.23,0.04,4.5,0.04,6.76C559.05,320.19,559.48,320.32,559.91,320.44z"/>
	<path class="st0" d="M460.43,203.93c-0.8,2.71-1.12,5.69-2.5,8.07c-2.98,5.15-7.34,5.55-12.04,1.74
		c-5.84-4.74-7.54-11.07-6.82-18.16c0.39-3.81,1.03-7.68,2.28-11.28c1.32-3.8,4.08-4.46,7.2-1.92
		C455.31,187.85,460.16,194.45,460.43,203.93z"/>
	<path class="st0" d="M408.2,166.05c-2.15,2.82-3.77,6.93-6.6,8.1c-2.91,1.21-7.09-0.12-10.54-1c-1.68-0.43-3.67-2.11-4.31-3.71
		c-2.49-6.27-4.76-12.66-6.42-19.18c-0.3-1.18,2.49-4.41,4.13-4.62c8.09-1.04,21.31,9.66,22.57,17.71c0.1,0.64,0.11,1.29,0.17,1.93
		C407.53,165.53,407.87,165.79,408.2,166.05z"/>
	<path class="st0" d="M437.43,231.39c-0.31,9.06-1.34,17.44-9.3,22.71c-2.4,1.59-7.2,3.72-7.95,2.91c-2.43-2.66-4.9-6.59-4.82-9.98
		c0.25-10.83,6.55-18.64,15.14-24.58c3.33-2.3,5.94-0.9,6.62,3.13C437.46,227.62,437.35,229.75,437.43,231.39z"/>
	<path class="st0" d="M360.19,165.77c-0.01-4.27,1.81-6.05,5.6-4.79c7.1,2.36,13.74,5.52,18.35,11.91
		c4.47,6.2,4.03,11.13-1.81,15.97c-3.66,3.04-11.43,2.08-14.56-3.04c-3.69-6.05-5.96-12.97-8.85-19.51
		C359.35,166.13,359.77,165.95,360.19,165.77z"/>
	<path class="st0" d="M799.61,227.33c0.02,5.61-2.02,9.82-7.32,12.52c-3.51,1.79-6.24,1.44-8.6-1.38
		c-3.59-4.29-6.37-8.93-4.91-14.96c1.03-4.22,1.64-8.56,2.88-12.71c1.56-5.24,5.2-5.98,8.92-2.12
		C796.83,215.16,799.65,220.99,799.61,227.33z"/>
	<path class="st0" d="M582.94,122.55c-1.87,3.82-3.44,7.97-5.9,11.51c-0.75,1.08-4.75,1.44-5.82,0.49
		c-3.39-3.01-7.44-6.35-8.76-10.37c-1.85-5.63-1.99-12.01-1.9-18.05c0.08-5.33,4.28-6.95,8.36-3.49c3.67,3.12,7.29,6.46,10.21,10.25
		C580.98,115.27,581.49,118.67,582.94,122.55z"/>
	<path class="st0" d="M668.44,204.76c0.95-4.55,1.53-9.22,2.94-13.62c1.26-3.9,4.16-4.42,7.04-1.47
		c6.62,6.76,11.65,14.17,10.53,24.46c-0.55,5.01-3.53,7.52-7.43,9.28c-3.78,1.72-5.98-1.38-8.18-3.68
		C669.51,215.73,669.04,213.82,668.44,204.76z"/>
	<path class="st0" d="M328.51,247.62c-0.4,6.6-1.26,12.69-8.27,14.82c-2.04,0.62-5.61,0.27-6.77-1.09c-2.29-2.7-4.87-6.5-4.68-9.68
		c0.44-7.11,2.08-14.24,4.09-21.11c1.01-3.45,4.38-3.6,7.05-1.02C325.16,234.57,327.88,240.82,328.51,247.62z"/>
	<path class="st0" d="M519.21,68.99c-1.19,6.27-1.61,11.7-3.39,16.64c-1.17,3.25-3.9,6.34-6.71,8.45c-1.96,1.47-5.83,2.34-7.82,1.37
		c-3.37-1.64-6.65-4.96-5.33-9.36c1.44-4.84,3.52-9.59,6.04-13.97c1.55-2.7,4.23-4.92,6.79-6.83c1.92-1.44,5.33-3.44,6.54-2.7
		C517.35,63.85,518.16,67.08,519.21,68.99z"/>
	<path class="st0" d="M601.69,398.28c-2.53-0.5-4.55-0.39-5.94-1.27c-7.93-5.01-13.67-11.71-15.19-21.34
		c-0.49-3.11,1.35-5.2,3.96-4.78c8,1.29,16.59,1.47,21.72,9.63c3.21,5.11,3.73,10.68,0.22,15.33
		C605.41,397.26,603.01,397.65,601.69,398.28z"/>
	<path class="st0" d="M820.78,376.48c-6.22,0.05-10.11-6.04-7.58-11.76c4.26-9.62,12.39-14.07,22.01-16.41
		c3.11-0.76,5.43,0.45,5.98,3.91C842.67,361.34,829.97,376.41,820.78,376.48z"/>
	<path class="st0" d="M456.05,93.36c-2.55-1.2-5.83-1.77-7.52-3.72c-4.38-5.05-8.61-10.41-11.84-16.22
		c-2.89-5.19,0.21-8.76,6.21-8.09c10.12,1.13,17.49,6.19,21.47,15.66C466.73,86.61,462.4,92.78,456.05,93.36z"/>
	<path class="st0" d="M666.43,122.26c-1.46,4.02-2.32,8.41-4.58,11.89c-1.51,2.32-5.75,5.23-7.45,4.56
		c-3.35-1.33-7.04-4.46-8.37-7.75c-3.18-7.86,2.07-21.14,9.13-25.73c3.21-2.09,5.47-0.33,6.56,2.4
		C663.55,112.2,664.78,117,666.43,122.26z"/>
	<path class="st0" d="M415.87,270.99c-1.4,2.13-3.76,6.06-6.53,9.67c-0.51,0.67-3.03,0.65-3.97,0c-2.73-1.89-6.54-3.82-7.37-6.52
		c-2.22-7.26-3.41-14.89-4.37-22.45c-0.34-2.63,1.67-4.87,5.11-4.17C405.09,248.82,415.73,261.88,415.87,270.99z"/>
	<path class="st0" d="M779.38,250.28c-0.56,1.71-0.84,4.85-2.44,7c-4.98,6.72-12.62,5.53-16.17-2.67
		c-3.41-7.86-2.55-16.13-0.43-24.19c0.74-2.8,3.22-4.77,5.89-2.48C772.75,233.54,778.52,239.8,779.38,250.28z"/>
	<path class="st0" d="M338.47,118.33c-0.17-3.46,1.49-4.69,4.77-4.51c9.9,0.56,20.63,8.93,22.41,18.59c0.53,2.87-0.82,6.92-2.78,9.1
		c-1.26,1.4-5.65,1.32-7.88,0.27C345.15,137.17,340.04,128.9,338.47,118.33z"/>
	<path class="st0" d="M288.16,194.12c-1.56,2.65-2.91,7.87-5.5,8.58c-3.32,0.91-8.62-0.72-11.33-3.18
		c-6.45-5.86-8.75-14.16-9.07-22.73c-0.05-1.29,3.22-4.12,4.01-3.81c8.06,3.11,16.75,5.65,20.22,14.98
		C287.11,189.6,287.43,191.36,288.16,194.12z"/>
	<path class="st0" d="M551.22,70.3c-5.74-0.27-10.47-2.71-13.24-7.64c-2.72-4.84-5.02-10-6.75-15.27c-0.97-2.95,0.81-5.69,4.49-4.99
		c9.53,1.82,17.78,5.87,22.45,14.98C561.24,63.38,557.17,70.72,551.22,70.3z"/>
	<path class="st0" d="M363.58,313.39c-1.36,3.23-2.5,6.75-4.35,9.83c-0.58,0.97-3.53,1.56-4.65,0.96c-3.32-1.78-7.46-3.6-9.13-6.59
		c-3.24-5.82-5.2-12.39-7.25-18.8c-0.47-1.48,0.32-4.2,1.49-5.14c1.1-0.87,3.73-0.68,5.24,0.01c3.79,1.73,7.41,3.88,10.94,6.12
		C360.72,302.86,362.52,307.82,363.58,313.39z"/>
	<path class="st0" d="M786.93,439.55c2.43,0,4.92-0.35,7.25,0.13c1.5,0.31,3.48,1.57,3.92,2.86c0.45,1.32-0.17,3.84-1.24,4.72
		c-5.26,4.28-10.4,9.15-16.45,11.86c-3.66,1.64-9.18,0.58-13.37-0.78c-3.96-1.29-3.62-9.85,0.38-13.49
		C772.94,439.83,779.78,438.9,786.93,439.55z"/>
	<path class="st0" d="M362.16,260.59c1.08-8.28,5.58-14.6,11.99-19.57c0.98-0.76,4.01-0.33,5.04,0.65
		c5.25,4.96,5.34,22.3,0.44,27.65c-5.08,5.55-13.67,3.8-16.34-3.41C362.67,264.27,362.54,262.46,362.16,260.59z"/>
	<path class="st0" d="M604.46,259.53c-0.04,9.54-3.39,15.31-8.23,17.11c-4.48,1.67-7.46,0.44-9.44-3.9
		c-3.17-6.91-0.35-23.23,4.96-28.76c2.71-2.82,5.89-2.54,7.69,1.48C601.85,250.84,603.43,256.57,604.46,259.53z"/>
	<path class="st0" d="M604.07,82.96c-0.06,13.17-8.3,25.27-17.81,28c-2.68,0.77-3.67,0.31-4.78-2.62
		c-3.36-8.86-0.38-15.69,5.85-21.71c2.54-2.45,5.26-4.77,8.16-6.76c1.57-1.08,4.49-2.45,5.4-1.78
		C602.69,79.42,603.54,82.07,604.07,82.96z"/>
	<path class="st0" d="M273.17,210.03c10.11,1.16,18.48,4.83,23.83,13.88c2.34,3.95,0.88,7.58-1.44,10.25
		c-1.53,1.76-5.04,2.67-7.55,2.47c-2.68-0.21-6.09-1.49-7.66-3.5c-4.14-5.27-7.82-10.99-10.95-16.91
		C267.51,212.62,269.58,210.06,273.17,210.03z"/>
	<path class="st0" d="M601.48,419.17c0.07,9.11-2.62,11.58-10.18,9.85c-9.17-2.09-16.21-7.2-19.53-16.36
		c-1.75-4.83,0-7.42,5.04-7.16c8.21,0.42,16.16,1.99,21.87,8.7C600.17,415.95,600.98,418.26,601.48,419.17z"/>
	<path class="st0" d="M247.68,370.69c-8.69-0.26-20.57-12.53-20.36-21.05c0.08-3.28,2.11-4.66,5.09-4.44
		c10.49,0.78,18.76,5.68,24.48,14.4C259.96,364.29,254.3,370.89,247.68,370.69z"/>
	<path class="st0" d="M325.42,416.17c-7.47-0.88-20.19-9.73-22.72-16.36c-1.07-2.8-0.22-5.16,2.58-5.77
		c9.17-2,17.94-1.85,25.41,5.23c3.96,3.75,2.96,8.54,2.47,12.65C332.96,413.61,328.14,414.76,325.42,416.17z"/>
	<path class="st0" d="M609.14,177.29c0.61,5.98-2.91,9.44-7.42,12.04c-2.87,1.65-6.17,1.06-7.6-1.85
		c-2.01-4.08-3.83-8.53-4.33-12.98c-0.54-4.87,0.29-9.95,0.99-14.88c0.23-1.64,1.59-3.72,3.01-4.38c1.01-0.47,3.37,0.71,4.44,1.81
		C603.77,162.75,608.61,168.92,609.14,177.29z"/>
	<path class="st0" d="M755.47,369.32c-0.06,5.77-0.78,11.2-5.51,15.02c-1.95,1.58-5.36,3.82-6.77,3.11
		c-3.04-1.54-6.41-4.36-7.5-7.42c-2.72-7.65,4.92-23.1,12.3-26.58c2.75-1.3,4.47,0.03,5.04,2.62
		C754.01,360.45,754.68,364.9,755.47,369.32z"/>
	<path class="st0" d="M661.24,195.67c-1.34,6.09-1.92,11.5-3.82,16.39c-1.26,3.23-4.17,6-6.85,8.41c-1.06,0.95-3.95,1.12-5.26,0.35
		c-6.98-4.08-8.79-12.1-4.11-19.08c2.57-3.83,5.87-7.3,9.35-10.34c1.82-1.59,5.53-3.27,7.01-2.44
		C659.55,190.07,660.2,193.57,661.24,195.67z"/>
	<path class="st0" d="M330.71,504.37c-0.8,0-1.61,0.05-2.41-0.01c-6.93-0.5-8.65-3.75-4.88-9.44c4.11-6.2,9.26-11.1,16.8-12.9
		c2.55-0.61,12.01,2.61,12.57,4.91c0.44,1.81,0.08,4.23-0.83,5.88C347.39,501.11,339.93,504.46,330.71,504.37z"/>
	<path class="st0" d="M749.05,439.34c0.67,8.5-0.89,16.13-8.73,21.12c-3.11,1.98-5.45,2.17-7.34-1.81c-1.51-3.18-5.12-5.1-4.5-9.62
		c0.87-6.35,4.39-11.01,8.46-15.43c1.85-2.01,4.01-3.77,6.18-5.42c2.8-2.13,5.37-1.14,5.86,2.46
		C749.36,433.49,749.05,436.43,749.05,439.34z"/>
	<path class="st0" d="M260.4,336.09c0.21-1.18,0-3.36,0.98-4.54c1-1.2,3.95-2.46,4.71-1.89c7.36,5.46,14.88,10.76,16.28,21.12
		c0.76,5.61-2.91,8.18-6.27,10.36c-3.51,2.27-7.75,0.35-9.64-2.98c-2.39-4.22-3.71-9.1-5.12-13.81
		C260.63,341.92,260.74,339.24,260.4,336.09z"/>
	<path class="st0" d="M777.24,316.69c-0.82-0.58-3.28-1.52-4.38-3.3c-2.03-3.28-2.59-7.32,0.43-10.3c3.27-3.22,6.87-6.38,10.9-8.46
		c3.77-1.95,8.25-2.62,12.49-3.53c3.48-0.75,5.21,0.95,4.83,4.57C800.59,304.32,787.27,316.64,777.24,316.69z"/>
	<path class="st0" d="M539.26,418.02c5.1,1.77,11.11,3.51,16.81,5.96c3.5,1.5,3.72,4.99,0.5,6.74c-8.17,4.44-16.79,7.69-26.35,5.76
		c-3.31-0.67-6.75-1.89-7.22-6.08c-0.59-5.35,1.08-8.19,6.17-10C532.01,419.38,535.06,418.98,539.26,418.02z"/>
	<path class="st0" d="M549.83,231.67c-1.36,8.36-2.32,18-12.01,22.89c-2.25,1.14-6.38,1.58-7.94,0.29c-2.06-1.7-3.7-5.62-3.3-8.26
		c1.45-9.68,7.34-16.67,15.83-21.27C546.56,223.07,549.82,225.67,549.83,231.67z"/>
	<path class="st0" d="M330.36,425.67c9.26,1.4,17.2,5.29,21.15,14.83c0.58,1.4,0.84,3.14,0.61,4.62c-1.2,7.64-4.07,9.2-11.35,6.53
		c-9.83-3.6-13.19-12.23-15.93-21.06C323.63,426.71,326.66,425.64,330.36,425.67z"/>
	<path class="st0" d="M523.81,309.62c-1.12,6.12-2.53,13.82-9.91,18.38c-3.55,2.2-7.39,3.32-11.11-0.13
		c-4.83-4.47-4.95-5.59-2.32-11.75c3.4-7.98,9.95-12.07,17.61-14.81C522.21,299.85,524.01,302.06,523.81,309.62z"/>
	<path class="st0" d="M730.81,289.17c-6.53-0.04-11.05-6.66-9.1-11.3c1.39-3.3,3.46-6.93,6.29-8.88c4.43-3.06,9.63-5.18,14.75-7.03
		c3.55-1.28,6.89,1.21,5.75,4.08c-2.65,6.64-5.65,13.3-9.67,19.15C737.06,287.76,732.48,288.41,730.81,289.17z"/>
	<path class="st0" d="M314.39,276.72c-0.33,6.69-5.23,10.06-11.05,8.08c-7.69-2.61-16.9-15.07-16.36-22.8
		c0.1-1.4,2.37-3.68,3.78-3.8c8.53-0.72,20.27,7.51,23.02,15.71C314.14,274.97,314.26,276.1,314.39,276.72z"/>
	<path class="st0" d="M414.79,396.98c-0.83,7.58-1.52,15.48-8.31,20.74c-1.99,1.54-6.08,3.51-6.96,2.73
		c-2.69-2.36-5.75-5.88-5.94-9.11c-0.23-3.98,1.71-8.45,3.76-12.11c1.92-3.43,5-6.34,8.01-8.97c1.64-1.43,4.37-2.73,6.27-2.35
		c1.26,0.25,2.03,3.52,2.79,5.53C414.8,394.45,414.67,395.66,414.79,396.98z"/>
	<path class="st0" d="M775.36,182.83c-0.63,2.56-0.98,4.81-1.75,6.91c-2.52,6.88-6.51,8.71-13.16,6.23
		c-5.16-1.92-8.52-9.04-5.86-14.08c2.76-5.24,6.26-10.16,9.92-14.83c2.52-3.21,6.11-2.48,7.4,1.46
		C773.45,173.24,774.27,178.2,775.36,182.83z"/>
	<path class="st0" d="M826.84,315.72c4.34-0.08,5.99,1.77,5.15,5.96c-1.4,6.98-4.38,13.3-9.66,18.03c-2.33,2.09-5.87,3.12-9.03,3.94
		c-2.94,0.76-4.79-0.58-4.89-4.15c-0.08-2.86-2-5.91-1.41-8.49C808.78,323.28,818.93,315.87,826.84,315.72z"/>
	<path class="st0" d="M607.93,358.83c0.67-4.03,1.38-9.64,2.62-15.13c0.41-1.82,1.95-4.27,3.45-4.68c1.32-0.35,3.73,1.39,4.91,2.83
		c4.76,5.77,9.2,11.81,8.15,19.97c-0.67,5.22-6.5,11.06-10.66,10.82C611.43,372.37,607.71,367.03,607.93,358.83z"/>
	<path class="st0" d="M698.46,422c-7.4-0.21-11.44-7.85-8.37-12.78c2.56-4.1,6.32-7.56,10-10.79c1.83-1.61,4.6-2.38,7.07-2.96
		c2.62-0.61,5.4-0.54,8.12-0.77c-0.24,2.79,0.11,5.82-0.86,8.32c-1.68,4.32-3.55,8.88-6.54,12.29
		C704.99,418.59,700.6,420.54,698.46,422z"/>
	<path class="st0" d="M657.3,411.18c0.68-1.57,1.2-5.12,3.24-6.96c5.18-4.66,10.86-8.83,16.71-12.62c2.82-1.83,4.95,0.24,5.29,3.4
		c0.85,7.81-6.4,21.81-12.93,25.26C664.3,423.06,657.08,418.58,657.3,411.18z"/>
	<path class="st0" d="M621.56,146.32c9.37,1.19,17.34,3.41,21.93,12.13c2.26,4.29,0.9,7.86-1.86,10.5c-1.7,1.62-5.1,2.08-7.7,2.01
		c-8.87-0.21-16.74-14.29-17.04-20.08C616.69,147.22,618.92,146.13,621.56,146.32z"/>
	<path class="st0" d="M252.74,401.13c4.95,1.99,10.25,3.4,14.75,6.13c4.41,2.67,4.65,9.4,0.99,14.29
		c-2.72,3.63-6.95,4.07-10.44,1.75c-5.71-3.8-11.18-8.08-16.23-12.73c-3.07-2.83-1.81-6.06,2.3-7.14c2.63-0.69,5.39-0.88,8.09-1.29
		C252.38,401.8,252.56,401.47,252.74,401.13z"/>
	<path class="st0" d="M216.73,300.3c-0.03-5.17,2.74-7.29,7.45-5.27c7.15,3.07,14.48,6.14,17.03,14.59c0.55,1.82,1,3.83,0.81,5.68
		c-0.63,6.03-4.93,8.79-10.13,6.78C224.8,319.36,216.77,307.82,216.73,300.3z"/>
	<path class="st0" d="M416.27,76.09c7.03,0.07,18.77,9.46,20.16,16.14c0.9,4.3-4.84,9.78-9.49,9.07
		c-7.29-1.11-16.71-10.53-17.96-17.95C408.24,78.87,411.07,76.04,416.27,76.09z"/>
	<path class="st0" d="M264.29,248.97c-0.73-0.19-2.25-0.32-3.49-0.98c-7.64-4.04-12.89-10.14-14.9-18.64
		c-1.04-4.38,1.34-7.02,5.85-6.42c9.21,1.23,16.45,5.48,20.14,14.49C273.69,241.82,269.39,248.99,264.29,248.97z"/>
	<path class="st0" d="M320.59,345.43c-1.34,2.85-3.03,6.8-5.11,10.54c-0.39,0.7-2.51,1.07-3.48,0.69c-2.05-0.8-4.42-1.77-5.7-3.42
		c-5.46-6.98-7.09-15.13-5.82-23.78c0.45-3.08,2.32-4.85,5.92-3.81C313.77,327.8,320.71,336.73,320.59,345.43z"/>
	<path class="st0" d="M455.42,281.48c0-1.59-0.08-1.94,0.01-2.23c0.93-2.78,1.88-5.55,2.83-8.33c2.86,1.09,5.98,1.77,8.53,3.36
		c5.76,3.59,8.81,9.11,10.17,15.76c1.17,5.71-2.79,7.69-6.56,9.88c-3.67,2.14-6.13-0.46-8.45-2.61
		C456.98,292.73,455.66,286.65,455.42,281.48z"/>
	<path class="st0" d="M409.72,338.27c1.12-4.39,1.93-9.05,3.63-13.36c0.56-1.42,3.74-3.06,5.21-2.67
		c7.03,1.88,12.99,14.88,10.78,22.1c-1.51,4.93-5.5,7.76-9.69,8.36c-4.36,0.63-6.73-3.76-8.23-7.62
		C410.61,343.01,410.31,340.74,409.72,338.27z"/>
	<path class="st0" d="M783.76,487c-0.12-6.88,6.03-10.79,12.49-7.96c6.61,2.9,12.49,13.35,10.87,20.41
		c-0.39,1.7-2.99,3.81-4.84,4.12C793.27,505.05,783.92,496.45,783.76,487z"/>
	<path class="st0" d="M274.48,301.15c-1.89,3.37-3.54,6.92-5.82,10c-0.61,0.83-3.4,0.79-4.77,0.19c-8.39-3.64-13.3-18.54-9.16-26.84
		c1.61-3.23,3.94-3.32,6.85-2.28C268.36,284.65,273.01,291.84,274.48,301.15z"/>
	<path class="st0" d="M382.87,377.76c0.21,7.97-0.87,15.53-7.68,20.87c-2.34,1.83-5.03,4.44-8.1,1.68
		c-5.63-5.04-6.04-8.84-2.65-13.18c2.01-2.58,3.24-5.76,4.92-8.61c1.93-3.27,3.71-6.69,6.09-9.62c0.97-1.2,3.49-2,4.97-1.63
		c1.1,0.27,2.04,2.65,2.36,4.22C383.18,373.51,382.87,375.67,382.87,377.76z"/>
	<path class="st0" d="M643.4,95.54c-0.17,1.28,0.05,2.82-0.59,3.79c-1.84,2.79-3.53,6.79-6.17,7.68c-4.72,1.59-10.4-2.44-12.01-6.89
		c-2.39-6.6,0.39-16.84,5.77-21.4c2.03-1.72,4.36-2.31,5.81,0.19c3.02,5.19,5.6,10.64,8.36,15.98
		C644.17,95.1,643.78,95.32,643.4,95.54z"/>
	<path class="st0" d="M702.83,191.85c0.55-3.67,0.81-7.41,1.73-10.98c1.24-4.76,4.34-5.75,7.77-2.44c4.36,4.2,9.56,8.02,9.61,15.02
		c0.03,3.74-0.86,7.03-4.47,9.02c-0.81,0.44-1.54,1.17-2.09,1.93c-3.23,4.47-5.15,4.91-8.19,0.43c-2.48-3.66-3.6-8.25-5.32-12.43
		C702.19,192.23,702.51,192.04,702.83,191.85z"/>
	<path class="st0" d="M550.83,187.96c0.48,4.91-1.23,9-5.04,11.96c-3.23,2.52-6.54,3.87-10.26,0.11c-2.23-2.25-7.1-2.81-5.84-7.09
		c1.22-4.14,3.89-7.85,5.94-11.75c0.07-0.13,0.22-0.24,0.36-0.32c3.55-1.92,6.94-6.9,10.95-4.08c2.81,1.98,3.47,7.01,5.1,10.68
		C551.63,187.65,551.23,187.81,550.83,187.96z"/>
	<path class="st0" d="M1156.3,959.47c5.2,0,10.41,0,15.61,0c0.01,0.33,0.02,0.66,0.03,1c-5.2,0-10.41,0-15.61,0
		C1156.32,960.13,1156.31,959.8,1156.3,959.47z"/>
</g>
</svg>
