<svg width="418" height="31" viewBox="0 0 418 31" fill="none" xmlns="http://www.w3.org/2000/svg">
<path d="M18.4972 0.90909H24.6477V19.8011C24.6477 21.9223 24.1411 23.7784 23.1278 25.3693C22.1241 26.9602 20.7178 28.2008 18.9091 29.0909C17.1004 29.9716 14.9934 30.4119 12.5881 30.4119C10.1733 30.4119 8.06155 29.9716 6.25284 29.0909C4.44413 28.2008 3.03788 26.9602 2.03409 25.3693C1.0303 23.7784 0.528409 21.9223 0.528409 19.8011V0.90909H6.67898V19.2756C6.67898 20.3835 6.92045 21.3684 7.40341 22.2301C7.89583 23.0919 8.58712 23.7689 9.47727 24.2614C10.3674 24.7538 11.4044 25 12.5881 25C13.7813 25 14.8182 24.7538 15.6989 24.2614C16.589 23.7689 17.2756 23.0919 17.7585 22.2301C18.2509 21.3684 18.4972 20.3835 18.4972 19.2756V0.90909ZM29.7081 30V0.90909H41.1854C43.3823 0.90909 45.2573 1.30208 46.8104 2.08807C48.3729 2.86458 49.5613 3.9678 50.3757 5.39773C51.1996 6.81818 51.6115 8.48958 51.6115 10.4119C51.6115 12.3437 51.1948 14.0057 50.3615 15.3977C49.5282 16.7803 48.3208 17.8409 46.7393 18.5795C45.1674 19.3182 43.264 19.6875 41.0291 19.6875H33.3445V14.7443H40.0348C41.209 14.7443 42.1844 14.5833 42.9609 14.2614C43.7375 13.9394 44.3151 13.4564 44.6939 12.8125C45.0821 12.1686 45.2763 11.3684 45.2763 10.4119C45.2763 9.44602 45.0821 8.63163 44.6939 7.96875C44.3151 7.30587 43.7327 6.80398 42.9467 6.46307C42.1702 6.11269 41.1901 5.9375 40.0064 5.9375H35.8587V30H29.7081ZM45.4183 16.7614L52.6484 30H45.8587L38.7848 16.7614H45.4183ZM55.9581 30V0.90909H67.6058C69.746 0.90909 71.531 1.22633 72.9609 1.8608C74.3909 2.49527 75.4657 3.37595 76.1854 4.50284C76.9051 5.62027 77.2649 6.90814 77.2649 8.36648C77.2649 9.50284 77.0376 10.5019 76.5831 11.3636C76.1286 12.2159 75.5036 12.9167 74.7081 13.4659C73.9221 14.0057 73.0225 14.3892 72.0092 14.6165V14.9006C73.1172 14.9479 74.1541 15.2604 75.12 15.8381C76.0954 16.4157 76.8861 17.2254 77.4922 18.267C78.0982 19.2992 78.4013 20.5303 78.4013 21.9602C78.4013 23.5038 78.0178 24.8816 77.2507 26.0938C76.4931 27.2964 75.371 28.2481 73.8842 28.9489C72.3975 29.6496 70.5651 30 68.3871 30H55.9581ZM62.1087 24.9716H67.1229C68.8369 24.9716 70.0869 24.6449 70.8729 23.9915C71.6589 23.3286 72.0518 22.4479 72.0518 21.3494C72.0518 20.5445 71.8577 19.8343 71.4695 19.2188C71.0812 18.6032 70.5272 18.1203 69.8075 17.7699C69.0973 17.4195 68.2498 17.2443 67.2649 17.2443H62.1087V24.9716ZM62.1087 13.0824H66.6683C67.5111 13.0824 68.2592 12.9356 68.9126 12.642C69.5755 12.339 70.0964 11.9129 70.4751 11.3636C70.8634 10.8144 71.0575 10.1562 71.0575 9.3892C71.0575 8.33807 70.6835 7.49053 69.9354 6.84659C69.1967 6.20265 68.1456 5.88068 66.782 5.88068H62.1087V13.0824ZM100.372 0.90909H106.523V19.8011C106.523 21.9223 106.016 23.7784 105.003 25.3693C103.999 26.9602 102.593 28.2008 100.784 29.0909C98.9754 29.9716 96.8684 30.4119 94.4631 30.4119C92.0483 30.4119 89.9366 29.9716 88.1278 29.0909C86.3191 28.2008 84.9129 26.9602 83.9091 25.3693C82.9053 23.7784 82.4034 21.9223 82.4034 19.8011V0.90909H88.554V19.2756C88.554 20.3835 88.7955 21.3684 89.2784 22.2301C89.7708 23.0919 90.4621 23.7689 91.3523 24.2614C92.2424 24.7538 93.2794 25 94.4631 25C95.6563 25 96.6932 24.7538 97.5739 24.2614C98.464 23.7689 99.1506 23.0919 99.6335 22.2301C100.126 21.3684 100.372 20.3835 100.372 19.2756V0.90909ZM135.915 0.90909V30H130.603L117.947 11.6903H117.734V30H111.583V0.90909H116.981L129.538 19.2045H129.793V0.90909H135.915ZM149.147 5.98011V0.90909H173.039V5.98011H164.133V30H158.053V5.98011H149.147ZM176.974 30V0.90909H188.451C190.648 0.90909 192.523 1.30208 194.076 2.08807C195.638 2.86458 196.827 3.9678 197.641 5.39773C198.465 6.81818 198.877 8.48958 198.877 10.4119C198.877 12.3437 198.46 14.0057 197.627 15.3977C196.794 16.7803 195.586 17.8409 194.005 18.5795C192.433 19.3182 190.53 19.6875 188.295 19.6875H180.61V14.7443H187.3C188.475 14.7443 189.45 14.5833 190.227 14.2614C191.003 13.9394 191.581 13.4564 191.96 12.8125C192.348 12.1686 192.542 11.3684 192.542 10.4119C192.542 9.44602 192.348 8.63163 191.96 7.96875C191.581 7.30587 190.998 6.80398 190.212 6.46307C189.436 6.11269 188.456 5.9375 187.272 5.9375H183.124V30H176.974ZM192.684 16.7614L199.914 30H193.124L186.05 16.7614H192.684ZM203.224 30V0.90909H222.826V5.98011H209.374V12.9119H221.817V17.983H209.374V24.929H222.883V30H203.224ZM227.716 30V0.90909H247.318V5.98011H233.866V12.9119H246.31V17.983H233.866V24.929H247.375V30H227.716ZM267.616 0.90909V30H261.466V0.90909H267.616ZM297.009 0.90909V30H291.697L279.04 11.6903H278.827V30H272.677V0.90909H278.075L290.631 19.2045H290.887V0.90909H297.009ZM300.983 5.98011V0.90909H324.875V5.98011H315.969V30H309.889V5.98011H300.983ZM328.81 30V0.90909H348.412V5.98011H334.96V12.9119H347.403V17.983H334.96V24.929H348.469V30H328.81ZM353.302 30V0.90909H364.779C366.976 0.90909 368.851 1.30208 370.404 2.08807C371.967 2.86458 373.155 3.9678 373.969 5.39773C374.793 6.81818 375.205 8.48958 375.205 10.4119C375.205 12.3437 374.789 14.0057 373.955 15.3977C373.122 16.7803 371.915 17.8409 370.333 18.5795C368.761 19.3182 366.858 19.6875 364.623 19.6875H356.938V14.7443H363.629C364.803 14.7443 365.778 14.5833 366.555 14.2614C367.331 13.9394 367.909 13.4564 368.288 12.8125C368.676 12.1686 368.87 11.3684 368.87 10.4119C368.87 9.44602 368.676 8.63163 368.288 7.96875C367.909 7.30587 367.326 6.80398 366.54 6.46307C365.764 6.11269 364.784 5.9375 363.6 5.9375H359.452V30H353.302ZM369.012 16.7614L376.242 30H369.452L362.379 16.7614H369.012ZM385.702 0.90909V30H379.552V0.90909H385.702ZM417.496 15.4545C417.496 18.6269 416.894 21.3258 415.692 23.5511C414.499 25.7765 412.87 27.4763 410.805 28.6506C408.75 29.8153 406.44 30.3977 403.874 30.3977C401.288 30.3977 398.968 29.8106 396.913 28.6364C394.858 27.4621 393.234 25.7623 392.041 23.5369C390.848 21.3116 390.251 18.6174 390.251 15.4545C390.251 12.2822 390.848 9.58333 392.041 7.35795C393.234 5.13258 394.858 3.4375 396.913 2.27273C398.968 1.09848 401.288 0.511363 403.874 0.511363C406.44 0.511363 408.75 1.09848 410.805 2.27273C412.87 3.4375 414.499 5.13258 415.692 7.35795C416.894 9.58333 417.496 12.2822 417.496 15.4545ZM411.26 15.4545C411.26 13.3996 410.952 11.6667 410.337 10.2557C409.731 8.8447 408.874 7.77462 407.766 7.04545C406.658 6.31629 405.36 5.9517 403.874 5.9517C402.387 5.9517 401.089 6.31629 399.982 7.04545C398.874 7.77462 398.012 8.8447 397.396 10.2557C396.79 11.6667 396.487 13.3996 396.487 15.4545C396.487 17.5095 396.79 19.2424 397.396 20.6534C398.012 22.0644 398.874 23.1345 399.982 23.8636C401.089 24.5928 402.387 24.9574 403.874 24.9574C405.36 24.9574 406.658 24.5928 407.766 23.8636C408.874 23.1345 409.731 22.0644 410.337 20.6534C410.952 19.2424 411.26 17.5095 411.26 15.4545Z" fill="#747474"/>
</svg>
