<svg width="418" height="31" viewBox="0 0 418 31" fill="none" xmlns="http://www.w3.org/2000/svg">
<path d="M18.7354 0.90909H24.886V19.8011C24.886 21.9223 24.3794 23.7784 23.3661 25.3693C22.3623 26.9602 20.9561 28.2008 19.1474 29.0909C17.3387 29.9716 15.2317 30.4119 12.8263 30.4119C10.4116 30.4119 8.29983 29.9716 6.49112 29.0909C4.68241 28.2008 3.27616 26.9602 2.27237 25.3693C1.26858 23.7784 0.76669 21.9223 0.76669 19.8011V0.90909H6.91726V19.2756C6.91726 20.3835 7.15874 21.3684 7.64169 22.2301C8.13412 23.0919 8.8254 23.7689 9.71555 24.2614C10.6057 24.7538 11.6426 25 12.8263 25C14.0195 25 15.0565 24.7538 15.9371 24.2614C16.8273 23.7689 17.5138 23.0919 17.9968 22.2301C18.4892 21.3684 18.7354 20.3835 18.7354 19.2756V0.90909ZM29.9464 30V0.90909H41.4237C43.6206 0.90909 45.4956 1.30208 47.0487 2.08807C48.6112 2.86458 49.7996 3.9678 50.614 5.39773C51.4379 6.81818 51.8498 8.48958 51.8498 10.4119C51.8498 12.3437 51.4331 14.0057 50.5998 15.3977C49.7665 16.7803 48.5591 17.8409 46.9776 18.5795C45.4057 19.3182 43.5022 19.6875 41.2674 19.6875H33.5827V14.7443H40.2731C41.4473 14.7443 42.4227 14.5833 43.1992 14.2614C43.9757 13.9394 44.5534 13.4564 44.9322 12.8125C45.3204 12.1686 45.5146 11.3684 45.5146 10.4119C45.5146 9.44602 45.3204 8.63163 44.9322 7.96875C44.5534 7.30587 43.971 6.80398 43.185 6.46307C42.4085 6.11269 41.4284 5.9375 40.2447 5.9375H36.0969V30H29.9464ZM45.6566 16.7614L52.8867 30H46.0969L39.0231 16.7614H45.6566ZM56.1964 30V0.90909H67.8441C69.9843 0.90909 71.7693 1.22633 73.1992 1.8608C74.6291 2.49527 75.704 3.37595 76.4237 4.50284C77.1433 5.62027 77.5032 6.90814 77.5032 8.36648C77.5032 9.50284 77.2759 10.5019 76.8214 11.3636C76.3668 12.2159 75.7418 12.9167 74.9464 13.4659C74.1604 14.0057 73.2608 14.3892 72.2475 14.6165V14.9006C73.3555 14.9479 74.3924 15.2604 75.3583 15.8381C76.3337 16.4157 77.1244 17.2254 77.7305 18.267C78.3365 19.2992 78.6396 20.5303 78.6396 21.9602C78.6396 23.5038 78.256 24.8816 77.489 26.0938C76.7314 27.2964 75.6093 28.2481 74.1225 28.9489C72.6358 29.6496 70.8034 30 68.6254 30H56.1964ZM62.3469 24.9716H67.3612C69.0752 24.9716 70.3252 24.6449 71.1112 23.9915C71.8971 23.3286 72.2901 22.4479 72.2901 21.3494C72.2901 20.5445 72.096 19.8343 71.7077 19.2188C71.3195 18.6032 70.7655 18.1203 70.0458 17.7699C69.3356 17.4195 68.488 17.2443 67.5032 17.2443H62.3469V24.9716ZM62.3469 13.0824H66.9066C67.7494 13.0824 68.4975 12.9356 69.1509 12.642C69.8138 12.339 70.3346 11.9129 70.7134 11.3636C71.1017 10.8144 71.2958 10.1562 71.2958 9.3892C71.2958 8.33807 70.9218 7.49053 70.1737 6.84659C69.435 6.20265 68.3839 5.88068 67.0202 5.88068H62.3469V13.0824ZM100.61 0.90909H106.761V19.8011C106.761 21.9223 106.254 23.7784 105.241 25.3693C104.237 26.9602 102.831 28.2008 101.022 29.0909C99.2137 29.9716 97.1067 30.4119 94.7013 30.4119C92.2866 30.4119 90.1748 29.9716 88.3661 29.0909C86.5574 28.2008 85.1512 26.9602 84.1474 25.3693C83.1436 23.7784 82.6417 21.9223 82.6417 19.8011V0.90909H88.7923V19.2756C88.7923 20.3835 89.0337 21.3684 89.5167 22.2301C90.0091 23.0919 90.7004 23.7689 91.5906 24.2614C92.4807 24.7538 93.5176 25 94.7013 25C95.8945 25 96.9315 24.7538 97.8121 24.2614C98.7023 23.7689 99.3888 23.0919 99.8718 22.2301C100.364 21.3684 100.61 20.3835 100.61 19.2756V0.90909ZM136.154 0.90909V30H130.841L118.185 11.6903H117.972V30H111.821V0.90909H117.219L129.776 19.2045H130.032V0.90909H136.154ZM149.385 5.98011V0.90909H173.277V5.98011H164.371V30H158.292V5.98011H149.385ZM177.212 30V0.90909H188.689C190.886 0.90909 192.761 1.30208 194.314 2.08807C195.877 2.86458 197.065 3.9678 197.88 5.39773C198.703 6.81818 199.115 8.48958 199.115 10.4119C199.115 12.3437 198.699 14.0057 197.865 15.3977C197.032 16.7803 195.825 17.8409 194.243 18.5795C192.671 19.3182 190.768 19.6875 188.533 19.6875H180.848V14.7443H187.539C188.713 14.7443 189.688 14.5833 190.465 14.2614C191.241 13.9394 191.819 13.4564 192.198 12.8125C192.586 12.1686 192.78 11.3684 192.78 10.4119C192.78 9.44602 192.586 8.63163 192.198 7.96875C191.819 7.30587 191.237 6.80398 190.451 6.46307C189.674 6.11269 188.694 5.9375 187.51 5.9375H183.363V30H177.212ZM192.922 16.7614L200.152 30H193.363L186.289 16.7614H192.922ZM203.462 30V0.90909H223.064V5.98011H209.613V12.9119H222.056V17.983H209.613V24.929H223.121V30H203.462ZM227.954 30V0.90909H247.556V5.98011H234.105V12.9119H246.548V17.983H234.105V24.929H247.613V30H227.954ZM267.855 0.90909V30H261.704V0.90909H267.855ZM297.248 0.90909V30H291.935L279.279 11.6903H279.066V30H272.915V0.90909H278.313L290.87 19.2045H291.125V0.90909H297.248ZM301.221 5.98011V0.90909H325.113V5.98011H316.207V30H310.127V5.98011H301.221ZM329.048 30V0.90909H348.65V5.98011H335.199V12.9119H347.642V17.983H335.199V24.929H348.707V30H329.048ZM353.54 30V0.90909H365.017C367.214 0.90909 369.089 1.30208 370.642 2.08807C372.205 2.86458 373.393 3.9678 374.208 5.39773C375.032 6.81818 375.444 8.48958 375.444 10.4119C375.444 12.3437 375.027 14.0057 374.194 15.3977C373.36 16.7803 372.153 17.8409 370.571 18.5795C368.999 19.3182 367.096 19.6875 364.861 19.6875H357.176V14.7443H363.867C365.041 14.7443 366.016 14.5833 366.793 14.2614C367.569 13.9394 368.147 13.4564 368.526 12.8125C368.914 12.1686 369.108 11.3684 369.108 10.4119C369.108 9.44602 368.914 8.63163 368.526 7.96875C368.147 7.30587 367.565 6.80398 366.779 6.46307C366.002 6.11269 365.022 5.9375 363.838 5.9375H359.691V30H353.54ZM369.25 16.7614L376.48 30H369.691L362.617 16.7614H369.25ZM385.941 0.90909V30H379.79V0.90909H385.941ZM417.734 15.4545C417.734 18.6269 417.133 21.3258 415.93 23.5511C414.737 25.7765 413.108 27.4763 411.044 28.6506C408.989 29.8153 406.678 30.3977 404.112 30.3977C401.527 30.3977 399.207 29.8106 397.152 28.6364C395.097 27.4621 393.473 25.7623 392.279 23.5369C391.086 21.3116 390.49 18.6174 390.49 15.4545C390.49 12.2822 391.086 9.58333 392.279 7.35795C393.473 5.13258 395.097 3.4375 397.152 2.27273C399.207 1.09848 401.527 0.511363 404.112 0.511363C406.678 0.511363 408.989 1.09848 411.044 2.27273C413.108 3.4375 414.737 5.13258 415.93 7.35795C417.133 9.58333 417.734 12.2822 417.734 15.4545ZM411.498 15.4545C411.498 13.3996 411.19 11.6667 410.575 10.2557C409.969 8.8447 409.112 7.77462 408.004 7.04545C406.896 6.31629 405.599 5.9517 404.112 5.9517C402.625 5.9517 401.328 6.31629 400.22 7.04545C399.112 7.77462 398.25 8.8447 397.635 10.2557C397.029 11.6667 396.725 13.3996 396.725 15.4545C396.725 17.5095 397.029 19.2424 397.635 20.6534C398.25 22.0644 399.112 23.1345 400.22 23.8636C401.328 24.5928 402.625 24.9574 404.112 24.9574C405.599 24.9574 406.896 24.5928 408.004 23.8636C409.112 23.1345 409.969 22.0644 410.575 20.6534C411.19 19.2424 411.498 17.5095 411.498 15.4545Z" fill="#747474"/>
</svg>
