<svg width="130" height="55" viewBox="0 0 130 55" fill="none" xmlns="http://www.w3.org/2000/svg">
<path d="M24.4052 0.90909L31.4364 23.0114H31.7063L38.7518 0.90909H45.57L35.5415 30H27.6154L17.5728 0.90909H24.4052ZM55.2219 0.90909V30H49.0714V0.90909H55.2219ZM84.6147 0.90909V30H79.3022L66.646 11.6903H66.4329V30H60.2823V0.90909H65.68L78.2369 19.2045H78.4925V0.90909H84.6147ZM105.478 9.27557C105.364 8.12973 104.876 7.23958 104.015 6.60511C103.153 5.97064 101.983 5.65341 100.506 5.65341C99.5022 5.65341 98.6547 5.79545 97.9634 6.07955C97.2721 6.35417 96.7418 6.73769 96.3725 7.23011C96.0127 7.72254 95.8327 8.28125 95.8327 8.90625C95.8138 9.42708 95.9227 9.88163 96.1594 10.2699C96.4057 10.6581 96.7418 10.9943 97.168 11.2784C97.5941 11.553 98.0865 11.7945 98.6452 12.0028C99.204 12.2017 99.8005 12.3722 100.435 12.5142L103.049 13.1392C104.318 13.4233 105.482 13.8021 106.543 14.2756C107.604 14.7491 108.522 15.3314 109.299 16.0227C110.075 16.714 110.676 17.5284 111.103 18.4659C111.538 19.4034 111.761 20.4782 111.77 21.6903C111.761 23.4706 111.306 25.0142 110.407 26.321C109.516 27.6184 108.229 28.6269 106.543 29.3466C104.867 30.0568 102.845 30.4119 100.478 30.4119C98.1291 30.4119 96.0837 30.0521 94.3413 29.3324C92.6083 28.6127 91.2541 27.5473 90.2788 26.1364C89.3129 24.7159 88.8062 22.9593 88.7589 20.8665H94.7106C94.7769 21.8419 95.0562 22.6562 95.5487 23.3097C96.0505 23.9536 96.7182 24.4413 97.5515 24.7727C98.3943 25.0947 99.346 25.2557 100.407 25.2557C101.448 25.2557 102.353 25.1042 103.12 24.8011C103.896 24.4981 104.498 24.0767 104.924 23.5369C105.35 22.9972 105.563 22.3769 105.563 21.6761C105.563 21.0227 105.369 20.4735 104.98 20.0284C104.602 19.5833 104.043 19.2045 103.304 18.892C102.575 18.5795 101.68 18.2955 100.62 18.0398L97.4521 17.2443C94.9994 16.6477 93.0629 15.715 91.6424 14.446C90.2219 13.1771 89.5165 11.4678 89.5259 9.31818C89.5165 7.55682 89.9852 6.01799 90.9322 4.7017C91.8886 3.38542 93.2002 2.35795 94.8668 1.61932C96.5335 0.880681 98.4274 0.511363 100.549 0.511363C102.708 0.511363 104.592 0.880681 106.202 1.61932C107.821 2.35795 109.081 3.38542 109.98 4.7017C110.88 6.01799 111.344 7.54261 111.373 9.27557H105.478ZM3.04577 54H0.574174L4.34015 43.0909H7.31246L11.0731 54H8.60152L5.86892 45.5838H5.78369L3.04577 54ZM2.89129 49.712H8.72936V51.5124H2.89129V49.712ZM17.5903 50.5163V45.8182H19.8595V54H17.6809V52.5138H17.5957C17.411 52.9933 17.1038 53.3786 16.6741 53.6697C16.248 53.9609 15.7278 54.1065 15.1134 54.1065C14.5665 54.1065 14.0854 53.9822 13.6699 53.7337C13.2544 53.4851 12.9295 53.1317 12.6951 52.6737C12.4643 52.2156 12.3471 51.6669 12.3435 51.0277V45.8182H14.6127V50.6229C14.6163 51.1058 14.7459 51.4876 15.0016 51.7681C15.2572 52.0487 15.5999 52.1889 16.0296 52.1889C16.303 52.1889 16.5587 52.1268 16.7967 52.0025C17.0346 51.8746 17.2263 51.6864 17.3719 51.4379C17.5211 51.1893 17.5939 50.8821 17.5903 50.5163ZM26.0265 45.8182V47.5227H21.0993V45.8182H26.0265ZM22.2179 43.858H24.4871V51.4858C24.4871 51.6953 24.519 51.8587 24.583 51.9759C24.6469 52.0895 24.7357 52.1694 24.8493 52.2156C24.9665 52.2617 25.1014 52.2848 25.2541 52.2848C25.3607 52.2848 25.4672 52.2759 25.5737 52.2582C25.6803 52.2369 25.7619 52.2209 25.8188 52.2102L26.1756 53.8988C26.062 53.9343 25.9022 53.9751 25.6962 54.0213C25.4903 54.071 25.2399 54.1012 24.9452 54.1119C24.3983 54.1332 23.9189 54.0604 23.507 53.8935C23.0986 53.7266 22.7808 53.4673 22.5535 53.1158C22.3262 52.7642 22.2144 52.3203 22.2179 51.7841V43.858ZM31.1135 54.1598C30.2861 54.1598 29.5705 53.984 28.9668 53.6325C28.3667 53.2773 27.9033 52.7837 27.5766 52.1516C27.2499 51.516 27.0865 50.7791 27.0865 49.9411C27.0865 49.0959 27.2499 48.3572 27.5766 47.7251C27.9033 47.0895 28.3667 46.5959 28.9668 46.2443C29.5705 45.8892 30.2861 45.7116 31.1135 45.7116C31.9409 45.7116 32.6547 45.8892 33.2548 46.2443C33.8585 46.5959 34.3237 47.0895 34.6504 47.7251C34.9771 48.3572 35.1405 49.0959 35.1405 49.9411C35.1405 50.7791 34.9771 51.516 34.6504 52.1516C34.3237 52.7837 33.8585 53.2773 33.2548 53.6325C32.6547 53.984 31.9409 54.1598 31.1135 54.1598ZM31.1242 52.402C31.5006 52.402 31.8149 52.2955 32.067 52.0824C32.3191 51.8658 32.5091 51.571 32.6369 51.1982C32.7683 50.8253 32.834 50.4009 32.834 49.9251C32.834 49.4492 32.7683 49.0249 32.6369 48.652C32.5091 48.2791 32.3191 47.9844 32.067 47.7678C31.8149 47.5511 31.5006 47.4428 31.1242 47.4428C30.7442 47.4428 30.4246 47.5511 30.1653 47.7678C29.9097 47.9844 29.7161 48.2791 29.5847 48.652C29.4569 49.0249 29.393 49.4492 29.393 49.9251C29.393 50.4009 29.4569 50.8253 29.5847 51.1982C29.7161 51.571 29.9097 51.8658 30.1653 52.0824C30.4246 52.2955 30.7442 52.402 31.1242 52.402ZM36.616 54V45.8182H38.7786V47.2617H38.8745C39.045 46.7823 39.3291 46.4041 39.7268 46.1271C40.1245 45.8501 40.6004 45.7116 41.1543 45.7116C41.7154 45.7116 42.193 45.8519 42.5872 46.1325C42.9814 46.4094 43.2442 46.7859 43.3756 47.2617H43.4608C43.6277 46.793 43.9296 46.4183 44.3663 46.1378C44.8067 45.8537 45.3269 45.7116 45.9271 45.7116C46.6906 45.7116 47.3102 45.9549 47.7861 46.4414C48.2655 46.9244 48.5052 47.6097 48.5052 48.4975V54H46.2413V48.945C46.2413 48.4904 46.1206 48.1495 45.8791 47.9222C45.6377 47.695 45.3358 47.5813 44.9736 47.5813C44.5617 47.5813 44.2403 47.7127 44.0095 47.9755C43.7786 48.2347 43.6632 48.5774 43.6632 49.0036V54H41.4633V48.897C41.4633 48.4957 41.3479 48.1761 41.1171 47.9382C40.8898 47.7003 40.5897 47.5813 40.2168 47.5813C39.9647 47.5813 39.7374 47.6452 39.535 47.7731C39.3362 47.8974 39.1781 48.0732 39.0609 48.3004C38.9438 48.5241 38.8852 48.7869 38.8852 49.0888V54H36.616ZM53.9944 54.1598C53.1669 54.1598 52.4514 53.984 51.8477 53.6325C51.2476 53.2773 50.7841 52.7837 50.4574 52.1516C50.1307 51.516 49.9674 50.7791 49.9674 49.9411C49.9674 49.0959 50.1307 48.3572 50.4574 47.7251C50.7841 47.0895 51.2476 46.5959 51.8477 46.2443C52.4514 45.8892 53.1669 45.7116 53.9944 45.7116C54.8218 45.7116 55.5356 45.8892 56.1357 46.2443C56.7394 46.5959 57.2046 47.0895 57.5313 47.7251C57.858 48.3572 58.0214 49.0959 58.0214 49.9411C58.0214 50.7791 57.858 51.516 57.5313 52.1516C57.2046 52.7837 56.7394 53.2773 56.1357 53.6325C55.5356 53.984 54.8218 54.1598 53.9944 54.1598ZM54.005 52.402C54.3814 52.402 54.6957 52.2955 54.9478 52.0824C55.2 51.8658 55.39 51.571 55.5178 51.1982C55.6492 50.8253 55.7149 50.4009 55.7149 49.9251C55.7149 49.4492 55.6492 49.0249 55.5178 48.652C55.39 48.2791 55.2 47.9844 54.9478 47.7678C54.6957 47.5511 54.3814 47.4428 54.005 47.4428C53.625 47.4428 53.3054 47.5511 53.0462 47.7678C52.7905 47.9844 52.597 48.2791 52.4656 48.652C52.3378 49.0249 52.2738 49.4492 52.2738 49.9251C52.2738 50.4009 52.3378 50.8253 52.4656 51.1982C52.597 51.571 52.7905 51.8658 53.0462 52.0824C53.3054 52.2955 53.625 52.402 54.005 52.402ZM59.5395 54V43.0909H61.8086V47.1925H61.8779C61.9773 46.9723 62.1211 46.7486 62.3093 46.5213C62.5011 46.2905 62.7497 46.0987 63.0551 45.946C63.364 45.7898 63.7476 45.7116 64.2057 45.7116C64.8022 45.7116 65.3527 45.8679 65.8569 46.1804C66.3612 46.4893 66.7642 46.9563 67.0661 47.5813C67.3679 48.2028 67.5189 48.9822 67.5189 49.9197C67.5189 50.8324 67.3715 51.603 67.0767 52.2315C66.7856 52.8565 66.3878 53.3306 65.8836 53.6538C65.3829 53.9734 64.8218 54.1332 64.2003 54.1332C63.76 54.1332 63.3853 54.0604 63.0764 53.9148C62.771 53.7692 62.5206 53.5863 62.3253 53.3661C62.13 53.1424 61.9809 52.9169 61.8779 52.6896H61.7767V54H59.5395ZM61.7607 49.9091C61.7607 50.3956 61.8282 50.82 61.9631 51.1822C62.0981 51.5444 62.2934 51.8267 62.5491 52.0291C62.8047 52.228 63.1155 52.3274 63.4812 52.3274C63.8505 52.3274 64.163 52.2262 64.4187 52.0238C64.6744 51.8178 64.8679 51.5337 64.9993 51.1715C65.1343 50.8058 65.2017 50.3849 65.2017 49.9091C65.2017 49.4368 65.1361 49.0213 65.0047 48.6626C64.8733 48.304 64.6797 48.0234 64.4241 47.821C64.1684 47.6186 63.8541 47.5174 63.4812 47.5174C63.1119 47.5174 62.7994 47.6151 62.5437 47.8104C62.2916 48.0057 62.0981 48.2827 61.9631 48.6413C61.8282 49 61.7607 49.4226 61.7607 49.9091ZM69.033 54V45.8182H71.3022V54H69.033ZM70.1729 44.7635C69.8355 44.7635 69.5461 44.6516 69.3046 44.4279C69.0667 44.2006 68.9478 43.929 68.9478 43.6129C68.9478 43.3004 69.0667 43.0323 69.3046 42.8086C69.5461 42.5813 69.8355 42.4677 70.1729 42.4677C70.5103 42.4677 70.7979 42.5813 71.0358 42.8086C71.2773 43.0323 71.398 43.3004 71.398 43.6129C71.398 43.929 71.2773 44.2006 71.0358 44.4279C70.7979 44.6516 70.5103 44.7635 70.1729 44.7635ZM75.3891 43.0909V54H73.1199V43.0909H75.3891ZM80.9355 54.1598C80.0939 54.1598 79.3695 53.9893 78.7622 53.6484C78.1585 53.304 77.6933 52.8175 77.3666 52.1889C77.0399 51.5568 76.8766 50.8093 76.8766 49.9464C76.8766 49.1048 77.0399 48.3661 77.3666 47.7305C77.6933 47.0948 78.1532 46.5994 78.7462 46.2443C79.3428 45.8892 80.0424 45.7116 80.8449 45.7116C81.3847 45.7116 81.8872 45.7987 82.3524 45.9727C82.8212 46.1431 83.2295 46.4006 83.5775 46.745C83.9291 47.0895 84.2025 47.5227 84.3979 48.0447C84.5932 48.5632 84.6908 49.1705 84.6908 49.8665V50.4897H77.7821V49.0835H82.5548C82.5548 48.7567 82.4838 48.4673 82.3418 48.2152C82.1997 47.9631 82.0026 47.766 81.7505 47.6239C81.5019 47.4783 81.2125 47.4055 80.8822 47.4055C80.5378 47.4055 80.2324 47.4854 79.966 47.6452C79.7033 47.8015 79.4973 48.0128 79.3481 48.2791C79.199 48.5419 79.1226 48.8349 79.1191 49.158V50.495C79.1191 50.8999 79.1937 51.2496 79.3428 51.5444C79.4955 51.8391 79.7104 52.0664 79.9873 52.2262C80.2643 52.386 80.5928 52.4659 80.9728 52.4659C81.2249 52.4659 81.4557 52.4304 81.6653 52.3594C81.8748 52.2884 82.0541 52.1818 82.2033 52.0398C82.3524 51.8977 82.466 51.7237 82.5442 51.5178L84.6429 51.6562C84.5364 52.1605 84.318 52.6009 83.9877 52.9773C83.661 53.3501 83.2384 53.6413 82.7199 53.8509C82.205 54.0568 81.6102 54.1598 80.9355 54.1598ZM96.9196 46.6172C96.845 46.358 96.7403 46.1289 96.6053 45.93C96.4704 45.7276 96.3053 45.5572 96.11 45.4187C95.9182 45.2766 95.698 45.1683 95.4494 45.0938C95.2044 45.0192 94.9328 44.9819 94.6345 44.9819C94.0769 44.9819 93.5869 45.1204 93.1643 45.3974C92.7453 45.6744 92.4185 46.0774 92.1842 46.6065C91.9498 47.1321 91.8326 47.7749 91.8326 48.5348C91.8326 49.2947 91.948 49.9411 92.1788 50.4737C92.4097 51.0064 92.7364 51.413 93.159 51.6935C93.5815 51.9705 94.0805 52.109 94.6558 52.109C95.1778 52.109 95.6234 52.0167 95.9928 51.832C96.3656 51.6438 96.6497 51.3793 96.845 51.0384C97.0439 50.6974 97.1433 50.2944 97.1433 49.8292L97.6121 49.8984H94.7996V48.1619H99.3646V49.5362C99.3646 50.495 99.1622 51.3189 98.7573 52.0078C98.3525 52.6932 97.795 53.2223 97.0847 53.5952C96.3745 53.9645 95.5613 54.1491 94.6451 54.1491C93.6224 54.1491 92.7239 53.9237 91.9498 53.4727C91.1756 53.0181 90.572 52.3736 90.1387 51.5391C89.709 50.701 89.4942 49.7067 89.4942 48.5561C89.4942 47.6719 89.622 46.8835 89.8777 46.1911C90.1369 45.495 90.4992 44.9055 90.9644 44.4226C91.4296 43.9396 91.9711 43.5721 92.589 43.32C93.2069 43.0678 93.8763 42.9418 94.5972 42.9418C95.2151 42.9418 95.7903 43.0323 96.323 43.2134C96.8557 43.391 97.328 43.6431 97.7399 43.9698C98.1554 44.2965 98.4945 44.6854 98.7573 45.1364C99.0201 45.5838 99.1888 46.0774 99.2634 46.6172H96.9196ZM103.324 43.0909V54H101.054V43.0909H103.324ZM107.474 54.1545C106.952 54.1545 106.487 54.0639 106.079 53.8828C105.67 53.6982 105.347 53.4265 105.109 53.0678C104.875 52.7056 104.758 52.2546 104.758 51.7148C104.758 51.2603 104.841 50.8786 105.008 50.5696C105.175 50.2607 105.402 50.0121 105.69 49.8239C105.978 49.6357 106.304 49.4936 106.67 49.3977C107.039 49.3018 107.427 49.2344 107.831 49.1953C108.307 49.1456 108.691 49.0994 108.982 49.0568C109.273 49.0107 109.484 48.9432 109.616 48.8544C109.747 48.7656 109.813 48.6342 109.813 48.4602V48.4283C109.813 48.0909 109.706 47.8299 109.493 47.6452C109.284 47.4606 108.985 47.3683 108.598 47.3683C108.19 47.3683 107.865 47.4588 107.624 47.6399C107.382 47.8175 107.222 48.0412 107.144 48.3111L105.045 48.1406C105.152 47.6435 105.362 47.2138 105.674 46.8516C105.987 46.4858 106.39 46.2053 106.883 46.0099C107.38 45.8111 107.956 45.7116 108.609 45.7116C109.064 45.7116 109.499 45.7649 109.914 45.8714C110.333 45.978 110.704 46.1431 111.027 46.3668C111.354 46.5906 111.612 46.8782 111.8 47.2298C111.988 47.5778 112.082 47.995 112.082 48.4815V54H109.93V52.8654H109.866C109.735 53.1211 109.559 53.3466 109.339 53.5419C109.119 53.7337 108.854 53.8846 108.545 53.9947C108.236 54.1012 107.879 54.1545 107.474 54.1545ZM108.124 52.5884C108.458 52.5884 108.753 52.5227 109.009 52.3913C109.264 52.2564 109.465 52.0753 109.61 51.848C109.756 51.6207 109.829 51.3633 109.829 51.0756V50.2074C109.758 50.2536 109.66 50.2962 109.536 50.3352C109.415 50.3707 109.278 50.4045 109.126 50.4364C108.973 50.4648 108.82 50.4915 108.668 50.5163C108.515 50.5376 108.376 50.5572 108.252 50.5749C107.986 50.614 107.753 50.6761 107.554 50.7614C107.356 50.8466 107.201 50.962 107.091 51.1076C106.981 51.2496 106.926 51.4272 106.926 51.6403C106.926 51.9492 107.038 52.1854 107.261 52.3487C107.489 52.5085 107.776 52.5884 108.124 52.5884ZM120.65 48.1513L118.573 48.2791C118.537 48.1016 118.461 47.9418 118.344 47.7997C118.226 47.6541 118.072 47.5387 117.88 47.4535C117.692 47.3647 117.466 47.3203 117.204 47.3203C116.852 47.3203 116.556 47.3949 116.314 47.544C116.073 47.6896 115.952 47.8849 115.952 48.13C115.952 48.3253 116.03 48.4904 116.186 48.6254C116.343 48.7603 116.611 48.8686 116.991 48.9503L118.471 49.2486C119.267 49.4119 119.86 49.6747 120.251 50.0369C120.641 50.3991 120.837 50.875 120.837 51.4645C120.837 52.0007 120.678 52.4712 120.362 52.8761C120.05 53.2809 119.62 53.5969 119.073 53.8242C118.53 54.0479 117.903 54.1598 117.193 54.1598C116.11 54.1598 115.247 53.9343 114.604 53.4833C113.965 53.0288 113.59 52.4109 113.48 51.6296L115.712 51.5124C115.78 51.8427 115.943 52.0948 116.202 52.2688C116.462 52.4393 116.794 52.5245 117.198 52.5245C117.596 52.5245 117.916 52.4482 118.157 52.2955C118.402 52.1392 118.527 51.9386 118.53 51.6935C118.527 51.4876 118.439 51.3189 118.269 51.1875C118.099 51.0526 117.836 50.9496 117.481 50.8786L116.064 50.5962C115.265 50.4364 114.67 50.1594 114.279 49.7653C113.892 49.3711 113.699 48.8686 113.699 48.2578C113.699 47.7322 113.841 47.2795 114.125 46.8995C114.413 46.5195 114.816 46.2266 115.334 46.0206C115.856 45.8146 116.467 45.7116 117.166 45.7116C118.2 45.7116 119.013 45.93 119.606 46.3668C120.203 46.8036 120.551 47.3984 120.65 48.1513ZM129.073 48.1513L126.996 48.2791C126.96 48.1016 126.884 47.9418 126.766 47.7997C126.649 47.6541 126.495 47.5387 126.303 47.4535C126.115 47.3647 125.889 47.3203 125.627 47.3203C125.275 47.3203 124.978 47.3949 124.737 47.544C124.496 47.6896 124.375 47.8849 124.375 48.13C124.375 48.3253 124.453 48.4904 124.609 48.6254C124.765 48.7603 125.034 48.8686 125.413 48.9503L126.894 49.2486C127.69 49.4119 128.283 49.6747 128.673 50.0369C129.064 50.3991 129.259 50.875 129.259 51.4645C129.259 52.0007 129.101 52.4712 128.785 52.8761C128.473 53.2809 128.043 53.5969 127.496 53.8242C126.953 54.0479 126.326 54.1598 125.616 54.1598C124.533 54.1598 123.67 53.9343 123.027 53.4833C122.388 53.0288 122.013 52.4109 121.903 51.6296L124.135 51.5124C124.203 51.8427 124.366 52.0948 124.625 52.2688C124.884 52.4393 125.216 52.5245 125.621 52.5245C126.019 52.5245 126.339 52.4482 126.58 52.2955C126.825 52.1392 126.949 51.9386 126.953 51.6935C126.949 51.4876 126.862 51.3189 126.692 51.1875C126.521 51.0526 126.259 50.9496 125.904 50.8786L124.487 50.5962C123.688 50.4364 123.093 50.1594 122.702 49.7653C122.315 49.3711 122.122 48.8686 122.122 48.2578C122.122 47.7322 122.264 47.2795 122.548 46.8995C122.835 46.5195 123.238 46.2266 123.757 46.0206C124.279 45.8146 124.89 45.7116 125.589 45.7116C126.623 45.7116 127.436 45.93 128.029 46.3668C128.625 46.8036 128.973 47.3984 129.073 48.1513Z" fill="#747474"/>
</svg>
