<svg width="130" height="55" viewBox="0 0 130 55" fill="none" xmlns="http://www.w3.org/2000/svg">
<path d="M7.78409 0.90909L14.8153 23.0114H15.0852L22.1307 0.90909H28.9489L18.9205 30H10.9943L0.951705 0.90909H7.78409ZM38.6009 0.90909V30H32.4503V0.90909H38.6009ZM67.9936 0.90909V30H62.6811L50.0249 11.6903H49.8118V30H43.6612V0.90909H49.0589L61.6158 19.2045H61.8714V0.90909H67.9936ZM88.8565 9.27557C88.7429 8.12973 88.2552 7.23958 87.3935 6.60511C86.5317 5.97064 85.3622 5.65341 83.8849 5.65341C82.8812 5.65341 82.0336 5.79545 81.3423 6.07955C80.651 6.35417 80.1207 6.73769 79.7514 7.23011C79.3916 7.72254 79.2116 8.28125 79.2116 8.90625C79.1927 9.42708 79.3016 9.88163 79.5384 10.2699C79.7846 10.6581 80.1207 10.9943 80.5469 11.2784C80.973 11.553 81.4654 11.7945 82.0241 12.0028C82.5829 12.2017 83.1795 12.3722 83.8139 12.5142L86.4276 13.1392C87.6965 13.4233 88.8613 13.8021 89.9219 14.2756C90.9825 14.7491 91.901 15.3314 92.6776 16.0227C93.4541 16.714 94.0554 17.5284 94.4815 18.4659C94.9171 19.4034 95.1397 20.4782 95.1491 21.6903C95.1397 23.4706 94.6851 25.0142 93.7855 26.321C92.8954 27.6184 91.6075 28.6269 89.9219 29.3466C88.2457 30.0568 86.224 30.4119 83.8565 30.4119C81.508 30.4119 79.4626 30.0521 77.7202 29.3324C75.9872 28.6127 74.633 27.5473 73.6577 26.1364C72.6918 24.7159 72.1851 22.9593 72.1378 20.8665H78.0895C78.1558 21.8419 78.4351 22.6562 78.9276 23.3097C79.4295 23.9536 80.0971 24.4413 80.9304 24.7727C81.7732 25.0947 82.7249 25.2557 83.7855 25.2557C84.8272 25.2557 85.7315 25.1042 86.4986 24.8011C87.2751 24.4981 87.8764 24.0767 88.3026 23.5369C88.7287 22.9972 88.9418 22.3769 88.9418 21.6761C88.9418 21.0227 88.7476 20.4735 88.3594 20.0284C87.9806 19.5833 87.4219 19.2045 86.6832 18.892C85.9541 18.5795 85.0592 18.2955 83.9986 18.0398L80.831 17.2443C78.3783 16.6477 76.4418 15.715 75.0213 14.446C73.6009 13.1771 72.8954 11.4678 72.9048 9.31818C72.8954 7.55682 73.3641 6.01799 74.3111 4.7017C75.2675 3.38542 76.5791 2.35795 78.2457 1.61932C79.9124 0.880681 81.8063 0.511363 83.9276 0.511363C86.0866 0.511363 87.9711 0.880681 89.581 1.61932C91.2003 2.35795 92.4598 3.38542 93.3594 4.7017C94.259 6.01799 94.723 7.54261 94.7514 9.27557H88.8565ZM2.82848 54H0.356889L4.12287 43.0909H7.09517L10.8558 54H8.38423L5.65163 45.5838H5.56641L2.82848 54ZM2.67401 49.712H8.51207V51.5124H2.67401V49.712ZM17.373 50.5163V45.8182H19.6422V54H17.4636V52.5138H17.3784C17.1937 52.9933 16.8865 53.3786 16.4569 53.6697C16.0307 53.9609 15.5105 54.1065 14.8961 54.1065C14.3493 54.1065 13.8681 53.9822 13.4526 53.7337C13.0371 53.4851 12.7122 53.1317 12.4778 52.6737C12.247 52.2156 12.1298 51.6669 12.1262 51.0277V45.8182H14.3954V50.6229C14.399 51.1058 14.5286 51.4876 14.7843 51.7681C15.04 52.0487 15.3826 52.1889 15.8123 52.1889C16.0858 52.1889 16.3414 52.1268 16.5794 52.0025C16.8173 51.8746 17.0091 51.6864 17.1547 51.4379C17.3038 51.1893 17.3766 50.8821 17.373 50.5163ZM25.8092 45.8182V47.5227H20.882V45.8182H25.8092ZM22.0006 43.858H24.2698V51.4858C24.2698 51.6953 24.3018 51.8587 24.3657 51.9759C24.4296 52.0895 24.5184 52.1694 24.632 52.2156C24.7492 52.2617 24.8841 52.2848 25.0368 52.2848C25.1434 52.2848 25.2499 52.2759 25.3564 52.2582C25.463 52.2369 25.5447 52.2209 25.6015 52.2102L25.9584 53.8988C25.8447 53.9343 25.6849 53.9751 25.479 54.0213C25.273 54.071 25.0226 54.1012 24.7279 54.1119C24.181 54.1332 23.7016 54.0604 23.2897 53.8935C22.8813 53.7266 22.5635 53.4673 22.3362 53.1158C22.1089 52.7642 21.9971 52.3203 22.0006 51.7841V43.858ZM30.8962 54.1598C30.0688 54.1598 29.3532 53.984 28.7496 53.6325C28.1494 53.2773 27.686 52.7837 27.3593 52.1516C27.0326 51.516 26.8692 50.7791 26.8692 49.9411C26.8692 49.0959 27.0326 48.3572 27.3593 47.7251C27.686 47.0895 28.1494 46.5959 28.7496 46.2443C29.3532 45.8892 30.0688 45.7116 30.8962 45.7116C31.7236 45.7116 32.4374 45.8892 33.0376 46.2443C33.6412 46.5959 34.1064 47.0895 34.4331 47.7251C34.7599 48.3572 34.9232 49.0959 34.9232 49.9411C34.9232 50.7791 34.7599 51.516 34.4331 52.1516C34.1064 52.7837 33.6412 53.2773 33.0376 53.6325C32.4374 53.984 31.7236 54.1598 30.8962 54.1598ZM30.9069 52.402C31.2833 52.402 31.5976 52.2955 31.8497 52.0824C32.1018 51.8658 32.2918 51.571 32.4197 51.1982C32.551 50.8253 32.6167 50.4009 32.6167 49.9251C32.6167 49.4492 32.551 49.0249 32.4197 48.652C32.2918 48.2791 32.1018 47.9844 31.8497 47.7678C31.5976 47.5511 31.2833 47.4428 30.9069 47.4428C30.5269 47.4428 30.2073 47.5511 29.9481 47.7678C29.6924 47.9844 29.4988 48.2791 29.3675 48.652C29.2396 49.0249 29.1757 49.4492 29.1757 49.9251C29.1757 50.4009 29.2396 50.8253 29.3675 51.1982C29.4988 51.571 29.6924 51.8658 29.9481 52.0824C30.2073 52.2955 30.5269 52.402 30.9069 52.402ZM36.3987 54V45.8182H38.5613V47.2617H38.6572C38.8277 46.7823 39.1118 46.4041 39.5095 46.1271C39.9072 45.8501 40.3831 45.7116 40.9371 45.7116C41.4981 45.7116 41.9758 45.8519 42.3699 46.1325C42.7641 46.4094 43.0269 46.7859 43.1583 47.2617H43.2435C43.4104 46.793 43.7123 46.4183 44.1491 46.1378C44.5894 45.8537 45.1096 45.7116 45.7098 45.7116C46.4733 45.7116 47.093 45.9549 47.5688 46.4414C48.0482 46.9244 48.2879 47.6097 48.2879 48.4975V54H46.0241V48.945C46.0241 48.4904 45.9033 48.1495 45.6618 47.9222C45.4204 47.695 45.1185 47.5813 44.7563 47.5813C44.3444 47.5813 44.023 47.7127 43.7922 47.9755C43.5613 48.2347 43.4459 48.5774 43.4459 49.0036V54H41.246V48.897C41.246 48.4957 41.1306 48.1761 40.8998 47.9382C40.6725 47.7003 40.3724 47.5813 39.9996 47.5813C39.7474 47.5813 39.5202 47.6452 39.3177 47.7731C39.1189 47.8974 38.9608 48.0732 38.8437 48.3004C38.7265 48.5241 38.6679 48.7869 38.6679 49.0888V54H36.3987ZM53.7771 54.1598C52.9497 54.1598 52.2341 53.984 51.6304 53.6325C51.0303 53.2773 50.5669 52.7837 50.2401 52.1516C49.9134 51.516 49.7501 50.7791 49.7501 49.9411C49.7501 49.0959 49.9134 48.3572 50.2401 47.7251C50.5669 47.0895 51.0303 46.5959 51.6304 46.2443C52.2341 45.8892 52.9497 45.7116 53.7771 45.7116C54.6045 45.7116 55.3183 45.8892 55.9184 46.2443C56.5221 46.5959 56.9873 47.0895 57.314 47.7251C57.6407 48.3572 57.8041 49.0959 57.8041 49.9411C57.8041 50.7791 57.6407 51.516 57.314 52.1516C56.9873 52.7837 56.5221 53.2773 55.9184 53.6325C55.3183 53.984 54.6045 54.1598 53.7771 54.1598ZM53.7877 52.402C54.1642 52.402 54.4784 52.2955 54.7306 52.0824C54.9827 51.8658 55.1727 51.571 55.3005 51.1982C55.4319 50.8253 55.4976 50.4009 55.4976 49.9251C55.4976 49.4492 55.4319 49.0249 55.3005 48.652C55.1727 48.2791 54.9827 47.9844 54.7306 47.7678C54.4784 47.5511 54.1642 47.4428 53.7877 47.4428C53.4078 47.4428 53.0882 47.5511 52.8289 47.7678C52.5732 47.9844 52.3797 48.2791 52.2483 48.652C52.1205 49.0249 52.0566 49.4492 52.0566 49.9251C52.0566 50.4009 52.1205 50.8253 52.2483 51.1982C52.3797 51.571 52.5732 51.8658 52.8289 52.0824C53.0882 52.2955 53.4078 52.402 53.7877 52.402ZM59.3222 54V43.0909H61.5914V47.1925H61.6606C61.76 46.9723 61.9039 46.7486 62.0921 46.5213C62.2838 46.2905 62.5324 46.0987 62.8378 45.946C63.1468 45.7898 63.5303 45.7116 63.9884 45.7116C64.585 45.7116 65.1354 45.8679 65.6396 46.1804C66.1439 46.4893 66.547 46.9563 66.8488 47.5813C67.1507 48.2028 67.3016 48.9822 67.3016 49.9197C67.3016 50.8324 67.1542 51.603 66.8595 52.2315C66.5683 52.8565 66.1705 53.3306 65.6663 53.6538C65.1656 53.9734 64.6045 54.1332 63.983 54.1332C63.5427 54.1332 63.1681 54.0604 62.8591 53.9148C62.5537 53.7692 62.3034 53.5863 62.108 53.3661C61.9127 53.1424 61.7636 52.9169 61.6606 52.6896H61.5594V54H59.3222ZM61.5434 49.9091C61.5434 50.3956 61.6109 50.82 61.7458 51.1822C61.8808 51.5444 62.0761 51.8267 62.3318 52.0291C62.5874 52.228 62.8982 52.3274 63.2639 52.3274C63.6333 52.3274 63.9458 52.2262 64.2014 52.0238C64.4571 51.8178 64.6507 51.5337 64.782 51.1715C64.917 50.8058 64.9845 50.3849 64.9845 49.9091C64.9845 49.4368 64.9188 49.0213 64.7874 48.6626C64.656 48.304 64.4624 48.0234 64.2068 47.821C63.9511 47.6186 63.6368 47.5174 63.2639 47.5174C62.8946 47.5174 62.5821 47.6151 62.3264 47.8104C62.0743 48.0057 61.8808 48.2827 61.7458 48.6413C61.6109 49 61.5434 49.4226 61.5434 49.9091ZM68.8157 54V45.8182H71.0849V54H68.8157ZM69.9556 44.7635C69.6183 44.7635 69.3288 44.6516 69.0874 44.4279C68.8494 44.2006 68.7305 43.929 68.7305 43.6129C68.7305 43.3004 68.8494 43.0323 69.0874 42.8086C69.3288 42.5813 69.6183 42.4677 69.9556 42.4677C70.293 42.4677 70.5806 42.5813 70.8185 42.8086C71.06 43.0323 71.1808 43.3004 71.1808 43.6129C71.1808 43.929 71.06 44.2006 70.8185 44.4279C70.5806 44.6516 70.293 44.7635 69.9556 44.7635ZM75.1718 43.0909V54H72.9026V43.0909H75.1718ZM80.7182 54.1598C79.8766 54.1598 79.1522 53.9893 78.5449 53.6484C77.9412 53.304 77.476 52.8175 77.1493 52.1889C76.8226 51.5568 76.6593 50.8093 76.6593 49.9464C76.6593 49.1048 76.8226 48.3661 77.1493 47.7305C77.476 47.0948 77.9359 46.5994 78.5289 46.2443C79.1255 45.8892 79.8251 45.7116 80.6277 45.7116C81.1674 45.7116 81.6699 45.7987 82.1351 45.9727C82.6039 46.1431 83.0123 46.4006 83.3603 46.745C83.7118 47.0895 83.9853 47.5227 84.1806 48.0447C84.3759 48.5632 84.4735 49.1705 84.4735 49.8665V50.4897H77.5648V49.0835H82.3375C82.3375 48.7567 82.2665 48.4673 82.1245 48.2152C81.9824 47.9631 81.7853 47.766 81.5332 47.6239C81.2846 47.4783 80.9952 47.4055 80.665 47.4055C80.3205 47.4055 80.0151 47.4854 79.7488 47.6452C79.486 47.8015 79.28 48.0128 79.1309 48.2791C78.9817 48.5419 78.9054 48.8349 78.9018 49.158V50.495C78.9018 50.8999 78.9764 51.2496 79.1255 51.5444C79.2782 51.8391 79.4931 52.0664 79.7701 52.2262C80.0471 52.386 80.3755 52.4659 80.7555 52.4659C81.0076 52.4659 81.2385 52.4304 81.448 52.3594C81.6575 52.2884 81.8368 52.1818 81.986 52.0398C82.1351 51.8977 82.2488 51.7237 82.3269 51.5178L84.4256 51.6562C84.3191 52.1605 84.1007 52.6009 83.7704 52.9773C83.4437 53.3501 83.0211 53.6413 82.5027 53.8509C81.9877 54.0568 81.3929 54.1598 80.7182 54.1598ZM96.7023 46.6172C96.6278 46.358 96.523 46.1289 96.3881 45.93C96.2531 45.7276 96.088 45.5572 95.8927 45.4187C95.7009 45.2766 95.4807 45.1683 95.2322 45.0938C94.9871 45.0192 94.7155 44.9819 94.4172 44.9819C93.8596 44.9819 93.3696 45.1204 92.947 45.3974C92.528 45.6744 92.2013 46.0774 91.9669 46.6065C91.7325 47.1321 91.6153 47.7749 91.6153 48.5348C91.6153 49.2947 91.7307 49.9411 91.9616 50.4737C92.1924 51.0064 92.5191 51.413 92.9417 51.6935C93.3643 51.9705 93.8632 52.109 94.4385 52.109C94.9605 52.109 95.4062 52.0167 95.7755 51.832C96.1483 51.6438 96.4324 51.3793 96.6278 51.0384C96.8266 50.6974 96.926 50.2944 96.926 49.8292L97.3948 49.8984H94.5823V48.1619H99.1473V49.5362C99.1473 50.495 98.9449 51.3189 98.54 52.0078C98.1352 52.6932 97.5777 53.2223 96.8675 53.5952C96.1572 53.9645 95.344 54.1491 94.4278 54.1491C93.4051 54.1491 92.5067 53.9237 91.7325 53.4727C90.9584 53.0181 90.3547 52.3736 89.9214 51.5391C89.4917 50.701 89.2769 49.7067 89.2769 48.5561C89.2769 47.6719 89.4047 46.8835 89.6604 46.1911C89.9197 45.495 90.2819 44.9055 90.7471 44.4226C91.2123 43.9396 91.7538 43.5721 92.3717 43.32C92.9896 43.0678 93.659 42.9418 94.3799 42.9418C94.9978 42.9418 95.5731 43.0323 96.1057 43.2134C96.6384 43.391 97.1107 43.6431 97.5226 43.9698C97.9381 44.2965 98.2773 44.6854 98.54 45.1364C98.8028 45.5838 98.9715 46.0774 99.0461 46.6172H96.7023ZM103.106 43.0909V54H100.837V43.0909H103.106ZM107.257 54.1545C106.735 54.1545 106.27 54.0639 105.862 53.8828C105.453 53.6982 105.13 53.4265 104.892 53.0678C104.658 52.7056 104.541 52.2546 104.541 51.7148C104.541 51.2603 104.624 50.8786 104.791 50.5696C104.958 50.2607 105.185 50.0121 105.473 49.8239C105.76 49.6357 106.087 49.4936 106.453 49.3977C106.822 49.3018 107.209 49.2344 107.614 49.1953C108.09 49.1456 108.473 49.0994 108.765 49.0568C109.056 49.0107 109.267 48.9432 109.399 48.8544C109.53 48.7656 109.596 48.6342 109.596 48.4602V48.4283C109.596 48.0909 109.489 47.8299 109.276 47.6452C109.066 47.4606 108.768 47.3683 108.381 47.3683C107.973 47.3683 107.648 47.4588 107.406 47.6399C107.165 47.8175 107.005 48.0412 106.927 48.3111L104.828 48.1406C104.935 47.6435 105.144 47.2138 105.457 46.8516C105.769 46.4858 106.172 46.2053 106.666 46.0099C107.163 45.8111 107.738 45.7116 108.392 45.7116C108.846 45.7116 109.281 45.7649 109.697 45.8714C110.116 45.978 110.487 46.1431 110.81 46.3668C111.137 46.5906 111.394 46.8782 111.582 47.2298C111.771 47.5778 111.865 47.995 111.865 48.4815V54H109.713V52.8654H109.649C109.517 53.1211 109.342 53.3466 109.122 53.5419C108.901 53.7337 108.637 53.8846 108.328 53.9947C108.019 54.1012 107.662 54.1545 107.257 54.1545ZM107.907 52.5884C108.241 52.5884 108.536 52.5227 108.791 52.3913C109.047 52.2564 109.248 52.0753 109.393 51.848C109.539 51.6207 109.612 51.3633 109.612 51.0756V50.2074C109.541 50.2536 109.443 50.2962 109.319 50.3352C109.198 50.3707 109.061 50.4045 108.908 50.4364C108.756 50.4648 108.603 50.4915 108.45 50.5163C108.298 50.5376 108.159 50.5572 108.035 50.5749C107.769 50.614 107.536 50.6761 107.337 50.7614C107.138 50.8466 106.984 50.962 106.874 51.1076C106.764 51.2496 106.709 51.4272 106.709 51.6403C106.709 51.9492 106.82 52.1854 107.044 52.3487C107.271 52.5085 107.559 52.5884 107.907 52.5884ZM120.433 48.1513L118.355 48.2791C118.32 48.1016 118.244 47.9418 118.126 47.7997C118.009 47.6541 117.855 47.5387 117.663 47.4535C117.475 47.3647 117.249 47.3203 116.986 47.3203C116.635 47.3203 116.338 47.3949 116.097 47.544C115.855 47.6896 115.735 47.8849 115.735 48.13C115.735 48.3253 115.813 48.4904 115.969 48.6254C116.125 48.7603 116.393 48.8686 116.773 48.9503L118.254 49.2486C119.05 49.4119 119.643 49.6747 120.033 50.0369C120.424 50.3991 120.619 50.875 120.619 51.4645C120.619 52.0007 120.461 52.4712 120.145 52.8761C119.833 53.2809 119.403 53.5969 118.856 53.8242C118.313 54.0479 117.686 54.1598 116.976 54.1598C115.893 54.1598 115.03 53.9343 114.387 53.4833C113.748 53.0288 113.373 52.4109 113.263 51.6296L115.495 51.5124C115.562 51.8427 115.726 52.0948 115.985 52.2688C116.244 52.4393 116.576 52.5245 116.981 52.5245C117.379 52.5245 117.698 52.4482 117.94 52.2955C118.185 52.1392 118.309 51.9386 118.313 51.6935C118.309 51.4876 118.222 51.3189 118.052 51.1875C117.881 51.0526 117.619 50.9496 117.263 50.8786L115.847 50.5962C115.047 50.4364 114.453 50.1594 114.062 49.7653C113.675 49.3711 113.481 48.8686 113.481 48.2578C113.481 47.7322 113.623 47.2795 113.908 46.8995C114.195 46.5195 114.598 46.2266 115.117 46.0206C115.639 45.8146 116.25 45.7116 116.949 45.7116C117.983 45.7116 118.796 45.93 119.389 46.3668C119.985 46.8036 120.333 47.3984 120.433 48.1513ZM128.856 48.1513L126.778 48.2791C126.743 48.1016 126.666 47.9418 126.549 47.7997C126.432 47.6541 126.278 47.5387 126.086 47.4535C125.898 47.3647 125.672 47.3203 125.409 47.3203C125.058 47.3203 124.761 47.3949 124.52 47.544C124.278 47.6896 124.157 47.8849 124.157 48.13C124.157 48.3253 124.236 48.4904 124.392 48.6254C124.548 48.7603 124.816 48.8686 125.196 48.9503L126.677 49.2486C127.472 49.4119 128.066 49.6747 128.456 50.0369C128.847 50.3991 129.042 50.875 129.042 51.4645C129.042 52.0007 128.884 52.4712 128.568 52.8761C128.256 53.2809 127.826 53.5969 127.279 53.8242C126.736 54.0479 126.109 54.1598 125.399 54.1598C124.316 54.1598 123.453 53.9343 122.81 53.4833C122.171 53.0288 121.796 52.4109 121.686 51.6296L123.918 51.5124C123.985 51.8427 124.149 52.0948 124.408 52.2688C124.667 52.4393 124.999 52.5245 125.404 52.5245C125.802 52.5245 126.121 52.4482 126.363 52.2955C126.608 52.1392 126.732 51.9386 126.736 51.6935C126.732 51.4876 126.645 51.3189 126.475 51.1875C126.304 51.0526 126.041 50.9496 125.686 50.8786L124.269 50.5962C123.47 50.4364 122.876 50.1594 122.485 49.7653C122.098 49.3711 121.904 48.8686 121.904 48.2578C121.904 47.7322 122.046 47.2795 122.33 46.8995C122.618 46.5195 123.021 46.2266 123.54 46.0206C124.062 45.8146 124.672 45.7116 125.372 45.7116C126.405 45.7116 127.219 45.93 127.812 46.3668C128.408 46.8036 128.756 47.3984 128.856 48.1513Z" fill="#747474"/>
</svg>
