<?xml version="1.0" encoding="utf-8"?>
<!-- Generator: Adobe Illustrator 27.6.1, SVG Export Plug-In . SVG Version: 6.00 Build 0)  -->
<svg version="1.1" id="Layer_1" xmlns="http://www.w3.org/2000/svg" xmlns:xlink="http://www.w3.org/1999/xlink" x="0px" y="0px"
	 viewBox="0 0 1080 1080" style="enable-background:new 0 0 1080 1080;" xml:space="preserve">
<style type="text/css">
	.st0{fill:#747474;}
</style>
<g>
	<path class="st0" d="M253.05,403.03c-1.01,0.26-2,0.68-3.03,0.76c-2.37,0.19-4.76,0.21-7.16,0.86c6.09,0.73,12.19,1.4,18.26,2.22
		c8.33,1.12,16.27,3.21,22.96,8.72c3.91,3.22,6.88,7.17,9.3,11.47c4.69,8.32,8.97,16.89,10.96,26.31
		c1.18,5.57,2.01,11.22,2.64,16.88c0.55,4.89,0.77,9.83,0.83,14.75c0.1,7.48-1.09,14.82-2.45,22.19
		c-4.91,26.7-15.19,51.41-28.04,75.11c-10.64,19.63-22.8,38.34-36.28,56.18c-9.52,12.6-19.02,25.21-28.69,37.69
		c-3.61,4.66-7.63,9.02-11.6,13.4c-4.83,5.33-9.76,10.57-14.72,15.79c-1.18,1.24-2.65,2.21-3.86,3.2c-1.83-0.55-2.25-1.73-2.32-3.04
		c-0.69-12.94-4.59-25.25-7.85-37.65c-4.72-17.94-9.68-35.82-16.15-53.25c-6.48-17.46-13.48-34.69-23.52-50.51
		c-8.05-12.68-18.02-23.59-30.83-31.68c-6.24-3.94-12.86-6.97-20.3-8.14c-6.44-1.01-12.73-0.65-19.03,0.73
		c-4.98,1.09-9.96,2.2-14.96,3.23c-0.73,0.15-1.54-0.08-2.13-0.13c-1.69-1.78-1.07-3.42-0.34-5.07c2.86-6.54,5.28-13.32,8.69-19.57
		c4.49-8.23,9.43-16.28,14.77-23.99c8.12-11.72,17.87-22.04,28.78-31.33c7.45-6.34,14.97-12.54,23.55-17.26
		c13.56-7.45,26.98-15.26,41.98-19.73c8.42-2.5,16.93-4.55,25.69-5.5c1.88-0.21,3.73-0.66,5.95-1.06c-1.46-0.63-2.59-1.12-3.72-1.61
		C211.3,403.03,232.17,403.03,253.05,403.03z"/>
	<path class="st0" d="M35.3,571.53c0.3,0.65,0.9,1.33,0.84,1.95c-0.25,2.86,0.98,5.88-0.84,8.58
		C35.3,578.55,35.3,575.04,35.3,571.53z"/>
	<path class="st0" d="M871.14,508.21c2.35-0.2,5.19-0.64,8.03-0.65c26.65-0.04,53.3-0.01,79.95-0.01c3.52,0,7.07,0.2,10.53-1.56
		c3.39-2.9,1.93-6.91,2.17-10.43c-1.91-3.31-4.99-4.08-8.23-4.47c-1.11-0.13-2.24-0.03-3.37-0.03c-18.78,0-37.57-0.05-56.35,0.02
		c-7.86,0.03-15.72-0.38-23.38-1.99c-10.18-2.14-19.06-6.6-23.94-16.49c-1.99-4.03-3.17-8.29-3.3-12.81c-0.13-4.93-0.36-9.85,1-14.7
		c2.8-9.97,8.8-17.06,18.46-21.18c6.7-2.86,13.65-4.41,20.9-4.68c8.48-0.32,16.96-0.75,25.45-0.79c25.85-0.1,51.69-0.04,77.54-0.04
		c1.9,0,3.81,0,6.03,0c-7.89,10.42-15.49,20.44-23.14,30.54c-2.02,0-3.76,0-5.51,0c-25.36,0-50.73,0-76.09,0
		c-1.28,0-2.57-0.06-3.85,0.03c-3.83,0.27-6.53,2.8-7,6.62c-0.16,1.26-0.11,2.55-0.08,3.82c0.11,5.5,2.96,8.47,8.58,8.74
		c3.04,0.15,6.1,0.03,9.15,0.03c17.98,0,35.96,0.01,53.94,0c8.19,0,16.26,1.05,24.22,2.89c4.55,1.05,8.84,2.77,12.54,5.72
		c4.9,3.91,8.3,8.79,9.62,14.97c2.72,12.65,0.21,23.98-9.07,33.34c-4.85,4.89-11.16,7.44-17.76,8.95c-4.8,1.09-9.78,1.37-14.67,2.12
		c-10.05,1.53-20.17,0.77-30.26,0.81c-26.17,0.11-52.33,0.04-78.5,0.03c-1.7,0-3.41-0.04-5.77-0.08
		C856.53,527.12,863.62,517.94,871.14,508.21z"/>
	<path class="st0" d="M370.71,484.43c3.48,1.71,5.71,4.09,7.33,7.11c9.15,17.04,15.95,34.89,19.73,53.91
		c2.28,11.48,3.45,23.01,2.51,34.61c-0.74,9.15-2.12,18.28-3.91,27.29c-2.35,11.81-5.46,23.45-10.05,34.67
		c-4.37,10.7-10.6,20.28-16.97,29.84c-8.82,13.22-20.86,23.29-32.94,33.26c-11.48,9.48-23.92,17.6-37.43,24.04
		c-10.26,4.89-20.85,8.82-31.93,11.41c-2.17,0.51-4.39,0.98-6.6,1.08c-1.48,0.07-2.99-0.55-5.25-1.03c1.47-1.95,2.43-3.36,3.52-4.66
		c5.06-5.97,10.14-11.92,15.25-17.85c8.56-9.94,16.05-20.67,23.32-31.54c7.61-11.4,15.13-22.86,22.38-34.49
		c6.74-10.82,12.69-22.06,17.52-33.89c4.87-11.91,10.29-23.61,15.22-35.5c5.42-13.07,9.9-26.47,12.96-40.28
		c1.23-5.56,1.7-11.28,2.44-16.94c0.9-6.92,1.84-13.84,2.53-20.78c0.38-3.8,0.3-7.64,0.37-11.47
		C370.75,490.4,370.71,487.56,370.71,484.43z"/>
	<path class="st0" d="M725.09,468.29c0,23.5,0,45.92,0,68.53c-10.59,0-20.82,0-31.33,0c-0.68-1.96-1.19-4.07-1.12-6.29
		c0.12-4.45,0.38-8.89,0.42-13.34c0.02-2.21-0.42-4.42-0.43-6.63c-0.04-22.33-0.11-44.65,0.05-66.98c0.03-4.07,0.56-8.29,1.73-12.17
		c2.12-6.99,7.15-11.09,14.53-12.18c1.1-0.16,2.18-0.47,2.56-0.55c9.09,0.42,15.29,5.04,21.19,10.37
		c13.16,11.89,26.39,23.72,39.63,35.53c7.51,6.7,15.1,13.32,22.67,19.95c0.81,0.71,1.73,1.3,2.97,2.22c0.87-4.8,0.35-9.2,0.44-13.57
		c0.1-4.62,0.02-9.25,0.02-13.87c0-4.47,0-8.93,0-13.4c0-4.62,0-9.25,0-13.87c0-4.43,0-8.86,0-13.45c10.62,0,20.85,0,31.14,0
		c1.67,1.42,1.36,3.41,1.36,5.27c0.02,7.34-0.01,14.67-0.01,22.01c0.01,22.49,0.02,44.97,0.04,67.46c0.01,4.84-0.85,9.47-3.06,13.81
		c-2.4,4.7-6.35,7.45-11.36,8.84c-5.91,1.65-11.34,0.3-16.51-2.62c-5.93-3.34-10.58-8.24-15.59-12.68
		c-11.24-9.97-22.3-20.13-33.51-30.14c-7.51-6.7-15.14-13.28-22.72-19.89C727.5,470.03,726.72,469.52,725.09,468.29z"/>
	<path class="st0" d="M419.43,418.65c14.74,0,28.82,0,43.1,0c3.95,5.81,7.97,11.73,12.01,17.66c12.74,18.71,25.49,37.43,38.25,56.13
		c0.86,1.26,1.88,2.41,3.15,4.02c18.3-25.83,36.24-51.14,54.62-77.07c1.05-0.24,2.72-0.93,4.39-0.94
		c11.88-0.09,23.76-0.04,35.64-0.01c0.46,0,0.93,0.15,1.62,0.27c-0.42,0.79-0.71,1.51-1.14,2.12
		c-10.75,15.05-21.54,30.07-32.27,45.14c-13.23,18.58-26.39,37.2-39.6,55.79c-2.88,4.05-6.12,7.71-10.37,10.5
		c-3.84,2.53-8.03,4.24-12.47,4.51c-5.51,0.34-10.68-1.47-15.36-4.51c-4.27-2.78-7.21-6.78-10.05-10.82
		c-8.98-12.79-17.81-25.69-26.73-38.52c-13.74-19.77-27.5-39.53-41.25-59.29C421.92,422.12,420.84,420.63,419.43,418.65z"/>
	<path class="st0" d="M87.43,716.55c3.13-1.34,4.85,0.64,6.7,2.05c6.37,4.82,12.76,9.6,19.68,13.63
		c11.91,6.93,24.5,12.35,37.72,16.22c9.17,2.68,18.38,5.3,27.7,7.39c7.14,1.6,14.49,2.27,21.73,3.44c7.97,1.29,15.99,0.87,24,0.9
		c10.12,0.04,20.1-1.4,30.01-3.14c10.52-1.85,20.85-4.59,30.9-8.27c14.59-5.35,28.63-11.78,41.91-19.91
		c13.48-8.26,25.5-18.21,36.2-29.75c9.67-10.43,18.98-21.11,26.4-33.35c9.67-15.94,16.37-33.01,20.66-51.05
		c2.62-11,4.17-22.16,4.02-33.51c-0.06-4.79-0.01-9.57,0.05-14.36c0.09-7.18-0.71-14.26-2.03-21.32
		c-1.68-9.03-3.04-18.13-5.84-26.91c-3.97-12.44-9.06-24.35-16.05-35.5c-4.24-6.78-8.72-13.32-13.87-19.43
		c-0.79-0.94-1.28-2.14-1.94-3.3c1.35-1.28,2.5-0.92,3.46,0.02c1.82,1.8,3.69,3.58,5.26,5.58c6.9,8.79,13.6,17.73,19.13,27.45
		c9.23,16.25,16.34,33.3,20.48,51.61c2.76,12.2,3.88,24.46,3.81,36.89c-0.04,6.7,0.04,13.41-0.25,20.1c-0.36,8.1-2.18,16-4.02,23.88
		c-3.41,14.59-8.52,28.6-14.78,42.17c-4.75,10.29-11.02,19.75-18.04,28.69c-5.24,6.67-10.81,13.03-16.89,18.96
		c-12.64,12.36-26.57,22.96-42.24,31.3c-17.26,9.19-35.25,16.51-54.25,21.25c-6.97,1.74-14.06,2.77-21.23,3.49
		c-15.38,1.56-30.78,0.79-46.16,0.54c-15.29-0.25-29.99-3.95-44.36-8.98c-19.12-6.7-37.02-15.8-53.81-27.06
		c-6.25-4.19-12.3-8.63-17.56-14.06C91.99,720.2,89.71,718.52,87.43,716.55z"/>
	<path class="st0" d="M38.26,563.43c1.8,0.65,3,0.97,4.1,1.5c8.41,4.01,15.25,10.02,21,17.15c7.11,8.83,13.03,18.47,18.92,28.15
		c10,16.45,16.19,34.46,22.33,52.49c5.78,16.96,11.4,33.97,17.07,50.97c0.45,1.35,0.98,2.73,1.08,4.12
		c0.06,0.93-0.59,1.91-0.97,3.01c-4.96-1.56-8.63-4.41-12.28-7.19c-11.51-8.77-21.45-19.1-30.71-30.17
		c-8.76-10.47-15.93-21.92-21.97-34.06c-5.67-11.39-10.35-23.21-13.21-35.64c-2.56-11.13-4.96-22.31-4.52-33.87
		c0.11-2.97-0.62-5.97-0.82-8.97C38.15,568.75,38.26,566.55,38.26,563.43z"/>
	<path class="st0" d="M662.97,536.97c-11.28,0-22.36,0-33.38,0c-0.17-0.16-0.3-0.25-0.4-0.37c-0.1-0.11-0.24-0.25-0.24-0.38
		c-0.01-39.07-0.01-78.14-0.01-117.2c3.46-0.75,27.78-0.97,34.51-0.31c1.3,1.34,0.77,2.99,0.7,4.54c-0.1,2.37-0.48,4.74-0.48,7.12
		c0.05,22.81,0.2,45.62,0.24,68.42c0.02,7.64-0.23,15.28-0.23,22.91c0,3.01,0.37,6.01,0.51,9.02
		C664.29,532.76,664.49,534.86,662.97,536.97z"/>
	<path class="st0" d="M886.97,759.2c5.35,0,10.14,0,15.09,0c0.66,1.35,1.26,2.57,2.25,4.59c4.77-15.61,9.3-30.46,13.87-45.4
		c3.38-2.28,7.06-1.08,10.99-1.14c4.9,16.31,9.77,32.52,14.72,49c-3.56,0.96-6.99,0.44-10.32,0.38c-2.96-3.2-1.22-7.67-3.7-11.1
		c-4.42,0-9.02,0-14.07,0c-0.89,3.55-1.8,7.17-2.75,10.98c-12.52,0-24.81,0-37.33,0c0-16.39,0-32.73,0-49.25c3.67,0,7.16,0,10.95,0
		c0.61,4.51,0.2,9.1,0.27,13.66c0.07,4.63,0.02,9.25,0.02,13.88C886.97,749.42,886.97,754.03,886.97,759.2z M923.82,729.91
		c-0.35-0.01-0.69-0.01-1.04-0.02c-2.13,5.66-3.95,11.4-4.82,17.62c3.7,0.6,6.95,0.39,10.37-0.21
		C926.79,741.34,925.3,735.63,923.82,729.91z"/>
	<path class="st0" d="M601.27,717.7c0.87-0.25,1.47-0.55,2.06-0.56c4.47-0.04,8.94-0.02,13.63-0.02c0,16.61,0,32.95,0,49.48
		c-2.98,0-5.82,0-8.71,0c-1.3-1.8-1.39-3.83-1.39-5.91c-0.01-7.4,0.55-14.79,0.02-22.2c-0.18-2.49,0.52-5.04,0.63-7.57
		c0.04-0.98-0.44-1.98-0.87-3.7c-3.57,8.35-4.57,16.51-6.75,24.34c-0.98,3.51-1.82,7.05-2.82,10.55c-0.43,1.48-1.12,2.89-1.73,4.43
		c-2.04,0-3.76,0-5.44,0c-1.71-1.06-2.05-2.75-2.54-4.46c-2.71-9.45-4.7-19.07-6.67-28.69c-0.39-1.92-1.05-3.78-1.97-5.6
		c-1.84,4.21,0.25,8.33-0.05,12.47c-0.31,4.29-0.12,8.61-0.14,12.91c-0.01,4.3,0,8.61,0,13.15c-2.61,0.87-5.28,0.34-8.36,0.37
		c-0.33-1.57-0.9-3.06-0.91-4.56c-0.05-14.04-0.01-28.07,0.03-42.11c0-0.77,0.2-1.53,0.37-2.73c5.18-0.37,10.22-0.21,15.53-0.1
		c2.72,11.5,4.09,23.12,8.18,34.99C596.15,740.05,598.71,728.88,601.27,717.7z"/>
	<path class="st0" d="M628.33,613.04c0,12.82,0,25.64,0,38.66c-2.51,0-5.03,0-8.03,0c-0.31-1.22-0.93-2.55-0.94-3.88
		c-0.04-14.67,0.02-29.35,0.08-44.02c0-0.29,0.24-0.58,0.52-1.23c2.25-0.77,4.81-0.26,7.31-0.35c2.55-0.09,5.11-0.02,8-0.02
		c2.66,11.53,4.18,23.11,8.17,35.22c2.81-12.26,5.35-23.38,7.9-34.51c2.65-1.25,5.25-0.58,7.75-0.69c2.55-0.11,5.11-0.02,7.61-0.02
		c0.72,3.77,0.91,42.51,0.24,49.69c-1.34,0-2.74,0-4.14,0c-1.44,0-2.88,0-4.35,0c-1.34-1.91-1.56-3.91-1.5-5.99
		c0.12-4.42,0.23-8.85,0.31-13.27c0.03-1.55-0.09-3.11-0.05-4.67c0.06-2.84,0.23-5.67,0.25-8.51c0.01-2.12,0.91-4.39-0.97-6.65
		c-2.84,6.64-3.87,13.45-5.57,20.07c-1.22,4.76-2.44,9.52-3.74,14.25c-0.41,1.49-1.1,2.9-1.71,4.49c-2,0-3.72,0-5.49,0
		c-1.67-0.95-2.1-2.61-2.5-4.35c-2.2-9.57-4.43-19.13-6.68-28.69c-0.45-1.92-1.04-3.82-1.56-5.72
		C628.94,612.92,628.63,612.98,628.33,613.04z"/>
	<path class="st0" d="M840.21,651.79c-2.42,0-4.16,0-6.43,0c-0.79-2.09-1.78-4.22-2.38-6.45c-0.87-3.21-1.46-6.49-2.16-9.74
		c-1.57-7.23-3.13-14.46-4.74-21.91c-1.61,0.58-1.74,2.08-1.82,3.38c-0.16,2.54-0.14,5.1-0.14,7.65c0,7.5,0.03,15,0.02,22.49
		c0,1.4-0.16,2.8-0.25,4.43c-2.77,0-5.29,0-7.85,0c-0.83-3.37-1.13-37.53-0.39-49.2c5.17-0.44,10.38-0.29,15.81-0.06
		c2.48,11.42,4.92,22.66,7.43,34.22c2.32-3.4,2.62-7.1,3.42-10.61c1.49-6.49,2.78-13.01,4.24-19.5c0.31-1.35,1.03-2.61,1.62-4.04
		c4.93,0,9.68,0,14.68,0c0.18,1.27,0.46,2.33,0.47,3.39c0.03,10.53,0.14,21.06-0.06,31.59c-0.06,3.32-0.36,6.61,0.07,9.93
		c0.16,1.22-0.11,2.48-0.19,3.87c-2.97,1.19-5.83,0.49-8.58,0.62c-1.71-1.8-1.49-3.92-1.43-5.95c0.25-9.02,0.55-18.04,0.8-27.06
		c0.06-2.21,0.01-4.43-0.75-6.78c-2,6.64-4.12,13.25-5.98,19.93c-1.45,5.18-2.55,10.46-3.87,15.68
		C841.39,649,840.78,650.27,840.21,651.79z"/>
	<path class="st0" d="M673.18,766.3c0-16.39,0-32.6,0-49.2c8.23,0.4,16.69-0.96,24.81,0.88c5.71,1.29,9.13,6.17,8.93,11.9
		c-0.07,1.93-0.45,3.57-1.61,5.15c-1.29,1.76-2.84,3.09-4.42,4.57c2.79,2.64,6.28,5.1,6.91,9.13c0.31,1.98,0.25,4.16,0.09,6.15
		c-0.12,1.5-0.41,3.01-0.98,4.41c-2.93,7.13-12.01,7.44-18.59,7.49c-2.69,0.02-5.39,0-8.08-0.03
		C677.9,766.74,675.4,767.03,673.18,766.3z M694.55,759.11c3.27-3.77,3.04-7.71,2.49-11.94c-0.96-1.06-2.02-2.22-3.06-3.36
		c-3.47,0.21-6.81-0.53-10.31,0.6c0.69,4.95-0.47,9.86,0.84,14.7C688.18,759.11,691.36,759.11,694.55,759.11z M692.74,736.09
		c4.46-3.05,4.78-5.86,1.06-11.4c-2.97,0.11-6.13-0.41-9.44,0.43c-0.92,3.67-0.89,7.19,0.06,10.97
		C687.31,736.09,690,736.09,692.74,736.09z"/>
	<path class="st0" d="M911.86,627.92c2.86,2.42,5.36,4.57,7.93,6.65c0.26,0.21,0.89-0.05,1.48-0.1c0.81-3.63,0.7-7.82,5.87-9.43
		c1.13,0.72,2.5,1.6,3.78,2.42c-0.52,6.07-5.31,10.24-5.58,16.11c2.83,1.02,6.23,0.92,6.73,4.67c-2,3.67-3.09,4.26-6.67,3.04
		c-2.69-0.91-5.27-2.14-8-3.26c-2.92,1.06-5.77,2.07-8.6,3.12c-6.22,2.29-15.41-0.67-18.7-6.12c-3.07-5.09-3.4-11.49,1.97-15.96
		c2.19-1.82,4.44-3.57,6.95-5.59c-0.8-1.7-1.53-3.24-2.26-4.79c-3.1-6.57-2.13-10.04,3.92-14.16c7.23-4.93,15.91-1.77,19.08,5.05
		c1.44,3.1,1.55,6.22-0.19,9.15c-1.21,2.03-2.82,3.84-4.34,5.68C914.25,625.58,913.1,626.63,911.86,627.92z M910.81,644.26
		c0.74-0.98,1.47-1.93,2.17-2.85c-3-4.62-5.94-8.88-10.25-12.46c-1.48,1.8-2.87,3.49-4.14,5.03c0,2.51,0,4.7,0,7.51
		c0.86,0.89,1.95,2,2.69,2.76C904.79,644.26,907.48,644.26,910.81,644.26z M909.04,620.61c4.37-3.96,5.02-6.92,2.37-10.71
		c-1.58,0-3.29,0-4.86,0C902.92,614.08,903.71,617.52,909.04,620.61z"/>
	<path class="st0" d="M701.41,602.45c3.92,0,7.58,0,11.5,0c2.13,5.58,4.18,11.06,6.32,16.5c2.04,5.19,3.26,10.73,6.78,16.43
		c0.71-11.61-0.3-22.24,0.6-32.98c2.85,0,5.21,0,7.56,0c0.98,3.77,1.11,42.36,0.15,48.77c-2.64,1.38-5.55,0.44-8.73,0.74
		c-1.66-4.21-3.34-8.44-5.01-12.67c-1.69-4.28-3.15-8.68-5.15-12.82c-1.95-4.06-1.8-8.99-5.58-13.34c0,13.36,0,25.77,0,38.38
		c-2.75,0.71-5.24,0.46-8.06,0.23c-0.28-1.05-0.77-2.08-0.78-3.1c-0.04-15-0.02-29.99,0-44.99
		C701.02,603.32,701.21,603.02,701.41,602.45z"/>
	<path class="st0" d="M864.06,733.03c-2.8,1.41-4.88,3.28-8.16,2.88c-0.47-1.46-1.06-2.91-1.4-4.41c-1.36-5.93-2.77-7.05-8.88-6.84
		c-0.47,0.02-0.94,0.16-1.35,0.23c-3.67,3-4.84,7.21-5.19,11.46c-0.42,5.04-0.74,10.17,0.69,15.18c0.85,2.96,2,5.71,4.83,7.68
		c1.91,0,3.98,0,5.99,0c3.95-2.48,4.75-6.14,4.81-10.49c-2.86-0.91-5.38-1.72-7.72-2.46c-1.45-3.41-1.17-4.48,1.35-5.53
		c0.72-0.3,1.53-0.55,2.3-0.56c4.16-0.05,8.32-0.03,12.52-0.03c1.63,2.82,0.79,5.73,0.88,8.52c0.09,3.03-0.02,6.06-0.04,9.09
		c-0.02,2.82-0.03,5.65-0.04,8.7c-1.53,0-2.54,0-3.66,0c-0.58-1.52-1.08-2.83-1.57-4.12c-1.54-0.86-2.73-0.35-3.86,0.79
		c-4.77,4.8-10.07,4.47-15.84,1.9c-6.49-2.88-9.69-8.22-11.18-14.6c-1.73-7.41-1.16-14.81,1.81-21.93
		c3.51-8.41,15.29-15.8,26.83-8.27C861.65,723.16,863.53,727.52,864.06,733.03z"/>
	<path class="st0" d="M543.78,717.12c4.27,0.55,8.82,3.14,11.91,8c2.51,3.96,3.4,8.4,3.96,13.04c0.64,5.31-0.1,10.4-1.35,15.45
		c-2.25,9.05-12.56,16.44-24.19,11.65c-6.03-2.48-8.65-7.34-10.17-12.96c-1.94-7.19-1.4-14.52,0.41-21.65
		C526.58,721.87,533.6,717.24,543.78,717.12z M544.32,759.16c2.48-1.79,3.19-3.88,3.69-6.34c1.27-6.14,0.96-12.33,0.63-18.47
		c-0.19-3.51-0.6-7.38-4.44-9.61c-1.31,0-2.74,0-4.08,0c-4.57,1.75-5.51,5.61-5.53,9.67c-0.02,5.52,0.44,11.05,0.59,16.58
		c0.1,3.63,1.55,6.39,4.79,8.16C541.43,759.16,542.86,759.16,544.32,759.16z"/>
	<path class="st0" d="M642.86,766.77c-5-0.36-10.27-3.02-13.43-9.13c-1.54-2.99-2.17-6.19-2.72-9.51c-0.8-4.8-0.15-9.47,0.22-14.18
		c0.71-9.02,6.66-15.57,15.57-16.64c6.45-0.78,12.08,1.43,15.8,6.95c2.59,3.85,4.03,8.21,4.33,12.92c0.38,6.02,0.51,12.01-1.4,17.82
		C658.8,762.41,652.46,766.83,642.86,766.77z M648.01,758.94c5.46-7.67,5.27-27.58-0.31-34.17c-0.5-0.05-1.13-0.17-1.76-0.16
		c-5.02,0.1-6.91,1.69-7.61,6.64c-0.38,2.66-0.75,5.36-0.72,8.04c0.04,5.07,0.36,10.14,0.53,14.34
		C640.11,758.88,643.43,759.91,648.01,758.94z"/>
	<path class="st0" d="M573.75,602.42c3.29,0,6.29,0,9.66,0c0.51,6.5,0.08,12.84,0.3,19.16c0.21,6.19,0.58,12.38,0.91,19.03
		c0.63,0.96,1.5,2.27,2.46,3.72c2.13,0,4.22,0.14,6.28-0.03c2.7-0.23,4.39-1.89,4.62-4.6c0.22-2.53,0.17-5.09,0.17-7.64
		c0.02-9.72,0.01-19.44,0.01-29.44c2.87-0.57,5.77-0.69,8.87,0.15c1.01,4.69,0.33,9.3,0.47,13.87c0.14,4.46,0.06,8.92,0.02,13.38
		c-0.04,4.59,0.49,9.24-1.27,13.68c0.24,0.23,0.49,0.46,0.73,0.7c-1.3,0.95-2.74,1.76-3.88,2.87c-6.4,6.23-17.16,5.84-23.15,1.88
		c-3.55-2.35-5.6-5.49-6.11-9.74c-1.4-11.75-0.38-23.54-0.69-35.3C573.15,603.65,573.46,603.21,573.75,602.42z"/>
	<path class="st0" d="M445.94,717.28c3.74,0,6.75,0,10.05,0c0.16,1.08,0.39,2.13,0.44,3.19c0.08,1.75,0.01,3.5,0.06,5.25
		c0.25,9.85,0.52,19.7,0.79,29.53c0.83,1.26,1.61,2.45,2.61,3.96c1.95,0,4.01,0.13,6.06-0.03c3.02-0.23,4.63-1.81,4.87-4.84
		c0.2-2.53,0.18-5.09,0.17-7.64c-0.02-8.44-0.09-16.88-0.13-25.32c-0.01-1.25,0-2.51,0-4.08c1.6-0.08,2.99-0.16,4.38-0.2
		c1.26-0.03,2.52-0.01,4.21-0.01c0.33,1.94,0.83,3.59,0.85,5.25c0.08,9.71,0.1,19.43,0.02,29.14c-0.07,8.55-6.91,15.19-15.58,15.28
		c-2.87,0.03-5.77,0.21-8.51-0.97c-5.53-2.37-9.04-6.07-9.67-12.42c-0.62-6.36-0.66-12.63-0.15-18.99c0.33-4.08-0.3-8.23-0.46-12.36
		C445.9,720.64,445.94,719.24,445.94,717.28z"/>
	<path class="st0" d="M767.59,602.43c3.64,0,6.93,0,10.61,0c0,1.43,0,2.66,0,3.88c0,6.85-0.1,13.7,0.04,20.54
		c0.08,3.96,0.49,7.91,0.85,11.85c0.17,1.85,0.67,2.56,3.12,5.48c2.52,0,5.21,0,8.49,0c0.57-1.12,1.64-2.4,1.86-3.81
		c0.52-3.44,0.83-6.94,0.88-10.42c0.12-8.12,0.03-16.24,0.03-24.36c0-0.94,0-1.87,0-2.98c2.88-0.71,5.54-0.32,8.53-0.33
		c0.06,1.39,0.17,2.61,0.17,3.84c0.01,9.24,0.03,18.47-0.01,27.71c-0.01,1.89-0.11,3.83-0.5,5.67c-1.64,7.64-6.44,11.82-14.31,12.32
		c-2.34,0.15-4.76-0.21-7.08-0.68c-8.72-1.75-10.28-5.06-11.67-12.91c-0.74-4.19-0.88-8.51-0.96-12.78
		C767.49,617.84,767.59,610.22,767.59,602.43z"/>
	<path class="st0" d="M501.56,651.65c-3.62,0-6.45,0-9.69,0c0.47-1.66,0.81-2.99,1.21-4.3c3.88-12.55,7.73-25.12,11.7-37.64
		c0.8-2.52,1.16-5.35,3.83-7.31c2.58,0,5.44,0,8.19,0c2.19,1.48,2.34,3.87,2.97,5.93c3.21,10.44,6.27,20.92,9.42,31.37
		c0.96,3.17,2.1,6.29,3.07,9.46c0.22,0.71,0.1,1.52,0.15,2.51c-3.7,0-7.18,0-11.04,0c-0.8-3.56-1.63-7.31-2.47-11.07
		c-5.05,0-9.65,0-14.48,0C503.45,644.33,502.52,647.94,501.56,651.65z M515.76,632.62c0.22-0.7,0.55-1.18,0.46-1.57
		c-1.2-5.65-2.46-11.28-3.83-17.53c-3.37,6.18-4.82,12.45-5.98,19.1C509.84,632.62,512.81,632.62,515.76,632.62z"/>
	<path class="st0" d="M415.78,717.32c3.29,0,6.44,0,9.52,0c2.22,2.53,2.67,5.58,3.54,8.42c2.61,8.46,5.12,16.96,7.65,25.45
		c1.48,4.98,2.93,9.97,4.46,15.17c-3.57,0.69-7,0.56-10.26,0.11c-3.2-3.09-1.2-7.67-3.86-10.95c-4.5,0-9.09,0-14.07,0
		c-0.92,3.63-1.84,7.25-2.79,11.02c-3.41,0-6.57,0-9.74,0C405.39,750.17,410.56,733.83,415.78,717.32z M424.41,747.51
		c0.79-3.63-0.77-6.51-1.6-9.52c-0.84-3.06-0.83-6.38-2.94-9.98c-1.88,6.91-3.54,13.04-5.3,19.5
		C418.09,747.51,421.07,747.51,424.41,747.51z"/>
	<path class="st0" d="M1013.21,752.79c-0.96-2.53-2.78-3.83-4.84-4.77c-2.46-1.12-5.04-1.99-7.51-3.1
		c-2.02-0.91-4.13-1.79-5.89-3.09c-5.95-4.37-6.48-12.8-2.01-18.61c7.8-10.14,25.08-6.73,28.88,4.33c-1.48,3.57-5.08,2.88-8.39,3.89
		c-1.25-2.25-2.44-4.41-3.69-6.65c-2.16,0-4.23,0-6.8,0c-1.01,1.39-2.18,3.01-3.16,4.36c0.72,2.84,2.22,4.41,4.34,5.42
		c2.01,0.95,4.1,1.76,6.09,2.75c2.7,1.34,5.56,2.5,7.98,4.25c8,5.78,5.76,18.61-2.87,22.63c-9.98,4.64-16.15,3.39-24.46-4.05
		c-0.99-0.89-1.61-2.34-2.03-3.64c-0.24-0.75,0.26-1.74,0.44-2.69c2.34-0.53,4.48-1.01,6.6-1.49c2.12,2.43,4.09,4.68,5.98,6.85
		c2.55,0,4.77,0,6.71,0C1011.25,757.67,1012.64,755.64,1013.21,752.79z"/>
	<path class="st0" d="M946.45,754.81c3.71-1.05,6.42-1.82,9.19-2.6c1.79,2.48,3.36,4.64,5.13,7.09c1.74,0,3.48,0.08,5.22-0.02
		c4.23-0.23,5.93-2.08,5.95-6.36c0-0.62-0.15-1.25-0.22-1.8c-2.19-2.96-5.59-3.76-8.55-5.24c-1.42-0.71-2.97-1.15-4.44-1.75
		c-6.23-2.55-9.56-7.78-9.03-14.14c0.44-5.32,5.14-10.53,10.82-12c9.35-2.43,17.37,1.39,20.69,10.08c-2.28,1.23-4.6,2.48-6.97,3.76
		c-2.07-2.64-3.89-4.96-5.58-7.11c-2.25,0-4,0-5.64,0c-2.89,3.11-2.89,3.11-2.61,8.26c2.19,1.02,4.61,2.16,7.03,3.29
		c2.6,1.21,5.33,2.2,7.79,3.64c4.51,2.63,7.49,6.2,7.22,11.93c-0.26,5.65-2.72,9.43-7.69,12.2c-7.58,4.23-14.76,3.73-21.49-1.29
		C950.71,760.79,948.94,757.76,946.45,754.81z"/>
	<path class="st0" d="M785.5,735.85c4.8,0.39,9.08,0.69,13.35,1.12c0.72,0.07,1.39,0.69,2.25,1.16c0,1.25,0,2.47,0,3.77
		c-4.69,3.53-10.13,0.99-15,2.22c-2.48,2.17-0.18,4.8-0.6,7.21c-0.41,2.37-0.09,4.87-0.09,7.45c6.57,1.31,13.08-0.63,18.95,1.17
		c1.68,2.05,1.79,3.79-0.09,5.99c-0.6,0.17-1.81,0.77-3.02,0.79c-8.48,0.08-16.96,0.04-25.57,0.04c-1.04-3.56-1.68-6.89-0.72-10.42
		c0.32-1.19,0.1-2.54,0.1-3.81c0-10.36-0.01-20.72-0.02-31.08c0-1.26,0-2.52,0-3.72c4.65-0.96,25.69-0.84,29.59,0.18
		c0.36,0.83,0.8,1.82,1.27,2.91c-0.42,1.03-0.83,2.05-1.36,3.36c-6.11,1.11-12.39,0-18.81,0.71
		C784.42,728.5,784.96,732.02,785.5,735.85z"/>
	<path class="st0" d="M752.08,759.24c5.35,0,10.13,0,14.77,0c1.98,3.79,1.98,3.79,0.47,7.37c-8.7,0-17.48,0-26.48,0
		c0-16.48,0-32.82,0-49.34c3.67,0,7.16,0,10.96,0c0.6,4.51,0.2,9.1,0.27,13.66c0.07,4.63,0.02,9.25,0.02,13.88
		C752.08,749.42,752.08,754.03,752.08,759.24z"/>
	<path class="st0" d="M496.81,724.75c-3.77,0-6.81,0-9.94,0c-1.16-2.29-0.35-4.46-0.59-6.96c2.53-0.8,5.18-0.87,7.81-0.77
		c2.6,0.1,5.18,0.17,7.78,0.1c5.19-0.16,10.53-0.58,15.61,0.8c2.16,2.68,1.52,4.54-0.86,6.52c-2.64,0.12-5.65,0.25-8.9,0.39
		c-0.54,3.39-0.4,6.83-0.31,10.25c0.1,3.51,0.02,7.03,0.04,10.55c0.04,6.97-0.05,13.94-0.12,20.91c-3.54,0-6.7,0-10.34,0
		C496.17,752.64,496.81,738.67,496.81,724.75z"/>
	<path class="st0" d="M549.26,643.87c5.79,1.36,11.5-1.01,16.69,2.25c0,1.34,0,2.67,0,4.33c-1.68,0.53-3.16,1.36-4.64,1.39
		c-7.19,0.14-14.38,0.06-21.83,0.06c-0.36-1.16-0.94-2.18-0.94-3.2c-0.08-14.73-0.1-29.46-0.1-44.19c0-0.6,0.26-1.19,0.46-2.02
		c3.25,0,6.38,0,9.97,0c0.26,1.68,0.72,3.34,0.73,5.01c0.05,10.34,0.02,20.68-0.02,31.02C549.57,640.2,549.38,641.88,549.26,643.87z
		"/>
	<path class="st0" d="M728,766.65c-3.64,0-6.81,0-10.24,0c0-16.4,0-32.7,0-49.43c3.21-0.24,6.49-0.17,10.23,0.02
		C728.27,733.66,728.14,749.94,728,766.65z"/>
	<path class="st0" d="M755.99,651.73c-3.41,0-6.26,0-9.5,0c-0.31-1.92-0.86-3.75-0.87-5.58c-0.06-13.52-0.02-27.03,0.01-40.55
		c0-0.92,0.2-1.84,0.33-3.01c3.27-0.7,6.39-0.28,9.94-0.33C756.27,618.78,756.15,635.07,755.99,651.73z"/>
	<path class="st0" d="M678.56,602.4c3.35,0,6.35,0,9.82,0c0.41,16.41,0.31,32.69,0.11,49.24c-3.18,0-6.02,0-9.1,0
		c-1.53-1.42-1.31-3.54-1.27-5.57c0.17-8.41,0.49-16.82,0.55-25.24c0.03-4.87-0.36-9.74-0.48-14.61
		C678.16,605,678.42,603.78,678.56,602.4z"/>
</g>
</svg>
