<?xml version="1.0" encoding="utf-8"?>
<!-- Generator: Adobe Illustrator 27.6.1, SVG Export Plug-In . SVG Version: 6.00 Build 0)  -->
<svg version="1.1" id="Layer_1" xmlns="http://www.w3.org/2000/svg" xmlns:xlink="http://www.w3.org/1999/xlink" x="0px" y="0px"
	 viewBox="0 0 1080 1080" style="enable-background:new 0 0 1080 1080;" xml:space="preserve">
<style type="text/css">
	.st0{fill:#747474;}
</style>
<g>
	<path class="st0" d="M953.55,896.34c6.55-19.97,11.75-40.29,15.85-60.89c3.96-19.88,6.69-39.93,8.16-60.13
		c1.55-21.23,2.05-42.5,0.51-63.74c-1.07-14.63-2.31-29.27-4.19-43.82c-1.73-13.39-4.41-26.66-6.7-40.11
		c-12.75-2.18-25.04-4.28-37.63-6.44c1.33-15.45,4.66-30.22,7.02-45.69c27.53,3.07,54.64,7.04,82.06,10.88
		c1.79,8.72,3.64,17.23,5.26,25.78c3.76,19.9,6.61,39.92,8.8,60.06c3.64,33.55,4.43,67.18,3.43,100.87
		c-0.62,21.01-2.36,41.94-4.85,62.82c-3.78,31.7-9.59,63-17.63,93.89c-1.62,6.24-3.36,12.45-5.1,18.65c-0.99,3.54-1.56,3.94-5.35,4
		c-17.22,0.31-34.43,0.67-51.65,0.88c-17.09,0.21-34.18,0.26-51.28,0.34c-1.62,0.01-3.23-0.33-5.13-0.54
		c-1.94-6.25-3.83-12.39-5.74-18.53c-11.38-36.64-25.18-72.34-41.47-107.09c-29.15-62.17-65.18-120.02-108.47-173.32
		c-6.86-8.45-13.98-16.69-21.15-24.89c-2.27-2.59-3.37-5.33-2.82-8.66c1.09-6.61,2.42-13.19,3.4-19.81
		c1.58-10.76,2.88-21.56,4.45-32.33c2.08-14.29,3.45-28.64,4.26-43.05c0.61-10.87,1.14-21.76,1.11-32.63
		c-0.06-17.59-0.31-35.2-1.06-52.77c-0.5-11.74-1.73-23.48-3.14-35.16c-1.9-15.69-3.97-31.38-6.55-46.97
		c-2.18-13.21-5.18-26.29-7.83-39.43c-0.07-0.37-0.28-0.71-0.35-1.08c-0.6-3.13,0.26-4.24,3.46-4.1c7.97,0.36,15.95,0.58,23.88,1.31
		c14.11,1.29,28.24,2.61,42.28,4.46c18.06,2.37,36.08,5.08,54.06,7.98c28.61,4.62,56.96,10.55,85.04,17.7
		c18.74,4.77,37.32,10.17,55.95,15.38c4.26,1.19,4.65,2.04,4.95,6.42c1.1,15.91,2.24,31.81,3.4,47.71
		c0.53,7.19,1.14,14.38,1.7,21.57c0.13,1.67,0,3.29-1.67,4.78c-58.85-21.61-119.53-36.14-182.37-42.84
		c-0.12,1.19-0.31,2.14-0.29,3.09c0.15,7.21,0.32,14.42,0.51,21.63c0.32,12.02,0.76,24.04,0.97,36.06
		c0.24,14.43,0.39,28.86,0.38,43.29c0,18.22-0.1,36.45-0.34,54.67c-0.13,10.12-0.48,20.25-0.98,30.36
		c-0.54,10.86-1.32,21.71-2.16,32.56c-0.16,2.05,0.76,3.31,1.8,4.75c11.24,15.46,22.78,30.7,33.62,46.44
		c43.71,63.49,79.69,131.18,109.02,202.43c3.22,7.83,6.39,15.68,9.59,23.52c0.22,0.21,0.43,0.42,0.65,0.63
		C953.33,896.93,953.44,896.63,953.55,896.34z"/>
	<path class="st0" d="M142.81,891.74c4.95-27.54,11.98-54.51,21.64-80.79c24.72-67.22,64.29-124.31,117.41-172.17
		c3.85-3.47,7.74-6.91,11.75-10.2c1.74-1.43,2.37-2.9,2.23-5.16c-0.89-14.51-1.67-29.03-2.41-43.55c-0.19-3.66-0.11-7.33-0.15-11
		c-0.02-0.51-0.03-1.01-0.05-1.52c-2.41-30.85-1.6-61.73-0.91-92.61c0.15-6.58-0.02-13.17,0.23-19.75
		c0.22-5.68,0.87-11.35,1.25-17.02c0.32-4.79,0.46-9.6,0.83-14.39c0.67-8.7,1.47-17.4,2.19-26.1c0.59-7.19,0.99-14.4,1.73-21.57
		c1.27-12.33,2.74-24.64,4.12-36.96c0.42-3.77,0.84-7.54,1.22-11.32c0.56-5.59,1.38-6.47,6.82-7.18c15.43-2,30.87-3.99,46.3-6.01
		c2.38-0.31,4.74-0.87,7.13-1c3.96-0.21,4.72,0.59,4.3,4.6c-0.31,2.88-1.17,5.7-1.53,8.58c-2.34,18.45-4.82,36.88-6.86,55.36
		c-3.56,32.23-5.13,64.59-4.93,97.02c0.08,13.67-0.02,27.35,0.6,41c0.72,15.8,1.95,31.58,3.34,47.33
		c1.04,11.84,2.63,23.64,4.08,35.44c0.7,5.65,1.43,11.3,2.56,16.87c1.05,5.17-0.56,9.01-4.27,12.55
		c-15.59,14.85-30.73,30.15-44.71,46.55c-35.65,41.81-66.22,86.95-89.02,137.09c-13.67,30.06-23.38,61.4-29.54,93.84
		c-2.17,11.44-4.47,22.84-5.2,34.49c-0.09,1.37-0.47,2.74-0.83,4.08c-0.23,0.83-0.68,1.6-1.08,2.49c-36.38,0-72.68,0-109.33,0
		c-1.45-4.84-2.92-9.65-4.34-14.47c-8.47-28.77-15.44-57.9-20.96-87.37c-3.94-21.01-7.04-42.16-9.45-63.41
		c-4.49-39.56-6.11-79.24-5.08-119.02c0.56-21.64,2.01-43.23,4.2-64.77c3.07-30.23,7.71-60.22,13.99-89.94
		c11.58-54.83,28.42-108.03,50.08-159.71c0.89-2.12,2.12-3.08,4.34-3.54c21.04-4.39,42.06-8.89,63.09-13.36
		c0.36-0.08,0.74-0.04,1.23-0.07c0.97,2.11-0.04,3.94-0.82,5.75c-7.68,17.9-14.71,36.05-21.07,54.46
		c-11.69,33.85-21.92,68.12-29.29,103.18c-4.36,20.78-8.4,41.65-11.81,62.61c-2.56,15.72-4.2,31.6-5.68,47.47
		c-1.47,15.74-3.27,31.45-3.87,47.28c-0.86,22.92-0.69,45.83,0.98,68.69c0.94,12.86,2.47,25.69,4.14,38.48
		c1.58,12.16,3.44,24.3,5.6,36.37c5.51,30.79,13.42,60.97,23.44,90.6c0.28,0.84,0.6,1.67,0.91,2.5c0.21,0.67,0.43,1.35,0.64,2.02
		c0.24-0.04,0.48-0.08,0.73-0.11C142.72,893.49,142.77,892.62,142.81,891.74z"/>
	<path class="st0" d="M540.12,626.91c-15.32,0-30.63-0.02-45.95,0.01c-20.63,0.04-41.27,0.12-61.9,0.2
		c-7.59,0.03-15.19,0.22-22.78,0.16c-12.79-0.1-24.43-9.67-26.7-22.25c-3.54-19.66-6.9-39.34-9.24-59.21
		c-4.13-35.04-5.03-70.17-4.08-105.36c0.44-16.42,1.71-32.85,3.35-49.21c1.59-15.97,4.02-31.86,6.31-47.75
		c0.94-6.5,2.39-12.93,3.78-19.35c0.85-3.92,3-7.24,5.81-10.06c6.27-6.31,13.82-9.53,22.8-9.51c57.35,0.1,114.69,0.19,172.04,0.21
		c28.86,0.01,57.72-0.18,86.59-0.23c11.8-0.02,20.58,5.5,26.61,15.37c1.68,2.75,2.98,5.97,3.51,9.13
		c3.48,20.83,6.9,41.67,9.18,62.68c3.45,31.89,4.48,63.84,3.95,95.89c-0.28,16.99-1.67,33.86-3.68,50.7
		c-1.59,13.31-3.36,26.6-5.44,39.83c-1.47,9.36-3.39,18.66-5.47,27.91c-2.82,12.55-14.28,21.1-28.05,21.15
		c-8.98,0.03-17.97-0.28-26.96-0.29c-28.61-0.04-57.22-0.02-85.83-0.02C552.02,626.91,546.07,626.91,540.12,626.91
		C540.12,626.91,540.12,626.91,540.12,626.91z M540.85,572.06c22.41,0,44.82-0.04,67.23,0.02c6.26,0.02,12.36-0.79,18.36-2.51
		c5.37-1.54,10.08-4.16,13.29-8.89c2.93-4.32,5.26-8.97,6.44-14.08c3.85-16.69,6.15-33.6,6.24-50.75
		c0.11-21.52,0.04-43.04,0.01-64.56c0-1.77-0.14-3.54-0.34-5.29c-1.09-9.43-2.14-18.86-3.36-28.26c-0.88-6.78-2.23-13.47-4.82-19.85
		c-3.15-7.75-8.61-12.95-16.6-15.5c-6.09-1.94-12.33-2.63-18.71-2.63c-44.57,0.01-89.14-0.07-133.71-0.01
		c-4.41,0.01-8.85,0.44-13.22,1.07c-12.46,1.8-20.79,8.62-24.5,20.79c-0.44,1.45-0.76,2.93-1.13,4.4
		c-4.47,17.93-5.62,36.23-5.76,54.6c-0.14,19.75-0.06,39.49,0,59.24c0.01,3.02,0.27,6.06,0.62,9.06c1.19,10.17,2.2,20.37,3.85,30.47
		c0.86,5.31,2.46,10.62,4.5,15.61c3.32,8.12,9.6,13.17,18.24,15.13c5.32,1.2,10.66,1.99,16.15,1.97
		C496.03,572.01,518.44,572.06,540.85,572.06z"/>
	<path class="st0" d="M813.71,267.28c-1,4.55-1.99,9.1-3.04,13.91c-1.35-0.14-2.54-0.26-4.21-0.43c2.13-9.08,4.18-17.86,6.3-26.89
		c1.46,0.21,2.65,0.39,3.94,0.58c0.15,5.38,0.3,10.54,0.44,15.7c-0.05,0.82-0.1,1.64-0.14,2.46c0.24,0.01,0.49,0.01,0.73,0.02
		c0.17-0.78,0.34-1.56,0.51-2.33c1.52-4.92,3.05-9.84,4.67-15.06c1.3,0.19,2.48,0.35,4.01,0.57c-0.38,9.21-0.75,18.22-1.13,27.53
		c-1.49-0.17-2.68-0.31-4.11-0.47c0.22-4.89,0.43-9.51,0.63-14.14c0.17-0.81,0.33-1.61,0.5-2.42c-0.3-0.06-0.61-0.12-0.91-0.17
		c-0.19,0.89-0.38,1.79-0.57,2.68c-1.35,4.43-2.7,8.86-3.99,13.12c-2.32,0.43-2.42-0.86-2.46-2.2c-0.12-4.16-0.24-8.32-0.36-12.49
		c0.03-0.64,0.05-1.28,0.08-1.91c-0.32,0.52-0.64,1.04-0.94,1.57C813.61,267.01,813.69,267.16,813.71,267.28z"/>
	<path class="st0" d="M222.33,258.74c1.73-0.22,3.06-0.38,4.72-0.59c0.82,6.17,1.58,12.03,2.39,17.89c0.22,1.62,0.4,3.3,0.99,4.81
		c0.27,0.71,1.51,1.53,2.2,1.45c0.64-0.08,1.62-1.3,1.62-2.01c0-2.52-0.3-5.04-0.59-7.55c-0.58-4.88-1.23-9.76-1.89-15
		c1.52-0.16,2.84-0.31,4.64-0.5c0.43,2.98,0.87,5.79,1.24,8.61c0.5,3.89,0.96,7.78,1.42,11.67c0.54,4.52-1.12,6.97-5.25,7.75
		c-4.49,0.85-7.79-0.98-8.52-5.3C224.11,273.01,223.32,265.99,222.33,258.74z"/>
	<path class="st0" d="M924.84,289.03c0.77,4.53,1.46,8.61,2.25,13.27c-1.66-0.33-2.93-0.59-4.34-0.87
		c-0.69-4.06-1.35-7.98-2.01-11.91c-0.19-0.02-0.38-0.03-0.57-0.05c-0.83,3.4-1.65,6.79-2.56,10.56c-1.19-0.14-2.36-0.28-4.1-0.49
		c1.98-9.16,3.89-17.96,5.89-27.18c2.77,0.71,5.25,1.14,7.58,1.99c2.58,0.94,3.92,3.22,3.63,6.03
		C930.2,284.13,929.25,287.67,924.84,289.03z M923.26,276.22c-0.32,0.73-0.59,1.16-0.69,1.63c-0.53,2.41-1.01,4.83-1.51,7.26
		c3.17,0.42,4.01-0.07,4.83-2.69C926.86,279.28,926.31,277.84,923.26,276.22z"/>
	<path class="st0" d="M515.38,253.37c-0.2,3.54-0.13,6.09-0.53,8.57c-0.85,5.27-5.13,7.68-10.13,5.89
		c-2.42-0.87-3.54-2.87-3.92-5.19c-0.94-5.65-0.94-11.34,0.07-16.97c0.68-3.83,3.12-5.65,6.93-5.63c3.81,0.02,5.93,1.53,6.69,5.32
		C515.06,248.31,515.17,251.36,515.38,253.37z M504.05,253.75c0.18,2.82,0.25,5.34,0.54,7.84c0.19,1.67,0.79,3.24,2.86,3.44
		c1.75,0.17,3.31-0.88,3.42-3.25c0.25-5.13,0.12-10.28-0.06-15.42c-0.06-1.75-1.15-3.2-3.13-3.14c-1.96,0.06-2.85,1.57-3.07,3.29
		C504.29,249.02,504.21,251.54,504.05,253.75z"/>
	<path class="st0" d="M715.82,250.39c-1.29,0.36-2.45,0.68-3.83,1.07c-0.37-1.02-0.5-1.93-0.98-2.58c-0.47-0.63-1.31-1.36-1.98-1.36
		c-0.69,0-1.64,0.7-2.01,1.35c-0.54,0.96-0.88,2.14-0.93,3.25c-0.19,4.67-0.24,9.35-0.33,14.03c-0.01,0.37-0.03,0.85,0.18,1.11
		c0.52,0.64,1.19,1.67,1.76,1.65c0.82-0.03,2.06-0.71,2.31-1.4c0.64-1.75,0.82-3.66,1.13-5.23c-0.66-1.64-4.46-0.82-2.39-3.77
		c2.11,0,4.21,0,6.53,0c0.2,3.4,0.09,6.5-1.04,9.47c-1.2,3.15-3.26,4.25-6.93,3.97c-3.07-0.23-4.84-1.56-5.46-4.81
		c-0.49-2.58-0.66-5.28-0.53-7.91c0.17-3.39,0.53-6.82,1.29-10.13c0.72-3.15,2.96-4.55,6.13-4.64c3.15-0.09,5.65,1.31,6.77,3.92
		C715.75,248.9,715.71,249.56,715.82,250.39z"/>
	<path class="st0" d="M184.06,291.29c-1.64,0.31-2.96,0.56-4.5,0.84c-0.76-1.68-1.47-3.25-2.28-5.04c-1.08,0.08-2.17,0.16-3.55,0.26
		c-0.15,1.89-0.29,3.61-0.44,5.53c-1.37,0.29-2.68,0.57-4.46,0.95c0.28-9.37,0.55-18.42,0.82-27.8c0.98-0.31,1.98-0.63,3.27-1.03
		C176.67,273.84,180.3,282.42,184.06,291.29z M173.43,279.56c0,1.58,0,3.17,0,5.13c1.22-0.35,1.97-0.56,2.84-0.8
		c-0.59-1.65-1.09-3.05-1.59-4.44c-0.29-0.64-0.59-1.29-0.88-1.93c-0.2,0.08-0.4,0.17-0.6,0.25
		C173.28,278.36,173.35,278.96,173.43,279.56z"/>
	<path class="st0" d="M119.79,289.94c0-5.04,0-10.08,0-15.58c0.98-0.17,2.29-0.4,3.8-0.66c0.9,3.11,0.25,6.11,0.32,9.06
		c0.07,3.15-0.05,6.31-0.07,9.47c-0.02,3.03,0,6.05,0,9.37c-1.15,0.3-2.18,0.56-3.52,0.91c-4.39-8.48-8.7-16.8-13.03-25.17
		c0.67-0.4,0.96-0.68,1.3-0.75c0.98-0.19,1.98-0.28,3.3-0.46c2.21,4.66,4.41,9.3,6.61,13.94c0.31,0.67,0.61,1.33,0.92,2
		c0.17-0.05,0.34-0.11,0.51-0.16C119.88,291.25,119.84,290.6,119.79,289.94z"/>
	<path class="st0" d="M768.36,276.48c-1.76-0.19-2.85-0.31-4.11-0.45c-0.29-1.86-0.56-3.57-0.86-5.48c-1.04-0.08-2-0.15-3.1-0.23
		c-0.54,1.66-1.04,3.2-1.67,5.14c-1.19-0.07-2.48-0.14-4.22-0.25c2.73-9.17,5.33-17.93,7.94-26.73c1.05,0,1.88,0,3.05,0
		C766.38,257.73,767.34,266.82,768.36,276.48z M763.43,261.32c-0.14-0.42-0.28-0.84-0.42-1.26c-0.29,0.41-0.57,0.83-0.86,1.24
		c-0.01,0.48-0.03,0.97-0.04,1.45c-0.32,1.41-0.63,2.82-1,4.47c0.83,0.07,1.39,0.11,2.37,0.19c-0.1-1.64-0.19-3.08-0.28-4.52
		C763.27,262.38,763.35,261.85,763.43,261.32z"/>
	<path class="st0" d="M871.86,275.39c2.04,0.51,3.5,0.87,5.23,1.3c-0.17,0.83-0.33,1.59-0.5,2.42c-1.84-0.18-3.43-0.33-5.29-0.51
		c-0.56,3.04-1.07,5.86-1.63,8.9c1.77,0.49,3.31,0.91,5.13,1.41c-0.15,0.77-0.3,1.54-0.5,2.54c-3.07-0.53-5.91-1.02-9.21-1.58
		c1.06-9.13,3.13-18.01,4.59-27.29c3.52,0.66,6.58,1.23,9.8,1.83c-0.2,0.99-0.35,1.71-0.53,2.56c-1.7-0.19-3.3-0.37-5.43-0.62
		C872.97,269.31,872.44,272.21,871.86,275.39z"/>
	<path class="st0" d="M340.49,254.21c-1.8-0.13-3.04-0.22-4.46-0.33c-0.05-0.84-0.1-1.54-0.17-2.74c4.43,0,8.7-0.05,12.97,0.03
		c1.44,0.02,1.47,1.03,0.98,2.41c-1.23,0.13-2.55,0.27-4.1,0.44c0,8.14,0,16.15,0,24.42c-1.54,0-2.85,0-4.5,0
		C340.97,270.47,340.73,262.45,340.49,254.21z"/>
	<path class="st0" d="M979,290.68c-0.35-0.16-0.73-0.25-1.02-0.47c-1.68-1.28-3.51-1.76-5.15-0.21c-1.55,1.47-2.1,3.48-1.36,5.55
		c0.59,1.65,1.71,3.13,2.22,4.8c0.61,2.01,1.29,4.18,1.11,6.21c-0.5,5.38-6.63,7.71-10.91,4.37c-1.14-0.89-1.75-1.81-0.67-3.11
		c0.27,0,0.59-0.1,0.73,0.02c1.59,1.29,3.27,2.01,5.16,0.67c1.6-1.14,2.54-4.57,1.7-6.58c-0.62-1.51-1.65-2.85-2.24-4.37
		c-0.63-1.61-1.28-3.33-1.34-5.02c-0.1-2.7,1.15-4.94,3.71-6.1c2.49-1.13,4.96-0.69,7.22,0.76
		C979.55,288.07,979.53,288.2,979,290.68z"/>
	<path class="st0" d="M289.68,277.15c2,1.86,5.47-1.35,6.59,3.07c-3.84,0.28-7.29,0.53-11.05,0.81c-0.7-9.29-1.38-18.18-2.07-27.32
		c1.59-0.22,2.92-0.41,4.69-0.66C288.47,261.26,289.08,269.26,289.68,277.15z"/>
	<path class="st0" d="M552.12,240.8c-0.06,1.02-0.1,1.74-0.16,2.64c-2.03,0.13-3.88,0.24-5.94,0.37c0,2.74,0,5.33,0,8.15
		c1.69,0.13,3.29,0.24,5.12,0.38c0.1,0.82,0.2,1.62,0.32,2.66c-1.9,0.18-3.59,0.33-5.58,0.52c0,4.03,0,7.91,0,12.05
		c-1.2,0.15-2.12,0.26-2.86,0.35c-0.99-0.95-1.24-19.85-0.54-27.12C545.54,240.8,548.62,240.8,552.12,240.8z"/>
	<path class="st0" d="M821.33,268.83c0.19-0.89,0.38-1.79,0.57-2.68c0.3,0.06,0.61,0.12,0.91,0.17c-0.17,0.81-0.33,1.61-0.5,2.42
		C821.98,268.77,821.65,268.8,821.33,268.83z"/>
	<path class="st0" d="M818.24,270.3c-0.17,0.78-0.34,1.56-0.51,2.33c-0.24-0.01-0.49-0.01-0.73-0.02c0.05-0.82,0.1-1.64,0.14-2.46
		C817.51,270.2,817.87,270.25,818.24,270.3z"/>
	<path class="st0" d="M142.81,891.74c-0.04,0.88-0.09,1.76-0.13,2.63c-0.24,0.04-0.48,0.08-0.73,0.11
		c-0.21-0.67-0.43-1.35-0.64-2.02C141.81,892.22,142.31,891.98,142.81,891.74z"/>
	<path class="st0" d="M813.71,267.28c-0.02-0.12-0.1-0.28-0.06-0.36c0.3-0.53,0.62-1.05,0.94-1.57c-0.03,0.64-0.05,1.28-0.08,1.91
		C814.25,267.27,813.98,267.28,813.71,267.28z"/>
	<path class="st0" d="M119.79,289.94c0.04,0.65,0.08,1.31,0.13,1.96c-0.17,0.05-0.34,0.11-0.51,0.16c-0.31-0.67-0.61-1.33-0.92-2
		C118.93,290.03,119.36,289.99,119.79,289.94z"/>
	<path class="st0" d="M293.23,567.35c0.02,0.51,0.03,1.01,0.05,1.52C293.26,568.36,293.24,567.85,293.23,567.35z"/>
	<path class="st0" d="M953.55,896.34c-0.11,0.29-0.22,0.59-0.33,0.88c-0.22-0.21-0.43-0.42-0.65-0.63
		C952.9,896.5,953.23,896.42,953.55,896.34z"/>
	<path class="st0" d="M923.26,276.22c3.05,1.61,3.61,3.06,2.63,6.19c-0.82,2.62-1.66,3.11-4.83,2.69c0.5-2.43,0.99-4.85,1.51-7.26
		C922.67,277.38,922.94,276.95,923.26,276.22z"/>
	<path class="st0" d="M174.68,279.45c0.5,1.39,1,2.79,1.59,4.44c-0.88,0.25-1.62,0.46-2.84,0.8c0-1.96,0-3.55,0-5.13
		C173.85,279.52,174.27,279.48,174.68,279.45z"/>
	<path class="st0" d="M174.68,279.45c-0.42,0.04-0.84,0.07-1.25,0.11c-0.08-0.6-0.15-1.19-0.23-1.79c0.2-0.08,0.4-0.17,0.6-0.25
		C174.1,278.16,174.39,278.8,174.68,279.45z"/>
	<path class="st0" d="M763.19,262.9c0.09,1.44,0.18,2.88,0.28,4.52c-0.98-0.08-1.54-0.13-2.37-0.19c0.37-1.64,0.69-3.05,1-4.47
		C762.46,262.81,762.83,262.85,763.19,262.9z"/>
	<path class="st0" d="M763.19,262.9c-0.36-0.05-0.72-0.09-1.09-0.14c0.01-0.48,0.03-0.97,0.04-1.45c0.43,0.01,0.86,0.01,1.28,0.02
		C763.35,261.85,763.27,262.38,763.19,262.9z"/>
	<path class="st0" d="M763.43,261.32c-0.43-0.01-0.86-0.01-1.28-0.02c0.29-0.41,0.57-0.83,0.86-1.24
		C763.14,260.48,763.29,260.9,763.43,261.32z"/>
</g>
</svg>
