<svg width="14" height="14" viewBox="0 0 14 14" fill="none" xmlns="http://www.w3.org/2000/svg">
<path d="M2.5 0.5V4.5M0.5 2.5H4.5M2.5 10.5V13.5M1 12H4M6.49228 5.66924L5.34605 6.05132C4.16944 6.44352 3.58114 6.63962 3.58114 7C3.58114 7.36038 4.16944 7.55648 5.34605 7.94868L6.49228 8.33076C6.74082 8.41361 6.86509 8.45503 6.95125 8.54611C7.03742 8.6372 7.07188 8.76357 7.14082 9.01633L7.53524 10.4625C7.92381 11.8873 8.1181 12.5997 8.5 12.5997C8.8819 12.5997 9.07619 11.8873 9.46476 10.4625L9.85918 9.01633C9.92812 8.76357 9.96258 8.6372 10.0487 8.54611C10.1349 8.45503 10.2592 8.41361 10.5077 8.33076L11.6539 7.94868C12.8306 7.55648 13.4189 7.36038 13.4189 7C13.4189 6.63962 12.8306 6.44352 11.654 6.05132L10.5077 5.66924C10.2592 5.58639 10.1349 5.54497 10.0487 5.45389C9.96258 5.3628 9.92812 5.23643 9.85918 4.98367L9.46476 3.53747C9.07619 2.11268 8.8819 1.40029 8.5 1.40029C8.1181 1.40029 7.92381 2.11268 7.53524 3.53747L7.14082 4.98367C7.07188 5.23643 7.03742 5.3628 6.95125 5.45389C6.86509 5.54497 6.74082 5.58639 6.49228 5.66924Z" stroke="#54AF33" stroke-linecap="round" stroke-linejoin="round"/>
</svg>
