<svg width="14" height="14" viewBox="0 0 14 14" fill="none" xmlns="http://www.w3.org/2000/svg">
<path d="M0.5 10C0.5 9.05719 0.5 8.58579 0.792893 8.29289C1.08579 8 1.55719 8 2.5 8H4C4.94281 8 5.41421 8 5.70711 8.29289C6 8.58579 6 9.05719 6 10V11.5C6 12.4428 6 12.9142 5.70711 13.2071C5.41421 13.5 4.94281 13.5 4 13.5H2.5C1.55719 13.5 1.08579 13.5 0.792893 13.2071C0.5 12.9142 0.5 12.4428 0.5 11.5V10Z" stroke="#54AF33" stroke-linecap="round" stroke-linejoin="round"/>
<path d="M0.5 2.5C0.5 1.55719 0.5 1.08579 0.792893 0.792893C1.08579 0.5 1.55719 0.5 2.5 0.5H11.5C12.4428 0.5 12.9142 0.5 13.2071 0.792893C13.5 1.08579 13.5 1.55719 13.5 2.5V3.5C13.5 4.44281 13.5 4.91421 13.2071 5.20711C12.9142 5.5 12.4428 5.5 11.5 5.5H2.5C1.55719 5.5 1.08579 5.5 0.792893 5.20711C0.5 4.91421 0.5 4.44281 0.5 3.5V2.5Z" stroke="#54AF33" stroke-linecap="round" stroke-linejoin="round"/>
<path d="M8 10C8 9.05719 8 8.58579 8.29289 8.29289C8.58579 8 9.05719 8 10 8H11.5C12.4428 8 12.9142 8 13.2071 8.29289C13.5 8.58579 13.5 9.05719 13.5 10V11.5C13.5 12.4428 13.5 12.9142 13.2071 13.2071C12.9142 13.5 12.4428 13.5 11.5 13.5H10C9.05719 13.5 8.58579 13.5 8.29289 13.2071C8 12.9142 8 12.4428 8 11.5V10Z" stroke="#54AF33" stroke-linecap="round" stroke-linejoin="round"/>
</svg>
