<svg width="14" height="14" viewBox="0 0 14 14" fill="none" xmlns="http://www.w3.org/2000/svg">
<path d="M3 11H2.5C1.55719 11 1.08579 11 0.792894 10.7071C0.5 10.4142 0.500001 9.94281 0.500002 9L0.500006 3C0.500007 2.05719 0.500008 1.58579 0.792901 1.29289C1.08579 1 1.5572 1 2.50001 1H11.5C12.4428 1 12.9142 1 13.2071 1.29289C13.5 1.58579 13.5 2.05719 13.5 3V9C13.5 9.94281 13.5 10.4142 13.2071 10.7071C12.9142 11 12.4428 11 11.5 11H11" stroke="#54AF33" stroke-linecap="round"/>
<path d="M5.8 10.6C6.1611 10.1185 6.34164 9.87781 6.55279 9.77224C6.83432 9.63148 7.16569 9.63148 7.44722 9.77224C7.65836 9.87781 7.83891 10.1185 8.2 10.6V10.6C8.71363 11.2848 8.97045 11.6273 8.99596 11.9102C9.02998 12.2874 8.84794 12.6515 8.52573 12.8507C8.28408 13 7.85605 13 7 13V13C6.14395 13 5.71592 13 5.47427 12.8507C5.15207 12.6515 4.97003 12.2874 5.00404 11.9102C5.02955 11.6273 5.28637 11.2848 5.8 10.6V10.6Z" stroke="#54AF33"/>
</svg>
