<svg width="14" height="14" viewBox="0 0 14 14" fill="none" xmlns="http://www.w3.org/2000/svg">
<path d="M0.5 0.5V11.5C0.5 12.4428 0.5 12.9142 0.792893 13.2071C1.08579 13.5 1.55719 13.5 2.5 13.5H13.5M3 10.5L3.3286 9.51421C3.61927 8.6422 3.7646 8.2062 4.07957 8.16872C4.39453 8.13125 4.63811 8.52098 5.12528 9.30044L5.2282 9.46511C5.7699 10.3318 6.04075 10.7652 6.36961 10.7109C6.69846 10.6565 6.81551 10.1591 7.04961 9.16415L7.936 5.39698C8.1754 4.37955 8.2951 3.87083 8.62769 3.81898C8.96027 3.76712 9.22915 4.21526 9.76691 5.11152L10.1958 5.82638C10.7473 6.74543 11.023 7.20495 11.3586 7.14918C11.6943 7.09341 11.8066 6.56941 12.0311 5.52142L13 1" stroke="#54AF33" stroke-linecap="round" stroke-linejoin="round"/>
</svg>
