<svg width="12" height="14" viewBox="0 0 12 14" fill="none" xmlns="http://www.w3.org/2000/svg">
<path d="M1 3.98247C1 3.18263 1 2.78271 1.12336 2.44795C1.27862 2.02661 1.57115 1.66979 1.95385 1.43491C2.25792 1.24829 2.65008 1.16986 3.43438 1.013L4.8233 0.735218C5.40973 0.617932 5.70294 0.55929 6 0.55929C6.29706 0.55929 6.59027 0.617932 7.1767 0.735217L8.56562 1.013C9.34992 1.16986 9.74208 1.24829 10.0462 1.43491C10.4289 1.66979 10.7214 2.02661 10.8766 2.44794C11 2.78271 11 3.18263 11 3.98247V4.5903C11 5.66771 11 6.20641 10.9326 6.72224C10.75 8.12026 10.2012 9.44519 9.34179 10.5628C9.02468 10.9752 8.64375 11.3562 7.88191 12.118V12.118C7.44698 12.5529 7.22951 12.7704 7.00356 12.9014C6.38295 13.2615 5.61705 13.2615 4.99644 12.9014C4.7705 12.7704 4.55303 12.5529 4.11809 12.118V12.118C3.35622 11.3561 2.97529 10.9752 2.65817 10.5628C1.79876 9.44513 1.24997 8.12023 1.06738 6.72225C1 6.2064 1 5.66768 1 4.59024V3.98247Z" stroke="#54AF33"/>
</svg>
